<svg xmlns="http://www.w3.org/2000/svg" xmlns:xlink="http://www.w3.org/1999/xlink" xmlns:ifc="http://www.ifcopenshell.org/ns" width="190mm" height="169.997mm" viewBox="0 0 190 169.997">
    <defs>
        <marker id="arrowend" markerWidth="10" markerHeight="7" refX="10" refY="3.5" orient="auto">
          <polygon points="0 0, 10 3.5, 0 7"/>
        </marker>
        <marker id="arrowstart" markerWidth="10" markerHeight="7" refX="0" refY="3.5" orient="auto">
          <polygon points="10 0, 0 3.5, 10 7"/>
        </marker>
    </defs>
    <g ifc:name="Elevation 3d samling s&#248;jler kipbj&#230;lke" class="section" ifc:plane="[[1.000000,0.000000,0.000000,0.000000],[0.000000,1.000000,0.000000,0.000000],[0.000000,0.000000,1.000000,0.000000],[0.000000,0.000000,0.000000,1.000000]]" ifc:matrix3="[[100.000001,0.000000,838.254316],[0.000000,100.000001,-410.413170],[0.000000,0.000000,1.000000]]">
        <g id="product-1b42096a-2984-49fd-9b0e-a1655e98b6ae" class="IfcMember material-wood projection" ifc:name="I-profil 45x400, normal sp&#230;r byg 1.012" ifc:guid="0RGWbgAOH9$PiEeMLUcBQk">
            <path d="M-189.671,77.3907 L-185.43,69.3346"/>
            <path d="M-181.111,74.2023 L-189.671,77.3907"/>
            <path d="M-164.41,66.0381 L-179.839,71.7855"/>
            <path d="M-181.111,74.2023 L-177.51,70.9177"/>
            <path d="M-179.839,71.7855 L-181.111,74.2023"/>
            <path d="M-185.43,69.3346 L-174.222,59.1133"/>
            <path d="M-185.43,69.3346 L-176.871,66.1462"/>
            <path d="M-176.871,66.1462 L-178.143,68.563"/>
            <path d="M-176.871,66.1462 L-171.012,60.8032"/>
            <path d="M-178.143,68.563 L-170.662,61.7412"/>
            <path d="M-178.143,68.563 L-166.173,64.1043"/>
            <path d="M21.8178,-119.657 L21.0624,-118.968"/>
            <path d="M3.81169,-103.237 L-174.222,59.1133"/>
            <path d="M5.0955,-99.7905 L-171.012,60.8032"/>
            <path d="M5.44491,-98.8525 L-170.662,61.7412"/>
            <path d="M13.4539,-77.3514 L-121.141,45.3874"/>
            <path d="M15.9024,-70.7781 L-116.822,50.2551"/>
            <path d="M14.7377,-73.9048 L-112.582,42.199"/>
            <path d="M-124.11,51.0267 L-125.382,53.4435"/>
            <path d="M-125.382,53.4435 L-116.822,50.2551"/>
            <path d="M-116.822,50.2551 L-112.582,42.199"/>
            <path d="M-121.141,45.3874 L-112.582,42.199"/>
            <path d="M-122.414,47.8042 L-121.141,45.3874"/>
            <path d="M-166.173,64.1043 L-122.414,47.8042"/>
            <path d="M-124.11,51.0267 L-164.41,66.0381"/>
            <path d="M21.8178,-119.657 L21.8179,-119.657"/>
            <path d="M21.8179,-116.94 L21.8178,-119.657"/>
            <path d="M143.294,-48.5794 L145.455,-47.4416"/>
            <path d="M21.8179,-119.657 L146.183,-54.1891"/>
            <path d="M21.8179,-119.454 L21.8179,-119.657"/>
            <path d="M21.8179,-116.94 L21.8179,-119.454"/>
            <path d="M22.6983,-114.576 L141.047,-52.2758"/>
            <path d="M23.0477,-113.638 L142.369,-50.8256"/>
            <path d="M112.013,-34.9847 L106.876,-33.0713"/>
            <path d="M110.691,-36.435 L112.013,-34.9847"/>
            <path d="M144.132,-48.8918 L110.691,-36.435"/>
            <path d="M145.455,-47.4416 L144.132,-48.8918"/>
            <path d="M150.591,-49.3548 L145.455,-47.4416"/>
            <path d="M146.183,-54.1891 L150.591,-49.3548"/>
            <path d="M141.047,-52.2758 L146.183,-54.1891"/>
            <path d="M142.369,-50.8256 L141.047,-52.2758"/>
            <path d="M108.927,-38.3687 L142.369,-50.8256"/>
            <path d="M107.605,-39.819 L108.927,-38.3687"/>
            <path d="M102.468,-37.9056 L107.605,-39.819"/>
            <path d="M28.5794,-81.4192 L107.605,-39.819"/>
            <path d="M29.7441,-73.6751 L106.876,-33.0713"/>
            <path d="M106.876,-33.0713 L102.468,-37.9056"/>
            <path d="M28.5794,-76.8019 L102.468,-37.9056"/>
        </g>
    <g id="product-b23ce50e-5780-4fc1-bd38-63153b062f42" class="IfcMember material-wood projection" ifc:name="I-profil 45x400, normal sp&#230;r byg 1.014" ifc:guid="2oFEKELu1FmRquOnKx1Yz2">
            <path d="M66.184,2.16595 L215.092,80.5535"/>
            <path d="M65.8346,1.22793 L214.742,79.6155"/>
            <path d="M64.9542,-1.13572 L64.9542,-3.64983"/>
            <path d="M64.9542,-3.64983 L64.9542,-3.85276"/>
            <path d="M64.9542,-3.85276 L217.952,76.6881"/>
            <path d="M72.8804,42.1292 L191.797,104.729"/>
            <path d="M71.7157,39.0024 L190.632,101.602"/>
            <path d="M71.7157,34.3851 L193.842,98.6745"/>
            <path d="M308.73,131.606 L306.569,130.468"/>
            <path d="M309.458,124.858 L217.952,76.6881"/>
            <path d="M304.322,126.771 L214.742,79.6155"/>
            <path d="M305.644,128.222 L215.092,80.5535"/>
            <path d="M270.88,139.228 L193.842,98.6745"/>
            <path d="M273.966,142.612 L275.288,144.063"/>
            <path d="M307.407,130.155 L273.966,142.612"/>
            <path d="M308.73,131.606 L307.407,130.155"/>
            <path d="M313.866,129.692 L308.73,131.606"/>
            <path d="M309.458,124.858 L313.866,129.692"/>
            <path d="M304.322,126.771 L309.458,124.858"/>
            <path d="M305.644,128.222 L304.322,126.771"/>
            <path d="M272.202,140.679 L305.644,128.222"/>
            <path d="M270.88,139.228 L272.202,140.679"/>
            <path d="M265.743,141.142 L270.88,139.228"/>
            <path d="M275.288,144.063 L270.151,145.976"/>
            <path d="M265.743,141.142 L190.632,101.602"/>
            <path d="M265.743,141.142 L270.151,145.976"/>
            <path d="M191.797,104.729 L270.151,145.976"/>
            <path d="M-249.572,310.91 L-236.129,308.319"/>
            <path d="M-235.78,309.257 L-236.129,308.319"/>
            <path d="M-235.78,309.257 L-229.359,308.019"/>
            <path d="M-236.595,307.068 L-236.944,306.13"/>
            <path d="M-250.038,309.659 L-249.572,310.91"/>
            <path d="M-250.038,309.659 L-250.038,289.266"/>
            <path d="M-250.038,309.659 L-236.595,307.068"/>
            <path d="M-250.038,289.266 L-250.388,288.328"/>
            <path d="M-250.038,289.266 L-127.526,177.546"/>
            <path d="M-250.388,283.711 L-131.085,174.918"/>
            <path d="M-250.388,288.328 L-250.388,283.711"/>
            <path d="M-250.388,288.328 L-127.875,176.608"/>
            <path d="M-229.359,308.019 L-102.6,192.426"/>
            <path d="M-230.524,304.893 L-229.359,308.019"/>
            <path d="M-230.524,304.893 L-103.765,189.3"/>
            <path d="M-235.895,305.928 L-230.524,304.893"/>
            <path d="M-235.895,305.928 L-236.944,306.13"/>
            <path d="M-236.944,306.13 L-106.975,187.61"/>
            <path d="M48.5812,16.9518 L-127.526,177.546"/>
            <path d="M48.2318,16.0138 L-127.875,176.608"/>
            <path d="M64.9542,-3.85272 L64.1987,-3.16384"/>
            <path d="M46.948,12.5673 L-131.085,174.918"/>
            <path d="M59.0388,45.0262 L-102.6,192.426"/>
            <path d="M56.5903,38.4529 L-106.975,187.61"/>
            <path d="M57.8741,41.8995 L-103.765,189.3"/>
            <path d="M64.9542,-3.85272 L64.9542,-3.85264"/>
            <path d="M64.9542,-1.13569 L64.9542,-3.85272"/>
        </g>
        <g id="product-49b7b687-b005-4497-8e33-7b6b20ff8741" class="IfcMember material-wood projection" ifc:name="I-profil 45x400, normal sp&#230;r byg 1.018" ifc:guid="19jxQ7i0L4buupUsiW$uT1">
            <path d="M136.42,208.092 L163.927,222.572"/>
            <path d="M173.321,227.517 L258.547,272.381"/>
            <path d="M130.889,175.873 L163.927,193.265"/>
            <path d="M173.321,198.21 L279.796,254.26"/>
            <path d="M130.539,174.934 L163.927,192.51"/>
            <path d="M173.321,197.455 L279.447,253.322"/>
            <path d="M129.659,172.571 L129.659,170.057"/>
            <path d="M129.659,170.057 L129.659,169.854"/>
            <path d="M129.659,169.854 L163.927,187.893"/>
            <path d="M173.321,192.838 L282.657,250.395"/>
            <path d="M136.42,212.709 L163.927,227.189"/>
            <path d="M173.321,232.134 L255.336,275.309"/>
            <path d="M137.585,215.836 L163.927,229.703"/>
            <path d="M173.321,234.648 L256.501,278.435"/>
            <path d="M446.231,339.016 L445.066,335.89"/>
            <path d="M446.231,343.634 L446.231,339.016"/>
            <path d="M445.882,363.042 L445.882,342.696"/>
            <path d="M445.416,341.445 L445.416,361.791"/>
            <path d="M445.416,341.445 L279.796,254.26"/>
            <path d="M445.066,340.507 L445.416,341.445"/>
            <path d="M445.066,335.89 L282.657,250.395"/>
            <path d="M445.066,340.507 L279.447,253.322"/>
            <path d="M445.066,335.89 L445.066,340.507"/>
            <path d="M446.231,343.634 L445.882,343.45"/>
            <path d="M445.882,342.696 L446.231,343.634"/>
            <path d="M431.557,363.457 L258.547,272.381"/>
            <path d="M432.722,366.584 L426.302,367.821"/>
            <path d="M432.373,365.646 L432.722,366.584"/>
            <path d="M445.882,363.042 L432.373,365.646"/>
            <path d="M445.416,361.791 L445.882,363.042"/>
            <path d="M431.907,364.395 L445.416,361.791"/>
            <path d="M431.557,363.457 L431.907,364.395"/>
            <path d="M425.137,364.694 L431.557,363.457"/>
            <path d="M426.302,367.821 L425.137,364.694"/>
            <path d="M425.137,364.694 L255.336,275.309"/>
            <path d="M256.501,278.435 L426.302,367.821"/>
            <path d="M-185.334,483.366 L-185.334,462.972"/>
            <path d="M-185.334,462.972 L-185.683,462.034"/>
            <path d="M-185.334,462.972 L-62.8213,351.252"/>
            <path d="M-185.683,457.417 L-66.3808,348.624"/>
            <path d="M-185.683,462.034 L-185.683,457.417"/>
            <path d="M-185.683,462.034 L-63.1707,350.314"/>
            <path d="M-184.868,484.617 L-171.425,482.025"/>
            <path d="M-171.075,482.963 L-171.425,482.025"/>
            <path d="M-171.075,482.963 L-164.655,481.726"/>
            <path d="M-171.891,480.775 L-172.24,479.837"/>
            <path d="M-185.334,483.366 L-171.891,480.775"/>
            <path d="M-185.334,483.366 L-184.868,484.617"/>
            <path d="M-171.19,479.634 L-165.82,478.599"/>
            <path d="M-171.19,479.634 L-172.24,479.837"/>
            <path d="M-172.24,479.837 L-42.2705,361.316"/>
            <path d="M-164.655,481.726 L-37.8957,366.133"/>
            <path d="M-165.82,478.599 L-164.655,481.726"/>
            <path d="M-165.82,478.599 L-39.0603,363.006"/>
            <path d="M123.743,218.733 L115.365,226.373"/>
            <path d="M105.972,234.939 L90.1309,249.384"/>
            <path d="M72.0439,265.878 L57.4097,279.223"/>
            <path d="M48.016,287.789 L-37.8957,366.133"/>
            <path d="M129.659,169.854 L129.659,169.854"/>
            <path d="M121.295,212.159 L115.365,217.567"/>
            <path d="M105.972,226.133 L90.1309,240.578"/>
            <path d="M72.0439,257.072 L57.4097,270.417"/>
            <path d="M48.016,278.983 L-42.2705,361.316"/>
            <path d="M122.579,215.606 L115.365,222.184"/>
            <path d="M105.972,230.75 L90.1309,245.195"/>
            <path d="M72.0439,261.689 L57.4097,275.034"/>
            <path d="M48.016,283.6 L-39.0603,363.006"/>
            <path d="M105.972,197.328 L90.1309,211.774"/>
            <path d="M72.0439,228.267 L57.4097,241.612"/>
            <path d="M48.016,250.178 L-62.8213,351.252"/>
            <path d="M129.659,172.571 L129.659,169.854"/>
            <path d="M105.972,196.072 L90.1309,210.517"/>
            <path d="M72.0439,227.011 L57.4097,240.356"/>
            <path d="M48.016,248.922 L-63.1707,350.314"/>
            <path d="M129.659,169.854 L128.903,170.543"/>
            <path d="M105.972,191.454 L90.1309,205.9"/>
            <path d="M72.0439,222.393 L57.4097,235.738"/>
            <path d="M48.016,244.305 L-66.3808,348.624"/>
        </g>
        <g id="product-467152f2-e003-4d1e-bcec-12220c6087d0" class="IfcMember material-wood projection" ifc:name="I-profil 45x400, normal sp&#230;r byg 1.013" ifc:guid="16SLBou0DD7hpi4Y8CO8VG">
            <path d="M44.6159,-55.7362 L193.524,22.6513"/>
            <path d="M44.2665,-56.6743 L193.174,21.7133"/>
            <path d="M43.386,-59.0379 L43.386,-61.552"/>
            <path d="M43.386,-61.552 L43.386,-61.7549"/>
            <path d="M43.386,-61.7549 L196.384,18.7859"/>
            <path d="M51.3122,-15.773 L170.228,46.8265"/>
            <path d="M50.1475,-18.8997 L169.064,43.6998"/>
            <path d="M50.1475,-23.5171 L172.274,40.7724"/>
            <path d="M227.092,42.0821 L224.931,40.9443"/>
            <path d="M227.82,35.3345 L196.384,18.7859"/>
            <path d="M222.684,37.2478 L193.174,21.7133"/>
            <path d="M224.007,38.6981 L193.524,22.6513"/>
            <path d="M189.242,49.7047 L172.274,40.7724"/>
            <path d="M192.328,53.0887 L193.651,54.5389"/>
            <path d="M225.77,40.6318 L192.328,53.0887"/>
            <path d="M227.092,42.0821 L225.77,40.6318"/>
            <path d="M232.229,40.1688 L227.092,42.0821"/>
            <path d="M227.82,35.3345 L232.229,40.1688"/>
            <path d="M222.684,37.2478 L227.82,35.3345"/>
            <path d="M224.007,38.6981 L222.684,37.2478"/>
            <path d="M190.565,51.1549 L224.007,38.6981"/>
            <path d="M189.242,49.7047 L190.565,51.1549"/>
            <path d="M184.105,51.618 L189.242,49.7047"/>
            <path d="M193.651,54.5389 L188.514,56.4523"/>
            <path d="M184.105,51.618 L169.064,43.6998"/>
            <path d="M184.105,51.618 L188.514,56.4523"/>
            <path d="M170.228,46.8265 L188.514,56.4523"/>
            <path d="M-200.948,196.991 L-199.676,194.574"/>
            <path d="M-268.206,226.577 L-263.965,218.521"/>
            <path d="M-259.646,223.389 L-268.206,226.577"/>
            <path d="M-202.644,200.213 L-258.374,220.972"/>
            <path d="M-203.917,202.63 L-202.644,200.213"/>
            <path d="M-195.357,199.442 L-203.917,202.63"/>
            <path d="M-256.677,217.75 L-200.948,196.991"/>
            <path d="M-255.405,215.333 L-256.677,217.75"/>
            <path d="M-256.677,217.75 L-149.094,119.643"/>
            <path d="M-255.405,215.333 L-149.443,118.705"/>
            <path d="M-263.965,218.521 L-152.654,117.015"/>
            <path d="M-263.965,218.521 L-255.405,215.333"/>
            <path d="M-259.646,223.389 L-256.044,220.104"/>
            <path d="M-258.374,220.972 L-259.646,223.389"/>
            <path d="M-191.116,191.385 L-195.357,199.442"/>
            <path d="M-195.357,199.442 L-124.168,134.524"/>
            <path d="M-199.676,194.574 L-128.543,129.708"/>
            <path d="M-199.676,194.574 L-191.116,191.385"/>
            <path d="M-191.116,191.385 L-125.333,131.397"/>
            <path d="M27.0131,-40.9504 L-149.094,119.643"/>
            <path d="M26.6637,-41.8884 L-149.443,118.705"/>
            <path d="M43.386,-61.7549 L42.6305,-61.066"/>
            <path d="M25.3798,-45.3349 L-152.654,117.015"/>
            <path d="M37.4706,-12.876 L-124.168,134.524"/>
            <path d="M35.0221,-19.4492 L-128.543,129.708"/>
            <path d="M36.3059,-16.0027 L-125.333,131.397"/>
            <path d="M43.386,-61.7549 L43.386,-61.7548"/>
            <path d="M43.386,-59.0379 L43.386,-61.7549"/>
        </g>
        <g id="product-51523f8a-cdbc-40d9-bdbb-65afe08d8670" class="IfcMember material-wood projection" ifc:name="I-profil 45x400, normal sp&#230;r byg 1.017" ifc:guid="1HKZ_ApRn0sRsxPQ$WZOPm">
            <path d="M115.365,150.46 L163.927,176.023"/>
            <path d="M173.321,180.968 L236.979,214.479"/>
            <path d="M115.365,121.152 L163.927,146.716"/>
            <path d="M173.321,151.661 L258.228,196.358"/>
            <path d="M115.365,120.398 L163.927,145.962"/>
            <path d="M173.321,150.907 L257.879,195.42"/>
            <path d="M115.365,115.781 L163.927,141.345"/>
            <path d="M173.321,146.29 L261.089,192.492"/>
            <path d="M115.365,155.077 L163.927,180.641"/>
            <path d="M173.321,185.586 L233.768,217.406"/>
            <path d="M116.017,157.934 L163.927,183.154"/>
            <path d="M173.321,188.099 L234.933,220.533"/>
            <path d="M424.663,281.114 L423.498,277.988"/>
            <path d="M424.663,285.731 L424.663,281.114"/>
            <path d="M424.313,305.14 L424.313,284.793"/>
            <path d="M423.848,283.543 L423.848,303.889"/>
            <path d="M423.848,283.543 L258.228,196.358"/>
            <path d="M423.498,282.605 L423.848,283.543"/>
            <path d="M423.498,277.988 L261.089,192.492"/>
            <path d="M423.498,282.605 L257.879,195.42"/>
            <path d="M423.498,277.988 L423.498,282.605"/>
            <path d="M424.663,285.731 L424.313,285.548"/>
            <path d="M424.313,284.793 L424.663,285.731"/>
            <path d="M409.989,305.555 L236.979,214.479"/>
            <path d="M411.154,308.681 L404.733,309.919"/>
            <path d="M410.804,307.743 L411.154,308.681"/>
            <path d="M424.313,305.14 L410.804,307.743"/>
            <path d="M423.848,303.889 L424.313,305.14"/>
            <path d="M410.339,306.493 L423.848,303.889"/>
            <path d="M409.989,305.555 L410.339,306.493"/>
            <path d="M403.569,306.792 L409.989,305.555"/>
            <path d="M404.733,309.919 L403.569,306.792"/>
            <path d="M403.569,306.792 L233.768,217.406"/>
            <path d="M234.933,220.533 L404.733,309.919"/>
            <path d="M-206.902,425.464 L-206.902,405.07"/>
            <path d="M-206.902,405.07 L-207.251,404.132"/>
            <path d="M-206.902,405.07 L-84.3895,293.35"/>
            <path d="M-207.251,399.515 L-87.949,290.722"/>
            <path d="M-207.251,404.132 L-207.251,399.515"/>
            <path d="M-207.251,404.132 L-84.7389,292.412"/>
            <path d="M-206.436,426.714 L-192.993,424.123"/>
            <path d="M-192.643,425.061 L-192.993,424.123"/>
            <path d="M-192.643,425.061 L-186.223,423.824"/>
            <path d="M-193.459,422.873 L-193.808,421.934"/>
            <path d="M-206.902,425.464 L-193.459,422.873"/>
            <path d="M-206.902,425.464 L-206.436,426.714"/>
            <path d="M-192.758,421.732 L-187.388,420.697"/>
            <path d="M-192.758,421.732 L-193.808,421.934"/>
            <path d="M-193.808,421.934 L-63.8387,303.414"/>
            <path d="M-186.223,423.824 L-59.4638,308.231"/>
            <path d="M-187.388,420.697 L-186.223,423.824"/>
            <path d="M-187.388,420.697 L-60.6285,305.104"/>
            <path d="M102.175,160.831 L90.1309,171.814"/>
            <path d="M72.0439,188.308 L57.4097,201.653"/>
            <path d="M48.016,210.219 L-59.4638,308.231"/>
            <path d="M99.7266,154.257 L90.1309,163.008"/>
            <path d="M72.0439,179.501 L57.4097,192.847"/>
            <path d="M48.016,201.413 L-63.8387,303.414"/>
            <path d="M101.01,157.704 L90.1309,167.625"/>
            <path d="M72.0439,184.119 L57.4097,197.464"/>
            <path d="M48.016,206.03 L-60.6285,305.104"/>
            <path d="M91.7176,132.756 L90.1309,134.203"/>
            <path d="M72.0439,150.697 L57.4097,164.042"/>
            <path d="M48.016,172.608 L-84.3895,293.35"/>
            <path d="M91.3682,131.818 L90.1309,132.946"/>
            <path d="M72.0439,149.44 L57.4097,162.785"/>
            <path d="M48.016,171.351 L-84.7389,292.412"/>
            <path d="M72.0439,144.823 L57.4097,158.168"/>
            <path d="M48.016,166.734 L-87.949,290.722"/>
        </g>
        <g id="product-279309b1-3095-4fef-954e-1215988165d1" class="IfcMember material-wood projection" ifc:name="I-profil 45x400, normal sp&#230;r byg 1.016" ifc:guid="0damcnC9LFxvLE4XMOWMNH">
            <path d="M87.7522,60.0681 L236.66,138.456"/>
            <path d="M87.4028,59.1301 L236.311,137.518"/>
            <path d="M86.5224,56.7664 L86.5224,54.2523"/>
            <path d="M86.5224,54.2523 L86.5224,54.0494"/>
            <path d="M86.5224,54.0494 L239.521,134.59"/>
            <path d="M94.4486,100.031 L105.972,106.097"/>
            <path d="M115.365,111.042 L163.927,136.606"/>
            <path d="M173.321,141.551 L213.365,162.631"/>
            <path d="M93.2839,96.9046 L105.972,103.584"/>
            <path d="M115.365,108.529 L163.927,134.092"/>
            <path d="M173.321,139.037 L212.2,159.504"/>
            <path d="M390.368,221.129 L388.206,219.992"/>
            <path d="M391.096,214.382 L239.521,134.59"/>
            <path d="M385.959,216.295 L236.311,137.518"/>
            <path d="M387.282,217.745 L236.66,138.456"/>
            <path d="M352.517,228.752 L334.505,219.27"/>
            <path d="M355.603,232.136 L356.926,233.586"/>
            <path d="M389.045,219.679 L355.603,232.136"/>
            <path d="M390.368,221.129 L389.045,219.679"/>
            <path d="M395.504,219.216 L390.368,221.129"/>
            <path d="M391.096,214.382 L395.504,219.216"/>
            <path d="M385.959,216.295 L391.096,214.382"/>
            <path d="M387.282,217.745 L385.959,216.295"/>
            <path d="M353.84,230.202 L387.282,217.745"/>
            <path d="M352.517,228.752 L353.84,230.202"/>
            <path d="M347.381,230.665 L352.517,228.752"/>
            <path d="M356.926,233.586 L351.789,235.5"/>
            <path d="M347.381,230.665 L212.2,159.504"/>
            <path d="M347.381,230.665 L351.789,235.5"/>
            <path d="M213.365,162.631 L351.789,235.5"/>
            <path d="M-228.004,368.812 L-214.561,366.221"/>
            <path d="M-214.212,367.159 L-214.561,366.221"/>
            <path d="M-214.212,367.159 L-207.791,365.922"/>
            <path d="M-215.027,364.97 L-215.376,364.032"/>
            <path d="M-228.47,367.561 L-228.004,368.812"/>
            <path d="M-228.47,367.561 L-228.47,347.168"/>
            <path d="M-228.47,367.561 L-215.027,364.97"/>
            <path d="M-228.47,347.168 L-228.82,346.23"/>
            <path d="M-228.47,347.168 L-105.958,235.448"/>
            <path d="M-228.82,341.613 L-109.517,232.82"/>
            <path d="M-228.82,346.23 L-228.82,341.613"/>
            <path d="M-228.82,346.23 L-106.307,234.51"/>
            <path d="M-207.791,365.922 L-81.032,250.329"/>
            <path d="M-208.956,362.795 L-207.791,365.922"/>
            <path d="M-208.956,362.795 L-82.1967,247.202"/>
            <path d="M-214.327,363.83 L-208.956,362.795"/>
            <path d="M-214.327,363.83 L-215.376,364.032"/>
            <path d="M-215.376,364.032 L-85.4069,245.512"/>
            <path d="M70.1494,74.854 L-105.958,235.448"/>
            <path d="M69.8,73.916 L-106.307,234.51"/>
            <path d="M86.5223,54.0495 L85.7669,54.7383"/>
            <path d="M68.5162,70.4694 L-109.517,232.82"/>
            <path d="M72.0439,110.737 L57.4097,124.082"/>
            <path d="M48.016,132.648 L-81.032,250.329"/>
            <path d="M72.0439,101.931 L57.4097,115.276"/>
            <path d="M48.016,123.842 L-85.4069,245.512"/>
            <path d="M72.0439,106.548 L57.4097,119.893"/>
            <path d="M48.016,128.46 L-82.1967,247.202"/>
            <path d="M86.5223,54.0495 L86.5224,54.0495"/>
            <path d="M86.5224,56.7665 L86.5223,54.0495"/>
        </g>
        <g id="product-6d234f31-6e07-4fc0-be59-56d5d17f5c42" class="IfcBeam material-woodStructural projection" ifc:name="Beam" ifc:guid="1j8qynRWTFmBvPLjNHVrn2">
            <path d="M-213.146,337.992 L71.4835,78.4355"/>
            <path d="M-213.146,342.413 L-213.146,337.992"/>
            <path d="M72.0437,79.2445 L72.0437,82.3455"/>
            <path d="M-208.099,355.962 L48.016,122.408"/>
            <path d="M57.4096,113.842 L72.0439,100.497"/>
            <path d="M-213.146,342.413 L72.0437,82.3455"/>
            <path d="M72.0437,82.3455 L72.0439,82.3461"/>
            <path d="M-213.146,342.413 L-208.099,355.962"/>
        </g>
        <g id="product-6c166d7d-d91b-4d01-829f-f9be908c7e64" class="IfcBeam material-woodStructural projection" ifc:name="Beam" ifc:guid="1i5crzsHjD0OAV_RwGZ7va">
            <path d="M-6.73262,-193.587 L28.9288,-97.8499"/>
            <path d="M39.9313,-68.3124 L50.497,-39.9478"/>
            <path d="M61.4995,-10.4103 L72.0651,17.9544"/>
            <path d="M83.0677,47.4919 L93.6333,75.8566"/>
            <path d="M104.636,105.394 L105.972,108.98"/>
            <path d="M126.204,163.296 L136.77,191.661"/>
            <path d="M147.772,221.198 L167.851,275.101"/>
            <path d="M169.894,280.587 L292.963,610.979"/>
            <path d="M292.963,610.979 L292.963,634.111"/>
            <path d="M2.50712,-145.65 L-6.73262,-193.587"/>
            <path d="M-6.73262,-193.587 L-21.2265,-193.587"/>
            <path d="M-21.2265,-193.587 L-11.9868,-145.65"/>
            <path d="M2.50712,-145.65 L85.3252,76.6846"/>
            <path d="M91.8895,94.3074 L105.972,132.112"/>
            <path d="M115.365,157.33 L292.963,634.111"/>
            <path d="M292.963,634.111 L279.44,636.718"/>
            <path d="M-11.9868,-145.65 L71.8022,79.2911"/>
            <path d="M90.1309,128.496 L105.972,171.022"/>
            <path d="M115.365,196.241 L279.44,636.718"/>
            <path d="M-11.9868,-145.65 L2.50712,-145.65"/>
        </g>
        <g id="product-61f8aaf9-380d-4069-be2d-0eea19686b3a" class="IfcBeam material-woodStructural projection" ifc:name="Beam" ifc:guid="1X_AhvE0r0QRuj3kePQ6iw">
            <path d="M72.0438,288.971 L72.0439,79.2447"/>
            <path d="M76.3905,287.352 L76.3906,78.4069"/>
            <path d="M77.0908,315.156 L81.4375,313.536"/>
            <path d="M81.4375,313.536 L76.3905,287.352"/>
            <path d="M76.3905,287.352 L72.0438,288.971"/>
            <path d="M72.0438,288.971 L77.0908,315.156"/>
        </g>
        <g id="product-41d91389-bad8-4d50-94c8-3eecfd5f9075" class="IfcBeam material-woodStructural projection" ifc:name="Beam" ifc:guid="11sHE9kjXDK9J8FkpzNv1r">
            <path d="M76.3905,287.352 L76.3906,78.4069"/>
            <path d="M80.7372,285.733 L80.7372,77.5691"/>
            <path d="M81.4375,313.536 L85.7842,311.917"/>
            <path d="M85.7842,311.917 L80.7372,285.733"/>
            <path d="M80.7372,285.733 L76.3905,287.352"/>
            <path d="M76.3905,287.352 L81.4375,313.536"/>
        </g>
        <g id="product-e470f145-a981-44c6-81b8-929f780fa998" class="IfcBeam material-woodStructural projection" ifc:name="Beam" ifc:guid="3aSF55gO54ne6uafzu3wcO">
            <path d="M80.7372,285.733 L80.7372,77.5691"/>
            <path d="M85.0839,284.114 L85.0839,79.8325"/>
            <path d="M90.1308,310.298 L90.1309,93.3816"/>
            <path d="M85.7842,311.917 L90.1308,310.298"/>
            <path d="M90.1308,310.298 L85.0839,284.114"/>
            <path d="M85.0839,284.114 L80.7372,285.733"/>
            <path d="M80.7372,285.733 L85.7842,311.917"/>
        </g>
        <g id="product-97629c14-16a5-46b5-a5cf-1f2c2ecdc8a4" class="IfcBeam material-woodStructural projection" ifc:name="Beam" ifc:guid="2NOfmK5gL6jQNF7omkpSYa">
            <path d="M331.441,220.412 L336.359,218.58"/>
            <path d="M336.359,218.58 L317.256,197.631"/>
            <path d="M312.338,199.463 L331.441,220.412"/>
            <path d="M331.441,220.412 L173.321,137.174"/>
            <path d="M163.927,132.229 L115.365,106.665"/>
            <path d="M105.972,101.72 L90.1308,93.3816"/>
            <path d="M90.1308,93.3816 L85.0839,79.8324"/>
            <path d="M317.256,197.631 L312.338,199.463"/>
            <path d="M312.338,199.463 L85.0839,79.8324"/>
            <path d="M85.0839,79.8324 L85.0839,76.7311"/>
            <path d="M317.256,197.631 L85.3252,75.5386"/>
        </g>
        <g id="product-1ceb742f-06c1-4972-b608-dc1c890d86ae" class="IfcBeam material-woodStructural projection" ifc:name="Beam" ifc:guid="0SwtGl1i59ShO8t1o93OQk">
            <path d="M57.4097,113.842 L57.4096,113.842"/>
            <path d="M57.4096,322.487 L57.4097,113.842"/>
            <path d="M53.063,324.106 L57.4096,322.487"/>
            <path d="M57.4096,322.487 L52.3627,296.302"/>
            <path d="M53.063,324.106 L48.016,297.921"/>
            <path d="M52.3627,296.302 L52.3627,100.293"/>
            <path d="M48.016,297.921 L48.0161,104.257"/>
            <path d="M48.016,297.921 L52.3627,296.302"/>
        </g>
        <g id="product-3ce28842-bd12-40e8-828b-441d192e70ca" class="IfcBeam material-woodStructural projection" ifc:name="Beam" ifc:guid="0yueX2lH90w8ABH1qPBd3A">
            <path d="M115.365,106.666 L110.318,93.1164"/>
            <path d="M115.365,300.899 L115.365,106.666"/>
            <path d="M111.018,302.518 L115.365,300.899"/>
            <path d="M115.365,300.899 L110.318,274.714"/>
            <path d="M111.018,302.518 L105.972,276.333"/>
            <path d="M110.318,274.714 L110.318,93.1164"/>
            <path d="M110.318,93.1164 L105.972,90.8282"/>
            <path d="M105.972,276.333 L105.972,90.8282"/>
            <path d="M105.972,276.333 L110.318,274.714"/>
        </g>
        <g id="product-8aa12d21-8c0b-4f34-99e1-f84b2f15ba0d" class="IfcBeam material-woodStructural projection" ifc:name="Beam" ifc:guid="2AeIqXZ0jFD9dX_4il5ReD">
            <path d="M173.321,137.174 L168.274,123.625"/>
            <path d="M173.321,279.311 L173.321,137.174"/>
            <path d="M168.974,280.93 L173.321,279.311"/>
            <path d="M173.321,279.311 L168.274,253.126"/>
            <path d="M168.974,280.93 L163.927,254.745"/>
            <path d="M168.274,253.126 L168.274,123.625"/>
            <path d="M168.274,123.625 L163.927,121.337"/>
            <path d="M163.927,254.745 L163.927,121.337"/>
            <path d="M163.927,254.745 L168.274,253.126"/>
        </g>
        <g id="product-8aa12d21-8c0b-4f34-99e1-f84b2f15ba0d-body" class="IfcBeam material-woodStructural cut" ifc:name="Beam" ifc:guid="2AeIqXZ0jFD9dX_4il5ReD">
            <path d="M168.974,280.93 L163.927,254.745 L168.274,253.126 L173.321,279.311 L168.974,280.93"/>
        </g>
        <g id="product-3ce28842-bd12-40e8-828b-441d192e70ca-body" class="IfcBeam material-woodStructural cut" ifc:name="Beam" ifc:guid="0yueX2lH90w8ABH1qPBd3A">
            <path d="M111.018,302.518 L105.972,276.333 L110.318,274.714 L115.365,300.899 L111.018,302.518"/>
        </g>
        <g id="product-1ceb742f-06c1-4972-b608-dc1c890d86ae-body" class="IfcBeam material-woodStructural cut" ifc:name="Beam" ifc:guid="0SwtGl1i59ShO8t1o93OQk">
            <path d="M53.063,324.106 L48.016,297.921 L52.3627,296.302 L57.4096,322.487 L53.063,324.106"/>
        </g>
        <g id="product-97629c14-16a5-46b5-a5cf-1f2c2ecdc8a4-body" class="IfcBeam material-woodStructural cut" ifc:name="Beam" ifc:guid="2NOfmK5gL6jQNF7omkpSYa">
            <path d="M317.256,197.631 L312.338,199.463 L331.441,220.412 L336.359,218.58 L317.256,197.631"/>
        </g>
        <g id="product-e470f145-a981-44c6-81b8-929f780fa998-body" class="IfcBeam material-woodStructural cut" ifc:name="Beam" ifc:guid="3aSF55gO54ne6uafzu3wcO">
            <path d="M85.7842,311.917 L90.1308,310.298 L85.0839,284.114 L80.7372,285.733 L85.7842,311.917"/>
        </g>
        <g id="product-41d91389-bad8-4d50-94c8-3eecfd5f9075-body" class="IfcBeam material-woodStructural cut" ifc:name="Beam" ifc:guid="11sHE9kjXDK9J8FkpzNv1r">
            <path d="M81.4375,313.536 L85.7842,311.917 L80.7372,285.733 L76.3905,287.352 L81.4375,313.536"/>
        </g>
        <g id="product-61f8aaf9-380d-4069-be2d-0eea19686b3a-body" class="IfcBeam material-woodStructural cut" ifc:name="Beam" ifc:guid="1X_AhvE0r0QRuj3kePQ6iw">
            <path d="M77.0908,315.156 L81.4375,313.536 L76.3905,287.352 L72.0438,288.971 L77.0908,315.156"/>
        </g>
        <g id="product-6c166d7d-d91b-4d01-829f-f9be908c7e64-body" class="IfcBeam material-woodStructural cut" ifc:name="Beam" ifc:guid="1i5crzsHjD0OAV_RwGZ7va">
            <path d="M-11.9868,-145.65 L2.50712,-145.65 L-6.73262,-193.587 L-21.2265,-193.587 L-11.9868,-145.65"/>
        </g>
        <g id="product-279309b1-3095-4fef-954e-1215988165d1-model" class="IfcMember material-wood cut" ifc:name="I-profil 45x400, normal sp&#230;r byg 1.016" ifc:guid="0damcnC9LFxvLE4XMOWMNH">
            <path d="M356.926,233.586 L351.789,235.5 L347.381,230.665 L352.517,228.752 L353.84,230.202 L387.282,217.745 L385.959,216.295 L391.096,214.382 L395.504,219.216 L390.368,221.129 L389.045,219.679 L355.603,232.136 L356.926,233.586"/>
        </g>
        <g id="product-467152f2-e003-4d1e-bcec-12220c6087d0-model" class="IfcMember material-wood cut" ifc:name="I-profil 45x400, normal sp&#230;r byg 1.013" ifc:guid="16SLBou0DD7hpi4Y8CO8VG">
            <path d="M-199.676,194.574 L-191.116,191.385 L-195.357,199.442 L-203.917,202.63 L-202.644,200.213 L-258.374,220.972 L-259.646,223.389 L-268.206,226.577 L-263.965,218.521 L-255.405,215.333 L-256.677,217.75 L-200.948,196.991 L-199.676,194.574 M193.651,54.539 L188.514,56.4523 L184.105,51.618 L189.242,49.7047 L190.565,51.1549 L224.007,38.6981 L222.684,37.2478 L227.82,35.3345 L232.229,40.1688 L227.092,42.0821 L225.77,40.6318 L192.328,53.0887 L193.651,54.539"/>
        </g>
        <g id="product-b23ce50e-5780-4fc1-bd38-63153b062f42-model" class="IfcMember material-wood cut" ifc:name="I-profil 45x400, normal sp&#230;r byg 1.014" ifc:guid="2oFEKELu1FmRquOnKx1Yz2">
            <path d="M275.288,144.063 L270.151,145.976 L265.743,141.142 L270.88,139.228 L272.202,140.679 L305.644,128.222 L304.322,126.771 L309.458,124.858 L313.866,129.692 L308.73,131.606 L307.407,130.155 L273.966,142.612 L275.288,144.063"/>
        </g>
        <g id="product-1b42096a-2984-49fd-9b0e-a1655e98b6ae-model" class="IfcMember material-wood cut" ifc:name="I-profil 45x400, normal sp&#230;r byg 1.012" ifc:guid="0RGWbgAOH9$PiEeMLUcBQk">
            <path d="M-124.11,51.0267 L-164.41,66.0381 L-179.839,71.7855 L-181.111,74.2023 L-189.671,77.3907 L-185.43,69.3346 L-176.871,66.1462 L-178.143,68.563 L-166.173,64.1043 L-122.414,47.8042 L-121.141,45.3874 L-112.582,42.199 L-116.822,50.2551 L-125.382,53.4435 L-124.11,51.0267 M-166.173,64.1043 L-164.41,66.0381 M106.876,-33.0713 L102.468,-37.9056 L107.605,-39.819 L108.927,-38.3687 L142.369,-50.8256 L141.047,-52.2758 L146.183,-54.1891 L150.591,-49.3548 L145.455,-47.4416 L144.132,-48.8918 L110.691,-36.4349 L112.013,-34.9847 L106.876,-33.0713"/>
        </g>
        </g>
</svg>