<svg xmlns="http://www.w3.org/2000/svg" xmlns:xlink="http://www.w3.org/1999/xlink" xmlns:ifc="http://www.ifcopenshell.org/ns" width="190mm" height="169.679mm" viewBox="0 0 190 169.679">
    <defs>
        <marker id="arrowend" markerWidth="10" markerHeight="7" refX="10" refY="3.5" orient="auto">
          <polygon points="0 0, 10 3.5, 0 7"/>
        </marker>
        <marker id="arrowstart" markerWidth="10" markerHeight="7" refX="0" refY="3.5" orient="auto">
          <polygon points="10 0, 0 3.5, 10 7"/>
        </marker>
    </defs>
    <g ifc:name="Elevation 3d samling s&#248;jler kipbj&#230;lke" class="section" ifc:plane="[[1.000000,0.000000,0.000000,0.000000],[0.000000,1.000000,0.000000,0.000000],[0.000000,0.000000,1.000000,0.000000],[0.000000,0.000000,0.000000,1.000000]]" ifc:matrix3="[[100.000001,0.000000,838.254316],[0.000000,100.000001,-410.571927],[0.000000,0.000000,1.000000]]">
        <g id="product-b23ce50e-5780-4fc1-bd38-63153b062f42" class="IfcMember material-wood projection" ifc:name="I-profil 45x400, normal sp&#230;r byg 1.014" ifc:guid="2oFEKELu1FmRquOnKx1Yz2">
            <path d="M72.0651,17.5526 L71.9807,17.5689"/>
            <path d="M72.0651,17.7955 L72.0651,17.5526"/>
            <path d="M66.184,2.00719 L215.092,80.3947"/>
            <path d="M65.8346,1.06918 L214.742,79.4567"/>
            <path d="M64.9542,-1.29447 L64.9542,-3.80859"/>
            <path d="M64.9542,-3.80859 L64.9542,-4.01151"/>
            <path d="M64.9542,-4.01151 L217.952,76.5294"/>
            <path d="M72.8804,41.9704 L191.797,104.57"/>
            <path d="M71.7157,34.2264 L193.842,98.5158"/>
            <path d="M71.7157,38.8437 L190.632,101.443"/>
            <path d="M308.73,131.447 L306.569,130.309"/>
            <path d="M309.458,124.699 L217.952,76.5294"/>
            <path d="M304.322,126.613 L214.742,79.4567"/>
            <path d="M305.644,128.063 L215.092,80.3947"/>
            <path d="M270.88,139.07 L193.842,98.5158"/>
            <path d="M273.966,142.454 L275.288,143.904"/>
            <path d="M307.407,129.997 L273.966,142.454"/>
            <path d="M308.73,131.447 L307.407,129.997"/>
            <path d="M313.866,129.534 L308.73,131.447"/>
            <path d="M309.458,124.699 L313.866,129.534"/>
            <path d="M304.322,126.613 L309.458,124.699"/>
            <path d="M305.644,128.063 L304.322,126.613"/>
            <path d="M272.202,140.52 L305.644,128.063"/>
            <path d="M270.88,139.07 L272.202,140.52"/>
            <path d="M265.743,140.983 L270.88,139.07"/>
            <path d="M275.288,143.904 L270.151,145.817"/>
            <path d="M265.743,140.983 L190.632,101.443"/>
            <path d="M265.743,140.983 L270.151,145.817"/>
            <path d="M191.797,104.57 L270.151,145.817"/>
            <path d="M-236.129,308.16 L-249.572,310.751"/>
            <path d="M-235.78,309.098 L-236.129,308.16"/>
            <path d="M-235.78,309.098 L-230.476,308.076"/>
            <path d="M-230.476,308.076 L-229.359,307.861"/>
            <path d="M-236.595,306.909 L-236.944,305.971"/>
            <path d="M-250.038,309.501 L-249.572,310.751"/>
            <path d="M-250.038,309.501 L-250.038,289.107"/>
            <path d="M-250.038,309.501 L-236.595,306.909"/>
            <path d="M-250.038,289.107 L-250.388,288.169"/>
            <path d="M-250.038,289.107 L-127.526,177.387"/>
            <path d="M-250.388,283.552 L-131.085,174.759"/>
            <path d="M-250.388,288.169 L-250.388,283.552"/>
            <path d="M-250.388,288.169 L-127.875,176.449"/>
            <path d="M-229.359,307.861 L-102.6,192.268"/>
            <path d="M-230.524,304.734 L-229.359,307.861"/>
            <path d="M-230.524,304.734 L-103.765,189.141"/>
            <path d="M-235.895,305.769 L-230.524,304.734"/>
            <path d="M-235.895,305.769 L-236.944,305.971"/>
            <path d="M-236.944,305.971 L-106.975,187.451"/>
            <path d="M48.2318,15.855 L-127.875,176.449"/>
            <path d="M64.9542,-4.01148 L64.1987,-3.32259"/>
            <path d="M46.948,12.4085 L-131.085,174.759"/>
            <path d="M59.0388,44.8674 L-102.6,192.268"/>
            <path d="M57.8741,41.7407 L-103.765,189.141"/>
            <path d="M56.5903,38.2942 L-106.975,187.451"/>
            <path d="M48.5812,16.7931 L-127.526,177.387"/>
            <path d="M64.9542,-1.29445 L64.9542,-4.01148"/>
            <path d="M64.9542,-4.01148 L64.9542,-4.0114"/>
        </g>
    <g id="product-51523f8a-cdbc-40d9-bdbb-65afe08d8670" class="IfcMember material-wood projection" ifc:name="I-profil 45x400, normal sp&#230;r byg 1.017" ifc:guid="1HKZ_ApRn0sRsxPQ$WZOPm">
            <path d="M115.365,120.994 L163.927,146.557"/>
            <path d="M173.321,151.502 L258.228,196.199"/>
            <path d="M115.365,120.24 L163.927,145.803"/>
            <path d="M173.321,150.748 L257.879,195.261"/>
            <path d="M115.365,115.622 L163.927,141.186"/>
            <path d="M173.321,146.131 L261.089,192.334"/>
            <path d="M116.017,157.775 L163.927,182.996"/>
            <path d="M173.321,187.941 L234.933,220.374"/>
            <path d="M115.365,150.301 L163.927,175.865"/>
            <path d="M173.321,180.81 L236.979,214.32"/>
            <path d="M115.365,154.918 L163.927,180.482"/>
            <path d="M173.321,185.427 L233.768,217.248"/>
            <path d="M424.663,280.955 L423.498,277.829"/>
            <path d="M424.663,285.573 L424.663,280.955"/>
            <path d="M424.313,304.981 L424.313,284.635"/>
            <path d="M423.848,283.384 L423.848,303.73"/>
            <path d="M423.848,283.384 L258.228,196.199"/>
            <path d="M423.498,282.446 L423.848,283.384"/>
            <path d="M423.498,277.829 L261.089,192.334"/>
            <path d="M423.498,282.446 L257.879,195.261"/>
            <path d="M423.498,277.829 L423.498,282.446"/>
            <path d="M424.663,285.573 L424.313,285.389"/>
            <path d="M424.313,284.635 L424.663,285.573"/>
            <path d="M409.989,305.396 L236.979,214.32"/>
            <path d="M411.154,308.523 L404.733,309.76"/>
            <path d="M410.804,307.585 L411.154,308.523"/>
            <path d="M424.313,304.981 L410.804,307.585"/>
            <path d="M423.848,303.73 L424.313,304.981"/>
            <path d="M410.339,306.334 L423.848,303.73"/>
            <path d="M409.989,305.396 L410.339,306.334"/>
            <path d="M403.569,306.633 L409.989,305.396"/>
            <path d="M404.733,309.76 L403.569,306.633"/>
            <path d="M403.569,306.633 L233.768,217.248"/>
            <path d="M234.933,220.374 L404.733,309.76"/>
            <path d="M-206.902,425.305 L-206.902,404.912"/>
            <path d="M-206.902,404.912 L-207.251,403.974"/>
            <path d="M-206.902,404.912 L-84.3895,293.191"/>
            <path d="M-207.251,399.356 L-87.949,290.563"/>
            <path d="M-207.251,403.974 L-207.251,399.356"/>
            <path d="M-207.251,403.974 L-84.7389,292.253"/>
            <path d="M-206.436,426.556 L-192.993,423.964"/>
            <path d="M-192.643,424.902 L-192.993,423.964"/>
            <path d="M-192.643,424.902 L-186.223,423.665"/>
            <path d="M-193.459,422.714 L-193.808,421.776"/>
            <path d="M-206.902,425.305 L-193.459,422.714"/>
            <path d="M-206.902,425.305 L-206.436,426.556"/>
            <path d="M-192.758,421.573 L-187.388,420.538"/>
            <path d="M-192.758,421.573 L-193.808,421.776"/>
            <path d="M-193.808,421.776 L-63.8387,303.255"/>
            <path d="M-186.223,423.665 L-59.4638,308.072"/>
            <path d="M-187.388,420.538 L-186.223,423.665"/>
            <path d="M-187.388,420.538 L-60.6285,304.945"/>
            <path d="M91.3682,131.659 L90.1309,132.788"/>
            <path d="M72.0439,149.281 L57.4097,162.626"/>
            <path d="M48.016,171.193 L-84.7389,292.253"/>
            <path d="M72.0439,144.664 L57.4097,158.009"/>
            <path d="M48.016,166.575 L-87.949,290.563"/>
            <path d="M102.175,160.672 L90.1309,171.655"/>
            <path d="M72.0439,188.149 L57.4097,201.494"/>
            <path d="M48.016,210.06 L-59.4638,308.072"/>
            <path d="M101.01,157.545 L90.1309,167.466"/>
            <path d="M72.0439,183.96 L57.4097,197.305"/>
            <path d="M48.016,205.871 L-60.6285,304.945"/>
            <path d="M99.7266,154.099 L90.1309,162.849"/>
            <path d="M72.0439,179.343 L57.4097,192.688"/>
            <path d="M48.016,201.254 L-63.8387,303.255"/>
            <path d="M91.7176,132.597 L90.1309,134.044"/>
            <path d="M72.0439,150.538 L57.4097,163.883"/>
            <path d="M48.016,172.449 L-84.3895,293.191"/>
        </g>
        <g id="product-279309b1-3095-4fef-954e-1215988165d1" class="IfcMember material-wood projection" ifc:name="I-profil 45x400, normal sp&#230;r byg 1.016" ifc:guid="0damcnC9LFxvLE4XMOWMNH">
            <path d="M92.4127,62.3628 L124.515,79.262"/>
            <path d="M136.126,85.374 L168.228,102.273"/>
            <path d="M179.839,108.385 L236.66,138.297"/>
            <path d="M92.0633,61.4247 L124.166,78.324"/>
            <path d="M135.776,84.4359 L167.879,101.335"/>
            <path d="M179.489,107.447 L236.311,137.359"/>
            <path d="M89.9239,55.6813 L122.026,72.5805"/>
            <path d="M133.637,78.6925 L165.739,95.5917"/>
            <path d="M177.35,101.704 L239.521,134.432"/>
            <path d="M94.4486,99.8726 L105.972,105.938"/>
            <path d="M115.365,110.883 L163.927,136.447"/>
            <path d="M173.321,141.392 L213.365,162.472"/>
            <path d="M93.2839,96.7459 L105.972,103.425"/>
            <path d="M115.365,108.37 L163.927,133.934"/>
            <path d="M173.321,138.879 L212.2,159.345"/>
            <path d="M390.368,220.971 L388.206,219.833"/>
            <path d="M391.096,214.223 L239.521,134.432"/>
            <path d="M385.959,216.136 L236.311,137.359"/>
            <path d="M387.282,217.587 L236.66,138.297"/>
            <path d="M352.517,228.593 L334.505,219.112"/>
            <path d="M355.603,231.977 L356.926,233.428"/>
            <path d="M389.045,219.52 L355.603,231.977"/>
            <path d="M390.368,220.971 L389.045,219.52"/>
            <path d="M395.504,219.057 L390.368,220.971"/>
            <path d="M391.096,214.223 L395.504,219.057"/>
            <path d="M385.959,216.136 L391.096,214.223"/>
            <path d="M387.282,217.587 L385.959,216.136"/>
            <path d="M353.84,230.044 L387.282,217.587"/>
            <path d="M352.517,228.593 L353.84,230.044"/>
            <path d="M347.381,230.507 L352.517,228.593"/>
            <path d="M356.926,233.428 L351.789,235.341"/>
            <path d="M347.381,230.507 L212.2,159.345"/>
            <path d="M347.381,230.507 L351.789,235.341"/>
            <path d="M213.365,162.472 L351.789,235.341"/>
            <path d="M-228.004,368.653 L-214.561,366.062"/>
            <path d="M-214.212,367 L-214.561,366.062"/>
            <path d="M-214.212,367 L-207.791,365.763"/>
            <path d="M-215.027,364.812 L-215.376,363.874"/>
            <path d="M-228.47,367.403 L-228.004,368.653"/>
            <path d="M-228.47,367.403 L-228.47,347.009"/>
            <path d="M-228.47,367.403 L-215.027,364.812"/>
            <path d="M-228.47,347.009 L-228.82,346.071"/>
            <path d="M-228.47,347.009 L-105.958,235.289"/>
            <path d="M-228.82,341.454 L-109.517,232.661"/>
            <path d="M-228.82,346.071 L-228.82,341.454"/>
            <path d="M-228.82,346.071 L-106.307,234.351"/>
            <path d="M-207.791,365.763 L-81.032,250.17"/>
            <path d="M-208.956,362.636 L-207.791,365.763"/>
            <path d="M-208.956,362.636 L-82.1967,247.043"/>
            <path d="M-214.327,363.671 L-208.956,362.636"/>
            <path d="M-214.327,363.671 L-215.376,363.874"/>
            <path d="M-215.376,363.874 L-85.4069,245.353"/>
            <path d="M69.8,73.7572 L67.2453,76.0869"/>
            <path d="M58.9123,83.6858 L23.5326,115.949"/>
            <path d="M15.1996,123.548 L-106.307,234.351"/>
            <path d="M68.5162,70.3107 L65.9615,72.6404"/>
            <path d="M57.6285,80.2393 L22.2487,112.502"/>
            <path d="M13.9157,120.101 L-109.517,232.661"/>
            <path d="M72.0439,110.578 L57.4097,123.923"/>
            <path d="M48.016,132.49 L-81.032,250.17"/>
            <path d="M72.0439,106.39 L57.4097,119.735"/>
            <path d="M48.016,128.301 L-82.1967,247.043"/>
            <path d="M67.2707,106.125 L57.4097,115.117"/>
            <path d="M48.016,123.684 L31.891,138.388"/>
            <path d="M23.558,145.987 L-85.4069,245.353"/>
            <path d="M70.1494,74.6952 L67.5947,77.0249"/>
            <path d="M59.2617,84.6239 L23.882,116.887"/>
            <path d="M15.549,124.486 L-105.958,235.289"/>
        </g>
        <g id="product-1b42096a-2984-49fd-9b0e-a1655e98b6ae" class="IfcMember material-wood projection" ifc:name="I-profil 45x400, normal sp&#230;r byg 1.012" ifc:guid="0RGWbgAOH9$PiEeMLUcBQk">
            <path d="M-189.671,77.232 L-185.43,69.1759"/>
            <path d="M-181.111,74.0435 L-189.671,77.232"/>
            <path d="M-164.41,65.8793 L-179.839,71.6267"/>
            <path d="M-181.111,74.0435 L-177.51,70.7589"/>
            <path d="M-179.839,71.6267 L-181.111,74.0435"/>
            <path d="M-185.43,69.1759 L-174.222,58.9546"/>
            <path d="M-185.43,69.1759 L-176.871,65.9874"/>
            <path d="M-176.871,65.9874 L-178.143,68.4043"/>
            <path d="M-176.871,65.9874 L-171.012,60.6445"/>
            <path d="M-178.143,68.4043 L-170.662,61.5825"/>
            <path d="M-178.143,68.4043 L-166.173,63.9456"/>
            <path d="M5.0955,-99.9493 L-171.012,60.6445"/>
            <path d="M21.8178,-119.816 L21.0624,-119.127"/>
            <path d="M3.81169,-103.396 L-174.222,58.9546"/>
            <path d="M15.9024,-70.9368 L-116.822,50.0963"/>
            <path d="M14.7377,-74.0636 L-112.582,42.0402"/>
            <path d="M13.4539,-77.5101 L-121.141,45.2286"/>
            <path d="M5.44491,-99.0112 L-170.662,61.5825"/>
            <path d="M-124.11,50.8679 L-125.382,53.2848"/>
            <path d="M-125.382,53.2848 L-116.822,50.0963"/>
            <path d="M-116.822,50.0963 L-112.582,42.0402"/>
            <path d="M-121.141,45.2286 L-112.582,42.0402"/>
            <path d="M-122.414,47.6455 L-121.141,45.2286"/>
            <path d="M-166.173,63.9456 L-122.414,47.6455"/>
            <path d="M-124.11,50.8679 L-164.41,65.8793"/>
            <path d="M21.8179,-117.099 L21.8178,-119.816"/>
            <path d="M21.8178,-119.816 L21.8179,-119.816"/>
            <path d="M143.294,-48.7381 L145.455,-47.6003"/>
            <path d="M21.8179,-119.816 L146.183,-54.3479"/>
            <path d="M21.8179,-119.613 L21.8179,-119.816"/>
            <path d="M21.8179,-117.099 L21.8179,-119.613"/>
            <path d="M22.6983,-114.735 L141.047,-52.4346"/>
            <path d="M29.7441,-73.8339 L106.876,-33.2301"/>
            <path d="M28.5794,-76.9606 L102.468,-38.0644"/>
            <path d="M28.5794,-81.5779 L107.605,-39.9777"/>
            <path d="M102.468,-38.0644 L107.605,-39.9777"/>
            <path d="M106.876,-33.2301 L102.468,-38.0644"/>
            <path d="M112.013,-35.1434 L106.876,-33.2301"/>
            <path d="M110.691,-36.5937 L112.013,-35.1434"/>
            <path d="M144.132,-49.0506 L110.691,-36.5937"/>
            <path d="M145.455,-47.6003 L144.132,-49.0506"/>
            <path d="M150.591,-49.5136 L145.455,-47.6003"/>
            <path d="M146.183,-54.3479 L150.591,-49.5136"/>
            <path d="M141.047,-52.4346 L146.183,-54.3479"/>
            <path d="M142.369,-50.9843 L141.047,-52.4346"/>
            <path d="M107.605,-39.9777 L108.927,-38.5274"/>
            <path d="M108.927,-38.5274 L142.369,-50.9843"/>
            <path d="M23.0477,-113.797 L142.369,-50.9843"/>
            <path d="M28.9288,-98.2517 L28.8443,-98.2354"/>
            <path d="M28.9288,-98.0087 L28.9288,-98.2517"/>
        </g>
        <g id="product-467152f2-e003-4d1e-bcec-12220c6087d0" class="IfcMember material-wood projection" ifc:name="I-profil 45x400, normal sp&#230;r byg 1.013" ifc:guid="16SLBou0DD7hpi4Y8CO8VG">
            <path d="M50.4969,-40.3496 L50.4125,-40.3333"/>
            <path d="M50.4969,-40.1066 L50.4969,-40.3496"/>
            <path d="M44.6159,-55.895 L193.524,22.4925"/>
            <path d="M44.2665,-56.833 L193.174,21.5545"/>
            <path d="M43.386,-59.1966 L43.386,-61.7108"/>
            <path d="M43.386,-61.7108 L43.386,-61.9137"/>
            <path d="M43.386,-61.9137 L196.384,18.6272"/>
            <path d="M51.3122,-15.9318 L170.228,46.6678"/>
            <path d="M50.1475,-23.6758 L172.274,40.6136"/>
            <path d="M50.1475,-19.0585 L169.064,43.541"/>
            <path d="M227.092,41.9233 L224.931,40.7855"/>
            <path d="M227.82,35.1757 L196.384,18.6272"/>
            <path d="M222.684,37.089 L193.174,21.5545"/>
            <path d="M224.007,38.5393 L193.524,22.4925"/>
            <path d="M189.242,49.5459 L172.274,40.6136"/>
            <path d="M192.328,52.9299 L193.651,54.3802"/>
            <path d="M225.77,40.473 L192.328,52.9299"/>
            <path d="M227.092,41.9233 L225.77,40.473"/>
            <path d="M232.229,40.01 L227.092,41.9233"/>
            <path d="M227.82,35.1757 L232.229,40.01"/>
            <path d="M222.684,37.089 L227.82,35.1757"/>
            <path d="M224.007,38.5393 L222.684,37.089"/>
            <path d="M190.565,50.9962 L224.007,38.5393"/>
            <path d="M189.242,49.5459 L190.565,50.9962"/>
            <path d="M184.105,51.4592 L189.242,49.5459"/>
            <path d="M193.651,54.3802 L188.514,56.2935"/>
            <path d="M184.105,51.4592 L169.064,43.541"/>
            <path d="M184.105,51.4592 L188.514,56.2935"/>
            <path d="M170.228,46.6678 L188.514,56.2935"/>
            <path d="M-200.948,196.832 L-199.676,194.415"/>
            <path d="M-268.206,226.418 L-263.965,218.362"/>
            <path d="M-259.646,223.23 L-268.206,226.418"/>
            <path d="M-202.644,200.054 L-258.374,220.813"/>
            <path d="M-203.917,202.471 L-202.644,200.054"/>
            <path d="M-195.357,199.283 L-203.917,202.471"/>
            <path d="M-256.677,217.591 L-200.948,196.832"/>
            <path d="M-255.405,215.174 L-256.677,217.591"/>
            <path d="M-256.677,217.591 L-149.094,119.485"/>
            <path d="M-255.405,215.174 L-149.443,118.547"/>
            <path d="M-263.965,218.362 L-152.654,116.857"/>
            <path d="M-263.965,218.362 L-255.405,215.174"/>
            <path d="M-259.646,223.23 L-256.044,219.945"/>
            <path d="M-258.374,220.813 L-259.646,223.23"/>
            <path d="M-191.116,191.227 L-195.357,199.283"/>
            <path d="M-195.357,199.283 L-124.168,134.365"/>
            <path d="M-199.676,194.415 L-128.543,129.549"/>
            <path d="M-199.676,194.415 L-191.116,191.227"/>
            <path d="M-191.116,191.227 L-125.333,131.239"/>
            <path d="M26.6637,-42.0471 L-149.443,118.547"/>
            <path d="M43.386,-61.9137 L42.6305,-61.2248"/>
            <path d="M25.3798,-45.4937 L-152.654,116.857"/>
            <path d="M37.4706,-13.0347 L-124.168,134.365"/>
            <path d="M36.3059,-16.1615 L-125.333,131.239"/>
            <path d="M35.0221,-19.608 L-128.543,129.549"/>
            <path d="M27.0131,-41.1091 L-149.094,119.485"/>
            <path d="M43.386,-59.1966 L43.386,-61.9137"/>
            <path d="M43.386,-61.9137 L43.386,-61.9136"/>
        </g>
        <g id="product-49b7b687-b005-4497-8e33-7b6b20ff8741" class="IfcMember material-wood projection" ifc:name="I-profil 45x400, normal sp&#230;r byg 1.018" ifc:guid="19jxQ7i0L4buupUsiW$uT1">
            <path d="M136.77,191.259 L136.685,191.275"/>
            <path d="M136.77,191.502 L136.77,191.259"/>
            <path d="M130.889,175.714 L163.927,193.106"/>
            <path d="M173.321,198.051 L279.796,254.101"/>
            <path d="M130.539,174.776 L163.927,192.352"/>
            <path d="M173.321,197.297 L279.447,253.163"/>
            <path d="M129.659,172.412 L129.659,169.898"/>
            <path d="M129.659,169.898 L129.659,169.695"/>
            <path d="M129.659,169.695 L163.927,187.734"/>
            <path d="M173.321,192.679 L282.657,250.236"/>
            <path d="M136.42,207.933 L163.927,222.413"/>
            <path d="M173.321,227.358 L258.547,272.222"/>
            <path d="M137.585,215.677 L163.927,229.544"/>
            <path d="M173.321,234.489 L256.501,278.276"/>
            <path d="M136.42,212.55 L163.927,227.03"/>
            <path d="M173.321,231.975 L255.336,275.15"/>
            <path d="M446.231,338.858 L445.066,335.731"/>
            <path d="M446.231,343.475 L446.231,338.858"/>
            <path d="M445.882,362.883 L445.882,342.537"/>
            <path d="M445.416,341.286 L445.416,361.632"/>
            <path d="M445.416,341.286 L279.796,254.101"/>
            <path d="M445.066,340.348 L445.416,341.286"/>
            <path d="M445.066,335.731 L282.657,250.236"/>
            <path d="M445.066,340.348 L279.447,253.163"/>
            <path d="M445.066,335.731 L445.066,340.348"/>
            <path d="M446.231,343.475 L445.882,343.291"/>
            <path d="M445.882,342.537 L446.231,343.475"/>
            <path d="M431.557,363.298 L258.547,272.222"/>
            <path d="M432.722,366.425 L426.302,367.662"/>
            <path d="M432.373,365.487 L432.722,366.425"/>
            <path d="M445.882,362.883 L432.373,365.487"/>
            <path d="M445.416,361.632 L445.882,362.883"/>
            <path d="M431.907,364.236 L445.416,361.632"/>
            <path d="M431.557,363.298 L431.907,364.236"/>
            <path d="M425.137,364.536 L431.557,363.298"/>
            <path d="M426.302,367.662 L425.137,364.536"/>
            <path d="M425.137,364.536 L255.336,275.15"/>
            <path d="M256.501,278.276 L426.302,367.662"/>
            <path d="M-171.425,481.867 L-184.868,484.458"/>
            <path d="M-171.075,482.805 L-171.425,481.867"/>
            <path d="M-171.075,482.805 L-165.771,481.782"/>
            <path d="M-165.771,481.782 L-164.655,481.567"/>
            <path d="M-171.891,480.616 L-172.24,479.678"/>
            <path d="M-185.334,483.207 L-184.868,484.458"/>
            <path d="M-185.334,483.207 L-185.334,462.814"/>
            <path d="M-185.334,483.207 L-171.891,480.616"/>
            <path d="M-185.334,462.814 L-185.683,461.876"/>
            <path d="M-185.334,462.814 L-62.8213,351.093"/>
            <path d="M-185.683,457.258 L-66.3808,348.465"/>
            <path d="M-185.683,461.876 L-185.683,457.258"/>
            <path d="M-185.683,461.876 L-63.1707,350.155"/>
            <path d="M-164.655,481.567 L-37.8957,365.974"/>
            <path d="M-165.82,478.44 L-164.655,481.567"/>
            <path d="M-165.82,478.44 L-39.0603,362.847"/>
            <path d="M-171.19,479.476 L-165.82,478.44"/>
            <path d="M-171.19,479.476 L-172.24,479.678"/>
            <path d="M-172.24,479.678 L-42.2705,361.158"/>
            <path d="M105.972,195.913 L90.1309,210.358"/>
            <path d="M72.0439,226.852 L57.4097,240.197"/>
            <path d="M48.016,248.763 L-63.1707,350.155"/>
            <path d="M129.659,169.695 L128.903,170.384"/>
            <path d="M105.972,191.296 L90.1309,205.741"/>
            <path d="M72.0439,222.235 L57.4097,235.58"/>
            <path d="M48.016,244.146 L-66.3808,348.465"/>
            <path d="M123.743,218.574 L115.365,226.214"/>
            <path d="M105.972,234.78 L90.1309,249.226"/>
            <path d="M72.0439,265.719 L57.4097,279.064"/>
            <path d="M48.016,287.63 L-37.8957,365.974"/>
            <path d="M122.579,215.447 L115.365,222.025"/>
            <path d="M105.972,230.591 L90.1309,245.037"/>
            <path d="M72.0439,261.53 L57.4097,274.875"/>
            <path d="M48.016,283.442 L-39.0603,362.847"/>
            <path d="M121.295,212.001 L115.365,217.408"/>
            <path d="M105.972,225.974 L90.1309,240.419"/>
            <path d="M72.0439,256.913 L57.4097,270.258"/>
            <path d="M48.016,278.824 L-42.2705,361.158"/>
            <path d="M105.972,197.17 L90.1309,211.615"/>
            <path d="M72.0439,228.108 L57.4097,241.454"/>
            <path d="M48.016,250.02 L-62.8213,351.093"/>
            <path d="M129.659,172.412 L129.659,169.695"/>
            <path d="M129.659,169.695 L129.659,169.695"/>
        </g>
        <g id="product-6d234f31-6e07-4fc0-be59-56d5d17f5c42" class="IfcBeam material-woodStructural projection" ifc:name="Beam" ifc:guid="1j8qynRWTFmBvPLjNHVrn2">
            <path d="M-213.146,337.833 L71.4835,78.2768"/>
            <path d="M-213.146,342.254 L-213.146,337.833"/>
            <path d="M72.0437,79.0858 L72.0437,82.1868"/>
            <path d="M-208.099,355.803 L48.016,122.249"/>
            <path d="M57.4096,113.683 L72.0439,100.338"/>
            <path d="M-213.146,342.254 L72.0437,82.1868"/>
            <path d="M72.0437,82.1868 L72.0439,82.1873"/>
            <path d="M-213.146,342.254 L-208.099,355.803"/>
        </g>
        <g id="product-4282eb2f-613b-4597-8fdc-5cb25dc36a63" class="IfcMechanicalFastener material-Galvanised projection" ifc:name="MechanicalFastener" ifc:guid="12WkilOJj5bu$SNB9TmsfZ">
            <path d="M72.1085,71.4274 L72.1085,71.2538"/>
            <path d="M78.87,70.1242 L78.87,69.9505"/>
            <path d="M81.5229,84.3664 L81.5876,84.5401"/>
            <path d="M74.7614,85.6697 L74.8261,85.8434"/>
            <path d="M73.7955,85.1612 L73.8602,85.3349"/>
            <path d="M71.4014,72.3085 L71.4014,72.1348"/>
            <path d="M82.4888,83.4856 L82.5535,83.6593"/>
            <path d="M82.4062,80.3733 L82.4709,80.547"/>
            <path d="M80.0947,70.6328 L80.0947,70.4592"/>
            <path d="M81.1776,73.7778 L81.1776,73.6041"/>
            <path d="M80.6763,76.3491 L80.6763,76.1755"/>
            <path d="M80.145,76.4515 L80.145,76.2779"/>
            <path d="M75.4023,77.3657 L75.4023,77.192"/>
            <path d="M74.871,77.4681 L74.871,77.2944"/>
            <path d="M79.1508,75.4692 L79.1508,75.2956"/>
            <path d="M78.4844,73.3636 L78.4844,73.1899"/>
            <path d="M78.5975,70.9214 L78.5975,70.7478"/>
            <path d="M72.8986,72.0199 L72.8986,71.8462"/>
            <path d="M74.9152,74.4239 L74.9152,74.2502"/>
            <path d="M73.9835,75.9067 L73.9835,75.733"/>
            <path d="M73.8026,73.1489 L73.8026,72.9752"/>
            <path d="M75.8018,76.4871 L75.8018,76.3135"/>
            <path d="M78.521,71.8671 L78.521,71.6934"/>
            <path d="M80.331,74.3109 L80.331,74.1372"/>
            <path d="M79.7866,80.2206 L79.8513,80.3943"/>
            <path d="M81.4316,78.1321 L81.4963,78.3058"/>
            <path d="M79.9827,78.4114 L80.0475,78.5851"/>
            <path d="M80.6137,79.2623 L80.6784,79.436"/>
            <path d="M81.1572,80.3037 L81.2219,80.4774"/>
            <path d="M80.9916,83.6005 L81.0563,83.7742"/>
            <path d="M80.8723,81.3659 L80.937,81.5396"/>
            <path d="M78.6398,78.0892 L77.8981,78.5184"/>
            <path d="M77.809,77.9 L78.6398,78.0892"/>
            <path d="M77.809,77.9 L78.5994,77.7636"/>
            <path d="M77.809,77.9 L77.8981,78.5184"/>
            <path d="M77.809,77.9 L77.2486,78.3573"/>
            <path d="M77.5196,78.6849 L77.2486,78.3573"/>
            <path d="M77.8981,78.5184 L77.2486,78.3573"/>
            <path d="M77.809,77.9 L77.8054,77.2427"/>
            <path d="M78.6398,78.0892 L78.3381,78.5238"/>
            <path d="M77.809,77.9 L77.9397,77.1943"/>
            <path d="M77.809,77.9 L78.5185,77.438"/>
            <path d="M78.5185,77.438 L77.9397,77.1943"/>
            <path d="M77.1534,77.2536 L77.0574,77.425"/>
            <path d="M77.3971,77.2988 L77.0574,77.425"/>
            <path d="M77.809,77.9 L77.3971,77.2988"/>
            <path d="M77.3971,77.2988 L77.1273,77.7061"/>
            <path d="M78.4486,77.1568 L78.1899,77.0487"/>
            <path d="M78.4486,77.1568 L77.9397,77.1943"/>
            <path d="M77.809,77.9 L77.1273,77.7061"/>
            <path d="M77.809,77.9 L77.2083,78.0317"/>
            <path d="M77.809,77.9 L77.6669,77.2768"/>
            <path d="M77.809,77.9 L77.5292,77.2959"/>
            <path d="M78.6545,78.2075 L78.682,78.4295"/>
            <path d="M78.4205,77.0437 L78.7421,76.7143"/>
            <path d="M78.682,78.4295 L79.1378,78.5914"/>
            <path d="M78.9947,78.849 L79.1378,78.5914"/>
            <path d="M78.5185,77.438 L78.5994,77.7636"/>
            <path d="M78.5185,77.438 L78.4891,77.3196"/>
            <path d="M78.6545,78.2075 L79.1378,78.5914"/>
            <path d="M78.5994,77.7636 L79.4462,77.6465"/>
            <path d="M78.5994,77.7636 L78.9851,77.1056"/>
            <path d="M78.6545,78.2075 L78.6398,78.0892"/>
            <path d="M78.6398,78.0892 L78.5994,77.7636"/>
            <path d="M78.5994,77.7636 L79.204,78.2806"/>
            <path d="M78.6545,78.2075 L79.204,78.2806"/>
            <path d="M78.4205,77.0437 L78.5236,76.6796"/>
            <path d="M78.4205,77.0437 L78.3787,76.8757"/>
            <path d="M78.4486,77.1568 L78.4891,77.3196"/>
            <path d="M78.4486,77.1568 L78.4205,77.0437"/>
            <path d="M78.4205,77.0437 L78.8079,76.8202"/>
            <path d="M78.4891,77.3196 L78.9851,77.1056"/>
            <path d="M78.4891,77.3196 L78.8079,76.8202"/>
            <path d="M78.5236,76.6796 L78.7421,76.7143"/>
            <path d="M78.682,78.4295 L78.7095,78.6514"/>
            <path d="M78.682,78.4295 L78.9947,78.849"/>
            <path d="M76.8833,72.5429 L77.2199,71.9067"/>
            <path d="M76.5553,71.4826 L76.3493,71.0777"/>
            <path d="M76.5553,71.4826 L76.58,71.8465"/>
            <path d="M76.5553,71.4826 L76.7436,72.1684"/>
            <path d="M76.8833,72.5429 L76.9605,71.3966"/>
            <path d="M76.5553,71.4826 L76.8833,72.5429"/>
            <path d="M76.5553,71.4826 L76.9605,71.3966"/>
            <path d="M76.5553,71.4826 L75.5947,71.0589"/>
            <path d="M76.5553,71.4826 L76.1943,71.6453"/>
            <path d="M75.0494,71.6465 L75.5947,71.0589"/>
            <path d="M75.3881,72.8311 L74.6465,71.8426"/>
            <path d="M75.3881,72.8311 L74.7765,72.3776"/>
            <path d="M75.0494,71.6465 L75.314,71.815"/>
            <path d="M75.0494,71.6465 L75.1199,72.128"/>
            <path d="M75.0494,71.6465 L75.7181,71.6335"/>
            <path d="M76.5553,71.4826 L75.0494,71.6465"/>
            <path d="M76.5553,71.4826 L75.7181,71.6335"/>
            <path d="M75.0494,71.6465 L74.9543,71.3466"/>
            <path d="M75.0494,71.6465 L74.6465,71.8426"/>
            <path d="M75.3881,72.8311 L75.2019,72.4656"/>
            <path d="M75.7207,73.0427 L75.9001,73.3347"/>
            <path d="M75.7207,73.0427 L75.9594,72.9843"/>
            <path d="M75.3881,72.8311 L75.5321,72.7126"/>
            <path d="M75.3881,72.8311 L75.2998,72.7691"/>
            <path d="M75.3881,72.8311 L75.7207,73.0427"/>
            <path d="M75.9001,73.3347 L75.7226,73.1849"/>
            <path d="M75.9001,73.3347 L76.19,73.3596"/>
            <path d="M75.9001,73.3347 L76.0012,73.6908"/>
            <path d="M76.7422,72.8457 L76.9224,72.6839"/>
            <path d="M76.8833,72.5429 L77.0388,72.434"/>
            <path d="M76.7422,72.8457 L76.7899,73.1632"/>
            <path d="M76.7422,72.8457 L76.8833,72.5429"/>
            <path d="M76.7422,72.8457 L76.4482,72.8901"/>
            <path d="M76.8833,72.5429 L76.6293,72.5011"/>
            <path d="M76.7019,76.2326 L76.9255,77.0718"/>
            <path d="M76.9248,76.8247 L76.9255,77.0718"/>
            <path d="M76.4499,75.4907 L76.0518,74.1623"/>
            <path d="M76.4499,75.4907 L76.1468,74.2441"/>
            <path d="M76.7019,76.2326 L76.6176,76.193"/>
            <path d="M76.7019,76.2326 L76.8634,76.9996"/>
            <path d="M76.4499,75.4907 L76.7019,76.2326"/>
            <path d="M76.4499,75.4907 L76.4082,75.5149"/>
            <path d="M76.4499,75.4907 L76.6176,76.193"/>
            <path d="M76.4499,75.4907 L76.7364,75.8674"/>
            <path d="M76.4499,75.4907 L76.6108,75.2292"/>
            <path d="M76.6176,76.193 L76.8634,76.9996"/>
            <path d="M76.7019,76.2326 L76.9248,76.8247"/>
            <path d="M76.7019,76.2326 L76.7364,75.8674"/>
            <path d="M76.0518,74.1623 L76.1806,74.8013"/>
            <path d="M76.4082,75.5149 L76.0518,74.1623"/>
            <path d="M76.4082,75.5149 L76.1806,74.8013"/>
            <path d="M76.6108,75.2292 L76.1468,74.2441"/>
            <path d="M76.4082,75.5149 L76.6176,76.193"/>
            <path d="M76.6176,76.193 L76.3772,75.4986"/>
            <path d="M76.4082,75.5149 L76.3772,75.4986"/>
            <path d="M77.1534,77.2536 L77.3971,77.2988"/>
            <path d="M77.8054,77.2427 L77.9397,77.1943"/>
            <path d="M77.5292,77.2959 L77.6669,77.2768"/>
            <path d="M77.5292,77.2959 L77.4791,76.4745"/>
            <path d="M77.1534,77.2536 L76.9847,76.1504"/>
            <path d="M76.7364,75.8674 L76.9248,76.8247"/>
            <path d="M77.1534,77.2536 L76.7364,75.8674"/>
            <path d="M76.9875,77.1438 L77.1534,77.2536"/>
            <path d="M76.9248,76.8247 L76.9875,77.1438"/>
            <path d="M76.6108,75.2292 L76.7364,75.8674"/>
            <path d="M76.7364,75.8674 L76.9847,76.1504"/>
            <path d="M76.9847,76.1504 L76.8157,75.3226"/>
            <path d="M76.9847,76.1504 L76.6108,75.2292"/>
            <path d="M77.3971,77.2988 L76.9847,76.1504"/>
            <path d="M77.5292,77.2959 L76.9847,76.1504"/>
            <path d="M77.3971,77.2988 L77.5292,77.2959"/>
            <path d="M77.8054,77.2427 L77.4791,76.4745"/>
            <path d="M77.8054,77.2427 L77.6669,77.2768"/>
            <path d="M77.6669,77.2768 L77.4791,76.4745"/>
            <path d="M77.2308,75.6445 L76.8157,75.3226"/>
            <path d="M76.8157,75.3226 L76.6775,74.2478"/>
            <path d="M78.1899,77.0487 L77.9397,77.1943"/>
            <path d="M78.1899,77.0487 L77.79,76.2037"/>
            <path d="M77.2308,75.6445 L77.4791,76.4745"/>
            <path d="M76.9847,76.1504 L77.4791,76.4745"/>
            <path d="M76.9847,76.1504 L77.2308,75.6445"/>
            <path d="M77.2308,75.6445 L77.4195,75.4623"/>
            <path d="M77.4195,75.4623 L77.4791,76.4745"/>
            <path d="M77.4195,75.4623 L77.79,76.2037"/>
            <path d="M78.1899,77.0487 L78.3787,76.8757"/>
            <path d="M78.1899,77.0487 L77.8977,75.9748"/>
            <path d="M77.2308,75.6445 L77.0959,74.4733"/>
            <path d="M77.2308,75.6445 L76.9355,74.173"/>
            <path d="M77.2308,75.6445 L76.6775,74.2478"/>
            <path d="M77.79,76.2037 L77.8977,75.9748"/>
            <path d="M77.79,76.2037 L77.577,75.3742"/>
            <path d="M77.4195,75.4623 L77.577,75.3742"/>
            <path d="M77.4195,75.4623 L77.0959,74.4733"/>
            <path d="M76.4225,74.2719 L76.6108,75.2292"/>
            <path d="M76.8157,75.3226 L76.4225,74.2719"/>
            <path d="M76.6108,75.2292 L76.8157,75.3226"/>
            <path d="M77.4791,76.4745 L77.79,76.2037"/>
            <path d="M77.79,76.2037 L77.9397,77.1943"/>
            <path d="M77.4791,76.4745 L77.9397,77.1943"/>
            <path d="M76.4242,72.3826 L76.4242,72.5562"/>
            <path d="M75.7481,72.5129 L75.7481,72.6865"/>
            <path d="M76.4242,72.3826 L76.5544,72.0331"/>
            <path d="M75.7481,72.5129 L76.4242,72.3826"/>
            <path d="M75.7481,72.5129 L75.3041,72.1935"/>
            <path d="M78.4512,76.7777 L78.5236,76.6796"/>
            <path d="M77.577,75.3742 L77.4166,75.0739"/>
            <path d="M77.577,75.3742 L77.7373,75.6745"/>
            <path d="M78.0791,75.9571 L78.4512,76.7777"/>
            <path d="M77.4166,75.0739 L77.8328,75.2208"/>
            <path d="M77.0959,74.4733 L76.9355,74.173"/>
            <path d="M77.4166,75.0739 L77.0929,74.0566"/>
            <path d="M77.0959,74.4733 L77.4166,75.0739"/>
            <path d="M77.8977,75.9748 L78.2184,76.5754"/>
            <path d="M77.8977,75.9748 L77.7373,75.6745"/>
            <path d="M78.0791,75.9571 L78.2184,76.5754"/>
            <path d="M77.8328,75.2208 L77.2503,73.9402"/>
            <path d="M77.8328,75.2208 L77.0929,74.0566"/>
            <path d="M77.7373,75.6745 L77.8328,75.2208"/>
            <path d="M77.7373,75.6745 L78.0791,75.9571"/>
            <path d="M77.9464,75.2328 L77.6885,74.5106"/>
            <path d="M77.9464,75.2328 L77.3137,73.8868"/>
            <path d="M77.8328,75.2208 L77.9464,75.2328"/>
            <path d="M77.8328,75.2208 L77.3137,73.8868"/>
            <path d="M78.0791,75.9571 L78.5236,76.6796"/>
            <path d="M77.8328,75.2208 L78.2066,75.89"/>
            <path d="M78.0791,75.9571 L78.2066,75.89"/>
            <path d="M77.8328,75.2208 L78.0791,75.9571"/>
            <path d="M77.3137,73.8868 L77.6885,74.5106"/>
            <path d="M78.2184,76.5754 L78.4512,76.7777"/>
            <path d="M78.4512,76.7777 L78.3787,76.8757"/>
            <path d="M78.2184,76.5754 L78.3787,76.8757"/>
            <path d="M78.5236,76.6796 L78.6306,76.5348"/>
            <path d="M78.5236,76.6796 L78.2066,75.89"/>
            <path d="M77.9464,75.2328 L78.0029,75.1852"/>
            <path d="M78.2066,75.89 L78.0029,75.1852"/>
            <path d="M77.9464,75.2328 L78.2066,75.89"/>
            <path d="M76.7899,73.1632 L76.5094,73.2981"/>
            <path d="M76.7899,73.1632 L76.9617,72.9461"/>
            <path d="M76.7899,73.1632 L76.9461,73.4984"/>
            <path d="M75.7481,72.6865 L75.2531,72.3305"/>
            <path d="M76.4242,72.5562 L75.7481,72.6865"/>
            <path d="M76.4242,72.5562 L76.6054,72.0698"/>
            <path d="M76.1943,71.6453 L75.7181,71.6335"/>
            <path d="M76.1943,71.6453 L76.58,71.8465"/>
            <path d="M76.58,71.8465 L76.7436,72.1684"/>
            <path d="M76.7436,72.1684 L76.6293,72.5011"/>
            <path d="M76.6293,72.5011 L76.4482,72.8901"/>
            <path d="M76.5094,73.2981 L76.4482,72.8901"/>
            <path d="M76.5094,73.2981 L76.6596,73.621"/>
            <path d="M76.19,73.3596 L76.2843,73.6933"/>
            <path d="M76.19,73.3596 L75.9594,72.9843"/>
            <path d="M75.9594,72.9843 L75.5321,72.7126"/>
            <path d="M75.5321,72.7126 L75.2019,72.4656"/>
            <path d="M75.2019,72.4656 L75.1199,72.128"/>
            <path d="M75.1199,72.128 L75.314,71.815"/>
            <path d="M75.7181,71.6335 L75.314,71.815"/>
            <path d="M76.0654,74.174 L76.1468,74.2441"/>
            <path d="M76.0654,74.174 L76.0083,73.9328"/>
            <path d="M75.912,73.615 L76.0012,73.6908"/>
            <path d="M76.0012,73.6908 L76.2843,73.6933"/>
            <path d="M75.912,73.615 L75.9165,73.7997"/>
            <path d="M75.9165,73.7997 L75.8621,73.6804"/>
            <path d="M76.0012,73.6908 L76.3216,73.8365"/>
            <path d="M76.0012,73.6908 L76.1526,73.9082"/>
            <path d="M76.0083,73.9328 L75.9015,73.8218"/>
            <path d="M75.9165,73.7997 L75.9015,73.8218"/>
            <path d="M76.0654,74.174 L75.9015,73.8218"/>
            <path d="M76.0654,74.174 L76.0518,74.1623"/>
            <path d="M76.0518,74.1623 L75.9839,74.1039"/>
            <path d="M75.912,73.615 L75.8228,73.5392"/>
            <path d="M75.912,73.615 L75.8621,73.6804"/>
            <path d="M76.1468,74.2441 L76.4225,74.2719"/>
            <path d="M76.0083,73.9328 L76.1526,73.9082"/>
            <path d="M76.1468,74.2441 L76.3589,73.9796"/>
            <path d="M76.1468,74.2441 L76.0083,73.9328"/>
            <path d="M76.0083,73.9328 L76.3589,73.9796"/>
            <path d="M76.0083,73.9328 L75.9165,73.7997"/>
            <path d="M75.9165,73.7997 L76.0012,73.6908"/>
            <path d="M76.0083,73.9328 L76.0012,73.6908"/>
            <path d="M76.1526,73.9082 L76.3589,73.9796"/>
            <path d="M76.1526,73.9082 L76.3216,73.8365"/>
            <path d="M76.4491,73.925 L76.5846,73.9338"/>
            <path d="M76.7223,74.0757 L76.5256,74.0975"/>
            <path d="M76.5256,74.0975 L76.5846,73.9338"/>
            <path d="M76.7223,74.0757 L76.5846,73.9338"/>
            <path d="M76.4491,73.925 L76.5256,74.0975"/>
            <path d="M76.2843,73.6933 L76.472,73.6572"/>
            <path d="M76.4491,73.925 L76.472,73.6572"/>
            <path d="M76.2843,73.6933 L76.4491,73.925"/>
            <path d="M76.4491,73.925 L76.3589,73.9796"/>
            <path d="M76.3216,73.8365 L76.3589,73.9796"/>
            <path d="M76.2843,73.6933 L76.3216,73.8365"/>
            <path d="M76.7223,74.0757 L76.7923,73.8961"/>
            <path d="M76.8367,74.2017 L76.9355,74.173"/>
            <path d="M76.8367,74.2017 L76.7923,73.8961"/>
            <path d="M76.7223,74.0757 L76.6775,74.2478"/>
            <path d="M76.7223,74.0757 L76.8367,74.2017"/>
            <path d="M76.8367,74.2017 L76.6775,74.2478"/>
            <path d="M76.5846,73.9338 L76.472,73.6572"/>
            <path d="M76.5256,74.0975 L76.6775,74.2478"/>
            <path d="M76.3589,73.9796 L76.5256,74.0975"/>
            <path d="M76.3589,73.9796 L76.4225,74.2719"/>
            <path d="M76.4225,74.2719 L76.6775,74.2478"/>
            <path d="M76.5846,73.9338 L76.7259,73.7584"/>
            <path d="M76.5846,73.9338 L76.7923,73.8961"/>
            <path d="M76.472,73.6572 L76.6596,73.621"/>
            <path d="M76.472,73.6572 L76.7259,73.7584"/>
            <path d="M77.2503,73.9402 L77.0929,74.0566"/>
            <path d="M76.9355,74.173 L77.0929,74.0566"/>
            <path d="M76.9355,74.173 L76.7923,73.8961"/>
            <path d="M77.2503,73.9402 L77.1279,73.8505"/>
            <path d="M77.2452,73.7467 L77.2494,73.562"/>
            <path d="M76.7923,73.8961 L77.1279,73.8505"/>
            <path d="M77.0929,74.0566 L77.1279,73.8505"/>
            <path d="M77.0929,74.0566 L76.7923,73.8961"/>
            <path d="M77.1755,73.5813 L77.2494,73.562"/>
            <path d="M77.1755,73.5813 L77.1852,73.4253"/>
            <path d="M76.7259,73.7584 L76.9461,73.4984"/>
            <path d="M76.6596,73.621 L76.7259,73.7584"/>
            <path d="M76.6596,73.621 L76.9461,73.4984"/>
            <path d="M76.9461,73.4984 L77.0344,73.7188"/>
            <path d="M76.7923,73.8961 L76.7259,73.7584"/>
            <path d="M76.7259,73.7584 L77.0344,73.7188"/>
            <path d="M76.7923,73.8961 L77.0344,73.7188"/>
            <path d="M76.9461,73.4984 L77.0336,73.3936"/>
            <path d="M77.0336,73.3936 L77.1755,73.5813"/>
            <path d="M76.9461,73.4984 L77.1755,73.5813"/>
            <path d="M77.0336,73.3936 L77.1212,73.2889"/>
            <path d="M77.0336,73.3936 L77.1852,73.4253"/>
            <path d="M77.0344,73.7188 L77.1755,73.5813"/>
            <path d="M77.0344,73.7188 L77.1279,73.8505"/>
            <path d="M77.1755,73.5813 L77.2452,73.7467"/>
            <path d="M77.1279,73.8505 L77.2452,73.7467"/>
            <path d="M77.1755,73.5813 L77.1279,73.8505"/>
            <path d="M77.3137,73.8868 L77.3741,73.8359"/>
            <path d="M77.2503,73.9402 L77.3137,73.8868"/>
            <path d="M77.2503,73.9402 L77.2452,73.7467"/>
            <path d="M77.2452,73.7467 L77.3741,73.8359"/>
            <path d="M77.5658,82.9486 L77.6317,82.6312"/>
            <path d="M77.5658,82.9486 L77.8072,82.9042"/>
            <path d="M77.5658,82.9486 L77.329,83.2513"/>
            <path d="M78.5874,82.7517 L78.8161,82.8506"/>
            <path d="M78.5874,82.7517 L78.5215,82.4597"/>
            <path d="M78.5874,82.7517 L78.8242,82.9631"/>
            <path d="M78.5874,82.7517 L78.2959,82.81"/>
            <path d="M77.6317,82.6312 L77.5226,82.8484"/>
            <path d="M77.6317,82.6312 L77.6023,82.2865"/>
            <path d="M77.6317,82.6312 L77.8918,82.4963"/>
            <path d="M78.8136,78.7235 L78.9177,78.7957"/>
            <path d="M78.777,80.3036 L78.5295,79.9275"/>
            <path d="M78.7538,79.5605 L78.8136,78.7235"/>
            <path d="M78.8819,80.2831 L78.955,80.2964"/>
            <path d="M78.8971,79.6028 L78.8819,80.2831"/>
            <path d="M78.7538,79.5605 L78.5295,79.9275"/>
            <path d="M78.7538,79.5605 L78.6645,78.9704"/>
            <path d="M78.7538,79.5605 L78.9177,78.7957"/>
            <path d="M78.7538,79.5605 L78.8971,79.6028"/>
            <path d="M78.8971,79.6028 L78.777,80.3036"/>
            <path d="M78.7538,79.5605 L78.777,80.3036"/>
            <path d="M78.8136,78.7235 L78.7095,78.6514"/>
            <path d="M78.8136,78.7235 L78.6645,78.9704"/>
            <path d="M78.777,80.3036 L78.4395,80.5656"/>
            <path d="M78.777,80.3036 L78.6074,81.5467"/>
            <path d="M78.4395,80.5656 L78.6074,81.5467"/>
            <path d="M78.9177,78.7957 L78.9947,78.849"/>
            <path d="M78.9947,78.849 L79.0716,78.9022"/>
            <path d="M78.8971,79.6028 L78.955,80.2964"/>
            <path d="M78.9177,78.7957 L78.8971,79.6028"/>
            <path d="M78.777,80.3036 L78.7438,81.6322"/>
            <path d="M78.777,80.3036 L78.8819,80.2831"/>
            <path d="M78.8819,80.2831 L78.8961,80.9936"/>
            <path d="M78.7438,81.6322 L78.8961,80.9936"/>
            <path d="M78.8819,80.2831 L78.7438,81.6322"/>
            <path d="M77.4767,81.9012 L77.3882,81.2842"/>
            <path d="M77.3498,80.5662 L77.3882,81.2842"/>
            <path d="M77.3724,79.8348 L77.2879,79.0176"/>
            <path d="M77.3709,79.2198 L77.2879,79.0176"/>
            <path d="M77.3498,80.5662 L77.3293,80.6098"/>
            <path d="M77.3094,79.906 L77.3498,80.5662"/>
            <path d="M77.3094,79.906 L77.3953,80.5726"/>
            <path d="M77.3094,79.906 L77.3293,80.6098"/>
            <path d="M77.3724,79.8348 L77.3953,80.5726"/>
            <path d="M77.3953,80.5726 L77.5286,80.1205"/>
            <path d="M77.3953,80.5726 L77.6338,80.7209"/>
            <path d="M77.3094,79.906 L77.3724,79.8348"/>
            <path d="M77.3094,79.906 L77.2576,79.1156"/>
            <path d="M77.3724,79.8348 L77.2576,79.1156"/>
            <path d="M77.6338,80.7209 L77.644,81.7371"/>
            <path d="M77.3724,79.8348 L77.5286,80.1205"/>
            <path d="M77.3724,79.8348 L77.3709,79.2198"/>
            <path d="M77.3953,80.5726 L77.644,81.7371"/>
            <path d="M77.3953,80.5726 L77.5053,81.8458"/>
            <path d="M77.3498,80.5662 L77.3953,80.5726"/>
            <path d="M77.3953,80.5726 L77.4767,81.9012"/>
            <path d="M77.3498,80.5662 L77.4767,81.9012"/>
            <path d="M77.8981,78.5184 L78.3381,78.5238"/>
            <path d="M77.8435,79.3158 L78.0752,79.2343"/>
            <path d="M77.8981,78.5184 L78.0752,79.2343"/>
            <path d="M78.0637,80.1158 L78.0752,79.2343"/>
            <path d="M77.5286,80.1205 L77.6338,80.7209"/>
            <path d="M77.661,79.7492 L77.5286,80.1205"/>
            <path d="M77.661,79.7492 L77.6338,80.7209"/>
            <path d="M77.661,79.7492 L77.7907,80.5498"/>
            <path d="M77.8981,78.5184 L77.5196,78.6849"/>
            <path d="M77.8981,78.5184 L77.8435,79.3158"/>
            <path d="M77.8435,79.3158 L77.7907,80.5498"/>
            <path d="M77.8435,79.3158 L78.0637,80.1158"/>
            <path d="M77.7907,80.5498 L78.0371,81.5468"/>
            <path d="M77.7907,80.5498 L78.0637,80.1158"/>
            <path d="M78.5295,79.9275 L78.6645,78.9704"/>
            <path d="M78.5295,79.9275 L78.3381,78.5238"/>
            <path d="M78.7095,78.6514 L78.3381,78.5238"/>
            <path d="M78.7095,78.6514 L78.6645,78.9704"/>
            <path d="M77.8435,79.3158 L77.5196,78.6849"/>
            <path d="M77.8435,79.3158 L77.661,79.7492"/>
            <path d="M77.661,79.7492 L77.5196,78.6849"/>
            <path d="M78.0637,80.1158 L78.325,79.7527"/>
            <path d="M77.6338,80.7209 L77.7907,80.5498"/>
            <path d="M77.7907,80.5498 L77.7915,81.6216"/>
            <path d="M77.6338,80.7209 L77.7915,81.6216"/>
            <path d="M78.0637,80.1158 L78.3945,80.8846"/>
            <path d="M78.3045,81.5227 L78.3945,80.8846"/>
            <path d="M78.0637,80.1158 L78.0371,81.5468"/>
            <path d="M78.0637,80.1158 L78.3045,81.5227"/>
            <path d="M78.4395,80.5656 L78.3945,80.8846"/>
            <path d="M78.3945,80.8846 L78.325,79.7527"/>
            <path d="M78.5295,79.9275 L78.325,79.7527"/>
            <path d="M78.4395,80.5656 L78.5295,79.9275"/>
            <path d="M78.3381,78.5238 L78.325,79.7527"/>
            <path d="M78.325,79.7527 L78.0752,79.2343"/>
            <path d="M78.3381,78.5238 L78.0752,79.2343"/>
            <path d="M77.5196,78.6849 L77.3183,78.9196"/>
            <path d="M77.5196,78.6849 L77.5286,80.1205"/>
            <path d="M77.3709,79.2198 L77.5286,80.1205"/>
            <path d="M77.3709,79.2198 L77.3183,78.9196"/>
            <path d="M77.7135,84.0802 L77.3754,83.7243"/>
            <path d="M78.3896,83.9499 L78.7277,83.4636"/>
            <path d="M78.3896,83.9499 L77.7135,84.0802"/>
            <path d="M78.2959,82.81 L78.6002,83.0816"/>
            <path d="M78.2959,82.81 L78.2112,82.4348"/>
            <path d="M77.8918,82.4963 L77.8639,82.1735"/>
            <path d="M77.8918,82.4963 L77.8072,82.9042"/>
            <path d="M77.8072,82.9042 L77.5029,83.2931"/>
            <path d="M78.2112,82.4348 L78.5215,82.4597"/>
            <path d="M78.2112,82.4348 L78.2392,82.1011"/>
            <path d="M78.5215,82.4597 L78.2392,82.1011"/>
            <path d="M78.5494,82.1099 L78.7617,82.6095"/>
            <path d="M78.5215,82.4597 L78.7617,82.6095"/>
            <path d="M78.5215,82.4597 L78.5494,82.1099"/>
            <path d="M77.6023,82.2865 L77.8639,82.1735"/>
            <path d="M77.6023,82.2865 L77.5476,82.3961"/>
            <path d="M77.6023,82.2865 L77.8489,82.036"/>
            <path d="M77.5476,82.3961 L77.4929,82.5056"/>
            <path d="M77.6023,82.2865 L77.5432,82.0788"/>
            <path d="M77.6023,82.2865 L77.4895,82.2349"/>
            <path d="M77.5476,82.3961 L77.4895,82.2349"/>
            <path d="M77.5476,82.3961 L77.4806,82.3692"/>
            <path d="M77.4895,82.2349 L77.4806,82.3692"/>
            <path d="M77.4739,82.0541 L77.447,81.9587"/>
            <path d="M77.4767,81.9012 L77.447,81.9587"/>
            <path d="M77.4767,81.9012 L77.5053,81.8458"/>
            <path d="M77.4739,82.0541 L77.5053,81.8458"/>
            <path d="M77.644,81.7371 L77.7915,81.6216"/>
            <path d="M77.644,81.7371 L77.5053,81.8458"/>
            <path d="M77.5432,82.0788 L77.8489,82.036"/>
            <path d="M77.4895,82.2349 L77.4682,82.2326"/>
            <path d="M77.4739,82.0541 L77.4682,82.2326"/>
            <path d="M77.4895,82.2349 L77.4739,82.0541"/>
            <path d="M77.4739,82.0541 L77.5432,82.0788"/>
            <path d="M77.4895,82.2349 L77.5432,82.0788"/>
            <path d="M77.5432,82.0788 L77.5053,81.8458"/>
            <path d="M77.5053,81.8458 L77.834,81.8985"/>
            <path d="M77.5432,82.0788 L77.834,81.8985"/>
            <path d="M77.9369,81.9126 L78.0601,81.8552"/>
            <path d="M77.948,81.7339 L78.0601,81.8552"/>
            <path d="M78.1391,81.6819 L77.948,81.7339"/>
            <path d="M78.1391,81.6819 L78.0601,81.8552"/>
            <path d="M77.9369,81.9126 L77.948,81.7339"/>
            <path d="M77.8639,82.1735 L78.0515,82.1373"/>
            <path d="M77.9369,81.9126 L78.0515,82.1373"/>
            <path d="M77.8639,82.1735 L77.8489,82.036"/>
            <path d="M77.8489,82.036 L77.834,81.8985"/>
            <path d="M77.9369,81.9126 L77.834,81.8985"/>
            <path d="M77.8639,82.1735 L77.9369,81.9126"/>
            <path d="M78.1391,81.6819 L78.2674,81.8149"/>
            <path d="M78.2021,81.5319 L78.3045,81.5227"/>
            <path d="M78.2021,81.5319 L78.2674,81.8149"/>
            <path d="M78.2021,81.5319 L78.1391,81.6819"/>
            <path d="M78.1391,81.6819 L78.0371,81.5468"/>
            <path d="M78.2021,81.5319 L78.0371,81.5468"/>
            <path d="M78.0601,81.8552 L78.0515,82.1373"/>
            <path d="M78.0371,81.5468 L77.7915,81.6216"/>
            <path d="M77.7915,81.6216 L77.834,81.8985"/>
            <path d="M77.834,81.8985 L77.948,81.7339"/>
            <path d="M78.0371,81.5468 L77.948,81.7339"/>
            <path d="M78.0601,81.8552 L78.2533,81.9581"/>
            <path d="M78.0601,81.8552 L78.2674,81.8149"/>
            <path d="M78.0515,82.1373 L78.2392,82.1011"/>
            <path d="M78.0515,82.1373 L78.2533,81.9581"/>
            <path d="M78.3045,81.5227 L78.6074,81.5467"/>
            <path d="M78.2533,81.9581 L78.2674,81.8149"/>
            <path d="M78.5104,81.8812 L78.707,81.8218"/>
            <path d="M78.5104,81.8812 L78.7085,82.0038"/>
            <path d="M78.3045,81.5227 L78.2674,81.8149"/>
            <path d="M78.3045,81.5227 L78.4659,81.6894"/>
            <path d="M78.5494,82.1099 L78.5104,81.8812"/>
            <path d="M78.2533,81.9581 L78.5104,81.8812"/>
            <path d="M78.5494,82.1099 L78.6703,82.1826"/>
            <path d="M78.5494,82.1099 L78.7085,82.0038"/>
            <path d="M78.7085,82.0038 L78.6703,82.1826"/>
            <path d="M78.4659,81.6894 L78.6074,81.5467"/>
            <path d="M78.4659,81.6894 L78.707,81.8218"/>
            <path d="M78.2392,82.1011 L78.2533,81.9581"/>
            <path d="M78.2533,81.9581 L78.5494,82.1099"/>
            <path d="M78.2392,82.1011 L78.5494,82.1099"/>
            <path d="M78.7085,82.0038 L78.8037,82.1142"/>
            <path d="M78.4659,81.6894 L78.5104,81.8812"/>
            <path d="M78.5104,81.8812 L78.2674,81.8149"/>
            <path d="M78.4659,81.6894 L78.2674,81.8149"/>
            <path d="M78.7085,82.0038 L78.8161,81.9728"/>
            <path d="M78.7085,82.0038 L78.707,81.8218"/>
            <path d="M78.707,81.8218 L78.8161,81.9728"/>
            <path d="M78.7438,81.6322 L78.8372,81.6908"/>
            <path d="M78.7438,81.6322 L78.8161,81.9728"/>
            <path d="M78.6703,82.1826 L78.7913,82.2554"/>
            <path d="M78.6703,82.1826 L78.8037,82.1142"/>
            <path d="M78.6074,81.5467 L78.7438,81.6322"/>
            <path d="M78.7438,81.6322 L78.707,81.8218"/>
            <path d="M78.6074,81.5467 L78.707,81.8218"/>
            <path d="M78.7816,83.6661 L78.4917,83.979"/>
            <path d="M78.8242,82.9631 L79.3638,83.4166"/>
            <path d="M78.8242,82.9631 L79.0116,83.0252"/>
            <path d="M78.8867,83.9986 L78.8397,84.4474"/>
            <path d="M78.7816,83.6661 L78.8867,83.9986"/>
            <path d="M78.7816,83.6661 L78.8224,83.3286"/>
            <path d="M78.8224,83.3286 L78.8867,83.9986"/>
            <path d="M78.8224,83.3286 L78.6002,83.0816"/>
            <path d="M78.6002,83.0816 L78.8242,82.9631"/>
            <path d="M78.8242,82.9631 L78.8867,83.9986"/>
            <path d="M78.8242,82.9631 L79.2991,83.9515"/>
            <path d="M78.8867,83.9986 L79.2991,83.9515"/>
            <path d="M77.6114,84.1487 L78.0515,84.1605"/>
            <path d="M78.8867,83.9986 L78.1421,84.735"/>
            <path d="M78.4917,83.979 L78.0515,84.1605"/>
            <path d="M78.4917,83.979 L78.8867,83.9986"/>
            <path d="M77.4247,84.3987 L78.1421,84.735"/>
            <path d="M77.329,83.2513 L76.9851,84.3975"/>
            <path d="M77.329,83.2513 L76.9204,83.8875"/>
            <path d="M77.6114,84.1487 L77.3215,83.9475"/>
            <path d="M77.6114,84.1487 L77.4247,84.3987"/>
            <path d="M77.3215,83.9475 L77.4247,84.3987"/>
            <path d="M77.3215,83.9475 L77.2807,83.6258"/>
            <path d="M78.8867,83.9986 L77.4247,84.3987"/>
            <path d="M78.0515,84.1605 L77.4247,84.3987"/>
            <path d="M78.8867,83.9986 L78.0515,84.1605"/>
            <path d="M77.4247,84.3987 L77.4446,84.7163"/>
            <path d="M77.4247,84.3987 L76.9851,84.3975"/>
            <path d="M77.329,83.2513 L77.5029,83.2931"/>
            <path d="M77.5029,83.2931 L77.2807,83.6258"/>
            <path d="M77.329,83.2513 L77.2807,83.6258"/>
            <path d="M79.9827,78.4114 L79.7413,78.6316"/>
            <path d="M79.9827,78.4114 L80.2242,78.5385"/>
            <path d="M81.4316,78.1321 L81.1902,78.3523"/>
            <path d="M81.4316,78.1321 L81.6731,78.2592"/>
            <path d="M80.6137,79.2623 L80.3722,79.4825"/>
            <path d="M80.6137,79.2623 L80.8552,79.3894"/>
            <path d="M79.7866,80.2206 L79.5451,80.4408"/>
            <path d="M79.7866,80.2206 L80.028,80.3477"/>
            <path d="M81.1572,80.3037 L80.9157,80.5239"/>
            <path d="M81.1572,80.3037 L81.3987,80.4308"/>
            <path d="M76.3015,79.4682 L76.543,79.248"/>
            <path d="M76.3015,79.4682 L76.06,79.3411"/>
            <path d="M75.6706,80.5624 L75.9121,80.3422"/>
            <path d="M75.6706,80.5624 L75.4291,80.4353"/>
            <path d="M76.4977,81.2018 L76.7392,80.9816"/>
            <path d="M76.4977,81.2018 L76.2562,81.0747"/>
            <path d="M74.8526,79.7475 L75.0941,79.5273"/>
            <path d="M74.8526,79.7475 L74.6111,79.6204"/>
            <path d="M80.8723,81.3659 L80.6309,81.5861"/>
            <path d="M80.8723,81.3659 L81.1138,81.493"/>
            <path d="M75.1271,81.8133 L75.3685,81.5931"/>
            <path d="M75.1271,81.8133 L74.8856,81.6862"/>
            <path d="M75.4119,82.7657 L75.6534,82.5455"/>
            <path d="M75.4119,82.7657 L75.1704,82.6386"/>
            <path d="M80.9916,83.6005 L80.7501,83.8207"/>
            <path d="M80.9916,83.6005 L81.2331,83.7276"/>
            <path d="M75.2926,85.0463 L75.0512,84.9192"/>
            <path d="M75.2926,85.0463 L75.5341,84.8261"/>
            <path d="M76.9851,84.3975 L77.4446,84.7163"/>
            <path d="M76.9204,83.8875 L76.9851,84.3975"/>
            <path d="M77.4786,83.0601 L77.5226,82.8484"/>
            <path d="M77.4929,82.5056 L77.5226,82.8484"/>
            <path d="M77.4806,82.3692 L77.4929,82.5056"/>
            <path d="M77.4806,82.3692 L77.4682,82.2326"/>
            <path d="M77.4682,82.2326 L77.447,81.9587"/>
            <path d="M77.3882,81.2842 L77.447,81.9587"/>
            <path d="M77.3882,81.2842 L77.3293,80.6098"/>
            <path d="M77.3293,80.6098 L77.2127,79.2605"/>
            <path d="M73.7955,85.1612 L74.1258,78.8456"/>
            <path d="M73.7955,85.1612 L74.7614,85.6697"/>
            <path d="M81.5229,84.3664 L74.7614,85.6697"/>
            <path d="M82.4888,83.4856 L81.5229,84.3664"/>
            <path d="M82.4888,83.4856 L82.4062,80.3733"/>
            <path d="M82.4062,80.3733 L82.1585,77.2973"/>
            <path d="M79.204,78.2806 L79.4462,77.6465"/>
            <path d="M79.1378,78.5914 L79.204,78.2806"/>
            <path d="M79.0716,78.9022 L79.1378,78.5914"/>
            <path d="M78.955,80.2964 L79.0716,78.9022"/>
            <path d="M78.8961,80.9936 L78.955,80.2964"/>
            <path d="M78.8961,80.9936 L78.8372,81.6908"/>
            <path d="M78.8161,81.9728 L78.8372,81.6908"/>
            <path d="M78.8037,82.1142 L78.8161,81.9728"/>
            <path d="M78.8037,82.1142 L78.7913,82.2554"/>
            <path d="M78.7913,82.2554 L78.7617,82.6095"/>
            <path d="M78.8161,82.8506 L78.7617,82.6095"/>
            <path d="M78.8161,82.8506 L79.0116,83.0252"/>
            <path d="M79.3638,83.4166 L79.0116,83.0252"/>
            <path d="M79.2991,83.9515 L79.3638,83.4166"/>
            <path d="M79.2991,83.9515 L78.8397,84.4474"/>
            <path d="M78.8397,84.4474 L78.1421,84.735"/>
            <path d="M78.1421,84.735 L77.4446,84.7163"/>
            <path d="M77.0839,78.7002 L76.838,78.1492"/>
            <path d="M77.2127,79.2605 L77.2351,79.1881"/>
            <path d="M77.2127,79.2605 L77.1483,78.9804"/>
            <path d="M77.2908,78.6976 L77.2633,78.4756"/>
            <path d="M77.1483,78.9804 L77.2351,79.1881"/>
            <path d="M77.1483,78.9804 L77.2908,78.6976"/>
            <path d="M77.1273,77.7061 L77.0979,77.5878"/>
            <path d="M77.1273,77.7061 L77.2083,78.0317"/>
            <path d="M77.1483,78.9804 L77.0839,78.7002"/>
            <path d="M77.1483,78.9804 L77.2633,78.4756"/>
            <path d="M77.2083,78.0317 L76.838,78.1492"/>
            <path d="M77.2083,78.0317 L76.8616,77.5188"/>
            <path d="M77.0293,77.3118 L76.7998,77.0888"/>
            <path d="M77.3183,78.9196 L77.2879,79.0176"/>
            <path d="M77.2879,79.0176 L77.2576,79.1156"/>
            <path d="M77.2576,79.1156 L77.2351,79.1881"/>
            <path d="M77.2351,79.1881 L77.2908,78.6976"/>
            <path d="M77.3183,78.9196 L77.2908,78.6976"/>
            <path d="M76.9255,77.0718 L76.9875,77.1438"/>
            <path d="M76.9875,77.1438 L77.0293,77.3118"/>
            <path d="M77.0293,77.3118 L76.8634,76.9996"/>
            <path d="M76.9255,77.0718 L76.8634,76.9996"/>
            <path d="M77.0293,77.3118 L77.0574,77.425"/>
            <path d="M77.0574,77.425 L77.0979,77.5878"/>
            <path d="M77.0293,77.3118 L76.8166,77.206"/>
            <path d="M77.0979,77.5878 L76.8166,77.206"/>
            <path d="M77.0979,77.5878 L76.8616,77.5188"/>
            <path d="M76.8634,76.9996 L76.7717,76.8931"/>
            <path d="M76.8634,76.9996 L76.7998,77.0888"/>
            <path d="M77.2083,78.0317 L77.2486,78.3573"/>
            <path d="M77.2486,78.3573 L77.2633,78.4756"/>
            <path d="M77.2633,78.4756 L77.0839,78.7002"/>
            <path d="M77.2083,78.0317 L77.0839,78.7002"/>
            <path d="M82.1501,77.2138 L82.1481,77.1257"/>
            <path d="M82.1481,77.1257 L82.2232,77.471"/>
            <path d="M82.1481,77.1257 L82.2147,77.2994"/>
            <path d="M82.1585,77.2973 L82.2232,77.471"/>
            <path d="M82.1585,77.2973 L82.1501,77.2138"/>
            <path d="M82.1501,77.2138 L82.2232,77.471"/>
            <path d="M82.1504,76.9511 L82.2147,77.2994"/>
            <path d="M82.1481,77.1257 L82.1504,76.9511"/>
            <path d="M82.1481,77.1257 L82.0938,76.7763"/>
            <path d="M82.1181,77.038 L82.0938,76.7763"/>
            <path d="M82.0938,76.95 L82.0938,76.7763"/>
            <path d="M74.1297,78.7594 L74.1309,78.671"/>
            <path d="M74.1297,78.7594 L74.1258,78.8456"/>
            <path d="M80.6763,76.3491 L80.8186,75.967"/>
            <path d="M80.145,76.4515 L80.6763,76.3491"/>
            <path d="M80.145,76.4515 L79.7561,76.1718"/>
            <path d="M79.1508,75.4692 L79.3276,75.249"/>
            <path d="M79.1508,75.4692 L78.8447,75.3421"/>
            <path d="M80.331,74.3109 L80.5078,74.0906"/>
            <path d="M80.331,74.3109 L80.0248,74.1837"/>
            <path d="M78.4844,73.3636 L78.6612,73.1433"/>
            <path d="M78.4844,73.3636 L78.1782,73.2364"/>
            <path d="M78.521,71.8671 L78.6977,71.6468"/>
            <path d="M78.521,71.8671 L78.2148,71.7399"/>
            <path d="M78.5975,70.9214 L78.7743,70.7012"/>
            <path d="M78.5975,70.9214 L78.2913,70.7943"/>
            <path d="M72.8986,72.0199 L73.0754,71.7996"/>
            <path d="M72.8986,72.0199 L72.5924,71.8927"/>
            <path d="M73.8026,73.1489 L73.9794,72.9286"/>
            <path d="M73.8026,73.1489 L73.4964,73.0217"/>
            <path d="M74.9152,74.4239 L75.092,74.2036"/>
            <path d="M74.9152,74.4239 L74.609,74.2967"/>
            <path d="M75.8018,76.4871 L75.9786,76.2669"/>
            <path d="M75.8018,76.4871 L75.4956,76.36"/>
            <path d="M73.9835,75.9067 L74.1603,75.6864"/>
            <path d="M73.9835,75.9067 L73.6773,75.7795"/>
            <path d="M74.871,77.4681 L74.4821,77.1883"/>
            <path d="M75.4023,77.3657 L75.5447,76.9835"/>
            <path d="M75.4023,77.3657 L74.871,77.4681"/>
            <path d="M76.838,78.1492 L74.1309,78.671"/>
            <path d="M76.8616,77.5188 L76.838,78.1492"/>
            <path d="M76.8166,77.206 L76.8616,77.5188"/>
            <path d="M76.7998,77.0888 L76.8166,77.206"/>
            <path d="M76.7998,77.0888 L76.7717,76.8931"/>
            <path d="M76.3772,75.4986 L76.7717,76.8931"/>
            <path d="M76.1806,74.8013 L76.3772,75.4986"/>
            <path d="M76.1806,74.8013 L75.9839,74.1039"/>
            <path d="M75.9015,73.8218 L75.9839,74.1039"/>
            <path d="M75.8621,73.6804 L75.9015,73.8218"/>
            <path d="M75.8621,73.6804 L75.8228,73.5392"/>
            <path d="M75.8228,73.5392 L75.7226,73.1849"/>
            <path d="M75.5804,72.9534 L75.7226,73.1849"/>
            <path d="M74.7765,72.3776 L75.2998,72.7691"/>
            <path d="M74.6465,71.8426 L74.7765,72.3776"/>
            <path d="M74.9543,71.3466 L74.6465,71.8426"/>
            <path d="M75.5947,71.0589 L74.9543,71.3466"/>
            <path d="M76.3493,71.0777 L75.5947,71.0589"/>
            <path d="M76.9605,71.3966 L76.3493,71.0777"/>
            <path d="M77.2199,71.9067 L76.9605,71.3966"/>
            <path d="M77.0388,72.434 L77.2199,71.9067"/>
            <path d="M76.9224,72.6839 L77.0388,72.434"/>
            <path d="M76.9617,72.9461 L76.9224,72.6839"/>
            <path d="M77.1212,73.2889 L76.9617,72.9461"/>
            <path d="M77.1852,73.4253 L77.1212,73.2889"/>
            <path d="M77.1852,73.4253 L77.2494,73.562"/>
            <path d="M77.2494,73.562 L77.3741,73.8359"/>
            <path d="M77.6885,74.5106 L77.3741,73.8359"/>
            <path d="M77.6885,74.5106 L78.0029,75.1852"/>
            <path d="M78.0029,75.1852 L78.6306,76.5348"/>
            <path d="M78.7421,76.7143 L78.6306,76.5348"/>
            <path d="M78.7421,76.7143 L78.8079,76.8202"/>
            <path d="M78.8079,76.8202 L78.9851,77.1056"/>
            <path d="M78.9851,77.1056 L79.4462,77.6465"/>
            <path d="M79.4462,77.6465 L82.1481,77.1257"/>
            <path d="M82.1481,77.1257 L82.1181,77.038"/>
            <path d="M82.1181,77.038 L82.0938,76.95"/>
            <path d="M82.0938,76.95 L81.1776,73.7778"/>
            <path d="M81.1776,73.7778 L80.0947,70.6328"/>
            <path d="M80.0947,70.6328 L78.87,70.1242"/>
            <path d="M78.87,70.1242 L72.1085,71.4274"/>
            <path d="M71.4014,72.3085 L72.1085,71.4274"/>
            <path d="M71.4014,72.3085 L74.0611,78.4983"/>
            <path d="M74.0611,78.4983 L74.0976,78.584"/>
            <path d="M74.1309,78.671 L74.0976,78.584"/>
            <path d="M75.7039,71.7921 L75.5147,72.345"/>
            <path d="M80.145,76.2779 L79.8071,76.0348"/>
            <path d="M80.145,76.2779 L80.6763,76.1755"/>
            <path d="M80.6763,76.1755 L80.7676,75.9303"/>
            <path d="M79.1508,75.2956 L78.9492,75.2118"/>
            <path d="M79.1508,75.2956 L79.2231,75.2056"/>
            <path d="M80.331,74.1372 L80.1293,74.0535"/>
            <path d="M80.331,74.1372 L80.4032,74.0472"/>
            <path d="M78.4844,73.1899 L78.2828,73.1061"/>
            <path d="M78.4844,73.1899 L78.5567,73.0999"/>
            <path d="M78.521,71.6934 L78.3193,71.6097"/>
            <path d="M78.521,71.6934 L78.5932,71.6034"/>
            <path d="M78.5975,70.7478 L78.3959,70.664"/>
            <path d="M78.5975,70.7478 L78.6698,70.6578"/>
            <path d="M72.8986,71.8462 L72.9708,71.7562"/>
            <path d="M72.8986,71.8462 L72.6969,71.7625"/>
            <path d="M73.8026,72.9752 L73.8748,72.8852"/>
            <path d="M73.8026,72.9752 L73.6009,72.8915"/>
            <path d="M74.9152,74.2502 L74.9875,74.1602"/>
            <path d="M74.9152,74.2502 L74.7136,74.1664"/>
            <path d="M75.8018,76.3135 L75.6001,76.2297"/>
            <path d="M75.8018,76.3135 L75.874,76.2235"/>
            <path d="M73.9835,75.733 L74.0557,75.643"/>
            <path d="M73.9835,75.733 L73.7818,75.6493"/>
            <path d="M75.4023,77.192 L75.4936,76.9468"/>
            <path d="M74.871,77.2944 L74.5332,77.0513"/>
            <path d="M74.871,77.2944 L75.4023,77.192"/>
            <path d="M72.1085,71.2538 L71.4014,72.1348"/>
            <path d="M78.87,69.9505 L72.1085,71.2538"/>
            <path d="M80.0947,70.4592 L78.87,69.9505"/>
            <path d="M80.0947,70.4592 L81.1776,73.6041"/>
            <path d="M81.1776,73.6041 L82.0938,76.7763"/>
            <path d="M82.1504,76.9511 L82.0938,76.7763"/>
            <path d="M82.1504,76.9511 L82.2133,77.1256"/>
            <path d="M80.0475,78.5851 L79.9031,78.7167"/>
            <path d="M80.0475,78.5851 L80.1271,78.627"/>
            <path d="M81.4963,78.3058 L81.352,78.4375"/>
            <path d="M81.4963,78.3058 L81.576,78.3478"/>
            <path d="M80.6784,79.436 L80.534,79.5677"/>
            <path d="M80.6784,79.436 L80.7581,79.4779"/>
            <path d="M79.8513,80.3943 L79.7069,80.5259"/>
            <path d="M79.8513,80.3943 L79.9309,80.4362"/>
            <path d="M81.2219,80.4774 L81.0775,80.6091"/>
            <path d="M81.2219,80.4774 L81.3016,80.5194"/>
            <path d="M80.937,81.5396 L80.7927,81.6712"/>
            <path d="M80.937,81.5396 L81.0167,81.5815"/>
            <path d="M81.0563,83.7742 L80.9119,83.9059"/>
            <path d="M81.0563,83.7742 L81.136,83.8162"/>
            <path d="M81.5876,84.5401 L74.8261,85.8434"/>
            <path d="M82.5535,83.6593 L81.5876,84.5401"/>
            <path d="M82.4709,80.547 L82.5535,83.6593"/>
            <path d="M82.2232,77.471 L82.4709,80.547"/>
            <path d="M82.2232,77.471 L82.2147,77.2994"/>
            <path d="M82.2133,77.1256 L82.2147,77.2994"/>
            <path d="M73.8602,85.3349 L74.8261,85.8434"/>
            <path d="M77.6155,83.6457 L77.9625,84.0322"/>
            <path d="M78.6853,83.5246 L78.4543,83.2814"/>
            <path d="M78.7277,83.4636 L78.3896,83.1077"/>
            <path d="M78.3896,83.1077 L77.7135,83.238"/>
            <path d="M78.3896,83.1077 L78.4543,83.2814"/>
            <path d="M78.4543,83.2814 L77.7782,83.4117"/>
            <path d="M77.3754,83.7243 L77.7135,83.238"/>
            <path d="M77.7135,83.238 L77.7782,83.4117"/>
            <path d="M77.7782,83.4117 L77.4825,83.837"/>
            <path d="M75.2531,72.3305 L75.4343,71.8441"/>
            <path d="M75.4343,71.8441 L76.1104,71.7138"/>
            <path d="M76.1104,71.7138 L76.6054,72.0698"/>
            <path d="M80.6309,81.5861 L80.8723,81.7132"/>
            <path d="M81.1138,81.493 L80.8723,81.7132"/>
            <path d="M80.7501,83.8207 L80.9916,83.9478"/>
            <path d="M81.2331,83.7276 L80.9916,83.9478"/>
            <path d="M80.9157,80.5239 L81.1572,80.651"/>
            <path d="M81.3987,80.4308 L81.1572,80.651"/>
            <path d="M80.3722,79.4825 L80.6137,79.6096"/>
            <path d="M80.8552,79.3894 L80.6137,79.6096"/>
            <path d="M79.7413,78.6316 L79.9827,78.7587"/>
            <path d="M80.2242,78.5385 L79.9827,78.7587"/>
            <path d="M81.1902,78.3523 L81.4316,78.4794"/>
            <path d="M81.6731,78.2592 L81.4316,78.4794"/>
            <path d="M79.5451,80.4408 L79.7866,80.5679"/>
            <path d="M80.028,80.3477 L79.7866,80.5679"/>
            <path d="M75.1704,82.6386 L75.4119,82.4183"/>
            <path d="M75.3322,82.7237 L75.4766,82.592"/>
            <path d="M75.4119,82.4183 L75.6534,82.5455"/>
            <path d="M75.5563,82.634 L75.4766,82.592"/>
            <path d="M75.4119,82.4183 L75.4766,82.592"/>
            <path d="M76.2562,81.0747 L76.4977,80.8545"/>
            <path d="M76.418,81.1599 L76.5624,81.0282"/>
            <path d="M76.4977,80.8545 L76.7392,80.9816"/>
            <path d="M76.6421,81.0701 L76.5624,81.0282"/>
            <path d="M76.4977,80.8545 L76.5624,81.0282"/>
            <path d="M74.6111,79.6204 L74.8526,79.4002"/>
            <path d="M74.7729,79.7056 L74.9173,79.5739"/>
            <path d="M74.8526,79.4002 L75.0941,79.5273"/>
            <path d="M74.997,79.6158 L74.9173,79.5739"/>
            <path d="M74.8526,79.4002 L74.9173,79.5739"/>
            <path d="M76.06,79.3411 L76.3015,79.1209"/>
            <path d="M76.2218,79.4263 L76.3662,79.2946"/>
            <path d="M76.3015,79.1209 L76.543,79.248"/>
            <path d="M76.4459,79.3366 L76.3662,79.2946"/>
            <path d="M76.3015,79.1209 L76.3662,79.2946"/>
            <path d="M75.4291,80.4353 L75.6706,80.215"/>
            <path d="M75.5909,80.5204 L75.7353,80.3888"/>
            <path d="M75.6706,80.215 L75.9121,80.3422"/>
            <path d="M75.815,80.4307 L75.7353,80.3888"/>
            <path d="M75.6706,80.215 L75.7353,80.3888"/>
            <path d="M74.8856,81.6862 L75.1271,81.466"/>
            <path d="M75.0474,81.7714 L75.1918,81.6397"/>
            <path d="M75.1271,81.466 L75.3685,81.5931"/>
            <path d="M75.2715,81.6816 L75.1918,81.6397"/>
            <path d="M75.1271,81.466 L75.1918,81.6397"/>
            <path d="M75.0512,84.9192 L75.2926,84.699"/>
            <path d="M75.213,85.0044 L75.3574,84.8727"/>
            <path d="M75.2926,84.699 L75.5341,84.8261"/>
            <path d="M75.437,84.9146 L75.3574,84.8727"/>
            <path d="M75.2926,84.699 L75.3574,84.8727"/>
            <path d="M80.0248,74.1837 L80.2016,73.9635"/>
            <path d="M80.2016,73.9635 L80.5078,74.0906"/>
            <path d="M78.2148,71.7399 L78.3915,71.5197"/>
            <path d="M78.3915,71.5197 L78.6977,71.6468"/>
            <path d="M75.4956,76.36 L75.6724,76.1397"/>
            <path d="M75.6724,76.1397 L75.9786,76.2669"/>
            <path d="M73.4964,73.0217 L73.6732,72.8015"/>
            <path d="M73.6732,72.8015 L73.9794,72.9286"/>
            <path d="M73.6773,75.7795 L73.8541,75.5593"/>
            <path d="M73.8541,75.5593 L74.1603,75.6864"/>
            <path d="M74.609,74.2967 L74.7858,74.0764"/>
            <path d="M74.7858,74.0764 L75.092,74.2036"/>
            <path d="M72.5924,71.8927 L72.7692,71.6725"/>
            <path d="M72.7692,71.6725 L73.0754,71.7996"/>
            <path d="M78.2913,70.7943 L78.4681,70.574"/>
            <path d="M78.4681,70.574 L78.7743,70.7012"/>
            <path d="M78.1782,73.2364 L78.355,73.0161"/>
            <path d="M78.355,73.0161 L78.6612,73.1433"/>
            <path d="M78.8447,75.3421 L79.0214,75.1218"/>
            <path d="M79.0214,75.1218 L79.3276,75.249"/>
            <path d="M74.4821,77.1883 L74.6245,76.8062"/>
            <path d="M75.5447,76.9835 L75.1557,76.7038"/>
            <path d="M79.7561,76.1718 L79.8984,75.7896"/>
            <path d="M74.6245,76.8062 L75.1557,76.7038"/>
            <path d="M79.8984,75.7896 L80.4297,75.6872"/>
            <path d="M80.4297,75.6872 L80.8186,75.967"/>
        </g>
        <g id="product-b82bda0c-0651-4851-aee7-06ee3b64c80f" class="IfcBeam material-woodStructural projection" ifc:name="Beam" ifc:guid="2uAzeC1b58KQxd1kuxPCWF">
            <path d="M12.5619,87.2502 L12.9109,87.4339"/>
            <path d="M12.9109,87.4339 L6.42228,93.3509"/>
            <path d="M12.9109,87.4339 L25.2161,120.469"/>
            <path d="M31.4922,137.318 L33.1747,141.834"/>
            <path d="M6.42228,93.3509 L6.07327,93.1672"/>
            <path d="M4.43832,94.6581 L16.8831,128.067"/>
            <path d="M23.1592,144.917 L23.6126,146.134"/>
            <path d="M6.42228,93.3509 L18.7274,126.386"/>
            <path d="M25.0036,143.235 L26.6861,147.752"/>
        </g>
        <g id="product-60993cde-9938-4586-b152-6fd3a299a99f" class="IfcBeam material-woodStructural projection" ifc:name="Beam" ifc:guid="1WcJpUcJX5Xh5IRzEYcQcV">
            <path d="M56.2747,47.388 L56.6236,47.5717"/>
            <path d="M56.6236,47.5717 L50.1349,53.4887"/>
            <path d="M56.6236,47.5717 L68.9288,80.6065"/>
            <path d="M50.1349,53.4887 L49.7861,53.3051"/>
            <path d="M48.151,54.7961 L60.5958,88.2054"/>
            <path d="M66.872,105.054 L67.3253,106.271"/>
            <path d="M50.1349,53.4887 L62.4402,86.5235"/>
            <path d="M68.7163,103.373 L70.3988,107.889"/>
        </g>
        <g id="product-e815f111-2bbc-4cb8-81bb-fd4b763a85bb" class="IfcBeam material-woodStructural projection" ifc:name="Beam" ifc:guid="3e5V4HAxnCk86x$KjsEeMx">
            <path d="M163.592,89.8273 L163.665,89.7609"/>
            <path d="M170.081,93.243 L163.592,89.8273"/>
            <path d="M163.592,89.8273 L175.988,123.106"/>
            <path d="M183.084,142.155 L183.856,144.228"/>
            <path d="M170.153,93.1766 L170.081,93.243"/>
            <path d="M170.081,93.243 L182.477,126.522"/>
            <path d="M189.572,145.57 L190.344,147.644"/>
            <path d="M175.154,95.8089 L187.599,129.218"/>
        </g>
        <g id="product-dab33d51-8ace-44c4-a35e-0f7fa3db9cd3" class="IfcBeam material-woodStructural projection" ifc:name="Beam" ifc:guid="3QiprHYiv4nADU3t_ZsvpJ">
            <path d="M119.879,66.8161 L119.952,66.7497"/>
            <path d="M126.368,70.2319 L119.879,66.8161"/>
            <path d="M119.879,66.8161 L132.275,100.095"/>
            <path d="M139.371,119.143 L140.143,121.217"/>
            <path d="M126.441,70.1654 L126.368,70.2319"/>
            <path d="M126.368,70.2319 L138.764,103.511"/>
            <path d="M145.859,122.559 L146.632,124.633"/>
            <path d="M131.441,72.7977 L143.886,106.207"/>
        </g>
        <g id="product-4d35ed21-0730-449d-9c6d-9692e3b3a83a" class="IfcBeam material-woodStructural projection" ifc:name="Beam" ifc:guid="1DDUqX1p14dPnjbfBZiwWw">
            <path d="M76.1662,43.805 L76.2391,43.7385"/>
            <path d="M82.6548,47.2207 L76.1662,43.805"/>
            <path d="M76.1662,43.805 L88.5624,77.084"/>
            <path d="M95.6578,96.1323 L96.4301,98.2056"/>
            <path d="M82.7277,47.1542 L82.6548,47.2207"/>
            <path d="M82.6548,47.2207 L95.0511,80.4998"/>
            <path d="M102.146,99.548 L102.919,101.621"/>
            <path d="M87.7282,49.7865 L100.173,83.196"/>
        </g>
        <g id="product-6c166d7d-d91b-4d01-829f-f9be908c7e64" class="IfcBeam material-woodStructural projection" ifc:name="Beam" ifc:guid="1i5crzsHjD0OAV_RwGZ7va">
            <path d="M-6.73262,-193.746 L28.9288,-98.0086"/>
            <path d="M39.9313,-68.4711 L50.497,-40.1065"/>
            <path d="M61.4995,-10.569 L72.0651,17.7956"/>
            <path d="M104.636,105.235 L105.972,108.821"/>
            <path d="M126.204,163.138 L136.77,191.502"/>
            <path d="M147.772,221.04 L167.851,274.943"/>
            <path d="M169.894,280.428 L292.963,610.82"/>
            <path d="M292.963,610.82 L292.963,633.952"/>
            <path d="M2.50712,-145.808 L-6.73262,-193.746"/>
            <path d="M-6.73262,-193.746 L-21.2265,-193.746"/>
            <path d="M-21.2265,-193.746 L-11.9868,-145.808"/>
            <path d="M2.50712,-145.808 L85.3252,76.5258"/>
            <path d="M91.8895,94.1486 L105.972,131.953"/>
            <path d="M115.365,157.172 L292.963,633.952"/>
            <path d="M292.963,633.952 L279.44,636.559"/>
            <path d="M-11.9868,-145.808 L71.8022,79.1323"/>
            <path d="M90.1309,128.338 L105.972,170.864"/>
            <path d="M115.365,196.082 L279.44,636.559"/>
            <path d="M-11.9868,-145.808 L2.50712,-145.808"/>
        </g>
        <g id="product-61f8aaf9-380d-4069-be2d-0eea19686b3a" class="IfcBeam material-woodStructural projection" ifc:name="Beam" ifc:guid="1X_AhvE0r0QRuj3kePQ6iw">
            <path d="M72.0438,288.812 L72.0439,79.0859"/>
            <path d="M76.3905,287.193 L76.3906,85.5419"/>
            <path d="M76.3906,79.387 L76.3906,79.3074"/>
            <path d="M77.0908,314.997 L81.4375,313.378"/>
            <path d="M81.4375,313.378 L76.3905,287.193"/>
            <path d="M76.3905,287.193 L72.0438,288.812"/>
            <path d="M72.0438,288.812 L77.0908,314.997"/>
        </g>
        <g id="product-41d91389-bad8-4d50-94c8-3eecfd5f9075" class="IfcBeam material-woodStructural projection" ifc:name="Beam" ifc:guid="11sHE9kjXDK9J8FkpzNv1r">
            <path d="M76.3905,287.193 L76.3906,85.5419"/>
            <path d="M76.3906,79.387 L76.3906,79.3074"/>
            <path d="M80.7372,285.574 L80.7372,84.704"/>
            <path d="M80.7372,79.4969 L80.7372,79.467"/>
            <path d="M81.4375,313.378 L85.7842,311.759"/>
            <path d="M85.7842,311.759 L80.7372,285.574"/>
            <path d="M80.7372,285.574 L76.3905,287.193"/>
            <path d="M76.3905,287.193 L81.4375,313.378"/>
        </g>
        <g id="product-e470f145-a981-44c6-81b8-929f780fa998" class="IfcBeam material-woodStructural projection" ifc:name="Beam" ifc:guid="3aSF55gO54ne6uafzu3wcO">
            <path d="M80.7372,285.574 L80.7372,84.704"/>
            <path d="M80.7372,79.4969 L80.7372,79.467"/>
            <path d="M85.0839,283.955 L85.0839,79.6738"/>
            <path d="M90.1308,310.14 L90.1309,93.2228"/>
            <path d="M85.7842,311.759 L90.1308,310.14"/>
            <path d="M90.1308,310.14 L85.0839,283.955"/>
            <path d="M85.0839,283.955 L80.7372,285.574"/>
            <path d="M80.7372,285.574 L85.7842,311.759"/>
        </g>
        <g id="product-97629c14-16a5-46b5-a5cf-1f2c2ecdc8a4" class="IfcBeam material-woodStructural projection" ifc:name="Beam" ifc:guid="2NOfmK5gL6jQNF7omkpSYa">
            <path d="M331.441,220.253 L336.359,218.421"/>
            <path d="M336.359,218.421 L317.256,197.472"/>
            <path d="M312.338,199.304 L331.441,220.253"/>
            <path d="M331.441,220.253 L173.321,137.015"/>
            <path d="M163.927,132.07 L115.365,106.507"/>
            <path d="M105.972,101.562 L90.1308,93.2228"/>
            <path d="M90.1308,93.2228 L85.0839,79.6736"/>
            <path d="M317.256,197.472 L312.338,199.304"/>
            <path d="M312.338,199.304 L85.0839,79.6736"/>
            <path d="M85.0839,79.6736 L85.0839,76.5723"/>
            <path d="M317.256,197.472 L85.3252,75.3799"/>
        </g>
        <g id="product-1ceb742f-06c1-4972-b608-dc1c890d86ae" class="IfcBeam material-woodStructural projection" ifc:name="Beam" ifc:guid="0SwtGl1i59ShO8t1o93OQk">
            <path d="M57.4097,113.683 L57.4096,113.683"/>
            <path d="M57.4096,322.328 L57.4097,113.683"/>
            <path d="M53.063,323.947 L57.4096,322.328"/>
            <path d="M57.4096,322.328 L52.3627,296.143"/>
            <path d="M53.063,323.947 L48.016,297.763"/>
            <path d="M52.3627,296.143 L52.3627,100.134"/>
            <path d="M48.016,297.763 L48.0161,104.098"/>
            <path d="M48.016,297.763 L52.3627,296.143"/>
        </g>
        <g id="product-8aa12d21-8c0b-4f34-99e1-f84b2f15ba0d" class="IfcBeam material-woodStructural projection" ifc:name="Beam" ifc:guid="2AeIqXZ0jFD9dX_4il5ReD">
            <path d="M173.321,137.016 L168.274,123.466"/>
            <path d="M173.321,279.152 L173.321,137.016"/>
            <path d="M168.974,280.771 L173.321,279.152"/>
            <path d="M173.321,279.152 L168.274,252.967"/>
            <path d="M168.974,280.771 L163.927,254.586"/>
            <path d="M168.274,252.967 L168.274,123.466"/>
            <path d="M168.274,123.466 L163.927,121.178"/>
            <path d="M163.927,254.586 L163.927,121.178"/>
            <path d="M163.927,254.586 L168.274,252.967"/>
        </g>
        <g id="product-3ce28842-bd12-40e8-828b-441d192e70ca" class="IfcBeam material-woodStructural projection" ifc:name="Beam" ifc:guid="0yueX2lH90w8ABH1qPBd3A">
            <path d="M115.365,106.507 L110.318,92.9576"/>
            <path d="M115.365,300.74 L115.365,106.507"/>
            <path d="M111.018,302.359 L115.365,300.74"/>
            <path d="M115.365,300.74 L110.318,274.555"/>
            <path d="M111.018,302.359 L105.972,276.175"/>
            <path d="M110.318,274.555 L110.318,92.9576"/>
            <path d="M110.318,92.9576 L105.972,90.6695"/>
            <path d="M105.972,276.175 L105.972,90.6695"/>
            <path d="M105.972,276.175 L110.318,274.555"/>
        </g>
        <g id="product-3ce28842-bd12-40e8-828b-441d192e70ca-body" class="IfcBeam material-woodStructural cut" ifc:name="Beam" ifc:guid="0yueX2lH90w8ABH1qPBd3A">
            <path d="M111.018,302.359 L105.972,276.175 L110.318,274.555 L115.365,300.74 L111.018,302.359"/>
        </g>
        <g id="product-8aa12d21-8c0b-4f34-99e1-f84b2f15ba0d-body" class="IfcBeam material-woodStructural cut" ifc:name="Beam" ifc:guid="2AeIqXZ0jFD9dX_4il5ReD">
            <path d="M168.974,280.771 L163.927,254.586 L168.274,252.967 L173.321,279.152 L168.974,280.771"/>
        </g>
        <g id="product-1ceb742f-06c1-4972-b608-dc1c890d86ae-body" class="IfcBeam material-woodStructural cut" ifc:name="Beam" ifc:guid="0SwtGl1i59ShO8t1o93OQk">
            <path d="M53.063,323.947 L48.016,297.763 L52.3627,296.143 L57.4096,322.328 L53.063,323.947"/>
        </g>
        <g id="product-97629c14-16a5-46b5-a5cf-1f2c2ecdc8a4-body" class="IfcBeam material-woodStructural cut" ifc:name="Beam" ifc:guid="2NOfmK5gL6jQNF7omkpSYa">
            <path d="M317.256,197.472 L312.338,199.304 L331.441,220.253 L336.359,218.421 L317.256,197.472"/>
        </g>
        <g id="product-e470f145-a981-44c6-81b8-929f780fa998-body" class="IfcBeam material-woodStructural cut" ifc:name="Beam" ifc:guid="3aSF55gO54ne6uafzu3wcO">
            <path d="M85.7842,311.759 L90.1308,310.14 L85.0839,283.955 L80.7372,285.574 L85.7842,311.759"/>
        </g>
        <g id="product-41d91389-bad8-4d50-94c8-3eecfd5f9075-body" class="IfcBeam material-woodStructural cut" ifc:name="Beam" ifc:guid="11sHE9kjXDK9J8FkpzNv1r">
            <path d="M81.4375,313.378 L85.7842,311.759 L80.7372,285.574 L76.3905,287.193 L81.4375,313.378"/>
        </g>
        <g id="product-61f8aaf9-380d-4069-be2d-0eea19686b3a-body" class="IfcBeam material-woodStructural cut" ifc:name="Beam" ifc:guid="1X_AhvE0r0QRuj3kePQ6iw">
            <path d="M77.0908,314.997 L81.4375,313.378 L76.3905,287.193 L72.0438,288.812 L77.0908,314.997"/>
        </g>
        <g id="product-6c166d7d-d91b-4d01-829f-f9be908c7e64-body" class="IfcBeam material-woodStructural cut" ifc:name="Beam" ifc:guid="1i5crzsHjD0OAV_RwGZ7va">
            <path d="M-11.9868,-145.808 L2.50712,-145.808 L-6.73262,-193.746 L-21.2265,-193.746 L-11.9868,-145.808"/>
        </g>
        <g id="product-467152f2-e003-4d1e-bcec-12220c6087d0-model" class="IfcMember material-wood cut" ifc:name="I-profil 45x400, normal sp&#230;r byg 1.013" ifc:guid="16SLBou0DD7hpi4Y8CO8VG">
            <path d="M-191.116,191.227 L-195.357,199.283 L-203.917,202.471 L-202.644,200.054 L-258.374,220.813 L-259.646,223.23 L-268.206,226.418 L-263.965,218.362 L-255.405,215.174 L-256.677,217.591 L-200.948,196.832 L-199.676,194.415 L-191.116,191.227 M193.651,54.3802 L188.514,56.2935 L184.105,51.4592 L189.242,49.5459 L190.565,50.9962 L224.007,38.5393 L222.684,37.089 L227.82,35.1757 L232.229,40.01 L227.092,41.9233 L225.77,40.473 L192.328,52.9299 L193.651,54.3802"/>
        </g>
        <g id="product-1b42096a-2984-49fd-9b0e-a1655e98b6ae-model" class="IfcMember material-wood cut" ifc:name="I-profil 45x400, normal sp&#230;r byg 1.012" ifc:guid="0RGWbgAOH9$PiEeMLUcBQk">
            <path d="M-124.11,50.8679 L-164.41,65.8793 L-179.839,71.6267 L-181.111,74.0435 L-189.671,77.232 L-185.43,69.1759 L-176.871,65.9874 L-178.143,68.4043 L-166.173,63.9456 L-122.414,47.6455 L-121.141,45.2286 L-112.582,42.0402 L-116.822,50.0963 L-125.382,53.2848 L-124.11,50.8679 M-166.173,63.9456 L-164.41,65.8793 M107.605,-39.9777 L108.927,-38.5274 L142.369,-50.9843 L141.047,-52.4346 L146.183,-54.3479 L150.591,-49.5136 L145.455,-47.6003 L144.132,-49.0506 L110.691,-36.5937 L112.013,-35.1434 L106.876,-33.2301 L102.468,-38.0644 L107.605,-39.9777"/>
        </g>
        <g id="product-279309b1-3095-4fef-954e-1215988165d1-model" class="IfcMember material-wood cut" ifc:name="I-profil 45x400, normal sp&#230;r byg 1.016" ifc:guid="0damcnC9LFxvLE4XMOWMNH">
            <path d="M356.926,233.428 L351.789,235.341 L347.381,230.507 L352.517,228.593 L353.84,230.044 L387.282,217.587 L385.959,216.136 L391.096,214.223 L395.504,219.057 L390.368,220.971 L389.045,219.52 L355.603,231.977 L356.926,233.428"/>
        </g>
        <g id="product-b23ce50e-5780-4fc1-bd38-63153b062f42-model" class="IfcMember material-wood cut" ifc:name="I-profil 45x400, normal sp&#230;r byg 1.014" ifc:guid="2oFEKELu1FmRquOnKx1Yz2">
            <path d="M275.288,143.904 L270.151,145.817 L265.743,140.983 L270.88,139.07 L272.202,140.52 L305.644,128.063 L304.322,126.613 L309.458,124.699 L313.866,129.534 L308.73,131.447 L307.407,129.997 L273.966,142.454 L275.288,143.904"/>
        </g>
        </g>
</svg>