<svg xmlns="http://www.w3.org/2000/svg" xmlns:xlink="http://www.w3.org/1999/xlink" xmlns:ifc="http://www.ifcopenshell.org/ns" width="190mm" height="169.679mm" viewBox="0 0 190 169.679">
    <defs>
        <marker id="arrowend" markerWidth="10" markerHeight="7" refX="10" refY="3.5" orient="auto">
          <polygon points="0 0, 10 3.5, 0 7"/>
        </marker>
        <marker id="arrowstart" markerWidth="10" markerHeight="7" refX="0" refY="3.5" orient="auto">
          <polygon points="10 0, 0 3.5, 10 7"/>
        </marker>
    </defs>
    <g ifc:name="Elevation 3d samling kipbj&#230;lke kipbj&#230;lke" class="section" ifc:plane="[[1.000000,0.000000,0.000000,0.000000],[0.000000,1.000000,0.000000,0.000000],[0.000000,0.000000,1.000000,0.000000],[0.000000,0.000000,0.000000,1.000000]]" ifc:matrix3="[[100.000001,0.000000,754.914557],[0.000000,100.000001,-634.306824],[0.000000,0.000000,1.000000]]">
        <g id="product-580c15a0-1431-4605-b6bc-870f81fe0ab0" class="IfcMember material-wood projection" ifc:name="I-profil 45x400, normal sp&#230;r byg 1.042" ifc:guid="1O31MW53561RQyXm_1$Wgm">
            <path d="M201.93,116.234 L202.909,121.488"/>
            <path d="M206.641,118.714 L207.619,123.968"/>
            <path d="M209.003,124.145 L209.117,124.756"/>
            <path d="M195.984,113.104 L196.963,118.358"/>
            <path d="M200.977,115.732 L201.955,120.986"/>
        </g>
    <g id="product-1ee8508c-03ef-4a4e-b53e-d878d66eee53" class="IfcMember material-wood projection" ifc:name="I-profil 45x400, normal sp&#230;r byg 1.020" ifc:guid="0Uw52C0_zAJhK_s7ZMRkvJ">
            <path d="M135.75,91.5062 L211.748,131.512"/>
            <path d="M223.358,137.624 L239.593,146.171"/>
            <path d="M136.799,91.3041 L211.398,130.574"/>
            <path d="M223.009,136.686 L239.243,145.233"/>
            <path d="M89.4553,64.4814 L89.4553,61.9674"/>
            <path d="M89.4553,61.9674 L89.4553,61.7645"/>
            <path d="M89.4553,61.7645 L96.5562,65.5025"/>
            <path d="M143.219,90.0666 L209.259,124.831"/>
            <path d="M220.869,130.943 L242.454,142.305"/>
            <path d="M97.3816,107.746 L216.298,170.346"/>
            <path d="M96.2169,100.002 L218.343,164.292"/>
            <path d="M96.2169,104.62 L215.133,167.219"/>
            <path d="M401.469,233.145 L399.308,232.007"/>
            <path d="M406.028,230.927 L405.82,230.37"/>
            <path d="M406.028,231.447 L406.028,230.927"/>
            <path d="M402.197,226.397 L242.454,142.305"/>
            <path d="M397.061,228.31 L239.243,145.233"/>
            <path d="M398.383,229.761 L239.593,146.171"/>
            <path d="M363.619,240.767 L236.938,174.08"/>
            <path d="M225.327,167.968 L218.343,164.292"/>
            <path d="M366.705,244.151 L368.027,245.602"/>
            <path d="M400.146,231.694 L366.705,244.151"/>
            <path d="M401.469,233.145 L400.146,231.694"/>
            <path d="M406.028,231.447 L401.469,233.145"/>
            <path d="M406.028,231.447 L405.82,230.37"/>
            <path d="M402.197,226.397 L405.82,230.37"/>
            <path d="M397.061,228.31 L402.197,226.397"/>
            <path d="M398.383,229.761 L397.061,228.31"/>
            <path d="M364.941,242.217 L398.383,229.761"/>
            <path d="M363.619,240.767 L364.941,242.217"/>
            <path d="M358.482,242.681 L363.619,240.767"/>
            <path d="M368.027,245.602 L362.89,247.515"/>
            <path d="M358.482,242.681 L239.077,179.824"/>
            <path d="M227.466,173.712 L215.133,167.219"/>
            <path d="M358.482,242.681 L362.89,247.515"/>
            <path d="M216.298,170.346 L228.631,176.838"/>
            <path d="M240.242,182.95 L362.89,247.515"/>
            <path d="M-225.071,376.527 L-211.628,373.936"/>
            <path d="M-211.279,374.874 L-211.628,373.936"/>
            <path d="M-211.279,374.874 L-204.858,373.637"/>
            <path d="M-212.094,372.685 L-212.443,371.747"/>
            <path d="M-225.537,375.277 L-225.071,376.527"/>
            <path d="M-225.537,375.277 L-225.537,354.883"/>
            <path d="M-225.537,375.277 L-212.094,372.685"/>
            <path d="M-225.537,354.883 L-225.887,353.945"/>
            <path d="M-225.537,354.883 L-103.025,243.163"/>
            <path d="M-225.887,349.328 L-106.584,240.535"/>
            <path d="M-225.887,353.945 L-225.887,349.328"/>
            <path d="M-225.887,353.945 L-103.374,242.225"/>
            <path d="M-204.858,373.637 L-78.0991,258.044"/>
            <path d="M-206.023,370.51 L-204.858,373.637"/>
            <path d="M-206.023,370.51 L-79.2637,254.917"/>
            <path d="M-211.394,371.545 L-206.023,370.51"/>
            <path d="M-211.394,371.545 L-212.443,371.747"/>
            <path d="M-212.443,371.747 L-82.4739,253.227"/>
            <path d="M72.733,81.631 L-103.374,242.225"/>
            <path d="M89.4553,61.7645 L88.6999,62.4534"/>
            <path d="M71.4492,78.1845 L-106.584,240.535"/>
            <path d="M83.5399,110.643 L-78.0991,258.044"/>
            <path d="M82.3752,107.517 L-79.2637,254.917"/>
            <path d="M81.0914,104.07 L-82.4739,253.227"/>
            <path d="M73.0824,82.569 L-103.025,243.163"/>
            <path d="M89.4553,64.4815 L89.4553,61.7645"/>
            <path d="M89.4553,61.7645 L89.4553,61.7646"/>
        </g>
        <g id="product-dd57d0db-1c6d-4e1c-8aee-4d339669e3d9" class="IfcMember material-wood projection" ifc:name="I-profil 45x400, normal sp&#230;r byg 1.021" ifc:guid="3TLz3R76rE78hkJJEMQUFP">
            <path d="M118.134,141.231 L118.05,141.247"/>
            <path d="M118.134,141.474 L118.134,141.231"/>
            <path d="M112.253,125.685 L233.316,189.415"/>
            <path d="M244.926,195.527 L261.161,204.073"/>
            <path d="M111.904,124.747 L232.966,188.477"/>
            <path d="M244.577,194.589 L260.812,203.135"/>
            <path d="M111.023,122.384 L111.023,119.87"/>
            <path d="M111.023,119.87 L111.023,119.667"/>
            <path d="M111.023,119.667 L230.827,182.733"/>
            <path d="M242.437,188.845 L264.022,200.208"/>
            <path d="M117.785,157.905 L239.911,222.194"/>
            <path d="M118.95,165.649 L237.866,228.248"/>
            <path d="M117.785,162.522 L236.701,225.121"/>
            <path d="M427.596,288.829 L426.431,285.703"/>
            <path d="M427.596,293.447 L427.596,288.829"/>
            <path d="M427.246,312.855 L427.246,292.508"/>
            <path d="M426.78,291.258 L426.78,311.604"/>
            <path d="M426.78,291.258 L261.161,204.073"/>
            <path d="M426.431,290.32 L426.78,291.258"/>
            <path d="M426.431,285.703 L264.022,200.208"/>
            <path d="M426.431,290.32 L260.812,203.135"/>
            <path d="M426.431,285.703 L426.431,290.32"/>
            <path d="M427.596,293.447 L427.246,293.263"/>
            <path d="M427.246,292.508 L427.596,293.447"/>
            <path d="M412.922,313.27 L258.506,231.982"/>
            <path d="M246.895,225.87 L239.911,222.194"/>
            <path d="M414.087,316.396 L407.666,317.634"/>
            <path d="M413.737,315.458 L414.087,316.396"/>
            <path d="M427.246,312.855 L413.737,315.458"/>
            <path d="M426.78,311.604 L427.246,312.855"/>
            <path d="M413.271,314.208 L426.78,311.604"/>
            <path d="M412.922,313.27 L413.271,314.208"/>
            <path d="M406.502,314.507 L412.922,313.27"/>
            <path d="M407.666,317.634 L406.502,314.507"/>
            <path d="M406.502,314.507 L260.645,237.726"/>
            <path d="M249.035,231.614 L236.701,225.121"/>
            <path d="M237.866,228.248 L250.199,234.741"/>
            <path d="M261.81,240.853 L407.666,317.634"/>
            <path d="M-190.06,431.838 L-203.503,434.429"/>
            <path d="M-189.71,432.776 L-190.06,431.838"/>
            <path d="M-189.71,432.776 L-184.406,431.754"/>
            <path d="M-184.406,431.754 L-183.29,431.539"/>
            <path d="M-190.526,430.588 L-190.875,429.65"/>
            <path d="M-203.969,433.179 L-203.503,434.429"/>
            <path d="M-203.969,433.179 L-203.969,412.785"/>
            <path d="M-203.969,433.179 L-190.526,430.588"/>
            <path d="M-203.969,412.785 L-204.318,411.847"/>
            <path d="M-203.969,412.785 L-81.4565,301.065"/>
            <path d="M-204.318,407.23 L-85.0161,298.437"/>
            <path d="M-204.318,411.847 L-204.318,407.23"/>
            <path d="M-204.318,411.847 L-81.8059,300.127"/>
            <path d="M-183.29,431.539 L-56.5309,315.946"/>
            <path d="M-184.455,428.412 L-183.29,431.539"/>
            <path d="M-184.455,428.412 L-57.6956,312.819"/>
            <path d="M-189.826,429.447 L-184.455,428.412"/>
            <path d="M-189.826,429.447 L-190.875,429.65"/>
            <path d="M-190.875,429.65 L-60.9057,311.129"/>
            <path d="M94.3012,139.533 L-81.8059,300.127"/>
            <path d="M111.023,119.667 L110.268,120.356"/>
            <path d="M93.0174,136.087 L-85.0161,298.437"/>
            <path d="M105.108,168.546 L-56.5309,315.946"/>
            <path d="M103.943,165.419 L-57.6956,312.819"/>
            <path d="M102.66,161.972 L-60.9057,311.129"/>
            <path d="M94.6506,140.471 L-81.4565,301.065"/>
            <path d="M111.024,122.384 L111.023,119.667"/>
            <path d="M111.023,119.667 L111.023,119.667"/>
        </g>
        <g id="product-8e4d39ac-4db9-4407-befa-ad527d18424b" class="IfcMember material-wood projection" ifc:name="I-profil 45x400, normal sp&#230;r byg 1.022" ifc:guid="2EJJciJRb41xxwhL9z649B">
            <path d="M138.482,186.041 L254.884,247.317"/>
            <path d="M266.494,253.429 L282.729,261.975"/>
            <path d="M138.133,185.103 L254.534,246.379"/>
            <path d="M266.145,252.491 L282.38,261.037"/>
            <path d="M135.993,179.36 L252.395,240.635"/>
            <path d="M264.006,246.747 L285.59,258.11"/>
            <path d="M140.518,223.551 L259.434,286.15"/>
            <path d="M139.353,215.807 L140.451,216.385"/>
            <path d="M152.062,222.497 L261.48,280.096"/>
            <path d="M139.353,220.424 L258.269,283.024"/>
            <path d="M449.164,346.731 L447.999,343.605"/>
            <path d="M449.164,351.349 L449.164,346.731"/>
            <path d="M448.815,370.757 L448.815,350.411"/>
            <path d="M448.349,349.16 L448.349,369.506"/>
            <path d="M448.349,349.16 L282.729,261.975"/>
            <path d="M447.999,348.222 L448.349,349.16"/>
            <path d="M447.999,343.605 L285.59,258.11"/>
            <path d="M447.999,348.222 L282.38,261.037"/>
            <path d="M447.999,343.605 L447.999,348.222"/>
            <path d="M449.164,351.349 L448.815,351.165"/>
            <path d="M448.815,350.411 L449.164,351.349"/>
            <path d="M434.49,371.172 L280.074,289.885"/>
            <path d="M268.463,283.773 L261.48,280.096"/>
            <path d="M435.655,374.299 L429.235,375.536"/>
            <path d="M435.306,373.361 L435.655,374.299"/>
            <path d="M448.815,370.757 L435.306,373.361"/>
            <path d="M448.349,369.506 L448.815,370.757"/>
            <path d="M434.84,372.11 L448.349,369.506"/>
            <path d="M434.49,371.172 L434.84,372.11"/>
            <path d="M428.07,372.409 L434.49,371.172"/>
            <path d="M429.235,375.536 L428.07,372.409"/>
            <path d="M428.07,372.409 L278.17,293.5"/>
            <path d="M270.603,289.516 L258.269,283.024"/>
            <path d="M259.434,286.15 L429.235,375.536"/>
            <path d="M-168.492,489.74 L-181.935,492.332"/>
            <path d="M-168.142,490.678 L-168.492,489.74"/>
            <path d="M-168.142,490.678 L-162.838,489.656"/>
            <path d="M-162.838,489.656 L-161.722,489.441"/>
            <path d="M-168.958,488.49 L-169.307,487.552"/>
            <path d="M-182.401,491.081 L-181.935,492.332"/>
            <path d="M-182.401,491.081 L-182.401,470.688"/>
            <path d="M-182.401,491.081 L-168.958,488.49"/>
            <path d="M-182.401,470.688 L-182.75,469.75"/>
            <path d="M-182.401,470.688 L-59.8883,358.967"/>
            <path d="M-182.75,465.132 L-63.4479,356.339"/>
            <path d="M-182.75,469.75 L-182.75,465.132"/>
            <path d="M-182.75,469.75 L-60.2377,358.029"/>
            <path d="M-161.722,489.441 L-34.9627,373.848"/>
            <path d="M-162.887,486.314 L-161.722,489.441"/>
            <path d="M-162.887,486.314 L-36.1274,370.721"/>
            <path d="M-168.257,487.349 L-162.887,486.314"/>
            <path d="M-168.257,487.349 L-169.307,487.552"/>
            <path d="M-169.307,487.552 L-39.3376,369.031"/>
            <path d="M115.869,197.435 L113.315,199.765"/>
            <path d="M104.982,207.364 L-60.2377,358.029"/>
            <path d="M114.586,193.989 L112.031,196.319"/>
            <path d="M103.698,203.917 L-63.4479,356.339"/>
            <path d="M126.676,226.448 L-34.9627,373.848"/>
            <path d="M125.512,223.321 L-36.1274,370.721"/>
            <path d="M124.228,219.875 L121.673,222.204"/>
            <path d="M113.34,229.803 L-39.3376,369.031"/>
            <path d="M116.219,198.373 L113.664,200.703"/>
            <path d="M105.331,208.302 L-59.8883,358.967"/>
        </g>
        <g id="product-c3f052d3-8781-4e1b-89ce-cb41070acc6c" class="IfcMember material-wood projection" ifc:name="I-profil 45x400, normal sp&#230;r byg 1.019" ifc:guid="33y5BJXu5E6udEoq472ini">
            <path d="M74.998,25.4264 L74.9137,25.4427"/>
            <path d="M74.998,25.6693 L74.998,25.4264"/>
            <path d="M69.117,9.88104 L190.179,73.6103"/>
            <path d="M201.79,79.7223 L218.025,88.2686"/>
            <path d="M68.7676,8.94302 L189.83,72.6723"/>
            <path d="M201.441,78.7843 L217.675,87.3305"/>
            <path d="M67.8871,6.57926 L67.8871,4.06523"/>
            <path d="M67.8871,4.06523 L67.8871,3.86231"/>
            <path d="M67.8871,3.86231 L187.691,66.9289"/>
            <path d="M199.301,73.0409 L220.885,84.4032"/>
            <path d="M75.8134,49.8443 L194.73,112.444"/>
            <path d="M74.6487,42.1002 L196.775,106.39"/>
            <path d="M74.6487,46.7175 L193.565,109.317"/>
            <path d="M319.831,143.621 L317.67,142.483"/>
            <path d="M320.559,136.873 L220.885,84.4032"/>
            <path d="M315.423,138.787 L217.675,87.3305"/>
            <path d="M316.746,140.237 L218.025,88.2686"/>
            <path d="M281.981,151.243 L215.369,116.178"/>
            <path d="M203.759,110.066 L196.775,106.39"/>
            <path d="M285.067,154.628 L286.39,156.078"/>
            <path d="M318.509,142.171 L285.067,154.628"/>
            <path d="M319.831,143.621 L318.509,142.171"/>
            <path d="M324.968,141.708 L319.831,143.621"/>
            <path d="M320.559,136.873 L324.968,141.708"/>
            <path d="M315.423,138.787 L320.559,136.873"/>
            <path d="M316.746,140.237 L315.423,138.787"/>
            <path d="M283.304,152.694 L316.746,140.237"/>
            <path d="M281.981,151.243 L283.304,152.694"/>
            <path d="M276.845,153.157 L281.981,151.243"/>
            <path d="M286.39,156.078 L281.253,157.991"/>
            <path d="M276.845,153.157 L217.509,121.922"/>
            <path d="M205.898,115.81 L193.565,109.317"/>
            <path d="M276.845,153.157 L281.253,157.991"/>
            <path d="M194.73,112.444 L207.063,118.936"/>
            <path d="M218.674,125.048 L281.253,157.991"/>
            <path d="M-233.196,316.034 L-246.64,318.625"/>
            <path d="M-232.847,316.972 L-233.196,316.034"/>
            <path d="M-232.847,316.972 L-227.543,315.95"/>
            <path d="M-227.543,315.95 L-226.426,315.734"/>
            <path d="M-233.662,314.783 L-234.012,313.845"/>
            <path d="M-247.105,317.374 L-246.64,318.625"/>
            <path d="M-247.105,317.374 L-247.105,296.981"/>
            <path d="M-247.105,317.374 L-233.662,314.783"/>
            <path d="M-247.105,296.981 L-247.455,296.043"/>
            <path d="M-247.105,296.981 L-124.593,185.261"/>
            <path d="M-247.455,291.426 L-128.152,182.633"/>
            <path d="M-247.455,296.043 L-247.455,291.426"/>
            <path d="M-247.455,296.043 L-124.942,184.323"/>
            <path d="M-226.426,315.734 L-99.6672,200.141"/>
            <path d="M-227.591,312.608 L-226.426,315.734"/>
            <path d="M-227.591,312.608 L-100.832,197.015"/>
            <path d="M-232.962,313.643 L-227.591,312.608"/>
            <path d="M-232.962,313.643 L-234.012,313.845"/>
            <path d="M-234.012,313.845 L-104.042,195.325"/>
            <path d="M51.1648,23.7288 L-124.942,184.323"/>
            <path d="M67.8871,3.86234 L67.1317,4.55121"/>
            <path d="M49.881,20.2823 L-128.152,182.633"/>
            <path d="M61.9717,52.7412 L-99.6672,200.141"/>
            <path d="M60.8071,49.6145 L-100.832,197.015"/>
            <path d="M59.5232,46.168 L-104.042,195.325"/>
            <path d="M51.5142,24.6669 L-124.593,185.261"/>
            <path d="M67.8872,6.57929 L67.8871,3.86234"/>
            <path d="M67.8871,3.86234 L67.8871,3.86243"/>
        </g>
        <g id="product-51523f8a-cdbc-40d9-bdbb-65afe08d8670" class="IfcMember material-wood projection" ifc:name="I-profil 45x400, normal sp&#230;r byg 1.017" ifc:guid="1HKZ_ApRn0sRsxPQ$WZOPm">
            <path d="M-200.351,97.5189 L-196.11,89.4628"/>
            <path d="M-191.791,94.3305 L-200.351,97.5189"/>
            <path d="M-153.308,78.0531 L-190.519,91.9137"/>
            <path d="M-191.791,94.3305 L-188.189,91.0459"/>
            <path d="M-190.519,91.9137 L-191.791,94.3305"/>
            <path d="M-196.11,89.4628 L-171.289,66.8283"/>
            <path d="M-196.11,89.4628 L-187.55,86.2744"/>
            <path d="M-187.55,86.2744 L-188.822,88.6912"/>
            <path d="M-187.55,86.2744 L-168.079,68.5182"/>
            <path d="M-188.822,88.6912 L-167.729,69.4562"/>
            <path d="M-188.822,88.6912 L-155.072,76.1194"/>
            <path d="M8.02845,-92.0755 L-168.079,68.5182"/>
            <path d="M24.7508,-111.942 L23.9953,-111.253"/>
            <path d="M6.74464,-95.5221 L-171.289,66.8283"/>
            <path d="M18.8354,-63.0631 L-127.502,70.3833"/>
            <path d="M17.6707,-66.1898 L-123.261,62.3272"/>
            <path d="M16.3869,-69.6364 L-131.821,65.5156"/>
            <path d="M8.37786,-91.1375 L-167.729,69.4562"/>
            <path d="M-134.789,71.1549 L-136.062,73.5717"/>
            <path d="M-136.062,73.5717 L-127.502,70.3833"/>
            <path d="M-127.502,70.3833 L-123.261,62.3272"/>
            <path d="M-131.821,65.5156 L-123.261,62.3272"/>
            <path d="M-133.093,67.9325 L-131.821,65.5156"/>
            <path d="M-155.072,76.1194 L-133.093,67.9325"/>
            <path d="M-134.789,71.1549 L-153.308,78.0531"/>
            <path d="M24.7508,-109.225 L24.7508,-111.942"/>
            <path d="M24.7508,-111.942 L24.7508,-111.942"/>
            <path d="M154.395,-36.5643 L156.556,-35.4265"/>
            <path d="M24.7508,-111.942 L157.284,-42.1741"/>
            <path d="M24.7508,-111.739 L24.7508,-111.942"/>
            <path d="M24.7508,-109.225 L24.7508,-111.739"/>
            <path d="M25.6313,-106.861 L152.148,-40.2608"/>
            <path d="M32.677,-65.9601 L117.978,-21.0563"/>
            <path d="M31.5123,-69.0868 L113.569,-25.8906"/>
            <path d="M31.5123,-73.7042 L118.706,-27.8039"/>
            <path d="M113.569,-25.8906 L118.706,-27.8039"/>
            <path d="M117.978,-21.0563 L113.569,-25.8906"/>
            <path d="M123.114,-22.9696 L117.978,-21.0563"/>
            <path d="M121.792,-24.4199 L123.114,-22.9696"/>
            <path d="M155.234,-36.8768 L121.792,-24.4199"/>
            <path d="M156.556,-35.4265 L155.234,-36.8768"/>
            <path d="M161.693,-37.3398 L156.556,-35.4265"/>
            <path d="M157.284,-42.1741 L161.693,-37.3398"/>
            <path d="M152.148,-40.2608 L157.284,-42.1741"/>
            <path d="M153.47,-38.8105 L152.148,-40.2608"/>
            <path d="M118.706,-27.8039 L120.029,-26.3537"/>
            <path d="M120.029,-26.3537 L153.47,-38.8105"/>
            <path d="M25.9807,-105.923 L153.47,-38.8105"/>
            <path d="M31.8617,-90.3779 L31.7773,-90.3617"/>
            <path d="M31.8617,-90.135 L31.8617,-90.3779"/>
        </g>
        <g id="product-49b7b687-b005-4497-8e33-7b6b20ff8741" class="IfcMember material-wood projection" ifc:name="I-profil 45x400, normal sp&#230;r byg 1.018" ifc:guid="19jxQ7i0L4buupUsiW$uT1">
            <path d="M53.4299,-32.4757 L53.3455,-32.4595"/>
            <path d="M53.4299,-32.2329 L53.4299,-32.4757"/>
            <path d="M47.5488,-48.0211 L196.457,30.3664"/>
            <path d="M47.1994,-48.9592 L196.107,29.4284"/>
            <path d="M46.319,-51.3229 L46.319,-53.8369"/>
            <path d="M46.319,-53.8369 L46.319,-54.0399"/>
            <path d="M46.319,-54.0399 L199.317,26.501"/>
            <path d="M54.2452,-8.05793 L173.161,54.5416"/>
            <path d="M53.0805,-15.802 L175.207,48.4874"/>
            <path d="M53.0805,-11.1847 L171.997,51.4149"/>
            <path d="M238.194,54.0972 L236.032,52.9594"/>
            <path d="M238.922,47.3496 L199.317,26.501"/>
            <path d="M233.785,49.2629 L196.107,29.4284"/>
            <path d="M235.108,50.7132 L196.457,30.3664"/>
            <path d="M200.344,61.7198 L175.207,48.4874"/>
            <path d="M203.429,65.1038 L204.752,66.5541"/>
            <path d="M236.871,52.6469 L203.429,65.1038"/>
            <path d="M238.194,54.0972 L236.871,52.6469"/>
            <path d="M243.33,52.1839 L238.194,54.0972"/>
            <path d="M238.922,47.3496 L243.33,52.1839"/>
            <path d="M233.785,49.2629 L238.922,47.3496"/>
            <path d="M235.108,50.7132 L233.785,49.2629"/>
            <path d="M201.666,63.1701 L235.108,50.7132"/>
            <path d="M200.344,61.7198 L201.666,63.1701"/>
            <path d="M195.207,63.6331 L200.344,61.7198"/>
            <path d="M204.752,66.5541 L199.615,68.4674"/>
            <path d="M195.207,63.6331 L195.207,63.633"/>
            <path d="M185.548,58.5483 L171.997,51.4149"/>
            <path d="M195.207,63.6331 L199.615,68.4674"/>
            <path d="M173.161,54.5416 L185.495,61.0341"/>
            <path d="M197.105,67.1461 L199.615,68.4674"/>
            <path d="M-211.627,217.119 L-210.355,214.702"/>
            <path d="M-269.023,236.556 L-268.208,240.785"/>
            <path d="M-213.324,220.342 L-268.208,240.785"/>
            <path d="M-214.596,222.758 L-213.324,220.342"/>
            <path d="M-206.036,219.57 L-214.596,222.758"/>
            <path d="M-267.357,237.878 L-211.627,217.119"/>
            <path d="M-266.084,235.461 L-267.357,237.878"/>
            <path d="M-267.357,237.878 L-146.161,127.358"/>
            <path d="M-266.084,235.461 L-146.51,126.42"/>
            <path d="M-269.023,233.524 L-149.721,124.731"/>
            <path d="M-269.023,236.556 L-269.023,233.524"/>
            <path d="M-269.023,236.556 L-266.084,235.461"/>
            <path d="M-267.858,241.268 L-268.059,240.73"/>
            <path d="M-267.858,241.268 L-266.723,240.233"/>
            <path d="M-201.795,211.514 L-206.036,219.57"/>
            <path d="M-206.036,219.57 L-121.235,142.239"/>
            <path d="M-210.355,214.702 L-125.61,137.423"/>
            <path d="M-210.355,214.702 L-201.795,211.514"/>
            <path d="M-201.795,211.514 L-122.4,139.112"/>
            <path d="M29.5966,-34.1733 L-146.51,126.42"/>
            <path d="M46.3189,-54.0398 L45.5635,-53.351"/>
            <path d="M28.3128,-37.6199 L-149.721,124.731"/>
            <path d="M40.4036,-5.16093 L-121.235,142.239"/>
            <path d="M39.2389,-8.28766 L-122.4,139.112"/>
            <path d="M37.9551,-11.7342 L-125.61,137.423"/>
            <path d="M29.946,-33.2353 L-146.161,127.358"/>
            <path d="M46.319,-51.3229 L46.3189,-54.0398"/>
            <path d="M46.3189,-54.0398 L46.319,-54.0398"/>
        </g>
        <g id="product-3ab2bbec-90a6-4601-b692-1d683d8b4d22" class="IfcMechanicalFastener material-Galvanised projection" ifc:name="MechanicalFastener" ifc:guid="0wihliaAP60RQI7MWzYqqY">
            <path d="M93.7137,78.8924 L93.662,78.7534"/>
            <path d="M89.7532,77.5706 L90.4261,79.3771"/>
            <path d="M89.56,77.6078 L89.7532,77.5706"/>
            <path d="M89.7532,77.5706 L89.7532,85.9933"/>
            <path d="M89.56,86.0305 L89.7532,85.9933"/>
            <path d="M90.4002,89.467 L89.7532,85.9933"/>
            <path d="M90.1673,79.4117 L90.1026,79.0643"/>
            <path d="M90.1673,80.801 L90.232,80.801"/>
            <path d="M90.1673,82.1903 L90.1026,81.8429"/>
            <path d="M90.1673,84.969 L90.232,84.969"/>
            <path d="M90.1673,87.7476 L90.232,87.7476"/>
            <path d="M89.9741,79.4489 L90.1673,79.4117"/>
            <path d="M89.9085,79.4115 L89.9732,79.4116"/>
            <path d="M90.1064,80.8127 L90.1673,80.801"/>
            <path d="M90.1673,80.801 L90.1026,80.4536"/>
            <path d="M89.7532,79.4414 L89.9085,79.4115"/>
            <path d="M89.9085,79.4115 L89.8438,79.0641"/>
            <path d="M90.1673,82.1903 L90.232,82.1904"/>
            <path d="M89.9741,82.2275 L89.9799,82.2264"/>
            <path d="M89.9085,82.1901 L89.9732,82.1902"/>
            <path d="M89.7532,82.2201 L89.9085,82.1901"/>
            <path d="M89.9085,82.1901 L89.8438,81.8428"/>
            <path d="M89.9741,83.6169 L89.9799,83.6157"/>
            <path d="M89.9085,83.5795 L89.9732,83.5795"/>
            <path d="M90.1064,84.9807 L90.1673,84.969"/>
            <path d="M90.1673,84.969 L90.1026,84.6216"/>
            <path d="M89.7532,83.6094 L89.9085,83.5795"/>
            <path d="M89.9085,83.5795 L89.8438,83.2321"/>
            <path d="M89.9741,86.3955 L90.1673,86.3583"/>
            <path d="M89.9085,86.3581 L89.9732,86.3581"/>
            <path d="M90.083,87.7638 L90.1673,87.7476"/>
            <path d="M90.1673,87.7476 L90.1026,87.4002"/>
            <path d="M89.8242,86.3744 L89.8467,86.37"/>
            <path d="M90.1815,85.5282 L90.1071,85.6743"/>
            <path d="M89.8839,84.7291 L89.9583,85.2748"/>
            <path d="M90.1815,81.3602 L90.1071,81.5064"/>
            <path d="M89.8839,80.5612 L89.9583,81.1068"/>
            <path d="M95.7669,94.2685 L95.5902,94.4887"/>
            <path d="M95.7669,94.2685 L95.4608,94.1413"/>
            <path d="M94.2014,99.9322 L90.4744,89.9266"/>
            <path d="M93.9858,99.6487 L94.0885,99.629"/>
            <path d="M90.2071,89.5042 L90.4002,89.467"/>
            <path d="M90.4002,89.467 L90.4261,89.5365"/>
            <path d="M90.1673,79.4117 L90.232,79.4117"/>
            <path d="M90.1673,79.4117 L90.1673,80.4537"/>
            <path d="M90.232,80.801 L90.232,79.4117"/>
            <path d="M90.1673,82.1903 L90.232,83.5797"/>
            <path d="M90.1673,82.1903 L89.9085,81.8428"/>
            <path d="M89.9732,82.1902 L90.1673,83.2323"/>
            <path d="M90.1673,84.6216 L90.232,83.5797"/>
            <path d="M90.1673,83.5796 L90.232,83.5797"/>
            <path d="M90.1673,83.5796 L90.1026,83.2323"/>
            <path d="M89.9085,83.2321 L90.1026,83.2323"/>
            <path d="M89.9732,83.5795 L90.1673,84.6216"/>
            <path d="M90.1673,86.3583 L90.1673,87.4003"/>
            <path d="M90.1673,86.3583 L90.232,86.3583"/>
            <path d="M90.1673,87.4003 L90.232,86.3583"/>
            <path d="M90.1673,86.3583 L90.1026,86.0109"/>
            <path d="M89.9085,86.0108 L90.1026,86.0109"/>
            <path d="M90.1673,86.3583 L89.9732,86.3581"/>
            <path d="M89.9085,86.3581 L90.1026,87.4002"/>
            <path d="M89.7532,85.9933 L90.1026,87.4002"/>
            <path d="M89.7532,85.9933 L89.8839,84.7291"/>
            <path d="M89.8839,84.7291 L89.8438,86.0107"/>
            <path d="M89.9085,86.3581 L89.8438,86.0107"/>
            <path d="M94.2014,99.9322 L99.997,98.8151"/>
            <path d="M93.7137,78.8924 L93.7137,87.2034"/>
            <path d="M90.4261,79.5261 L90.2847,79.5533"/>
            <path d="M90.2847,89.7127 L90.4744,89.6761"/>
            <path d="M99.997,98.8151 L96.27,88.8095"/>
            <path d="M96.3217,88.688 L96.27,88.5491"/>
            <path d="M96.3217,88.688 L96.3217,88.8096"/>
            <path d="M99.997,98.5546 L99.9452,98.4156"/>
            <path d="M99.997,98.8151 L99.997,98.5546"/>
            <path d="M99.9452,98.4156 L99.9452,98.5372"/>
            <path d="M99.9293,98.4073 L99.9452,98.4156"/>
            <path d="M95.6833,94.2337 L95.5902,94.3498"/>
            <path d="M99.9452,98.5372 L96.3217,88.8096"/>
            <path d="M93.0824,88.6251 L92.8409,88.498"/>
            <path d="M93.0824,88.6251 L93.3239,88.4049"/>
            <path d="M93.0824,85.8464 L92.8409,85.7193"/>
            <path d="M93.0824,85.8464 L93.3239,85.6262"/>
            <path d="M93.0824,87.2358 L92.8409,87.1086"/>
            <path d="M93.0824,87.2358 L93.3239,87.0156"/>
            <path d="M93.0824,84.4571 L92.8409,84.33"/>
            <path d="M93.0824,84.4571 L93.3239,84.2369"/>
            <path d="M93.0824,83.0678 L92.8409,82.9407"/>
            <path d="M93.0824,83.0678 L93.3239,82.8476"/>
            <path d="M93.662,87.1762 L93.662,78.7534"/>
            <path d="M96.27,88.5491 L93.662,87.1762"/>
            <path d="M96.27,88.8095 L96.27,88.5491"/>
            <path d="M96.27,88.8095 L90.4744,89.9266"/>
            <path d="M90.4744,89.9266 L90.4744,89.5272"/>
            <path d="M90.4744,89.5272 L90.4261,89.5365"/>
            <path d="M90.4261,89.5365 L90.4261,79.3771"/>
            <path d="M90.4261,79.3771 L93.662,78.7534"/>
            <path d="M93.0824,81.6785 L92.8409,81.5514"/>
            <path d="M93.0824,81.6785 L93.3239,81.4583"/>
            <path d="M93.0824,80.2892 L92.8409,80.1621"/>
            <path d="M93.0824,80.2892 L93.3239,80.069"/>
            <path d="M89.8839,80.5612 L89.9583,80.415"/>
            <path d="M89.8839,80.5612 L89.7532,80.5864"/>
            <path d="M89.7652,80.4522 L89.9583,80.415"/>
            <path d="M89.9583,80.415 L90.1071,80.8145"/>
            <path d="M89.9233,80.85 L90.1071,80.8145"/>
            <path d="M90.1071,80.8145 L90.1815,81.3602"/>
            <path d="M90.0613,81.3834 L90.1815,81.3602"/>
            <path d="M89.8839,84.7291 L89.9583,84.583"/>
            <path d="M89.8839,84.7291 L89.7532,84.7543"/>
            <path d="M89.7652,84.6202 L89.9583,84.583"/>
            <path d="M89.9583,84.583 L90.1071,84.9825"/>
            <path d="M89.9233,85.0179 L90.1071,84.9825"/>
            <path d="M90.1071,84.9825 L90.1815,85.5282"/>
            <path d="M90.0613,85.5513 L90.1815,85.5282"/>
            <path d="M90.1026,87.4002 L90.1673,87.4003"/>
            <path d="M90.1026,87.4002 L90.0183,87.4165"/>
            <path d="M89.9732,86.3581 L89.9085,86.0108"/>
            <path d="M89.8264,86.3864 L89.8497,86.3819"/>
            <path d="M89.9107,86.3702 L89.9732,86.3581"/>
            <path d="M90.1673,87.4003 L90.232,87.7476"/>
            <path d="M90.0852,87.7759 L90.232,87.7476"/>
            <path d="M90.1673,87.4003 L90.1048,87.4123"/>
            <path d="M89.8438,86.0107 L89.9085,86.0108"/>
            <path d="M89.9085,86.0108 L89.846,86.0228"/>
            <path d="M89.7614,86.0266 L89.7594,86.027"/>
            <path d="M90.1026,86.0109 L90.1673,86.0109"/>
            <path d="M90.1673,86.0109 L90.232,86.3583"/>
            <path d="M90.0389,86.3955 L90.1673,86.3708"/>
            <path d="M90.1673,86.0109 L90.1048,86.023"/>
            <path d="M90.1026,84.6216 L90.1673,84.6216"/>
            <path d="M90.1026,84.6216 L89.9814,84.6449"/>
            <path d="M89.9732,83.5795 L89.9085,83.2321"/>
            <path d="M89.78,83.6167 L89.9732,83.5795"/>
            <path d="M90.1673,84.6216 L90.232,84.969"/>
            <path d="M90.1085,84.9928 L90.232,84.969"/>
            <path d="M90.1673,84.6216 L90.1048,84.6337"/>
            <path d="M89.8438,83.2321 L89.9085,83.2321"/>
            <path d="M89.9085,83.2321 L89.846,83.2442"/>
            <path d="M89.8438,83.2321 L89.7532,83.2496"/>
            <path d="M90.1026,83.2323 L90.1673,83.2323"/>
            <path d="M89.9732,82.1902 L89.9085,81.8428"/>
            <path d="M89.78,82.2274 L89.9732,82.1902"/>
            <path d="M90.1673,83.2323 L90.232,83.5797"/>
            <path d="M90.1673,83.2323 L90.1048,83.2443"/>
            <path d="M89.8438,81.8428 L89.9085,81.8428"/>
            <path d="M89.9085,81.8428 L89.846,81.8549"/>
            <path d="M89.8438,81.8428 L89.7532,81.8602"/>
            <path d="M90.1026,81.8429 L90.1673,81.843"/>
            <path d="M90.1026,81.8429 L89.9329,81.8756"/>
            <path d="M90.1673,81.843 L90.232,82.1904"/>
            <path d="M90.1679,82.2027 L90.232,82.1904"/>
            <path d="M90.1673,81.843 L90.1048,81.855"/>
            <path d="M90.1026,80.4536 L90.1673,80.4537"/>
            <path d="M90.1026,80.4536 L89.9814,80.477"/>
            <path d="M89.9732,79.4116 L89.9085,79.0642"/>
            <path d="M89.78,79.4488 L89.9732,79.4116"/>
            <path d="M90.1673,80.4537 L90.232,80.801"/>
            <path d="M90.1085,80.8248 L90.232,80.801"/>
            <path d="M90.1673,80.4537 L90.1048,80.4657"/>
            <path d="M89.8438,79.0641 L89.9085,79.0642"/>
            <path d="M89.9085,79.0642 L89.846,79.0762"/>
            <path d="M89.8438,79.0641 L89.7532,79.0816"/>
            <path d="M90.1026,79.0643 L90.1673,79.0644"/>
            <path d="M90.1026,79.0643 L89.9152,79.1004"/>
            <path d="M90.1673,79.0644 L90.232,79.4117"/>
            <path d="M90.0389,79.449 L90.1673,79.4242"/>
            <path d="M90.1673,79.0644 L90.1048,79.0764"/>
            <path d="M89.914,81.5436 L90.1071,81.5064"/>
            <path d="M90.1071,81.5064 L89.9583,81.1068"/>
            <path d="M89.7652,81.1441 L89.9583,81.1068"/>
            <path d="M89.914,85.7115 L90.1071,85.6743"/>
            <path d="M90.1071,85.6743 L89.9583,85.2748"/>
            <path d="M89.7652,85.312 L89.8248,85.3005"/>
            <path d="M89.8662,85.2925 L89.9583,85.2748"/>
            <path d="M95.4608,94.1413 L95.284,94.3615"/>
            <path d="M95.3676,94.2573 L95.5902,94.3498"/>
            <path d="M95.5902,94.4887 L95.5902,94.3498"/>
            <path d="M95.5902,94.4887 L95.284,94.3615"/>
            <path d="M92.8409,80.1621 L93.0824,79.9419"/>
            <path d="M92.9704,80.2302 L93.1342,80.0808"/>
            <path d="M93.0824,79.9419 L93.3239,80.069"/>
            <path d="M93.2462,80.1398 L93.1342,80.0808"/>
            <path d="M93.0824,79.9419 L93.1342,80.0808"/>
            <path d="M92.8409,81.5514 L93.0824,81.3312"/>
            <path d="M92.9704,81.6195 L93.1342,81.4701"/>
            <path d="M93.0824,81.3312 L93.3239,81.4583"/>
            <path d="M93.2462,81.5291 L93.1342,81.4701"/>
            <path d="M93.0824,81.3312 L93.1342,81.4701"/>
            <path d="M92.8409,82.9407 L93.0824,82.7205"/>
            <path d="M92.9704,83.0088 L93.1342,82.8595"/>
            <path d="M93.0824,82.7205 L93.3239,82.8476"/>
            <path d="M93.2462,82.9184 L93.1342,82.8595"/>
            <path d="M93.0824,82.7205 L93.1342,82.8595"/>
            <path d="M92.8409,84.33 L93.0824,84.1098"/>
            <path d="M92.9704,84.3981 L93.1342,84.2488"/>
            <path d="M93.0824,84.1098 L93.3239,84.2369"/>
            <path d="M93.2462,84.3078 L93.1342,84.2488"/>
            <path d="M93.0824,84.1098 L93.1342,84.2488"/>
            <path d="M92.8409,85.7193 L93.0824,85.4991"/>
            <path d="M92.9704,85.7875 L93.1342,85.6381"/>
            <path d="M93.0824,85.4991 L93.3239,85.6262"/>
            <path d="M93.2462,85.6971 L93.1342,85.6381"/>
            <path d="M93.0824,85.4991 L93.1342,85.6381"/>
            <path d="M92.8409,87.1086 L93.0824,86.8884"/>
            <path d="M92.9704,87.1768 L93.1342,87.0274"/>
            <path d="M93.0824,86.8884 L93.3239,87.0156"/>
            <path d="M93.2462,87.0864 L93.1342,87.0274"/>
            <path d="M93.0824,86.8884 L93.1342,87.0274"/>
            <path d="M92.8409,88.498 L93.0824,88.2778"/>
            <path d="M92.9704,88.5661 L93.1342,88.4167"/>
            <path d="M93.0824,88.2778 L93.3239,88.4049"/>
            <path d="M93.2462,88.4757 L93.1342,88.4167"/>
            <path d="M93.0824,88.2778 L93.1342,88.4167"/>
        </g>
        <g id="product-47b0eb73-0239-4288-8206-1a9d9bd288f0" class="IfcMechanicalFastener material-Galvanised projection" ifc:name="MechanicalFastener" ifc:guid="17iEjp0Zb2Y8866fsRqeZm">
            <path d="M87.8097,67.1792 L87.5683,67.2257"/>
            <path d="M87.8097,62.3165 L87.5683,62.3631"/>
            <path d="M100.363,67.5302 L100.428,67.7039"/>
            <path d="M100.363,72.3928 L100.428,72.5665"/>
            <path d="M99.3974,73.2737 L99.4621,73.4474"/>
            <path d="M88.0685,68.5686 L87.8271,68.6152"/>
            <path d="M90.0941,68.7932 L89.9861,68.814"/>
            <path d="M90.0941,72.586 L89.9215,72.6193"/>
            <path d="M92.153,72.8677 L91.9438,72.8275"/>
            <path d="M92.0967,72.9191 L91.9438,72.8275"/>
            <path d="M91.456,70.6086 L91.9923,70.873"/>
            <path d="M91.3393,70.7863 L91.456,70.6086"/>
            <path d="M91.3393,70.7863 L91.9923,70.873"/>
            <path d="M91.3393,70.7863 L91.456,71.6091"/>
            <path d="M92.0263,71.2538 L91.456,71.6091"/>
            <path d="M91.9923,70.873 L91.456,71.6091"/>
            <path d="M91.3393,70.7863 L90.8862,70.3227"/>
            <path d="M91.456,70.6086 L92.023,70.6641"/>
            <path d="M91.3393,70.7863 L90.8508,70.2379"/>
            <path d="M90.7055,70.8518 L90.6821,71.2082"/>
            <path d="M90.8507,70.6282 L90.6821,71.2082"/>
            <path d="M91.3393,70.7863 L90.8507,70.6282"/>
            <path d="M90.8507,70.6282 L90.882,71.3707"/>
            <path d="M91.3393,70.7863 L90.882,71.3707"/>
            <path d="M91.3393,70.7863 L91.1136,71.559"/>
            <path d="M91.3393,70.7863 L90.8979,70.4184"/>
            <path d="M91.3393,70.7863 L90.8863,70.5213"/>
            <path d="M91.456,70.6086 L91.1398,70.5623"/>
            <path d="M88.314,64.7997 L87.9722,64.6826"/>
            <path d="M88.314,64.7997 L88.5084,65.1259"/>
            <path d="M88.544,65.3819 L88.5566,65.4137"/>
            <path d="M88.314,64.7997 L87.9151,65.031"/>
            <path d="M88.314,64.7997 L88.4127,65.0774"/>
            <path d="M88.2668,65.7379 L87.9151,65.031"/>
            <path d="M88.7006,66.9738 L88.124,66.4237"/>
            <path d="M88.7006,66.9738 L88.3186,66.9928"/>
            <path d="M88.2668,65.7379 L88.4127,65.7104"/>
            <path d="M88.2668,65.7379 L88.5084,66.176"/>
            <path d="M88.2668,65.7379 L88.7006,66.9738"/>
            <path d="M88.2668,65.7379 L88.6313,66.5351"/>
            <path d="M88.2668,65.7379 L88.3767,65.2972"/>
            <path d="M88.314,64.7997 L88.2668,65.7379"/>
            <path d="M88.314,64.7997 L88.3767,65.2972"/>
            <path d="M88.2668,65.7379 L87.9722,65.6858"/>
            <path d="M88.2668,65.7379 L88.124,66.4237"/>
            <path d="M88.7006,66.9738 L88.6313,66.5351"/>
            <path d="M88.7964,67.0606 L88.9099,67.318"/>
            <path d="M88.7964,67.0606 L88.8623,66.7767"/>
            <path d="M88.7006,66.9738 L88.7392,66.6651"/>
            <path d="M88.7006,66.9738 L88.4898,67.1989"/>
            <path d="M88.7006,66.9738 L88.7964,67.0606"/>
            <path d="M88.7964,67.0606 L88.5688,67.2706"/>
            <path d="M88.9099,67.318 L88.6626,67.4831"/>
            <path d="M88.9099,67.318 L89.0082,67.1074"/>
            <path d="M88.9099,67.318 L89.0407,67.6892"/>
            <path d="M90.0098,70.298 L90.3498,71.1344"/>
            <path d="M90.3564,70.7137 L90.3498,71.1344"/>
            <path d="M89.6674,69.6381 L89.1005,68.3716"/>
            <path d="M89.6674,69.6381 L89.242,68.2733"/>
            <path d="M90.0098,70.298 L89.8764,70.4511"/>
            <path d="M90.0098,70.298 L90.2173,71.2232"/>
            <path d="M89.6674,69.6381 L90.0098,70.298"/>
            <path d="M89.6674,69.6381 L89.59,69.8029"/>
            <path d="M89.6674,69.6381 L89.8764,70.4511"/>
            <path d="M89.6674,69.6381 L89.9793,69.7181"/>
            <path d="M89.6674,69.6381 L89.7278,69.0543"/>
            <path d="M89.8764,70.4511 L90.2173,71.2232"/>
            <path d="M90.0098,70.298 L90.3564,70.7137"/>
            <path d="M90.0098,70.298 L89.9793,69.7181"/>
            <path d="M89.1005,68.3716 L89.255,69.1702"/>
            <path d="M89.59,69.8029 L89.1005,68.3716"/>
            <path d="M89.59,69.8029 L89.255,69.1702"/>
            <path d="M89.7278,69.0543 L89.242,68.2733"/>
            <path d="M89.59,69.8029 L89.8764,70.4511"/>
            <path d="M89.8764,70.4511 L89.5105,69.8985"/>
            <path d="M89.59,69.8029 L89.5105,69.8985"/>
            <path d="M90.7055,70.8518 L90.8507,70.6282"/>
            <path d="M90.8862,70.3227 L90.8508,70.2379"/>
            <path d="M90.8863,70.5213 L90.8979,70.4184"/>
            <path d="M90.8863,70.5213 L90.5032,69.7054"/>
            <path d="M90.7055,70.8518 L90.2541,69.7085"/>
            <path d="M89.9793,69.7181 L90.3564,70.7137"/>
            <path d="M90.7055,70.8518 L89.9793,69.7181"/>
            <path d="M90.4822,71.0456 L90.7055,70.8518"/>
            <path d="M90.3564,70.7137 L90.4822,71.0456"/>
            <path d="M89.7278,69.0543 L89.9793,69.7181"/>
            <path d="M89.9793,69.7181 L90.2541,69.7085"/>
            <path d="M90.2541,69.7085 L89.8752,68.9235"/>
            <path d="M90.2541,69.7085 L89.7278,69.0543"/>
            <path d="M90.8507,70.6282 L90.2541,69.7085"/>
            <path d="M90.8863,70.5213 L90.2541,69.7085"/>
            <path d="M90.8507,70.6282 L90.8863,70.5213"/>
            <path d="M90.8862,70.3227 L90.5032,69.7054"/>
            <path d="M90.8862,70.3227 L90.8979,70.4184"/>
            <path d="M90.8979,70.4184 L90.5032,69.7054"/>
            <path d="M90.0894,68.9967 L89.8752,68.9235"/>
            <path d="M89.8752,68.9235 L89.3901,67.8622"/>
            <path d="M90.0894,68.9967 L90.5032,69.7054"/>
            <path d="M90.2541,69.7085 L90.5032,69.7054"/>
            <path d="M90.2541,69.7085 L90.0894,68.9967"/>
            <path d="M90.0894,68.9967 L89.3507,67.6898"/>
            <path d="M90.0894,68.9967 L89.3901,67.8622"/>
            <path d="M89.3507,68.0587 L89.7278,69.0543"/>
            <path d="M89.8752,68.9235 L89.3507,68.0587"/>
            <path d="M89.7278,69.0543 L89.8752,68.9235"/>
            <path d="M90.4609,69.633 L90.8508,70.2379"/>
            <path d="M90.5032,69.7054 L90.8508,70.2379"/>
            <path d="M88.525,66.0843 L88.7447,66.042"/>
            <path d="M88.7447,66.5282 L88.5878,66.3502"/>
            <path d="M88.7447,66.042 L88.7447,66.5282"/>
            <path d="M88.7447,66.042 L88.5878,65.3776"/>
            <path d="M88.4127,65.0774 L88.3767,65.2972"/>
            <path d="M88.4127,65.0774 L88.5084,65.1259"/>
            <path d="M88.5084,65.1259 L88.6313,65.4263"/>
            <path d="M88.6313,65.4263 L88.7392,65.876"/>
            <path d="M88.7392,65.876 L88.8623,66.4252"/>
            <path d="M89.0082,66.8777 L88.8623,66.4252"/>
            <path d="M89.0082,66.8777 L89.1305,67.186"/>
            <path d="M89.0082,67.1074 L89.1305,67.4558"/>
            <path d="M89.0082,67.1074 L88.8623,66.7767"/>
            <path d="M88.8623,66.7767 L88.7392,66.6651"/>
            <path d="M88.7392,66.6651 L88.6313,66.5351"/>
            <path d="M88.6313,66.5351 L88.5084,66.176"/>
            <path d="M88.5084,66.176 L88.4127,65.7104"/>
            <path d="M88.3767,65.2972 L88.4127,65.7104"/>
            <path d="M89.1207,68.3576 L89.242,68.2733"/>
            <path d="M89.1207,68.3576 L89.0779,68.0379"/>
            <path d="M88.9165,67.7711 L89.0407,67.6892"/>
            <path d="M89.0407,67.6892 L89.1305,67.4558"/>
            <path d="M88.9165,67.7711 L88.9525,68.0271"/>
            <path d="M88.9525,68.0271 L88.8441,68.0007"/>
            <path d="M89.0407,67.6892 L89.184,67.6051"/>
            <path d="M89.0407,67.6892 L89.167,67.8155"/>
            <path d="M89.0779,68.0379 L88.8959,68.1486"/>
            <path d="M88.9525,68.0271 L88.8959,68.1486"/>
            <path d="M89.1207,68.3576 L88.8959,68.1486"/>
            <path d="M89.1207,68.3576 L89.1005,68.3716"/>
            <path d="M89.1005,68.3716 L88.9995,68.4418"/>
            <path d="M88.9165,67.7711 L88.7924,67.8529"/>
            <path d="M88.9165,67.7711 L88.8441,68.0007"/>
            <path d="M89.242,68.2733 L89.3507,68.0587"/>
            <path d="M89.0779,68.0379 L89.167,67.8155"/>
            <path d="M89.242,68.2733 L89.2374,67.7544"/>
            <path d="M89.242,68.2733 L89.0779,68.0379"/>
            <path d="M89.0779,68.0379 L89.2374,67.7544"/>
            <path d="M89.0779,68.0379 L88.9525,68.0271"/>
            <path d="M88.9525,68.0271 L89.0407,67.6892"/>
            <path d="M89.0779,68.0379 L89.0407,67.6892"/>
            <path d="M89.167,67.8155 L89.2374,67.7544"/>
            <path d="M89.167,67.8155 L89.184,67.6051"/>
            <path d="M89.2303,67.6376 L89.2503,67.5704"/>
            <path d="M89.3161,67.6606 L89.3096,67.7842"/>
            <path d="M89.3096,67.7842 L89.2503,67.5704"/>
            <path d="M89.3161,67.6606 L89.2503,67.5704"/>
            <path d="M89.2303,67.6376 L89.3096,67.7842"/>
            <path d="M89.1305,67.4558 L89.1305,67.3209"/>
            <path d="M89.2303,67.6376 L89.1305,67.3209"/>
            <path d="M89.1305,67.4558 L89.2303,67.6376"/>
            <path d="M89.2303,67.6376 L89.2374,67.7544"/>
            <path d="M89.184,67.6051 L89.2374,67.7544"/>
            <path d="M89.1305,67.4558 L89.184,67.6051"/>
            <path d="M89.3161,67.6606 L89.2374,67.4427"/>
            <path d="M89.3658,67.7558 L89.3507,67.6898"/>
            <path d="M89.3658,67.7558 L89.2374,67.4427"/>
            <path d="M89.3161,67.6606 L89.3901,67.8622"/>
            <path d="M89.3161,67.6606 L89.3658,67.7558"/>
            <path d="M89.3658,67.7558 L89.3901,67.8622"/>
            <path d="M89.2503,67.5704 L89.1305,67.3209"/>
            <path d="M89.3096,67.7842 L89.3901,67.8622"/>
            <path d="M89.2374,67.7544 L89.3096,67.7842"/>
            <path d="M89.2374,67.7544 L89.3507,68.0587"/>
            <path d="M89.3507,68.0587 L89.3901,67.8622"/>
            <path d="M89.2503,67.5704 L89.1839,67.3143"/>
            <path d="M89.2503,67.5704 L89.2374,67.4427"/>
            <path d="M89.1305,67.3209 L89.1305,67.186"/>
            <path d="M89.1305,67.3209 L89.1839,67.3143"/>
            <path d="M89.3507,67.6898 L89.2374,67.4427"/>
            <path d="M89.1305,67.186 L89.1839,67.3143"/>
            <path d="M89.2374,67.4427 L89.1839,67.3143"/>
            <path d="M97.5278,70.6869 L97.1041,70.7212"/>
            <path d="M97.5278,70.6869 L97.606,70.4081"/>
            <path d="M97.5278,70.6869 L97.8853,70.7883"/>
            <path d="M97.5278,70.6869 L97.5301,70.9923"/>
            <path d="M97.5278,69.9522 L97.1041,70.0813"/>
            <path d="M97.5278,69.9522 L97.8853,69.713"/>
            <path d="M97.5278,69.9522 L97.606,70.0566"/>
            <path d="M97.1041,70.7212 L97.1803,71.0206"/>
            <path d="M97.1041,70.7212 L96.6173,70.8358"/>
            <path d="M97.1041,70.7212 L97.0616,70.4521"/>
            <path d="M94.1445,70.5041 L93.8133,70.5447"/>
            <path d="M93.7979,70.546 L94.1445,70.5041"/>
            <path d="M94.1445,70.5041 L94.5349,70.4867"/>
            <path d="M94.1445,70.5041 L95.8576,70.2599"/>
            <path d="M94.5811,70.483 L95.8576,70.2599"/>
            <path d="M95.927,71.2041 L94.9694,71.5434"/>
            <path d="M94.0372,71.659 L94.9694,71.5434"/>
            <path d="M93.1881,71.6123 L92.0649,71.8467"/>
            <path d="M92.4675,71.5905 L92.0649,71.8467"/>
            <path d="M94.0372,71.659 L94.0157,71.7696"/>
            <path d="M93.1481,71.8117 L94.0372,71.659"/>
            <path d="M93.1481,71.8117 L94.1463,71.4998"/>
            <path d="M93.1481,71.8117 L94.0157,71.7696"/>
            <path d="M93.1881,71.6123 L94.1463,71.4998"/>
            <path d="M94.1463,71.4998 L93.728,71.275"/>
            <path d="M94.1463,71.4998 L94.5684,71.0647"/>
            <path d="M93.1481,71.8117 L93.1881,71.6123"/>
            <path d="M93.1481,71.8117 L92.0824,71.9977"/>
            <path d="M93.1881,71.6123 L92.0824,71.9977"/>
            <path d="M94.5684,71.0647 L95.8814,70.9274"/>
            <path d="M93.1881,71.6123 L93.728,71.275"/>
            <path d="M93.1881,71.6123 L92.4675,71.5905"/>
            <path d="M94.1463,71.4998 L95.8814,70.9274"/>
            <path d="M94.1463,71.4998 L95.9308,71.0949"/>
            <path d="M94.0372,71.659 L94.1463,71.4998"/>
            <path d="M94.1463,71.4998 L95.927,71.2041"/>
            <path d="M94.0372,71.659 L95.927,71.2041"/>
            <path d="M91.9923,70.873 L92.023,70.6641"/>
            <path d="M92.9752,70.8561 L92.9236,70.6999"/>
            <path d="M91.9923,70.873 L92.9236,70.6999"/>
            <path d="M94.0306,70.6335 L92.9236,70.6999"/>
            <path d="M93.728,71.275 L94.5684,71.0647"/>
            <path d="M93.4228,71.0284 L93.728,71.275"/>
            <path d="M93.4228,71.0284 L94.5684,71.0647"/>
            <path d="M93.4228,71.0284 L94.4818,70.8376"/>
            <path d="M91.9923,70.873 L92.0263,71.2538"/>
            <path d="M91.9923,70.873 L92.9752,70.8561"/>
            <path d="M92.9752,70.8561 L94.4818,70.8376"/>
            <path d="M92.9752,70.8561 L94.0306,70.6335"/>
            <path d="M94.4818,70.8376 L95.8236,70.5342"/>
            <path d="M94.4818,70.8376 L94.0306,70.6335"/>
            <path d="M92.9752,70.8561 L92.0263,71.2538"/>
            <path d="M92.9752,70.8561 L93.4228,71.0284"/>
            <path d="M93.4228,71.0284 L92.0263,71.2538"/>
            <path d="M94.0306,70.6335 L93.5707,70.5643"/>
            <path d="M94.5684,71.0647 L94.4818,70.8376"/>
            <path d="M94.4818,70.8376 L95.8289,70.7492"/>
            <path d="M94.5684,71.0647 L95.8289,70.7492"/>
            <path d="M94.0306,70.6335 L94.9886,70.4502"/>
            <path d="M95.8289,70.3802 L94.9886,70.4502"/>
            <path d="M94.0306,70.6335 L95.8236,70.5342"/>
            <path d="M94.0306,70.6335 L95.8289,70.3802"/>
            <path d="M94.9886,70.4502 L93.5707,70.5643"/>
            <path d="M92.023,70.6641 L93.5707,70.5643"/>
            <path d="M93.5707,70.5643 L92.9236,70.6999"/>
            <path d="M92.023,70.6641 L92.9236,70.6999"/>
            <path d="M92.0263,71.2538 L92.0474,71.6957"/>
            <path d="M92.0263,71.2538 L93.728,71.275"/>
            <path d="M92.4675,71.5905 L93.728,71.275"/>
            <path d="M92.4675,71.5905 L92.0474,71.6957"/>
            <path d="M99.2162,69.8381 L98.6954,69.7223"/>
            <path d="M99.2162,70.1651 L98.6307,70.5211"/>
            <path d="M99.2162,69.6788 L98.6307,69.5486"/>
            <path d="M99.2162,69.6788 L99.2162,70.1651"/>
            <path d="M97.606,70.0566 L98.0653,69.7492"/>
            <path d="M97.606,70.0566 L97.0616,70.2224"/>
            <path d="M97.0616,70.4521 L96.6052,70.5602"/>
            <path d="M97.0616,70.4521 L97.606,70.4081"/>
            <path d="M97.606,70.4081 L98.0653,70.5383"/>
            <path d="M97.0616,70.2224 L97.1041,70.0813"/>
            <path d="M97.0616,70.2224 L96.6052,70.2903"/>
            <path d="M97.1041,70.0813 L96.6052,70.2903"/>
            <path d="M97.1041,70.0813 L96.6259,70.1526"/>
            <path d="M96.6173,70.8358 L96.6052,70.5602"/>
            <path d="M96.6173,70.8358 L96.6565,70.9856"/>
            <path d="M96.6173,70.8358 L96.4113,70.6067"/>
            <path d="M96.6565,70.9856 L96.6958,71.1353"/>
            <path d="M96.6173,70.8358 L96.2793,70.9833"/>
            <path d="M96.6173,70.8358 L96.3897,71.1112"/>
            <path d="M96.6565,70.9856 L96.3897,71.1112"/>
            <path d="M96.6565,70.9856 L96.5028,71.1814"/>
            <path d="M96.3897,71.1112 L96.5028,71.1814"/>
            <path d="M96.1336,71.1725 L95.923,71.3173"/>
            <path d="M95.927,71.2041 L95.923,71.3173"/>
            <path d="M95.927,71.2041 L95.9308,71.0949"/>
            <path d="M96.1336,71.1725 L95.9308,71.0949"/>
            <path d="M95.8814,70.9274 L95.8289,70.7492"/>
            <path d="M95.8814,70.9274 L95.9308,71.0949"/>
            <path d="M96.2793,70.9833 L96.4113,70.6067"/>
            <path d="M96.3897,71.1112 L96.3095,71.2275"/>
            <path d="M96.1336,71.1725 L96.3095,71.2275"/>
            <path d="M96.3897,71.1112 L96.1336,71.1725"/>
            <path d="M96.1336,71.1725 L96.2793,70.9833"/>
            <path d="M96.3897,71.1112 L96.2793,70.9833"/>
            <path d="M96.2793,70.9833 L95.9308,71.0949"/>
            <path d="M95.9308,71.0949 L96.2174,70.6533"/>
            <path d="M96.2793,70.9833 L96.2174,70.6533"/>
            <path d="M96.2708,70.5616 L96.2325,70.4702"/>
            <path d="M96.0405,70.5797 L96.2325,70.4702"/>
            <path d="M96.0204,70.4449 L96.0405,70.5797"/>
            <path d="M96.0204,70.4449 L96.2325,70.4702"/>
            <path d="M96.2708,70.5616 L96.0405,70.5797"/>
            <path d="M96.6052,70.5602 L96.6052,70.4252"/>
            <path d="M96.2708,70.5616 L96.6052,70.4252"/>
            <path d="M96.6052,70.5602 L96.4113,70.6067"/>
            <path d="M96.4113,70.6067 L96.2174,70.6533"/>
            <path d="M96.2708,70.5616 L96.2174,70.6533"/>
            <path d="M96.6052,70.5602 L96.2708,70.5616"/>
            <path d="M96.0204,70.4449 L96.2174,70.3416"/>
            <path d="M95.8269,70.4392 L95.8289,70.3802"/>
            <path d="M95.8269,70.4392 L96.2174,70.3416"/>
            <path d="M95.8269,70.4392 L96.0204,70.4449"/>
            <path d="M96.0204,70.4449 L95.8236,70.5342"/>
            <path d="M95.8269,70.4392 L95.8236,70.5342"/>
            <path d="M96.2325,70.4702 L96.6052,70.4252"/>
            <path d="M95.8236,70.5342 L95.8289,70.7492"/>
            <path d="M95.8289,70.7492 L96.2174,70.6533"/>
            <path d="M96.2174,70.6533 L96.0405,70.5797"/>
            <path d="M95.8236,70.5342 L96.0405,70.5797"/>
            <path d="M96.2325,70.4702 L96.4114,70.3159"/>
            <path d="M96.2325,70.4702 L96.2174,70.3416"/>
            <path d="M96.6052,70.4252 L96.6052,70.2903"/>
            <path d="M96.6052,70.4252 L96.4114,70.3159"/>
            <path d="M95.8289,70.3802 L95.8576,70.2599"/>
            <path d="M96.4114,70.3159 L96.2174,70.3416"/>
            <path d="M96.3222,70.2095 L96.1869,70.2206"/>
            <path d="M96.3222,70.2095 L96.4272,70.189"/>
            <path d="M95.8289,70.3802 L96.2174,70.3416"/>
            <path d="M95.8289,70.3802 L96.0672,70.2624"/>
            <path d="M96.6259,70.1526 L96.3222,70.2095"/>
            <path d="M96.4114,70.3159 L96.3222,70.2095"/>
            <path d="M96.6259,70.1526 L96.4272,70.189"/>
            <path d="M96.0672,70.2624 L95.8576,70.2599"/>
            <path d="M96.0672,70.2624 L96.1869,70.2206"/>
            <path d="M96.6052,70.2903 L96.4114,70.3159"/>
            <path d="M96.4114,70.3159 L96.6259,70.1526"/>
            <path d="M96.6052,70.2903 L96.6259,70.1526"/>
            <path d="M96.0672,70.2624 L96.3222,70.2095"/>
            <path d="M96.3222,70.2095 L96.2174,70.3416"/>
            <path d="M96.0672,70.2624 L96.2174,70.3416"/>
            <path d="M96.4272,70.189 L96.1869,70.2206"/>
            <path d="M95.8576,70.2599 L96.1869,70.2206"/>
            <path d="M98.9267,69.4527 L99.284,69.5924"/>
            <path d="M97.8853,69.713 L98.4639,69.449"/>
            <path d="M99.3461,69.3815 L99.7567,69.5768"/>
            <path d="M98.9267,69.4527 L99.3461,69.3815"/>
            <path d="M98.9267,69.4527 L98.4683,69.5117"/>
            <path d="M98.4683,69.5117 L99.3461,69.3815"/>
            <path d="M98.4683,69.5117 L98.0653,69.7492"/>
            <path d="M98.0653,69.7492 L97.8853,69.713"/>
            <path d="M98.6155,69.5913 L98.6534,69.5804"/>
            <path d="M97.8853,69.713 L98.278,69.6239"/>
            <path d="M97.8853,69.713 L98.3365,69.5894"/>
            <path d="M98.7993,69.4626 L99.1904,69.3555"/>
            <path d="M99.3461,69.3815 L99.1904,69.3555"/>
            <path d="M99.284,70.2254 L99.4184,69.883"/>
            <path d="M99.3461,69.3815 L99.9697,70.0374"/>
            <path d="M99.284,69.5924 L99.4184,69.883"/>
            <path d="M99.284,69.5924 L99.3461,69.3815"/>
            <path d="M99.5071,70.4061 L99.9697,70.0374"/>
            <path d="M97.8853,70.7883 L99.1904,71.0197"/>
            <path d="M97.8853,70.7883 L97.8253,71.076"/>
            <path d="M97.8853,70.7883 L98.4639,71.2062"/>
            <path d="M99.284,70.2254 L98.9267,70.5028"/>
            <path d="M99.284,70.2254 L99.5071,70.4061"/>
            <path d="M98.9267,70.5028 L99.5071,70.4061"/>
            <path d="M98.9267,70.5028 L98.4683,70.6205"/>
            <path d="M99.5071,70.4061 L97.8853,70.7883"/>
            <path d="M99.5071,70.4061 L98.4683,70.6205"/>
            <path d="M99.3461,69.3815 L99.5071,70.4061"/>
            <path d="M99.4184,69.883 L99.5071,70.4061"/>
            <path d="M99.3461,69.3815 L99.4184,69.883"/>
            <path d="M99.5071,70.4061 L99.7567,70.5801"/>
            <path d="M99.5071,70.4061 L99.1904,71.0197"/>
            <path d="M97.8853,70.7883 L98.0653,70.5383"/>
            <path d="M98.0653,70.5383 L98.4683,70.6205"/>
            <path d="M97.8853,70.7883 L98.4683,70.6205"/>
            <path d="M91.67,70.3134 L91.9115,70.4405"/>
            <path d="M91.67,70.3134 L91.9115,70.0932"/>
            <path d="M91.67,69.2714 L91.9115,69.3985"/>
            <path d="M91.67,69.2714 L91.9115,69.0512"/>
            <path d="M93.0223,69.599 L93.2638,69.7261"/>
            <path d="M93.0223,69.599 L93.2638,69.3788"/>
            <path d="M94.1331,69.9798 L94.3746,70.1069"/>
            <path d="M94.1331,69.9798 L94.3746,69.7595"/>
            <path d="M94.6161,68.9009 L94.8575,69.0281"/>
            <path d="M94.6161,68.9009 L94.8575,68.6807"/>
            <path d="M92.153,72.8677 L91.9115,72.7406"/>
            <path d="M92.153,72.8677 L91.9115,73.0879"/>
            <path d="M93.5052,73.0608 L93.2638,72.9337"/>
            <path d="M93.5052,73.0608 L93.2638,73.281"/>
            <path d="M94.6161,72.2519 L94.3746,72.1248"/>
            <path d="M94.6161,72.2519 L94.3746,72.4721"/>
            <path d="M92.153,73.9097 L91.9115,73.7826"/>
            <path d="M92.153,73.9097 L91.9115,74.1299"/>
            <path d="M96.0167,68.8358 L96.2581,68.963"/>
            <path d="M96.0167,68.8358 L96.2581,68.6156"/>
            <path d="M95.099,73.1445 L94.8575,73.0174"/>
            <path d="M95.099,73.1445 L94.8575,73.3647"/>
            <path d="M96.4996,72.6697 L96.2581,72.5426"/>
            <path d="M96.4996,72.6697 L96.2581,72.8899"/>
            <path d="M99.1559,68.145 L99.3974,68.2721"/>
            <path d="M99.1559,68.145 L99.3974,67.9248"/>
            <path d="M99.6389,72.1504 L99.3974,72.3706"/>
            <path d="M99.6389,72.1504 L99.3974,72.0233"/>
            <path d="M99.1904,71.0197 L99.7567,70.5801"/>
            <path d="M98.4639,71.2062 L99.1904,71.0197"/>
            <path d="M97.8253,71.076 L98.4639,71.2062"/>
            <path d="M97.5301,70.9923 L97.8253,71.076"/>
            <path d="M97.5301,70.9923 L97.1803,71.0206"/>
            <path d="M96.6958,71.1353 L97.1803,71.0206"/>
            <path d="M96.5028,71.1814 L96.6958,71.1353"/>
            <path d="M96.5028,71.1814 L96.3095,71.2275"/>
            <path d="M96.3095,71.2275 L95.923,71.3173"/>
            <path d="M94.9694,71.5434 L95.923,71.3173"/>
            <path d="M94.9694,71.5434 L94.0157,71.7696"/>
            <path d="M94.0157,71.7696 L92.1083,72.221"/>
            <path d="M99.3974,73.2737 L90.7041,74.7117"/>
            <path d="M99.3974,73.2737 L100.363,72.3928"/>
            <path d="M100.363,67.5302 L100.363,72.3928"/>
            <path d="M99.3974,67.0217 L100.363,67.5302"/>
            <path d="M99.3974,67.0217 L95.0476,67.9195"/>
            <path d="M95.0476,67.9195 L90.7041,68.9349"/>
            <path d="M99.1904,69.3555 L98.4639,69.449"/>
            <path d="M99.7567,69.5768 L99.9697,70.0374"/>
            <path d="M99.9697,70.0374 L99.7567,70.5801"/>
            <path d="M91.2947,72.4705 L90.4626,72.8077"/>
            <path d="M92.1083,72.221 L92.0954,72.1094"/>
            <path d="M92.1083,72.221 L91.7015,72.3458"/>
            <path d="M91.8139,71.6615 L91.5805,71.6273"/>
            <path d="M91.7015,72.3458 L92.0954,72.1094"/>
            <path d="M91.7015,72.3458 L91.8139,71.6615"/>
            <path d="M90.882,71.3707 L90.7979,71.3023"/>
            <path d="M90.882,71.3707 L91.1136,71.559"/>
            <path d="M91.7015,72.3458 L91.2947,72.4705"/>
            <path d="M91.7015,72.3458 L91.5805,71.6273"/>
            <path d="M91.1136,71.559 L90.4626,72.8077"/>
            <path d="M91.1136,71.559 L90.2451,72.0504"/>
            <path d="M90.6016,71.1427 L90.0915,71.5721"/>
            <path d="M92.0474,71.6957 L92.0649,71.8467"/>
            <path d="M92.0649,71.8467 L92.0824,71.9977"/>
            <path d="M92.0824,71.9977 L92.0954,72.1094"/>
            <path d="M92.0954,72.1094 L91.8139,71.6615"/>
            <path d="M92.0474,71.6957 L91.8139,71.6615"/>
            <path d="M90.3498,71.1344 L90.4822,71.0456"/>
            <path d="M90.4822,71.0456 L90.6016,71.1427"/>
            <path d="M90.6016,71.1427 L90.2173,71.2232"/>
            <path d="M90.3498,71.1344 L90.2173,71.2232"/>
            <path d="M90.6016,71.1427 L90.6821,71.2082"/>
            <path d="M90.6821,71.2082 L90.7979,71.3023"/>
            <path d="M90.6016,71.1427 L90.1333,71.7024"/>
            <path d="M90.7979,71.3023 L90.1333,71.7024"/>
            <path d="M90.7979,71.3023 L90.2451,72.0504"/>
            <path d="M90.2173,71.2232 L90.0216,71.3544"/>
            <path d="M90.2173,71.2232 L90.0915,71.5721"/>
            <path d="M91.1136,71.559 L91.456,71.6091"/>
            <path d="M91.456,71.6091 L91.5805,71.6273"/>
            <path d="M91.5805,71.6273 L91.2947,72.4705"/>
            <path d="M91.1136,71.559 L91.2947,72.4705"/>
            <path d="M90.5856,68.9638 L90.4626,68.9889"/>
            <path d="M90.7041,68.9349 L90.5856,68.9638"/>
            <path d="M90.4626,74.7545 L90.1565,74.6311"/>
            <path d="M90.4626,74.7545 L90.221,74.8014"/>
            <path d="M90.3979,74.5846 L90.1564,74.6311"/>
            <path d="M90.4301,74.6681 L90.1564,74.6311"/>
            <path d="M90.5852,74.7318 L90.4626,74.7545"/>
            <path d="M90.221,74.8014 L90.5278,74.929"/>
            <path d="M90.4626,74.7545 L90.5278,74.929"/>
            <path d="M90.4626,74.7545 L90.7688,74.8854"/>
            <path d="M90.5852,74.7318 L90.7688,74.8854"/>
            <path d="M90.5852,74.7318 L90.7041,74.7117"/>
            <path d="M90.7041,74.7117 L90.7688,74.8854"/>
            <path d="M90.0941,68.7932 L89.9708,68.2712"/>
            <path d="M90.0941,69.0048 L90.0941,68.7932"/>
            <path d="M89.6255,68.176 L89.6214,68.1542"/>
            <path d="M89.3626,66.5516 L89.2979,66.2042"/>
            <path d="M89.3626,66.5516 L89.2979,66.5516"/>
            <path d="M88.9097,66.3379 L88.845,65.9905"/>
            <path d="M88.9097,66.3379 L88.845,66.3379"/>
            <path d="M88.392,64.5497 L88.3273,64.2023"/>
            <path d="M88.392,64.5497 L88.3273,64.5497"/>
            <path d="M88.0685,63.3934 L88.0038,63.0461"/>
            <path d="M88.0685,63.3934 L88.0038,63.3934"/>
            <path d="M88.0685,67.4919 L88.0038,67.1445"/>
            <path d="M88.0685,67.4919 L88.0038,67.4919"/>
            <path d="M88.5214,68.3835 L88.4567,68.0361"/>
            <path d="M88.5214,68.3835 L88.4567,68.3834"/>
            <path d="M89.0391,69.3452 L88.9744,68.9979"/>
            <path d="M89.0391,69.3452 L88.9744,69.3452"/>
            <path d="M89.8155,71.3505 L89.7508,71.0032"/>
            <path d="M89.8155,71.3505 L89.7508,71.3505"/>
            <path d="M89.492,71.557 L89.4273,71.2096"/>
            <path d="M89.492,71.557 L89.4273,71.5569"/>
            <path d="M90.0941,72.9681 L89.9708,72.8281"/>
            <path d="M90.0941,72.586 L89.9708,72.064"/>
            <path d="M90.0941,72.586 L90.0941,72.9681"/>
            <path d="M90.4626,72.8077 L90.4626,74.7545"/>
            <path d="M90.2451,72.0504 L90.4626,72.8077"/>
            <path d="M90.1333,71.7024 L90.2451,72.0504"/>
            <path d="M90.0915,71.5721 L90.1333,71.7024"/>
            <path d="M90.0915,71.5721 L90.0216,71.3544"/>
            <path d="M89.5105,69.8985 L90.0216,71.3544"/>
            <path d="M89.255,69.1702 L89.5105,69.8985"/>
            <path d="M89.255,69.1702 L88.9995,68.4418"/>
            <path d="M88.8959,68.1486 L88.9995,68.4418"/>
            <path d="M88.8441,68.0007 L88.8959,68.1486"/>
            <path d="M88.8441,68.0007 L88.7924,67.8529"/>
            <path d="M88.7924,67.8529 L88.6626,67.4831"/>
            <path d="M88.5688,67.2706 L88.6626,67.4831"/>
            <path d="M88.5688,67.2706 L88.4898,67.1989"/>
            <path d="M88.3186,66.9928 L88.4898,67.1989"/>
            <path d="M88.124,66.4237 L88.3186,66.9928"/>
            <path d="M87.9722,65.6858 L88.124,66.4237"/>
            <path d="M87.9151,65.031 L87.9722,65.6858"/>
            <path d="M87.9722,64.6826 L87.9151,65.031"/>
            <path d="M90.4626,69.6356 L90.4626,68.9889"/>
            <path d="M90.4626,68.9889 L90.4301,68.9"/>
            <path d="M90.4301,68.9 L90.3979,68.8077"/>
            <path d="M90.3979,68.8077 L89.234,65.5051"/>
            <path d="M89.234,65.5051 L88.0685,62.3167"/>
            <path d="M88.0685,62.3167 L87.8097,62.3165"/>
            <path d="M87.8097,62.3165 L87.8097,67.1792"/>
            <path d="M88.0685,68.5686 L87.8097,67.1792"/>
            <path d="M88.0685,68.5686 L90.3979,74.5846"/>
            <path d="M90.3979,74.5846 L90.4301,74.6681"/>
            <path d="M90.4626,74.7545 L90.4301,74.6681"/>
            <path d="M91.8318,70.3986 L91.9762,70.2669"/>
            <path d="M91.8318,69.3566 L91.9762,69.2249"/>
            <path d="M93.1841,69.6842 L93.3285,69.5525"/>
            <path d="M94.2949,70.0649 L94.4393,69.9333"/>
            <path d="M94.7779,68.9861 L94.9222,68.8544"/>
            <path d="M92.0708,72.9427 L91.9762,72.9143"/>
            <path d="M93.4082,73.1494 L93.3285,73.1074"/>
            <path d="M94.519,72.3404 L94.4393,72.2985"/>
            <path d="M96.1784,68.921 L96.3228,68.7893"/>
            <path d="M92.0559,73.9983 L91.9762,73.9563"/>
            <path d="M95.0019,73.233 L94.9222,73.1911"/>
            <path d="M99.3177,68.2302 L99.4621,68.0985"/>
            <path d="M96.4025,72.7582 L96.3228,72.7163"/>
            <path d="M100.428,67.7039 L100.428,72.5665"/>
            <path d="M90.2859,74.975 L90.5278,74.929"/>
            <path d="M90.5278,74.929 L90.7688,74.8854"/>
            <path d="M90.7688,74.8854 L99.4621,73.4474"/>
            <path d="M99.4621,73.4474 L100.428,72.5665"/>
            <path d="M99.5418,72.2389 L99.4621,72.197"/>
            <path d="M99.2162,69.9333 L98.3542,69.9297"/>
            <path d="M98.6954,69.7223 L98.1098,70.0783"/>
            <path d="M98.6307,69.5486 L98.0451,69.9046"/>
            <path d="M98.6954,69.7223 L98.6436,69.5832"/>
            <path d="M98.6408,69.5758 L98.6307,69.5486"/>
            <path d="M98.0451,69.9046 L98.0451,70.3908"/>
            <path d="M98.0451,69.9046 L98.1098,70.0783"/>
            <path d="M98.1098,70.0783 L98.1098,70.4052"/>
            <path d="M98.6307,70.5211 L98.0451,70.3908"/>
            <path d="M88.5878,66.3502 L88.4309,65.6858"/>
            <path d="M88.4309,65.6858 L88.4309,65.1995"/>
            <path d="M88.4309,65.1995 L88.5878,65.3776"/>
            <path d="M88.4309,65.4079 L88.5438,65.3861"/>
            <path d="M88.5499,65.3849 L88.5878,65.3776"/>
            <path d="M96.2581,68.963 L96.4996,68.7428"/>
            <path d="M96.4025,68.8313 L96.3228,68.7893"/>
            <path d="M96.2581,68.6156 L96.3228,68.7893"/>
            <path d="M96.2581,68.6156 L96.4996,68.7428"/>
            <path d="M99.3974,68.2721 L99.6389,68.0519"/>
            <path d="M99.5418,68.1404 L99.4621,68.0985"/>
            <path d="M99.3974,67.9248 L99.4621,68.0985"/>
            <path d="M99.3974,67.9248 L99.6389,68.0519"/>
            <path d="M94.8575,69.0281 L95.099,68.8079"/>
            <path d="M95.0019,68.8964 L94.9222,68.8544"/>
            <path d="M94.8575,68.6807 L94.9222,68.8544"/>
            <path d="M94.8575,68.6807 L95.099,68.8079"/>
            <path d="M93.2638,69.7261 L93.5052,69.5059"/>
            <path d="M93.4082,69.5945 L93.3285,69.5525"/>
            <path d="M93.2638,69.3788 L93.3285,69.5525"/>
            <path d="M93.2638,69.3788 L93.5052,69.5059"/>
            <path d="M91.9115,70.4405 L92.153,70.2203"/>
            <path d="M92.0559,70.3089 L91.9762,70.2669"/>
            <path d="M91.9115,70.0932 L91.9762,70.2669"/>
            <path d="M91.9115,70.0932 L92.153,70.2203"/>
            <path d="M91.9115,69.3985 L92.153,69.1783"/>
            <path d="M91.9762,69.2249 L91.9438,69.1381"/>
            <path d="M92.0967,69.2297 L91.9438,69.1381"/>
            <path d="M91.9762,69.2249 L92.0708,69.2533"/>
            <path d="M91.9115,69.0512 L92.153,69.1783"/>
            <path d="M92.153,69.1783 L91.9438,69.1381"/>
            <path d="M91.9115,69.0512 L91.9438,69.1381"/>
            <path d="M94.3746,70.1069 L94.6161,69.8867"/>
            <path d="M94.519,69.9752 L94.4393,69.9333"/>
            <path d="M94.3746,69.7595 L94.4393,69.9333"/>
            <path d="M94.3746,69.7595 L94.6161,69.8867"/>
            <path d="M96.2581,72.8899 L96.0167,72.7628"/>
            <path d="M96.0167,72.7628 L96.2581,72.5426"/>
            <path d="M96.3228,72.7163 L96.2581,72.5426"/>
            <path d="M96.3228,72.7163 L96.1784,72.848"/>
            <path d="M94.3746,72.4721 L94.1331,72.345"/>
            <path d="M94.1331,72.345 L94.3746,72.1248"/>
            <path d="M94.4393,72.2985 L94.3746,72.1248"/>
            <path d="M94.4393,72.2985 L94.2949,72.4301"/>
            <path d="M91.9115,74.1299 L91.67,74.0028"/>
            <path d="M91.67,74.0028 L91.9115,73.7826"/>
            <path d="M91.9762,73.9563 L91.9115,73.7826"/>
            <path d="M91.9762,73.9563 L91.8318,74.088"/>
            <path d="M91.9115,73.0879 L91.67,72.9608"/>
            <path d="M91.67,72.9608 L91.9115,72.7406"/>
            <path d="M91.9115,72.7406 L91.9438,72.8275"/>
            <path d="M91.9438,72.8275 L91.9762,72.9143"/>
            <path d="M91.9762,72.9143 L91.8318,73.046"/>
            <path d="M93.2638,73.281 L93.0223,73.1539"/>
            <path d="M93.0223,73.1539 L93.2638,72.9337"/>
            <path d="M93.3285,73.1074 L93.2638,72.9337"/>
            <path d="M93.3285,73.1074 L93.1841,73.2391"/>
            <path d="M94.8575,73.3647 L94.6161,73.2376"/>
            <path d="M94.6161,73.2376 L94.8575,73.0174"/>
            <path d="M94.9222,73.1911 L94.8575,73.0174"/>
            <path d="M94.9222,73.1911 L94.7779,73.3228"/>
            <path d="M99.3974,72.3706 L99.1559,72.2435"/>
            <path d="M99.1559,72.2435 L99.3974,72.0233"/>
            <path d="M99.4621,72.197 L99.3974,72.0233"/>
            <path d="M99.4621,72.197 L99.3177,72.3286"/>
            <path d="M89.2979,66.5516 L89.2332,66.2042"/>
            <path d="M89.2332,66.2042 L89.2979,66.2042"/>
            <path d="M89.2354,66.2163 L89.2979,66.2042"/>
            <path d="M88.3273,64.5497 L88.2626,64.2023"/>
            <path d="M88.2626,64.2023 L88.3273,64.2023"/>
            <path d="M88.2649,64.2144 L88.3273,64.2023"/>
            <path d="M89.7508,71.3505 L89.6861,71.0031"/>
            <path d="M89.6861,71.0031 L89.7508,71.0032"/>
            <path d="M89.6884,71.0152 L89.7508,71.0032"/>
            <path d="M88.4567,68.3834 L88.392,68.0361"/>
            <path d="M88.392,68.0361 L88.4567,68.0361"/>
            <path d="M88.3943,68.0481 L88.4567,68.0361"/>
            <path d="M89.4273,71.5569 L89.3626,71.2096"/>
            <path d="M89.3626,71.2096 L89.4273,71.2096"/>
            <path d="M89.3649,71.2216 L89.4273,71.2096"/>
            <path d="M88.9744,69.3452 L88.9097,68.9978"/>
            <path d="M88.9097,68.9978 L88.9744,68.9979"/>
            <path d="M88.9119,69.0099 L88.9744,68.9979"/>
            <path d="M88.0038,67.4919 L87.9391,67.1445"/>
            <path d="M87.9391,67.1445 L88.0038,67.1445"/>
            <path d="M87.9413,67.1566 L88.0038,67.1445"/>
            <path d="M88.0038,63.3934 L87.9391,63.046"/>
            <path d="M87.9391,63.046 L88.0038,63.0461"/>
            <path d="M87.9413,63.0581 L88.0038,63.0461"/>
            <path d="M88.845,66.3379 L88.7803,65.9905"/>
            <path d="M88.7803,65.9905 L88.845,65.9905"/>
            <path d="M88.7825,66.0026 L88.845,65.9905"/>
            <path d="M89.6131,68.1541 L89.6214,68.1542"/>
            <path d="M89.614,68.1556 L89.6214,68.1542"/>
            <path d="M89.9708,72.8281 L89.8475,72.3062"/>
            <path d="M89.9708,72.064 L89.8475,71.9241"/>
            <path d="M89.8475,72.0878 L89.9708,72.064"/>
            <path d="M89.8701,68.6087 L89.8475,68.5133"/>
            <path d="M89.8475,72.3062 L89.8475,71.9241"/>
            <path d="M89.8475,68.5133 L89.8475,68.1313"/>
            <path d="M89.8475,68.1313 L89.9708,68.2712"/>
            <path d="M89.8475,68.295 L89.9708,68.2712"/>
        </g>
        <g id="product-d44ff366-df7e-49fa-a95c-93814c9cd8e6" class="IfcBeam material-woodStructural projection" ifc:name="Beam" ifc:guid="3KJ$Dcttv9_gbSau5CdDZc">
            <path d="M102.41,171.006 L102.649,171.132"/>
            <path d="M122.957,225.65 L116.468,231.568"/>
            <path d="M102.649,171.132 L96.1603,177.049"/>
            <path d="M102.649,171.132 L122.957,225.65"/>
            <path d="M116.468,231.568 L113.395,229.95"/>
            <path d="M96.1603,177.049 L95.9213,176.923"/>
            <path d="M94.2203,178.474 L113.395,229.95"/>
            <path d="M96.1603,177.049 L116.468,231.568"/>
        </g>
        <g id="product-bdf66870-f4e4-4455-9fef-740a77eb2480" class="IfcBeam material-woodStructural projection" ifc:name="Beam" ifc:guid="2zzcXmzEH4LP$lT0ftwoI0">
            <path d="M122.192,167.365 L122.199,167.359"/>
            <path d="M148.988,225.3 L142.499,221.884"/>
            <path d="M128.68,170.781 L122.192,167.365"/>
            <path d="M122.192,167.365 L142.499,221.884"/>
            <path d="M152.062,222.497 L148.988,225.3"/>
            <path d="M128.687,170.775 L128.68,170.781"/>
            <path d="M128.68,170.781 L148.988,225.3"/>
            <path d="M133.797,173.465 L152.062,222.497"/>
        </g>
        <g id="product-6c166d7d-d91b-4d01-829f-f9be908c7e64" class="IfcBeam material-woodStructural projection" ifc:name="Beam" ifc:guid="1i5crzsHjD0OAV_RwGZ7va">
            <path d="M-6.7326,-193.746 L31.8617,-90.1349"/>
            <path d="M42.8643,-60.5974 L53.4299,-32.2327"/>
            <path d="M64.4325,-2.69518 L74.9981,25.6694"/>
            <path d="M86.0007,55.207 L90.2859,66.7111"/>
            <path d="M107.569,113.109 L118.134,141.474"/>
            <path d="M150.705,228.914 L209.623,387.085"/>
            <path d="M209.623,387.085 L209.623,410.218"/>
            <path d="M2.50714,-145.808 L-6.7326,-193.746"/>
            <path d="M-6.7326,-193.746 L-21.2265,-193.746"/>
            <path d="M-21.2265,-193.746 L-11.9867,-145.808"/>
            <path d="M2.50714,-145.808 L209.623,410.218"/>
            <path d="M209.623,410.218 L196.1,412.824"/>
            <path d="M-11.9867,-145.808 L196.1,412.824"/>
            <path d="M-11.9867,-145.808 L2.50714,-145.808"/>
        </g>
        <g id="product-7611a1e4-9496-42da-bfab-14919a61ee98" class="IfcBeam material-woodStructural projection" ifc:name="Beam" ifc:guid="1s4Q7ab9P2sh_h596QOUwO">
            <path d="M1441.58,-193.745 L237.323,38.3703"/>
            <path d="M103.146,64.2324 L90.2859,66.7111"/>
            <path d="M1366.98,-145.808 L1495.67,-193.745"/>
            <path d="M1495.67,-193.745 L1441.58,-193.745"/>
            <path d="M1441.58,-193.745 L1312.88,-145.808"/>
            <path d="M1366.98,-145.808 L207.945,77.5909"/>
            <path d="M149.808,88.7965 L99.9338,98.4096"/>
            <path d="M94.0563,99.5425 L93.9092,99.5708"/>
            <path d="M93.9092,99.5708 L90.2858,89.8432"/>
            <path d="M1312.88,-145.808 L255.264,58.0443"/>
            <path d="M135.311,81.1648 L96.3189,88.6804"/>
            <path d="M90.4744,89.8069 L90.2858,89.8432"/>
            <path d="M1312.88,-145.808 L1366.98,-145.808"/>
        </g>
        <g id="product-6fcce411-f973-4720-b898-33143501102d" class="IfcBeam material-null projection" ifc:name="Plankekel 2stk 45x295 c18.001" ifc:guid="1lpEGH_ND78BYOCnGr0H0j">
            <path d="M506.486,457.195 L517.091,435.781"/>
            <path d="M503.412,459.997 L506.486,457.195"/>
            <path d="M514.017,438.584 L503.412,459.997"/>
            <path d="M94.5016,59.682 L99.807,64.8759"/>
            <path d="M197.356,160.375 L207.828,170.626"/>
            <path d="M300.211,261.068 L310.682,271.319"/>
            <path d="M403.066,361.761 L503.412,459.997"/>
            <path d="M177.6,103.427 L188.072,113.678"/>
            <path d="M280.455,204.12 L290.926,214.371"/>
            <path d="M383.31,304.812 L393.781,315.064"/>
            <path d="M448.815,368.94 L517.091,435.781"/>
            <path d="M517.091,435.781 L514.017,438.584"/>
            <path d="M164.759,96.6665 L175.23,106.918"/>
            <path d="M267.613,197.359 L278.085,207.61"/>
            <path d="M370.468,298.052 L380.939,308.303"/>
            <path d="M445.405,371.414 L514.017,438.584"/>
        </g>
        <g id="product-b8719456-12ce-473b-aa8c-fc1ce17826b3" class="IfcBeam material-woodStructural projection" ifc:name="Beam" ifc:guid="2uSPHM4iv7EwgC$1pXU2Qp">
            <path d="M196.204,64.7268 L280.596,291.287"/>
            <path d="M280.596,291.287 L277.523,294.09"/>
            <path d="M193.793,69.3074 L277.523,294.09"/>
            <path d="M277.523,294.09 L271.034,290.674"/>
            <path d="M184.974,59.6372 L271.034,290.674"/>
            <path d="M187.386,55.0565 L184.974,59.6372"/>
            <path d="M184.974,59.6372 L193.793,69.3074"/>
            <path d="M193.793,69.3074 L196.204,64.7268"/>
            <path d="M196.204,64.7268 L187.386,55.0565"/>
        </g>
        <g id="product-72919df1-b900-413a-b6e6-de95e4436c64" class="IfcBeam material-null projection" ifc:name="Plankekel 2stk 45x295 c18" ifc:guid="1oaPtnkG11EhRctfNaGsna">
            <path d="M253.19,62.9959 L257.043,59.9959"/>
            <path d="M257.043,59.9959 L216.468,15.5007"/>
            <path d="M212.615,18.5007 L253.19,62.9959"/>
            <path d="M203.909,75.4664 L253.19,62.9959"/>
            <path d="M131.054,37.1143 L137.133,35.5759"/>
            <path d="M190.772,22.0028 L216.468,15.5007"/>
            <path d="M216.468,15.5007 L212.615,18.5007"/>
            <path d="M133.652,38.482 L139.732,36.9435"/>
            <path d="M193.37,23.3704 L212.615,18.5007"/>
        </g>
        <g id="product-8e328f77-4f3a-46f1-a211-8648bbdc64e8" class="IfcBeam material-woodStructural projection" ifc:name="Beam" ifc:guid="2ECeztJpf6yQ8HXaYxt6Je">
            <path d="M184.345,55.2973 L184.393,55.5487"/>
            <path d="M184.393,55.5487 L185.068,55.2973"/>
            <path d="M184.345,55.2973 L185.068,55.2973"/>
        </g>
        <g id="product-8e328f77-4f3a-46f1-a211-8648bbdc64e8-body" class="IfcBeam material-woodStructural cut" ifc:name="Beam" ifc:guid="2ECeztJpf6yQ8HXaYxt6Je">
            <path d="M184.345,55.2973 L184.393,55.5487 L185.068,55.2973 L184.345,55.2973"/>
        </g>
        <g id="product-72919df1-b900-413a-b6e6-de95e4436c64-body" class="IfcBeam material-null cut" ifc:name="Plankekel 2stk 45x295 c18" ifc:guid="1oaPtnkG11EhRctfNaGsna">
            <path d="M216.468,15.5007 L212.615,18.5007 L253.19,62.9959 L257.043,59.9959 L216.468,15.5007"/>
        </g>
        <g id="product-b8719456-12ce-473b-aa8c-fc1ce17826b3-body" class="IfcBeam material-woodStructural cut" ifc:name="Beam" ifc:guid="2uSPHM4iv7EwgC$1pXU2Qp">
            <path d="M187.386,55.0565 L184.974,59.6372 L193.793,69.3074 L196.204,64.7268 L187.386,55.0565"/>
        </g>
        <g id="product-7611a1e4-9496-42da-bfab-14919a61ee98-body" class="IfcBeam material-woodStructural cut" ifc:name="Beam" ifc:guid="1s4Q7ab9P2sh_h596QOUwO">
            <path d="M1312.88,-145.808 L1366.98,-145.808 L1495.67,-193.745 L1441.58,-193.745 L1312.88,-145.808"/>
        </g>
        <g id="product-6c166d7d-d91b-4d01-829f-f9be908c7e64-body" class="IfcBeam material-woodStructural cut" ifc:name="Beam" ifc:guid="1i5crzsHjD0OAV_RwGZ7va">
            <path d="M-11.9867,-145.808 L2.50714,-145.808 L-6.7326,-193.746 L-21.2265,-193.746 L-11.9867,-145.808"/>
        </g>
        <g id="product-49b7b687-b005-4497-8e33-7b6b20ff8741-model" class="IfcMember material-wood cut" ifc:name="I-profil 45x400, normal sp&#230;r byg 1.018" ifc:guid="19jxQ7i0L4buupUsiW$uT1">
            <path d="M-210.355,214.702 L-201.795,211.514 L-206.036,219.57 L-214.596,222.758 L-213.324,220.342 L-268.208,240.785 L-269.023,236.556 L-266.084,235.461 L-267.357,237.878 L-211.627,217.119 L-210.355,214.702 M204.752,66.5541 L199.615,68.4674 L195.207,63.6331 L200.344,61.7198 L201.666,63.1701 L235.108,50.7132 L233.785,49.2629 L238.922,47.3496 L243.33,52.1839 L238.194,54.0972 L236.871,52.6469 L203.429,65.1038 L204.752,66.5541"/>
        </g>
        <g id="product-51523f8a-cdbc-40d9-bdbb-65afe08d8670-model" class="IfcMember material-wood cut" ifc:name="I-profil 45x400, normal sp&#230;r byg 1.017" ifc:guid="1HKZ_ApRn0sRsxPQ$WZOPm">
            <path d="M-134.789,71.1549 L-153.308,78.0531 L-155.072,76.1194 L-133.093,67.9325 L-131.821,65.5156 L-123.261,62.3272 L-127.502,70.3833 L-136.062,73.5717 L-134.789,71.1549 M-153.308,78.0531 L-190.519,91.9137 L-191.791,94.3305 L-200.351,97.5189 L-196.11,89.4628 L-187.55,86.2744 L-188.822,88.6912 L-155.072,76.1194 M118.706,-27.8039 L120.029,-26.3536 L153.47,-38.8105 L152.148,-40.2608 L157.284,-42.1741 L161.693,-37.3398 L156.556,-35.4265 L155.234,-36.8768 L121.792,-24.4199 L123.114,-22.9696 L117.978,-21.0563 L113.569,-25.8906 L118.706,-27.8039"/>
        </g>
        <g id="product-c3f052d3-8781-4e1b-89ce-cb41070acc6c-model" class="IfcMember material-wood cut" ifc:name="I-profil 45x400, normal sp&#230;r byg 1.019" ifc:guid="33y5BJXu5E6udEoq472ini">
            <path d="M286.39,156.078 L281.253,157.991 L276.844,153.157 L281.981,151.243 L283.304,152.694 L316.746,140.237 L315.423,138.787 L320.559,136.873 L324.968,141.708 L319.831,143.621 L318.509,142.171 L285.067,154.628 L286.39,156.078"/>
        </g>
        <g id="product-1ee8508c-03ef-4a4e-b53e-d878d66eee53-model" class="IfcMember material-wood cut" ifc:name="I-profil 45x400, normal sp&#230;r byg 1.020" ifc:guid="0Uw52C0_zAJhK_s7ZMRkvJ">
            <path d="M368.027,245.602 L362.89,247.515 L358.482,242.681 L363.619,240.767 L364.941,242.218 L398.383,229.761 L397.061,228.31 L402.197,226.397 L405.82,230.37 L406.028,231.447 L401.469,233.145 L400.146,231.694 L366.705,244.151 L368.027,245.602"/>
        </g>
        </g>
</svg>