<svg xmlns="http://www.w3.org/2000/svg" xmlns:xlink="http://www.w3.org/1999/xlink" xmlns:ifc="http://www.ifcopenshell.org/ns" width="62.0002mm" height="53.4243mm" viewBox="0 0 62.0002 53.4243">
    <defs>
        <marker id="arrowend" markerWidth="10" markerHeight="7" refX="10" refY="3.5" orient="auto">
          <polygon points="0 0, 10 3.5, 0 7"/>
        </marker>
        <marker id="arrowstart" markerWidth="10" markerHeight="7" refX="0" refY="3.5" orient="auto">
          <polygon points="10 0, 0 3.5, 10 7"/>
        </marker>
    </defs>
    <g ifc:name="Elevation 3d S&#248;jle ved vindue-overligger ved kip bj&#230;lke" class="section" ifc:plane="[[1.000000,0.000000,0.000000,0.000000],[0.000000,1.000000,0.000000,0.000000],[0.000000,0.000000,1.000000,0.000000],[0.000000,0.000000,0.000000,1.000000]]" ifc:matrix3="[[100.000001,0.000000,1100.122746],[0.000000,100.000001,218.146775],[0.000000,0.000000,1.000000]]">
        <g id="product-eabb8e2b-f479-446a-95a7-6eca2c6697c4" class="IfcColumn material-woodStructural projection" ifc:name="C18 45x245 SiderD&#248;reVinduer" ifc:guid="3gkuuhz7b4QfMdRieiPfV4">
            <path d="M33.2644,194.709 L35.8253,177.48"/>
            <path d="M35.8253,177.48 L35.8253,36.3666"/>
            <path d="M28.789,194.377 L33.2644,194.709"/>
            <path d="M33.2644,194.709 L33.2644,36.1763"/>
            <path d="M28.789,194.377 L28.789,35.8437"/>
        </g>
        <g id="product-8da2a4de-66e9-483e-a57f-20d7158cdd72" class="IfcBeam material-woodStructural projection" ifc:name="OverliggerTop" ifc:guid="2DegJUPkb8FgL$8DSLZDro">
            <path d="M38.6805,9.67374 L345.242,32.4573"/>
            <path d="M345.242,32.4573 L349.247,35.9544"/>
            <path d="M38.2101,12.8383 L349.247,35.9544"/>
            <path d="M349.247,35.9544 L349.247,36.034"/>
        </g>
        <g id="product-b913a710-b0db-4405-b859-c3939e2d07c4" class="IfcBeam material-woodStructural projection" ifc:name="OverliggerFladenTop.022" ifc:guid="2v4wSGiDj41RXPmvEUBGV4">
            <path d="M28.789,32.7328 L28.789,35.8437"/>
            <path d="M28.789,35.8437 L353.252,59.9577"/>
            <path d="M353.252,56.7757 L353.252,59.9577"/>
            <path d="M353.241,56.7669 L353.252,56.7757"/>
            <path d="M353.241,56.775 L353.252,56.7757"/>
        </g>
        <g id="product-0b47842d-02ae-4bd2-bb6e-57519ebf3efd" class="IfcColumn material-woodStructural projection" ifc:name="C18 45x245 normalS&#248;jle ENDER.004" ifc:guid="0BHuGj0gvBqhjkLr6Ulpxz">
            <path d="M24.3137,173.538 L24.3137,-166.95"/>
            <path d="M24.3137,173.538 L28.789,173.871"/>
            <path d="M28.789,187.995 L24.784,187.698"/>
            <path d="M24.784,187.698 L24.784,173.573"/>
            <path d="M28.7891,-166.284 L28.7891,-166.285"/>
            <path d="M31.35,-200.743 L31.35,-200.743"/>
            <path d="M31.35,-200.743 L26.8747,-201.408"/>
            <path d="M26.8747,-201.408 L24.3137,-166.95"/>
            <path d="M24.3137,-166.95 L28.7891,-166.285"/>
            <path d="M28.7891,-166.285 L31.35,-200.743"/>
        </g>
        <g id="product-af73791e-8ef4-4a1b-9572-31463d280ec4" class="IfcBeam material-woodStructural projection" ifc:name="OverliggerTop" ifc:guid="2lStaUZlHA6vLoCKOzA0x4">
            <path d="M38.1997,12.9086 L349.236,36.0247"/>
            <path d="M349.236,36.0247 L353.241,39.5219"/>
            <path d="M28.789,15.3375 L28.7786,15.4079"/>
            <path d="M28.7786,32.7321 L353.241,56.846"/>
            <path d="M28.7786,15.4079 L353.241,39.5219"/>
            <path d="M353.241,39.5219 L353.241,56.846"/>
            <path d="M28.7786,15.4079 L28.7786,32.7321"/>
        </g>
        <g id="product-c97992b1-f41b-44c2-b07b-af1800adf738" class="IfcColumn material-woodStructural projection" ifc:name="C18 45x245 normalS&#248;jle" ifc:guid="39UPAnz1j4mh1xhnW0hVSu">
            <path d="M4.46572,172.063 L4.46576,-169.9"/>
            <path d="M4.46572,172.063 L8.94107,172.396"/>
            <path d="M9.41145,186.555 L4.9361,186.223"/>
            <path d="M4.9361,186.223 L4.9361,172.098"/>
            <path d="M8.94107,172.396 L8.94111,-169.235"/>
            <path d="M11.502,155.166 L11.5021,-203.693"/>
            <path d="M11.0316,158.331 L11.502,155.166"/>
            <path d="M11.0316,175.655 L11.0316,158.331"/>
            <path d="M9.41145,186.555 L11.0316,175.655"/>
            <path d="M9.41145,169.231 L9.41145,186.555"/>
            <path d="M8.94107,172.396 L9.41145,169.231"/>
            <path d="M11.5021,-203.693 L7.02672,-204.358"/>
            <path d="M7.02672,-204.358 L4.46576,-169.9"/>
            <path d="M4.46576,-169.9 L8.94111,-169.235"/>
            <path d="M8.94111,-169.235 L11.5021,-203.693"/>
        </g>
        <g id="product-9dcd3a70-02ce-42ff-8b9a-0e3273387833" class="IfcColumn material-woodStructural projection" ifc:name="C18 45x245 normalS&#248;jle ENDER.004" ifc:guid="2TpJfm0iv2$ukQ3Z9pE7Wp">
            <path d="M19.8383,173.205 L19.8384,-167.615"/>
            <path d="M19.8383,173.205 L24.3137,173.538"/>
            <path d="M24.784,187.698 L20.3087,187.365"/>
            <path d="M20.3087,187.365 L20.3087,173.24"/>
            <path d="M24.3137,173.538 L24.3137,-166.95"/>
            <path d="M24.784,187.698 L24.784,187.698"/>
            <path d="M24.784,173.573 L24.784,187.698"/>
            <path d="M24.3137,173.538 L24.3137,173.538"/>
            <path d="M26.8747,-201.408 L22.3993,-202.073"/>
            <path d="M22.3993,-202.073 L19.8384,-167.615"/>
            <path d="M19.8384,-167.615 L24.3137,-166.95"/>
            <path d="M24.3137,-166.95 L26.8747,-201.408"/>
        </g>
        <g id="product-1646c202-5840-4fd6-8d91-36173cc9e740" class="IfcColumn material-woodStructural projection" ifc:name="C18 45x245 normalS&#248;jle" ifc:guid="0MHi82M41FresHDXSyoUT0">
            <path d="M33.2644,15.6702 L33.2644,-165.619"/>
            <path d="M33.2644,15.6702 L37.7397,16.0028"/>
            <path d="M37.7397,16.0028 L37.7398,-164.954"/>
            <path d="M40.3007,9.79415 L40.3007,-199.412"/>
            <path d="M38.6805,9.67367 L38.6805,9.67374"/>
            <path d="M37.7397,16.0028 L38.2101,12.8383"/>
            <path d="M38.2101,12.8383 L38.6805,9.67367"/>
            <path d="M40.3007,-199.412 L35.8254,-200.078"/>
            <path d="M35.8254,-200.078 L33.2644,-165.619"/>
            <path d="M33.2644,-165.619 L37.7398,-164.954"/>
            <path d="M37.7398,-164.954 L40.3007,-199.412"/>
        </g>
        <g id="product-776793bd-7400-48e1-8784-b867f76e2211" class="IfcColumn material-woodStructural projection" ifc:name="C18 45x245 normalS&#248;jle" ifc:guid="1tPvEzT018uOU4k6VtRY8H">
            <path d="M28.789,15.3376 L28.789,-166.284"/>
            <path d="M28.789,15.3376 L33.2644,15.6702"/>
            <path d="M33.2644,15.6702 L33.2644,-165.619"/>
            <path d="M35.8254,-200.077 L35.8254,-200.078"/>
            <path d="M33.2644,15.6702 L33.2644,15.6701"/>
            <path d="M35.8254,-200.078 L31.35,-200.743"/>
            <path d="M31.35,-200.743 L28.789,-166.284"/>
            <path d="M28.789,-166.284 L33.2644,-165.619"/>
            <path d="M33.2644,-165.619 L35.8254,-200.078"/>
        </g>
        <g id="product-0446e43f-922c-4a0d-8683-24096ddd986f" class="IfcMember material-wood projection" ifc:name="I-profil 45x400, normal sp&#230;r byg 1.001" ifc:guid="04HkG$aYnA3OQ390bjtPXl">
            <path d="M364.659,-56.0177 L364.848,-57.2835"/>
            <path d="M364.518,-75.7791 L364.659,-76.7285"/>
            <path d="M364.989,-78.9436 L364.989,-83.6436"/>
            <path d="M364.848,-77.9943 L364.989,-78.9436"/>
            <path d="M364.848,-57.2835 L364.848,-77.9943"/>
            <path d="M350.751,-57.0515 L364.659,-56.0177"/>
            <path d="M364.659,-76.7285 L364.659,-56.0177"/>
            <path d="M364.518,-75.7791 L193.996,-209.694"/>
            <path d="M364.518,-80.4791 L364.518,-75.7791"/>
            <path d="M364.518,-80.4791 L197.301,-211.799"/>
            <path d="M364.989,-83.6436 L364.518,-80.4791"/>
            <path d="M364.989,-83.6436 L197.771,-214.963"/>
            <path d="M343.999,-56.5933 L350.609,-56.1021"/>
            <path d="M343.999,-56.5933 L169.172,-193.889"/>
            <path d="M350.751,-57.0515 L172.618,-196.943"/>
            <path d="M350.609,-56.1021 L350.751,-57.0515"/>
            <path d="M350.609,-56.1021 L172.477,-195.993"/>
            <path d="M60.7309,-314.35 L193.996,-209.694"/>
            <path d="M63.6128,-320.321 L197.771,-214.963"/>
            <path d="M68.1128,-313.253 L197.301,-211.799"/>
            <path d="M39.9143,-319.364 L39.9143,-301.158"/>
            <path d="M39.9143,-301.158 L39.7732,-300.209"/>
            <path d="M39.9143,-301.158 L172.618,-196.943"/>
            <path d="M39.7732,-295.509 L169.172,-193.889"/>
            <path d="M39.7732,-299.44 L39.7732,-295.509"/>
            <path d="M39.7732,-299.44 L39.7732,-300.209"/>
            <path d="M39.7732,-300.209 L172.477,-195.993"/>
            <path d="M59.3809,-316.47 L39.9143,-319.364"/>
            <path d="M60.7309,-314.35 L59.3809,-316.47"/>
            <path d="M68.1128,-313.253 L60.7309,-314.35"/>
            <path d="M63.6128,-320.321 L68.1128,-313.253"/>
            <path d="M56.2309,-321.418 L63.6128,-320.321"/>
            <path d="M57.5809,-319.298 L56.2309,-321.418"/>
            <path d="M40.1025,-321.896 L57.5809,-319.298"/>
            <path d="M-270.922,-103.254 L-271.063,-102.305"/>
            <path d="M-284.763,-104.283 L-284.763,-124.182"/>
            <path d="M-284.763,-104.283 L-270.922,-103.254"/>
            <path d="M-270.922,-103.254 L-137.105,-188.453"/>
            <path d="M-284.904,-124.092 L-284.904,-128.792"/>
            <path d="M-284.904,-124.092 L-158.765,-204.403"/>
            <path d="M-284.434,-131.957 L-161.6,-210.163"/>
            <path d="M-284.904,-128.792 L-284.434,-131.957"/>
            <path d="M-284.904,-128.792 L-162.07,-206.999"/>
            <path d="M-264.453,-101.813 L-133.941,-184.908"/>
            <path d="M-269.982,-102.224 L-264.453,-101.813"/>
            <path d="M-269.982,-102.224 L-271.063,-102.305"/>
            <path d="M-271.063,-102.305 L-137.246,-187.504"/>
            <path d="M21.2975,-326.61 L-161.6,-210.163"/>
            <path d="M16.7975,-320.88 L-162.07,-206.999"/>
            <path d="M22.7823,-319.991 L-158.765,-204.403"/>
            <path d="M39.7732,-295.509 L-133.941,-184.908"/>
            <path d="M39.7732,-300.209 L-137.246,-187.504"/>
            <path d="M39.9143,-301.158 L-137.105,-188.453"/>
            <path d="M27.2823,-325.721 L25.9323,-324.002"/>
            <path d="M21.2975,-326.61 L27.2823,-325.721"/>
            <path d="M16.7975,-320.88 L21.2975,-326.61"/>
            <path d="M22.7823,-319.991 L16.7975,-320.88"/>
            <path d="M24.1323,-321.71 L22.7823,-319.991"/>
            <path d="M39.9143,-319.364 L24.1323,-321.71"/>
            <path d="M25.9323,-324.002 L40.1025,-321.896"/>
            <path d="M39.7732,-295.509 L39.7732,-295.509"/>
            <path d="M39.7732,-295.509 L39.7732,-300.209"/>
            <path d="M39.9143,-301.158 L39.9143,-319.364"/>
        </g>
        <g id="product-faa34cab-d17c-48c6-a599-9b99c34b8ef7" class="IfcMember material-wood projection" ifc:name="I-profil 45x400, normal sp&#230;r byg 1" ifc:guid="3weqohqNn8ngMPcvd3Iuxt">
            <path d="M144.064,-183.464 L142.714,-185.584"/>
            <path d="M139.564,-190.532 L146.946,-189.434"/>
            <path d="M140.914,-188.411 L139.564,-190.532"/>
            <path d="M92.8522,-195.555 L140.914,-188.411"/>
            <path d="M84.1201,-198.773 L91.5022,-197.675"/>
            <path d="M88.6201,-191.705 L84.1201,-198.773"/>
            <path d="M142.714,-185.584 L94.6522,-192.728"/>
            <path d="M151.446,-182.366 L144.064,-183.464"/>
            <path d="M144.064,-183.464 L185.285,-151.092"/>
            <path d="M146.946,-189.434 L189.061,-156.361"/>
            <path d="M146.946,-189.434 L151.446,-182.366"/>
            <path d="M151.446,-182.366 L188.59,-153.196"/>
            <path d="M91.5022,-197.675 L94.5174,-195.308"/>
            <path d="M91.5022,-197.675 L92.8522,-195.555"/>
            <path d="M96.0022,-190.607 L88.6201,-191.705"/>
            <path d="M88.6201,-191.705 L135.479,-154.905"/>
            <path d="M94.6522,-192.728 L144.526,-153.561"/>
            <path d="M94.6522,-192.728 L96.0022,-190.607"/>
            <path d="M96.0022,-190.607 L142.861,-153.808"/>
            <path d="M355.949,2.58482 L356.137,1.319"/>
            <path d="M355.808,-17.1766 L355.949,-18.1259"/>
            <path d="M356.278,-20.3411 L356.278,-25.0411"/>
            <path d="M356.137,-19.3917 L356.278,-20.3411"/>
            <path d="M356.137,1.319 L356.137,-19.3917"/>
            <path d="M353.615,2.41134 L355.949,2.58482"/>
            <path d="M355.949,-18.1259 L355.949,2.58482"/>
            <path d="M355.808,-17.1766 L185.285,-151.092"/>
            <path d="M355.808,-21.8765 L355.808,-17.1766"/>
            <path d="M355.808,-21.8765 L188.59,-153.196"/>
            <path d="M356.278,-25.0411 L355.808,-21.8765"/>
            <path d="M356.278,-25.0411 L189.061,-156.361"/>
            <path d="M-293.474,-57.7812 L-293.474,-65.5795"/>
            <path d="M-293.615,-65.4897 L-293.615,-70.1897"/>
            <path d="M-293.615,-65.4897 L-167.476,-145.8"/>
            <path d="M-293.145,-73.3542 L-170.31,-151.561"/>
            <path d="M-293.615,-70.1897 L-293.145,-73.3542"/>
            <path d="M-293.615,-70.1897 L-170.781,-148.396"/>
            <path d="M-62.0355,-220.497 L-170.31,-151.561"/>
            <path d="M-66.5355,-214.767 L-170.781,-148.396"/>
            <path d="M-60.5507,-213.877 L-167.476,-145.8"/>
            <path d="M-20.2358,-209.805 L-60.6702,-184.061"/>
            <path d="M-15.601,-207.196 L-53.5909,-183.009"/>
            <path d="M-21.5858,-208.086 L-59.5758,-183.898"/>
            <path d="M-56.0507,-219.608 L-57.4007,-217.889"/>
            <path d="M-62.0355,-220.497 L-56.0507,-219.608"/>
            <path d="M-66.5355,-214.767 L-62.0355,-220.497"/>
            <path d="M-60.5507,-213.877 L-66.5355,-214.767"/>
            <path d="M-59.2007,-215.597 L-60.5507,-213.877"/>
            <path d="M-20.2358,-209.805 L-59.2007,-215.597"/>
            <path d="M-21.5858,-208.086 L-20.2358,-209.805"/>
            <path d="M-15.601,-207.196 L-21.5858,-208.086"/>
            <path d="M-15.601,-207.196 L-11.101,-212.926"/>
            <path d="M-11.101,-212.926 L-17.0858,-213.816"/>
            <path d="M-57.4007,-217.889 L-18.4358,-212.097"/>
            <path d="M-19.5303,-212.26 L-17.0858,-213.816"/>
            <path d="M-17.0858,-213.816 L-18.4358,-212.097"/>
        </g>
        <g id="product-5b20a9cc-c8b3-4a4a-8373-a19798136a11" class="IfcMember material-wood projection" ifc:name="I-profil 45x400, normal sp&#230;r byg 1" ifc:guid="1R8AdCoBDAIeDpePUO4seH">
            <path d="M168.194,-145.563 L166.844,-147.684"/>
            <path d="M163.694,-152.631 L171.076,-151.534"/>
            <path d="M165.044,-150.511 L163.694,-152.631"/>
            <path d="M116.983,-157.655 L165.044,-150.511"/>
            <path d="M108.251,-160.872 L115.633,-159.775"/>
            <path d="M112.751,-153.804 L108.251,-160.872"/>
            <path d="M166.844,-147.684 L118.783,-154.827"/>
            <path d="M175.576,-144.466 L168.194,-145.563"/>
            <path d="M168.194,-145.563 L182.763,-134.122"/>
            <path d="M171.076,-151.534 L186.538,-139.391"/>
            <path d="M171.076,-151.534 L175.576,-144.466"/>
            <path d="M175.576,-144.466 L186.068,-136.227"/>
            <path d="M115.633,-159.775 L118.648,-157.407"/>
            <path d="M115.633,-159.775 L116.983,-157.655"/>
            <path d="M120.133,-152.707 L112.751,-153.804"/>
            <path d="M112.751,-153.804 L157.939,-118.317"/>
            <path d="M118.783,-154.827 L161.385,-121.371"/>
            <path d="M118.783,-154.827 L120.133,-152.707"/>
            <path d="M120.133,-152.707 L161.244,-120.422"/>
            <path d="M353.426,19.5542 L353.615,18.2884"/>
            <path d="M353.285,-0.207195 L353.426,-1.15656"/>
            <path d="M353.756,-3.37174 L353.756,-8.07169"/>
            <path d="M353.615,-2.42238 L353.756,-3.37174"/>
            <path d="M353.615,18.2884 L353.615,-2.42238"/>
            <path d="M339.518,18.5204 L353.426,19.5542"/>
            <path d="M353.426,-1.15656 L353.426,19.5542"/>
            <path d="M353.285,-0.207195 L182.763,-134.122"/>
            <path d="M353.285,-4.90715 L353.285,-0.207195"/>
            <path d="M353.285,-4.90715 L186.068,-136.227"/>
            <path d="M353.756,-8.07169 L353.285,-4.90715"/>
            <path d="M353.756,-8.07169 L186.538,-139.391"/>
            <path d="M339.518,18.5204 L161.385,-121.371"/>
            <path d="M339.376,19.4698 L339.518,18.5204"/>
            <path d="M332.766,18.9786 L339.376,19.4698"/>
            <path d="M332.766,18.9786 L157.939,-118.317"/>
            <path d="M339.376,19.4698 L161.244,-120.422"/>
            <path d="M-282.155,-27.6822 L-282.296,-26.7328"/>
            <path d="M-295.996,-28.7109 L-295.996,-48.6102"/>
            <path d="M-295.996,-28.7109 L-282.155,-27.6822"/>
            <path d="M-282.155,-27.6822 L-148.338,-112.881"/>
            <path d="M-296.137,-48.5203 L-296.137,-53.2203"/>
            <path d="M-296.137,-48.5203 L-169.998,-128.831"/>
            <path d="M-295.667,-56.3849 L-172.833,-134.591"/>
            <path d="M-296.137,-53.2203 L-295.667,-56.3849"/>
            <path d="M-296.137,-53.2203 L-173.303,-131.427"/>
            <path d="M-275.686,-26.2416 L-145.174,-109.336"/>
            <path d="M-281.215,-26.6525 L-275.686,-26.2416"/>
            <path d="M-281.215,-26.6525 L-282.296,-26.7328"/>
            <path d="M-282.296,-26.7328 L-148.479,-111.932"/>
            <path d="M-86.166,-189.77 L-172.833,-134.591"/>
            <path d="M-90.666,-184.04 L-173.303,-131.427"/>
            <path d="M-84.6812,-183.151 L-169.998,-128.831"/>
            <path d="M-44.3663,-179.078 L-148.338,-112.881"/>
            <path d="M-39.7315,-176.469 L-145.174,-109.336"/>
            <path d="M-45.7163,-177.359 L-148.479,-111.932"/>
            <path d="M-80.1812,-188.881 L-81.5312,-187.162"/>
            <path d="M-86.166,-189.77 L-80.1812,-188.881"/>
            <path d="M-90.666,-184.04 L-86.166,-189.77"/>
            <path d="M-84.6812,-183.151 L-90.666,-184.04"/>
            <path d="M-83.3312,-184.87 L-84.6812,-183.151"/>
            <path d="M-44.3663,-179.078 L-83.3312,-184.87"/>
            <path d="M-45.7163,-177.359 L-44.3663,-179.078"/>
            <path d="M-39.7315,-176.469 L-45.7163,-177.359"/>
            <path d="M-39.7315,-176.469 L-35.2315,-182.199"/>
            <path d="M-35.2315,-182.199 L-41.2163,-183.089"/>
            <path d="M-81.5312,-187.162 L-42.5663,-181.37"/>
            <path d="M-43.6608,-181.533 L-41.2163,-183.089"/>
            <path d="M-41.2163,-183.089 L-42.5663,-181.37"/>
        </g>
    <g ifc:guid="0BHuGj0gvBqhjkLr6Ulpxz" ifc:name="C18 45x245 normalS&#248;jle ENDER.004" class="IfcColumn material-woodStructural cut"><path d="M29.036307893693447,-169.6116932011286 L31.31293309852481,-200.24440365797673 L31.349986349232495,-200.74298459059392 L31.000655448360703,-200.79488831526433 L26.874583587050438,-201.40817242628728 L26.83793716132641,-200.91512280470525 L24.559175968170166,-170.25358754164372 L24.37042146921158,-167.71385746962224 L24.313634634017944,-166.9497616863886 L24.858849868178368,-166.86871129042302 L28.789037093520164,-166.28456192976628 L28.846224956214428,-167.05401021010076 Z"/></g><g ifc:guid="39UPAnz1j4mh1xhnW0hVSu" ifc:name="C18 45x245 normalS&#248;jle" class="IfcColumn material-woodStructural cut"><path d="M11.406563222408295,-202.40876751906072 L11.481161415576935,-203.4125097370783 L11.502006649971008,-203.69298535353337 L7.182911038398743,-204.33499890333806 L7.026699185371399,-204.35822087294255 L7.0101529359817505,-204.1355856037775 L6.950925290584564,-203.33864766127263 L4.503607749938965,-170.40920334822331 L4.4657498598098755,-169.89979821211492 L4.829385876655579,-169.8457725620905 L8.941058814525604,-169.23456269270574 L8.982966840267181,-169.79847031599675 Z"/></g><g ifc:guid="0MHi82M41FresHDXSyoUT0" ifc:name="C18 45x245 normalS&#248;jle" class="IfcColumn material-woodStructural cut"><path d="M33.2643311470747,-165.6191714382807 L34.20026712119579,-165.48006611830388 L37.73973360657692,-164.95394783980046 L37.9322350025177,-167.54412728315984 L40.0708869099617,-196.32039147383367 L40.300680696964264,-199.4123705006281 L39.739347994327545,-199.49576931959783 L35.825278237462044,-200.07758217817937 L35.59795320034027,-197.0188625431696 L33.455503545701504,-168.19146948820745 Z"/></g><g ifc:guid="2TpJfm0iv2$ukQ3Z9pE7Wp" ifc:name="C18 45x245 normalS&#248;jle ENDER.004" class="IfcColumn material-woodStructural cut"><path d="M24.559173732995987,-170.2536233044306 L26.837937906384468,-200.91512280470525 L26.874583587050438,-201.40817242628728 L26.529067382216454,-201.45957547194158 L22.39927649497986,-202.07343178755437 L22.36303687095642,-201.58581810957585 L20.082135498523712,-170.8955534077326 L19.894713163375854,-168.37368088728581 L19.838327169418335,-167.61498528486882 L20.379728078842163,-167.53454285627996 L24.313634634017944,-166.9497855282465 L24.37042146921158,-167.71390515333806 Z"/></g><g ifc:guid="1tPvEzT018uOU4k6VtRY8H" ifc:name="C18 45x245 normalS&#248;jle" class="IfcColumn material-woodStructural cut"><path d="M28.78902368247509,-166.2843950367609 L29.718379396945238,-166.14625531202947 L33.2643311470747,-165.6191714382807 L33.455503545701504,-168.19146948820745 L35.59795320034027,-197.0188625431696 L35.825278237462044,-200.07758217817937 L35.270144417881966,-200.16009884840642 L31.34997070301324,-200.74279385573064 L31.125114974565804,-197.7172620869318 L28.978866897523403,-168.83878785139714 Z"/></g><g ifc:guid="1fPCAzV_z8rBbuKTC_YZQL" ifc:name="RemTop" class="IfcBeam material-woodStructural cut"><path d="M105.68226873874664,-154.8550851917902 L107.37265646457672,-154.60383969313298 L112.750044465065,-153.80457716948186 L92.69854128360748,-185.29841977125798 L88.25010359287262,-192.28530007368718 L82.19942152500153,-193.1846387959162 L81.18223249912262,-193.3358677006403 L84.9749892950058,-187.37886029249822 Z"/></g></g>
</svg>