<svg xmlns="http://www.w3.org/2000/svg" xmlns:xlink="http://www.w3.org/1999/xlink" xmlns:ifc="http://www.ifcopenshell.org/ns" width="73.0449mm" height="26.4232mm" viewBox="0 0 73.0449 26.4232">
    <defs>
        <marker id="arrowend" markerWidth="10" markerHeight="7" refX="10" refY="3.5" orient="auto">
          <polygon points="0 0, 10 3.5, 0 7"/>
        </marker>
        <marker id="arrowstart" markerWidth="10" markerHeight="7" refX="0" refY="3.5" orient="auto">
          <polygon points="10 0, 0 3.5, 10 7"/>
        </marker>
    </defs>
    <g ifc:name="Elevation 3d S&#248;jle ved vindue-Hj&#248;rne-bund" class="section" ifc:plane="[[1.000000,0.000000,0.000000,0.000000],[0.000000,1.000000,0.000000,0.000000],[0.000000,0.000000,1.000000,0.000000],[0.000000,0.000000,0.000000,1.000000]]" ifc:matrix3="[[100.000001,0.000000,533.130513],[0.000000,100.000001,429.215416],[0.000000,0.000000,1.000000]]">
        <g id="product-2ac0f130-a4c2-4e80-94ef-a506c0bbe9df" class="IfcMechanicalFastener material-concreteInsitu projection" ifc:name="MechanicalFastener" ifc:guid="0gmF4mfC9EW9JlfGR0k_dV">
            <path d="M2.73066,9.9257 L2.03413,10.2706"/>
            <path d="M21.5327,12.7018 L16.4461,7.56501"/>
            <path d="M10.0644,18.38 L21.5327,12.7018"/>
            <path d="M10.0644,19.7942 L21.5327,14.116"/>
            <path d="M21.5327,14.116 L21.5327,12.7018"/>
            <path d="M2.03413,10.2706 L10.0644,18.38"/>
            <path d="M2.03413,11.6848 L10.0644,19.7942"/>
            <path d="M10.0644,19.7942 L10.0644,18.38"/>
            <path d="M2.03413,11.6848 L2.03413,10.2706"/>
        </g>
    <g id="product-12ceb985-1738-4945-8da8-3606d8bb8876" class="IfcColumn material-steel projection" ifc:name="Column" ifc:guid="0Iphc55pX9HOseDWROkuXs">
            <path d="M16.4461,-23.0097 L16.4461,-96.7339"/>
            <path d="M16.4461,-23.0097 L16.4461,13.9481"/>
            <path d="M5.89334,-24.5773 L5.89334,-98.9908"/>
            <path d="M5.89334,-24.5773 L5.89333,12.817"/>
            <path d="M6.02896,13.1224 L6.02897,13.1224"/>
            <path d="M16.1262,14.3814 L16.1263,14.3814"/>
            <path d="M6.02897,13.1224 L9.75722,16.8874"/>
            <path d="M6.50338,-98.7512 L6.58195,-98.4987"/>
            <path d="M6.49153,-98.904 L6.50338,-98.7512"/>
            <path d="M6.49912,-99.027 L6.49153,-98.904"/>
            <path d="M6.56983,-99.2842 L6.49912,-99.027"/>
            <path d="M6.70474,-99.4835 L6.56983,-99.2842"/>
            <path d="M11.6197,-104.35 L6.70474,-99.4835"/>
            <path d="M11.7982,-104.462 L11.6197,-104.35"/>
            <path d="M11.9933,-104.468 L11.7982,-104.462"/>
            <path d="M12.1751,-104.368 L11.9933,-104.468"/>
            <path d="M12.316,-104.177 L12.1751,-104.368"/>
            <path d="M15.7575,-97.2261 L12.316,-104.177"/>
            <path d="M15.836,-96.9735 L15.7575,-97.2261"/>
            <path d="M15.8479,-96.8207 L15.836,-96.9735"/>
            <path d="M15.8403,-96.6977 L15.8479,-96.8207"/>
            <path d="M15.7696,-96.4405 L15.8403,-96.6977"/>
            <path d="M15.6347,-96.2412 L15.7696,-96.4405"/>
            <path d="M10.7198,-91.3743 L15.6347,-96.2412"/>
            <path d="M10.5412,-91.2632 L10.7198,-91.3743"/>
            <path d="M10.3462,-91.2571 L10.5412,-91.2632"/>
            <path d="M10.1643,-91.3571 L10.3462,-91.2571"/>
            <path d="M10.0234,-91.5479 L10.1643,-91.3571"/>
            <path d="M6.58195,-98.4987 L10.0234,-91.5479"/>
            <path d="M16.4283,-96.9632 L16.3104,-97.342"/>
            <path d="M16.4461,-96.7339 L16.4283,-96.9632"/>
            <path d="M16.4347,-96.5495 L16.4461,-96.7339"/>
            <path d="M16.3286,-96.1638 L16.4347,-96.5495"/>
            <path d="M16.1263,-95.8648 L16.3286,-96.1638"/>
            <path d="M16.3104,-97.342 L12.5822,-104.872"/>
            <path d="M11.8055,-105.299 L11.5377,-105.132"/>
            <path d="M12.0981,-105.308 L11.8055,-105.299"/>
            <path d="M12.3708,-105.158 L12.0981,-105.308"/>
            <path d="M12.5822,-104.872 L12.3708,-105.158"/>
            <path d="M11.5377,-105.132 L6.21316,-99.8599"/>
            <path d="M5.91112,-98.7615 L6.02898,-98.3827"/>
            <path d="M5.89334,-98.9908 L5.91112,-98.7615"/>
            <path d="M5.90474,-99.1753 L5.89334,-98.9908"/>
            <path d="M6.0108,-99.561 L5.90474,-99.1753"/>
            <path d="M6.21316,-99.8599 L6.0108,-99.561"/>
            <path d="M6.02898,-98.3827 L9.75723,-90.8527"/>
            <path d="M10.8018,-90.5923 L16.1263,-95.8648"/>
            <path d="M10.8018,17.0176 L16.1262,14.3814"/>
            <path d="M10.5339,-90.4256 L10.8018,-90.5923"/>
            <path d="M10.2414,-90.4166 L10.5339,-90.4256"/>
            <path d="M9.96862,-90.5666 L10.2414,-90.4166"/>
            <path d="M9.75723,-90.8527 L9.96862,-90.5666"/>
            <path d="M10.8017,17.0176 L10.8018,17.0176"/>
            <path d="M9.75722,16.8874 L9.75723,16.8874"/>
        </g>
        <g id="product-e45371e4-707f-4992-ba07-aa0dc0b2a729" class="IfcMechanicalFastener material-steel projection" ifc:name="MechanicalFastener" ifc:guid="3aKt7aS7z9ahe7gWt0igSf">
            <path d="M16.128,16.792 L16.128,19.8436"/>
            <path d="M17.1273,10.9676 L17.1273,9.26247"/>
            <path d="M17.1273,16.2972 L17.1273,19.8691"/>
            <path d="M17.1273,9.26247 L17.0372,9.04694"/>
            <path d="M16.9144,9.53935 L17.1273,9.26247"/>
            <path d="M16.4461,9.48095 L16.9144,9.53935"/>
            <path d="M17.0372,9.04694 L16.4461,8.97323"/>
            <path d="M16.9144,20.1459 L17.1273,19.8691"/>
            <path d="M16.2181,20.0591 L16.9144,20.1459"/>
            <path d="M16.128,19.8436 L16.2181,20.0591"/>
        </g>
        <g id="product-f49cf01b-9518-4eff-9233-c89492d1cd02" class="IfcMechanicalFastener material-steel projection" ifc:name="MechanicalFastener" ifc:guid="3qdF0RbHXE$v8po9IIqSq2">
            <path d="M6.96053,16.6597 L6.96053,18.5253"/>
            <path d="M7.95988,17.6689 L7.95988,18.5508"/>
            <path d="M7.747,18.8277 L7.95988,18.5508"/>
            <path d="M7.05063,18.7408 L7.747,18.8277"/>
            <path d="M6.96053,18.5253 L7.05063,18.7408"/>
        </g>
        <g id="product-1ececa10-e8ce-4dd5-b9b3-1ffd3bc88caf" class="IfcMechanicalFastener material-steel projection" ifc:name="PL8" ifc:guid="0UpieGwCvDrRcp7$qxo8ol">
            <path d="M5.89333,8.22569 L2.73066,9.7916"/>
            <path d="M20.8364,12.0493 L16.4461,7.61572"/>
            <path d="M10.1874,17.3218 L10.8017,17.0176"/>
            <path d="M16.1263,14.3813 L20.8364,12.0493"/>
            <path d="M10.1874,17.8875 L20.8364,12.615"/>
            <path d="M20.8364,12.615 L20.8364,12.0493"/>
            <path d="M2.73066,9.7916 L6.02896,13.1224"/>
            <path d="M9.75723,16.8874 L10.1874,17.3218"/>
            <path d="M2.73066,10.3573 L10.1874,17.8875"/>
            <path d="M10.1874,17.8875 L10.1874,17.3218"/>
            <path d="M2.73066,10.3573 L2.73066,9.7916"/>
        </g>
        <g id="product-12ceb985-1738-4945-8da8-3606d8bb8876-body" class="IfcColumn material-steel cut" ifc:name="Column" ifc:guid="0Iphc55pX9HOseDWROkuXs">
            <path d="M9.75723,-90.8527 L10.2414,-90.4166 L10.8018,-90.5923 L16.1263,-95.8648 L16.4347,-96.5495 L16.3104,-97.342 L12.5822,-104.872 L12.0981,-105.308 L11.5377,-105.132 L6.21316,-99.8599 L5.90474,-99.1753 L6.02898,-98.3827 L9.75723,-90.8527 M6.58195,-98.4987 L10.0234,-91.5479 L10.3462,-91.2571 L10.7198,-91.3743 L15.6347,-96.2412 L15.8403,-96.6977 L15.7575,-97.2261 L12.316,-104.177 L11.9933,-104.468 L11.6197,-104.35 L6.70474,-99.4835 L6.49912,-99.027 L6.58195,-98.4987"/>
        </g>
        </g>
</svg>