<svg xmlns="http://www.w3.org/2000/svg" xmlns:xlink="http://www.w3.org/1999/xlink" xmlns:ifc="http://www.ifcopenshell.org/ns" width="154.6mm" height="108.487mm" viewBox="0 0 154.6 108.487">
    <defs>
        <marker id="arrowend" markerWidth="10" markerHeight="7" refX="10" refY="3.5" orient="auto">
          <polygon points="0 0, 10 3.5, 0 7"/>
        </marker>
        <marker id="arrowstart" markerWidth="10" markerHeight="7" refX="0" refY="3.5" orient="auto">
          <polygon points="10 0, 0 3.5, 10 7"/>
        </marker>
    </defs>
    <g ifc:name="Elevation 3d S&#248;jle ved vindue" class="section" ifc:plane="[[1.000000,0.000000,0.000000,0.000000],[0.000000,1.000000,0.000000,0.000000],[0.000000,0.000000,1.000000,0.000000],[0.000000,0.000000,0.000000,1.000000]]" ifc:matrix3="[[20.000000,0.000000,213.630529],[0.000000,20.000000,130.556873],[0.000000,0.000000,1.000000]]">
        <g id="product-5b20a9cc-c8b3-4a4a-8373-a19798136a11" class="IfcMember material-wood projection" ifc:name="I-profil 45x400, normal sp&#230;r byg 1" ifc:guid="1R8AdCoBDAIeDpePUO4seH">
            <path d="M20.1398,-23.6337 L21.607,-21.7622"/>
            <path d="M21.7088,-21.6323 L42.2079,4.51756"/>
            <path d="M20.1398,-24.4201 L20.1398,-23.6337"/>
            <path d="M20.1398,-24.4201 L20.1398,-24.5737"/>
            <path d="M20.1398,-24.5737 L42.7716,4.29662"/>
            <path d="M20.2829,-24.7356 L20.1398,-24.5737"/>
            <path d="M20.2829,-24.7356 L42.9147,4.13471"/>
            <path d="M20.1398,-30.6937 L46.4415,2.85817"/>
            <path d="M20.1398,-31.5924 L20.1398,-31.6337"/>
            <path d="M20.1398,-31.6337 L47.0052,2.63724"/>
            <path d="M20.6168,-32.1734 L20.1398,-31.6337"/>
            <path d="M20.6168,-32.1734 L47.4822,2.09754"/>
            <path d="M75.6662,43.9365 L75.857,43.7206"/>
            <path d="M75.5231,39.9562 L75.6662,39.7943"/>
            <path d="M76.0001,39.4165 L76.0001,38.4765"/>
            <path d="M75.857,39.5784 L76.0001,39.4165"/>
            <path d="M75.857,43.7206 L75.857,39.5784"/>
            <path d="M75.6604,43.9339 L75.6662,43.9365"/>
            <path d="M75.6662,39.7943 L75.6662,43.9365"/>
            <path d="M75.5231,39.9562 L46.4415,2.85817"/>
            <path d="M75.5231,39.0162 L75.5231,39.9562"/>
            <path d="M75.5231,39.0162 L47.0052,2.63724"/>
            <path d="M76.0001,38.4765 L75.5231,39.0162"/>
            <path d="M76.0001,38.4765 L47.4822,2.09754"/>
            <path d="M73.2941,42.8883 L42.9147,4.13471"/>
            <path d="M72.0237,42.5521 L73.151,43.0503"/>
            <path d="M72.0237,42.5521 L42.2079,4.51756"/>
            <path d="M73.151,43.0503 L42.7716,4.29662"/>
            <path d="M-32.7283,-3.9576 L-32.8714,-3.7957"/>
            <path d="M-35.0889,-5.00061 L-35.0889,-9.04654"/>
            <path d="M-35.0889,-5.00061 L-32.7283,-3.9576"/>
            <path d="M-32.7283,-3.9576 L-9.90662,-12.9027"/>
            <path d="M-35.2319,-8.99046 L-35.2319,-9.93046"/>
            <path d="M-35.2319,-8.99046 L-13.7196,-17.4223"/>
            <path d="M-34.755,-10.4702 L-13.8064,-18.6811"/>
            <path d="M-35.2319,-9.93046 L-34.755,-10.4702"/>
            <path d="M-35.2319,-9.93046 L-14.2833,-18.1414"/>
            <path d="M-31.744,-3.29757 L-9.48601,-12.0217"/>
            <path d="M-32.6871,-3.71426 L-31.744,-3.29757"/>
            <path d="M-32.6871,-3.71426 L-32.8714,-3.7957"/>
            <path d="M-32.8714,-3.7957 L-10.0497,-12.7408"/>
            <path d="M20.1398,-23.6337 L20.1398,-24.5737"/>
            <path d="M20.1398,-23.6337 L-9.48601,-12.0217"/>
            <path d="M20.1398,-24.5737 L20.2829,-24.7356"/>
            <path d="M20.1398,-24.5737 L-10.0497,-12.7408"/>
            <path d="M20.2829,-24.7356 L20.2829,-30.5112"/>
            <path d="M20.2829,-24.7356 L-9.90662,-12.9027"/>
            <path d="M20.1398,-30.6937 L20.1398,-31.6337"/>
            <path d="M20.1398,-30.6937 L-13.7196,-17.4223"/>
            <path d="M20.1398,-31.6337 L20.1398,-31.6337"/>
            <path d="M20.1398,-31.6337 L-14.2833,-18.1414"/>
            <path d="M20.6168,-32.1734 L-13.8064,-18.6811"/>
        </g>
    <g id="product-b260cbe5-6dfb-43bb-b322-1e4be865af0b" class="IfcMember material-wood projection" ifc:name="I-profil 45x400, normal sp&#230;r byg 1.006" ifc:guid="2oOClbRVj3kxCY7alePQyB">
            <path d="M75.689,-86.4936 L97.7571,-58.3423"/>
            <path d="M75.689,-87.2799 L75.689,-86.4936"/>
            <path d="M75.689,-87.2799 L75.689,-87.4336"/>
            <path d="M75.689,-87.4336 L98.3208,-58.5632"/>
            <path d="M75.8321,-87.5955 L75.689,-87.4336"/>
            <path d="M75.8321,-87.5955 L98.4639,-58.7251"/>
            <path d="M75.689,-93.5536 L101.991,-60.0017"/>
            <path d="M75.689,-94.4523 L75.689,-94.4936"/>
            <path d="M75.689,-94.4936 L102.554,-60.2226"/>
            <path d="M76.1659,-95.0333 L75.689,-94.4936"/>
            <path d="M76.1659,-95.0333 L103.031,-60.7623"/>
            <path d="M131.215,-18.9234 L131.406,-19.1392"/>
            <path d="M131.072,-22.9036 L131.215,-23.0655"/>
            <path d="M131.549,-23.4433 L131.549,-24.3833"/>
            <path d="M131.406,-23.2814 L131.549,-23.4433"/>
            <path d="M131.406,-19.1392 L131.406,-23.2814"/>
            <path d="M128.843,-19.9715 L131.215,-18.9234"/>
            <path d="M131.215,-23.0655 L131.215,-18.9234"/>
            <path d="M131.072,-22.9036 L101.991,-60.0017"/>
            <path d="M131.072,-23.8436 L131.072,-22.9036"/>
            <path d="M131.072,-23.8436 L102.554,-60.2226"/>
            <path d="M131.549,-24.3833 L131.072,-23.8436"/>
            <path d="M131.549,-24.3833 L103.031,-60.7623"/>
            <path d="M128.843,-19.9715 L98.4639,-58.7251"/>
            <path d="M128.7,-19.8096 L128.843,-19.9715"/>
            <path d="M127.573,-20.3077 L128.7,-19.8096"/>
            <path d="M127.573,-20.3077 L97.7571,-58.3423"/>
            <path d="M128.7,-19.8096 L98.3208,-58.5632"/>
            <path d="M20.4603,-67.8604 L20.4603,-71.9064"/>
            <path d="M20.4603,-67.8604 L21.8922,-67.2278"/>
            <path d="M20.3172,-71.8503 L20.3172,-72.7903"/>
            <path d="M20.3172,-71.8503 L41.8296,-80.2822"/>
            <path d="M20.7942,-73.33 L41.7428,-81.5409"/>
            <path d="M20.3172,-72.7903 L20.7942,-73.33"/>
            <path d="M20.3172,-72.7903 L41.2659,-81.0012"/>
            <path d="M75.689,-86.4936 L75.689,-87.4336"/>
            <path d="M75.689,-86.4936 L68.4255,-83.6466"/>
            <path d="M75.689,-87.4336 L75.8321,-87.5955"/>
            <path d="M75.689,-87.4336 L67.8618,-84.3657"/>
            <path d="M75.8321,-87.5955 L75.8321,-93.371"/>
            <path d="M75.8321,-87.5955 L67.7983,-84.4466"/>
            <path d="M75.689,-93.5536 L75.689,-94.4936"/>
            <path d="M75.689,-93.5536 L41.8296,-80.2822"/>
            <path d="M75.689,-94.4936 L75.689,-94.4936"/>
            <path d="M75.689,-94.4936 L41.2659,-81.0012"/>
            <path d="M76.1659,-95.0333 L41.7428,-81.5409"/>
        </g>
        <g id="product-0446e43f-922c-4a0d-8683-24096ddd986f" class="IfcMember material-wood projection" ifc:name="I-profil 45x400, normal sp&#230;r byg 1.001" ifc:guid="04HkG$aYnA3OQ390bjtPXl">
            <path d="M31.5292,-36.5221 L53.5973,-8.37077"/>
            <path d="M31.5292,-37.3084 L31.5292,-36.5221"/>
            <path d="M31.5292,-37.3084 L31.5292,-37.4621"/>
            <path d="M31.5292,-37.4621 L54.161,-8.59171"/>
            <path d="M31.6723,-37.624 L31.5292,-37.4621"/>
            <path d="M31.6723,-37.624 L54.3041,-8.75361"/>
            <path d="M31.5292,-43.5821 L57.8309,-10.0302"/>
            <path d="M31.5292,-44.4807 L31.5292,-44.5221"/>
            <path d="M31.5292,-44.5221 L58.3946,-10.2511"/>
            <path d="M32.0062,-45.0617 L31.5292,-44.5221"/>
            <path d="M32.0062,-45.0617 L58.8715,-10.7908"/>
            <path d="M87.0556,31.0481 L87.2464,30.8323"/>
            <path d="M86.9125,27.0679 L87.0556,26.906"/>
            <path d="M87.3894,26.5282 L87.3894,25.5882"/>
            <path d="M87.2464,26.6901 L87.3894,26.5282"/>
            <path d="M87.2464,30.8323 L87.2464,26.6901"/>
            <path d="M87.0498,31.0456 L87.0556,31.0481"/>
            <path d="M87.0556,26.906 L87.0556,31.0481"/>
            <path d="M86.9125,27.0679 L57.8309,-10.0302"/>
            <path d="M86.9125,26.1279 L86.9125,27.0679"/>
            <path d="M86.9125,26.1279 L58.3946,-10.2511"/>
            <path d="M87.3894,25.5882 L86.9125,26.1279"/>
            <path d="M87.3894,25.5882 L58.8715,-10.7908"/>
            <path d="M84.6835,30 L54.3041,-8.75361"/>
            <path d="M83.413,29.6638 L53.5973,-8.37077"/>
            <path d="M84.5404,30.1619 L54.161,-8.59171"/>
            <path d="M-23.6995,-17.8889 L-23.6995,-21.9349"/>
            <path d="M-23.6995,-17.8889 L-22.2676,-17.2563"/>
            <path d="M-23.8425,-21.8788 L-23.8425,-22.8188"/>
            <path d="M-23.8425,-21.8788 L-2.33022,-30.3107"/>
            <path d="M-23.3656,-23.3585 L-2.41697,-31.5694"/>
            <path d="M-23.8425,-22.8188 L-23.3656,-23.3585"/>
            <path d="M-23.8425,-22.8188 L-2.8939,-31.0297"/>
            <path d="M31.5292,-36.5221 L31.5292,-37.4621"/>
            <path d="M31.5292,-36.5221 L24.2657,-33.6751"/>
            <path d="M31.5292,-37.4621 L31.6723,-37.624"/>
            <path d="M31.5292,-37.4621 L23.702,-34.3941"/>
            <path d="M31.6723,-37.624 L31.6723,-43.3995"/>
            <path d="M31.6723,-37.624 L23.6386,-34.4751"/>
            <path d="M31.5292,-43.5821 L31.5292,-44.5221"/>
            <path d="M31.5292,-43.5821 L-2.33022,-30.3107"/>
            <path d="M31.5292,-44.5221 L31.5292,-44.5221"/>
            <path d="M31.5292,-44.5221 L-2.8939,-31.0297"/>
            <path d="M32.0062,-45.0617 L-2.41697,-31.5694"/>
        </g>
        <g id="product-acd3a20e-2cb5-44bd-9e20-4e00074a60ec" class="IfcMember material-wood projection" ifc:name="I-profil 45x400, normal sp&#230;r byg 1.003" ifc:guid="2iqw8EBBL4lPuWJW07Ic3i">
            <path d="M49.1931,-56.5107 L71.2612,-28.3594"/>
            <path d="M49.1931,-57.297 L49.1931,-56.5107"/>
            <path d="M49.1931,-57.297 L49.1931,-57.4507"/>
            <path d="M49.1931,-57.4507 L71.8249,-28.5803"/>
            <path d="M49.3362,-57.6126 L49.1931,-57.4507"/>
            <path d="M49.3362,-57.6126 L71.968,-28.7422"/>
            <path d="M49.1931,-63.5707 L75.4949,-30.0188"/>
            <path d="M49.1931,-64.4693 L49.1931,-64.5107"/>
            <path d="M49.1931,-64.5107 L76.0585,-30.2397"/>
            <path d="M49.6701,-65.0504 L49.1931,-64.5107"/>
            <path d="M49.6701,-65.0504 L76.5355,-30.7794"/>
            <path d="M104.72,11.0595 L104.91,10.8437"/>
            <path d="M104.576,7.0793 L104.72,6.91739"/>
            <path d="M105.053,6.5396 L105.053,5.59961"/>
            <path d="M104.91,6.70151 L105.053,6.5396"/>
            <path d="M104.91,10.8437 L104.91,6.70151"/>
            <path d="M104.714,11.057 L104.72,11.0595"/>
            <path d="M104.72,6.91739 L104.72,11.0595"/>
            <path d="M104.576,7.0793 L75.4949,-30.0188"/>
            <path d="M104.576,6.13931 L104.576,7.0793"/>
            <path d="M104.576,6.13931 L76.0585,-30.2397"/>
            <path d="M105.053,5.59961 L104.576,6.13931"/>
            <path d="M105.053,5.59961 L76.5355,-30.7794"/>
            <path d="M102.347,10.0114 L71.968,-28.7422"/>
            <path d="M101.077,9.67519 L71.2612,-28.3594"/>
            <path d="M102.204,10.1733 L71.8249,-28.5803"/>
            <path d="M-6.03555,-37.8775 L-6.03555,-41.9235"/>
            <path d="M-6.03555,-37.8775 L-4.60371,-37.2449"/>
            <path d="M-6.17863,-41.8674 L-6.17863,-42.8074"/>
            <path d="M-6.17863,-41.8674 L15.3337,-50.2993"/>
            <path d="M-5.7017,-43.3471 L15.2469,-51.558"/>
            <path d="M-6.17863,-42.8074 L-5.7017,-43.3471"/>
            <path d="M-6.17863,-42.8074 L14.77,-51.0183"/>
            <path d="M49.1931,-56.5107 L49.1931,-57.4507"/>
            <path d="M49.1931,-56.5107 L41.9296,-53.6637"/>
            <path d="M49.1931,-57.4507 L49.3362,-57.6126"/>
            <path d="M49.1931,-57.4507 L41.3659,-54.3827"/>
            <path d="M49.3362,-57.6126 L49.3362,-63.3881"/>
            <path d="M49.3362,-57.6126 L41.3025,-54.4637"/>
            <path d="M49.1931,-63.5707 L49.1931,-64.5107"/>
            <path d="M49.1931,-63.5707 L15.3337,-50.2993"/>
            <path d="M49.1931,-64.5107 L49.1931,-64.5107"/>
            <path d="M49.1931,-64.5107 L14.77,-51.0183"/>
            <path d="M49.6701,-65.0503 L15.2469,-51.558"/>
        </g>
        <g id="product-faa34cab-d17c-48c6-a599-9b99c34b8ef7" class="IfcMember material-wood projection" ifc:name="I-profil 45x400, normal sp&#230;r byg 1" ifc:guid="3weqohqNn8ngMPcvd3Iuxt">
            <path d="M22.6973,-33.5878 L48.999,-0.0358489"/>
            <path d="M22.6973,-34.4864 L22.6973,-34.5278"/>
            <path d="M22.6973,-34.5278 L49.5627,-0.256784"/>
            <path d="M23.1742,-35.0674 L22.6973,-34.5278"/>
            <path d="M23.1742,-35.0674 L50.0396,-0.796478"/>
            <path d="M78.2236,41.0424 L78.4144,40.8266"/>
            <path d="M78.0806,37.0622 L78.2236,36.9003"/>
            <path d="M78.5575,36.5225 L78.5575,35.5825"/>
            <path d="M78.4144,36.6844 L78.5575,36.5225"/>
            <path d="M78.4144,40.8266 L78.4144,36.6844"/>
            <path d="M78.2179,41.0399 L78.2236,41.0424"/>
            <path d="M78.2236,36.9003 L78.2236,41.0424"/>
            <path d="M78.0806,37.0622 L48.999,-0.0358489"/>
            <path d="M78.0806,36.1222 L78.0806,37.0622"/>
            <path d="M78.0806,36.1222 L49.5627,-0.256784"/>
            <path d="M78.5575,35.5825 L78.0806,36.1222"/>
            <path d="M78.5575,35.5825 L50.0396,-0.796478"/>
            <path d="M-32.5314,-11.3417 L-32.5314,-11.9406"/>
            <path d="M-32.6745,-11.8845 L-32.6745,-12.8245"/>
            <path d="M-32.6745,-11.8845 L-11.1622,-20.3164"/>
            <path d="M-32.1976,-13.3642 L-11.2489,-21.5751"/>
            <path d="M-32.6745,-12.8245 L-32.1976,-13.3642"/>
            <path d="M-32.6745,-12.8245 L-11.7259,-21.0354"/>
            <path d="M22.8404,-29.3369 L22.8404,-33.4052"/>
            <path d="M22.6973,-33.5878 L22.6973,-34.5277"/>
            <path d="M22.6973,-33.5878 L-11.1622,-20.3164"/>
            <path d="M22.6973,-34.5277 L22.6973,-34.5278"/>
            <path d="M22.6973,-34.5277 L-11.7259,-21.0354"/>
            <path d="M23.1742,-35.0674 L-11.2489,-21.5751"/>
        </g>
        <g id="product-c37b0981-0655-486b-a18a-94eaade273bd" class="IfcMember material-wood projection" ifc:name="I-profil 45x400, normal sp&#230;r byg 1.005" ifc:guid="33Umc11bL8Qw6AbEgjudEz">
            <path d="M66.8571,-76.4993 L88.9252,-48.348"/>
            <path d="M66.8571,-77.2856 L66.8571,-76.4993"/>
            <path d="M66.8571,-77.2856 L66.8571,-77.4393"/>
            <path d="M66.8571,-77.4393 L89.4888,-48.5689"/>
            <path d="M67.0001,-77.6012 L66.8571,-77.4393"/>
            <path d="M67.0001,-77.6012 L89.6319,-48.7308"/>
            <path d="M66.8571,-83.5593 L93.1588,-50.0074"/>
            <path d="M66.8571,-84.458 L66.8571,-84.4993"/>
            <path d="M66.8571,-84.4993 L93.7224,-50.2283"/>
            <path d="M67.334,-85.039 L66.8571,-84.4993"/>
            <path d="M67.334,-85.039 L94.1994,-50.768"/>
            <path d="M122.383,-8.92907 L122.574,-9.14495"/>
            <path d="M122.24,-12.9093 L122.383,-13.0712"/>
            <path d="M122.717,-13.449 L122.717,-14.389"/>
            <path d="M122.574,-13.2871 L122.717,-13.449"/>
            <path d="M122.574,-9.14495 L122.574,-13.2871"/>
            <path d="M122.378,-8.93162 L122.383,-8.92907"/>
            <path d="M122.383,-13.0712 L122.383,-8.92907"/>
            <path d="M122.24,-12.9093 L93.1588,-50.0074"/>
            <path d="M122.24,-13.8493 L122.24,-12.9093"/>
            <path d="M122.24,-13.8493 L93.7224,-50.2283"/>
            <path d="M122.717,-14.389 L122.24,-13.8493"/>
            <path d="M122.717,-14.389 L94.1994,-50.768"/>
            <path d="M120.011,-9.97718 L89.6319,-48.7308"/>
            <path d="M119.868,-9.81527 L120.011,-9.97718"/>
            <path d="M118.741,-10.3134 L88.9252,-48.348"/>
            <path d="M119.868,-9.81527 L89.4888,-48.5689"/>
            <path d="M11.6284,-57.8661 L11.6284,-61.9121"/>
            <path d="M11.6284,-57.8661 L13.0602,-57.2335"/>
            <path d="M11.4853,-61.856 L11.4853,-62.796"/>
            <path d="M11.4853,-61.856 L32.9976,-70.2879"/>
            <path d="M11.9622,-63.3357 L32.9108,-71.5466"/>
            <path d="M11.4853,-62.796 L11.9622,-63.3357"/>
            <path d="M11.4853,-62.796 L32.4339,-71.0069"/>
            <path d="M66.857,-76.4993 L66.8571,-77.4393"/>
            <path d="M66.857,-76.4993 L59.5935,-73.6523"/>
            <path d="M66.8571,-77.4393 L67.0001,-77.6012"/>
            <path d="M66.8571,-77.4393 L59.0298,-74.3714"/>
            <path d="M67.0001,-77.6012 L67.0001,-83.3768"/>
            <path d="M67.0001,-77.6012 L58.9664,-74.4523"/>
            <path d="M66.8571,-83.5593 L66.857,-84.4993"/>
            <path d="M66.8571,-83.5593 L32.9976,-70.2879"/>
            <path d="M66.857,-84.4993 L66.857,-84.4993"/>
            <path d="M66.857,-84.4993 L32.4339,-71.0069"/>
            <path d="M67.334,-85.039 L32.9108,-71.5466"/>
        </g>
        <g id="product-fafad91e-6107-40d0-ba5c-6efd3d54343f" class="IfcMember material-wood projection" ifc:name="I-profil 45x400, normal sp&#230;r byg 1.004" ifc:guid="3w_jaUOGT0qBfSRlqzL3G$">
            <path d="M58.0251,-66.505 L80.0932,-38.3537"/>
            <path d="M58.0251,-67.2913 L58.0251,-66.505"/>
            <path d="M58.0251,-67.2913 L58.0251,-67.445"/>
            <path d="M58.0251,-67.445 L80.6569,-38.5746"/>
            <path d="M58.1682,-67.6069 L58.0251,-67.445"/>
            <path d="M58.1682,-67.6069 L80.8,-38.7365"/>
            <path d="M58.0251,-73.565 L84.3268,-40.0131"/>
            <path d="M58.0251,-74.4637 L58.0251,-74.505"/>
            <path d="M58.0251,-74.505 L84.8905,-40.234"/>
            <path d="M58.502,-75.0447 L58.0251,-74.505"/>
            <path d="M58.502,-75.0447 L85.3674,-40.7737"/>
            <path d="M113.551,1.06523 L113.742,0.849354"/>
            <path d="M113.408,-2.91501 L113.551,-3.07692"/>
            <path d="M113.885,-3.4547 L113.885,-4.39469"/>
            <path d="M113.742,-3.29279 L113.885,-3.4547"/>
            <path d="M113.742,0.849354 L113.742,-3.29279"/>
            <path d="M113.546,1.06269 L113.551,1.06523"/>
            <path d="M113.551,-3.07692 L113.551,1.06523"/>
            <path d="M113.408,-2.91501 L84.3268,-40.0131"/>
            <path d="M113.408,-3.855 L113.408,-2.91501"/>
            <path d="M113.408,-3.855 L84.8905,-40.234"/>
            <path d="M113.885,-4.39469 L113.408,-3.855"/>
            <path d="M113.885,-4.39469 L85.3674,-40.7737"/>
            <path d="M111.179,0.017116 L80.8,-38.7365"/>
            <path d="M109.909,-0.319108 L80.0932,-38.3537"/>
            <path d="M111.036,0.179024 L80.6569,-38.5746"/>
            <path d="M2.7964,-47.8718 L2.79641,-51.9178"/>
            <path d="M2.7964,-47.8718 L4.22825,-47.2392"/>
            <path d="M2.65333,-51.8617 L2.65333,-52.8017"/>
            <path d="M2.65333,-51.8617 L24.1656,-60.2936"/>
            <path d="M3.13025,-53.3414 L24.0789,-61.5523"/>
            <path d="M2.65333,-52.8017 L3.13025,-53.3414"/>
            <path d="M2.65333,-52.8017 L23.602,-61.0126"/>
            <path d="M58.0251,-66.505 L58.0251,-67.445"/>
            <path d="M58.0251,-66.505 L50.7616,-63.658"/>
            <path d="M58.0251,-67.445 L58.1682,-67.6069"/>
            <path d="M58.0251,-67.445 L50.1979,-64.377"/>
            <path d="M58.1682,-67.6069 L58.1682,-73.3824"/>
            <path d="M58.1682,-67.6069 L50.1344,-64.458"/>
            <path d="M58.0251,-73.565 L58.0251,-74.505"/>
            <path d="M58.0251,-73.565 L24.1656,-60.2936"/>
            <path d="M58.0251,-74.505 L58.0251,-74.505"/>
            <path d="M58.0251,-74.505 L23.602,-61.0126"/>
            <path d="M58.502,-75.0447 L24.0789,-61.5523"/>
        </g>
        <g id="product-fa83a69c-0ba2-4d20-970f-336393f33e39" class="IfcMember material-wood projection" ifc:name="I-profil 45x400, normal sp&#230;r byg 1.002" ifc:guid="3wWwQS2w9D89SFCsEJypuv">
            <path d="M40.3612,-46.5164 L62.4293,-18.3651"/>
            <path d="M40.3612,-47.3027 L40.3612,-46.5164"/>
            <path d="M40.3612,-47.3027 L40.3612,-47.4564"/>
            <path d="M40.3612,-47.4564 L62.993,-18.586"/>
            <path d="M40.5043,-47.6183 L40.3612,-47.4564"/>
            <path d="M40.5043,-47.6183 L63.1361,-18.7479"/>
            <path d="M40.3612,-53.5764 L66.6629,-20.0245"/>
            <path d="M40.3612,-54.475 L40.3612,-54.5164"/>
            <path d="M40.3612,-54.5164 L67.2266,-20.2454"/>
            <path d="M40.8381,-55.056 L40.3612,-54.5164"/>
            <path d="M40.8381,-55.056 L67.7035,-20.7851"/>
            <path d="M95.8876,21.0538 L96.0783,20.838"/>
            <path d="M95.7445,17.0736 L95.8876,16.9117"/>
            <path d="M96.2214,16.5339 L96.2214,15.5939"/>
            <path d="M96.0783,16.6958 L96.2214,16.5339"/>
            <path d="M96.0783,20.838 L96.0783,16.6958"/>
            <path d="M95.8818,21.0513 L95.8876,21.0538"/>
            <path d="M95.8876,16.9117 L95.8876,21.0538"/>
            <path d="M95.7445,17.0736 L66.6629,-20.0245"/>
            <path d="M95.7445,16.1336 L95.7445,17.0736"/>
            <path d="M95.7445,16.1336 L67.2266,-20.2454"/>
            <path d="M96.2214,15.5939 L95.7445,16.1336"/>
            <path d="M96.2214,15.5939 L67.7035,-20.7851"/>
            <path d="M93.5155,20.0057 L63.1361,-18.7479"/>
            <path d="M92.245,19.6695 L62.4293,-18.3651"/>
            <path d="M93.3724,20.1676 L62.993,-18.586"/>
            <path d="M-14.8675,-27.8832 L-14.8675,-31.9292"/>
            <path d="M-14.8675,-27.8832 L-13.4357,-27.2506"/>
            <path d="M-15.0106,-31.8731 L-15.0106,-32.8131"/>
            <path d="M-15.0106,-31.8731 L6.50174,-40.305"/>
            <path d="M-14.5337,-33.3528 L6.41498,-41.5637"/>
            <path d="M-15.0106,-32.8131 L-14.5337,-33.3528"/>
            <path d="M-15.0106,-32.8131 L5.93806,-41.024"/>
            <path d="M40.3612,-46.5164 L40.3612,-47.4564"/>
            <path d="M40.3612,-46.5164 L33.0977,-43.6694"/>
            <path d="M40.3612,-47.4564 L40.5043,-47.6183"/>
            <path d="M40.3612,-47.4564 L32.534,-44.3884"/>
            <path d="M40.5043,-47.6183 L40.5043,-53.3938"/>
            <path d="M40.5043,-47.6183 L32.4705,-44.4694"/>
            <path d="M40.3612,-53.5764 L40.3612,-54.5164"/>
            <path d="M40.3612,-53.5764 L6.50174,-40.305"/>
            <path d="M40.3612,-54.5164 L40.3612,-54.5164"/>
            <path d="M40.3612,-54.5164 L5.93806,-41.024"/>
            <path d="M40.8381,-55.056 L6.41498,-41.5637"/>
        </g>
        <g id="product-0b47842d-02ae-4bd2-bb6e-57519ebf3efd" class="IfcColumn material-woodStructural projection" ifc:name="C18 45x245 normalS&#248;jle ENDER.004" ifc:guid="0BHuGj0gvBqhjkLr6Ulpxz">
            <path d="M19.419,54.8055 L19.419,-22.729"/>
            <path d="M19.419,54.8055 L20.1823,55.1428"/>
            <path d="M20.1823,55.1428 L20.1823,55.1428"/>
            <path d="M20.1823,-22.3917 L20.1823,-22.3918"/>
            <path d="M20.1823,-22.3918 L20.6757,-22.9501"/>
            <path d="M19.419,-22.729 L20.1823,-22.3918"/>
            <path d="M20.1768,-23.5865 L19.419,-22.729"/>
        </g>
        <g id="product-776793bd-7400-48e1-8784-b867f76e2211" class="IfcColumn material-woodStructural projection" ifc:name="C18 45x245 normalS&#248;jle" ifc:guid="1tPvEzT018uOU4k6VtRY8H">
            <path d="M20.1823,23.4362 L20.1823,-22.3917"/>
            <path d="M20.1823,23.4362 L20.9455,23.7734"/>
            <path d="M20.1823,-22.3917 L20.9455,-22.0544"/>
            <path d="M20.6757,-22.9501 L20.1823,-22.3917"/>
            <path d="M20.9455,23.7734 L20.9455,-22.0544"/>
            <path d="M20.9455,-22.0544 L21.1746,-22.3137"/>
        </g>
        <g id="product-2dabe1db-85b4-4468-8bbe-13c457d62c3a" class="IfcColumn material-woodStructural projection" ifc:name="C18 45x245 normalS&#248;jle" ifc:guid="0jg_7RXRH4Q8k_4yHNrYmw">
            <path d="M58.4363,40.3387 L58.4363,26.1194"/>
            <path d="M58.4363,40.3387 L59.1996,40.6759"/>
            <path d="M59.1996,40.6759 L59.1996,27.093"/>
            <path d="M61.7962,40.3224 L61.7962,30.4054"/>
            <path d="M59.1996,40.6759 L59.6765,40.1362"/>
            <path d="M59.6765,40.1362 L60.1534,39.5965"/>
            <path d="M58.4363,26.1194 L58.4363,26.1194"/>
            <path d="M58.4363,26.1194 L59.1996,27.093"/>
            <path d="M59.1996,27.093 L59.1996,27.093"/>
        </g>
        <g id="product-e8a314fd-8eb5-46c6-b873-5c5577d36d28" class="IfcReinforcingBar material-null projection" ifc:name="ReinforcingBar" ifc:guid="3eenJzZhL6nhXpN5Ltqsqe">
            <path d="M91.539,61.3587 L91.6854,61.3948"/>
            <path d="M91.6855,61.3948 L91.5372,61.3582"/>
            <path d="M91.6859,61.3943 L91.5355,61.3572"/>
            <path d="M91.6875,61.3924 L91.5329,61.3543"/>
            <path d="M91.5318,61.3521 L91.689,61.3908"/>
            <path d="M91.6902,61.3895 L91.5311,61.3502"/>
            <path d="M91.5304,61.3475 L91.6921,61.3873"/>
            <path d="M91.6934,61.3858 L91.5301,61.3455"/>
            <path d="M91.5298,61.3422 L91.6958,61.3831"/>
            <path d="M91.6972,61.3815 L91.5298,61.3402"/>
            <path d="M91.5298,61.3364 L91.7,61.3783"/>
            <path d="M91.7016,61.3765 L91.53,61.3341"/>
            <path d="M91.5305,61.3297 L91.7051,61.3726"/>
            <path d="M91.7068,61.3706 L91.5309,61.3271"/>
            <path d="M91.5321,61.3212 L91.7116,61.3652"/>
            <path d="M91.5328,61.3185 L91.7135,61.3631"/>
            <path d="M91.5356,61.3087 L91.7212,61.3544"/>
            <path d="M91.7232,61.3521 L91.5367,61.3059"/>
            <path d="M91.5397,61.298 L91.7298,61.3446"/>
            <path d="M91.7326,61.3414 L91.5413,61.2942"/>
            <path d="M91.5451,61.2865 L91.7392,61.334"/>
            <path d="M91.7422,61.3306 L91.5472,61.2824"/>
            <path d="M91.5514,61.2754 L91.7484,61.3236"/>
            <path d="M91.7513,61.3203 L91.5538,61.2716"/>
            <path d="M91.5582,61.2656 L91.7567,61.3141"/>
            <path d="M91.7601,61.3103 L91.5616,61.2613"/>
            <path d="M91.5661,61.2565 L91.7646,61.3053"/>
            <path d="M91.5742,61.2499 L91.7707,61.2983"/>
            <path d="M91.5698,61.2532 L91.7674,61.302"/>
            <path d="M91.7723,61.2965 L91.5775,61.2484"/>
            <path d="M91.5845,61.2469 L91.7748,61.2937"/>
            <path d="M91.5815,61.2468 L91.7742,61.2943"/>
            <path d="M91.5869,61.2472 L91.775,61.2935"/>
        </g>
        <g id="product-1646c202-5840-4fd6-8d91-36173cc9e740" class="IfcColumn material-woodStructural projection" ifc:name="C18 45x245 normalS&#248;jle" ifc:guid="0MHi82M41FresHDXSyoUT0">
            <path d="M20.9455,23.7734 L20.9455,-22.0544"/>
            <path d="M20.9455,23.7734 L21.7088,24.1106"/>
            <path d="M20.9455,-22.0544 L21.7088,-21.7172"/>
            <path d="M21.1746,-22.3137 L20.9455,-22.0544"/>
            <path d="M21.7088,24.1106 L21.7088,-21.7172"/>
            <path d="M21.7088,-21.7172 L21.7088,-21.7172"/>
            <path d="M24.3054,23.7571 L24.3054,-17.4199"/>
            <path d="M22.6626,23.0312 L22.6626,23.0313"/>
            <path d="M21.7088,24.1106 L22.1857,23.571"/>
            <path d="M22.1857,23.571 L22.6626,23.0312"/>
        </g>
        <g id="product-9dcd3a70-02ce-42ff-8b9a-0e3273387833" class="IfcColumn material-woodStructural projection" ifc:name="C18 45x245 normalS&#248;jle ENDER.004" ifc:guid="2TpJfm0iv2$ukQ3Z9pE7Wp">
            <path d="M18.6558,54.4683 L18.6558,-23.0521"/>
            <path d="M18.6558,54.4683 L19.419,54.8055"/>
            <path d="M19.419,54.8055 L19.419,-22.7289"/>
            <path d="M18.6727,-23.0587 L19.419,-22.7289"/>
        </g>
        <g id="product-c97992b1-f41b-44c2-b07b-af1800adf738" class="IfcColumn material-woodStructural projection" ifc:name="C18 45x245 normalS&#248;jle" ifc:guid="39UPAnz1j4mh1xhnW0hVSu">
            <path d="M16.0341,53.3099 L16.0341,-21.1245"/>
            <path d="M16.0341,53.3099 L16.7973,53.6472"/>
            <path d="M16.7973,53.6472 L16.7973,-21.4236"/>
            <path d="M16.7973,53.6472 L17.2743,53.1075"/>
            <path d="M17.2509,-22.5014 L16.0341,-21.1245"/>
            <path d="M16.0341,-21.1245 L16.7973,-21.4236"/>
            <path d="M16.7973,-21.4236 L18.0141,-22.8005"/>
        </g>
        <g id="product-2ac0f130-a4c2-4e80-94ef-a506c0bbe9df" class="IfcMechanicalFastener material-concreteInsitu projection" ifc:name="MechanicalFastener" ifc:guid="0gmF4mfC9EW9JlfGR0k_dV">
            <path d="M74.1536,81.0845 L73.111,82.2643"/>
            <path d="M76.9694,81.6345 L76.8316,81.5736"/>
            <path d="M75.4856,83.3136 L76.9694,81.6345"/>
            <path d="M75.4856,83.5964 L76.9694,81.9173"/>
            <path d="M76.9694,81.9173 L76.9694,81.6345"/>
            <path d="M73.111,82.2643 L75.4856,83.3136"/>
            <path d="M73.111,82.5472 L75.4856,83.5964"/>
            <path d="M75.4856,83.5964 L75.4856,83.3136"/>
            <path d="M73.111,82.5472 L73.111,82.2643"/>
        </g>
        <g id="product-6964c2bd-7fef-48d4-b978-51d33e8a3695" class="IfcBeam material-woodStructural projection" ifc:name="RemTop" ifc:guid="1fPCAzV_z8rBbuKTC_YZQL">
            <path d="M21.7088,-20.7323 L30.1682,-9.94101"/>
            <path d="M30.9314,-8.96737 L44.3023,8.08919"/>
            <path d="M45.0655,9.06283 L58.4363,26.1194"/>
            <path d="M59.1996,27.093 L71.3619,42.608"/>
            <path d="M71.362,41.708 L71.362,42.2597"/>
            <path d="M21.7088,-21.6323 L71.362,41.708"/>
        </g>
        <g id="product-37a6d2b1-141c-40b8-9091-c53654dd73fb" class="IfcWall material-concreteInsitu projection" ifc:name="Wall" ifc:guid="0tfjAn51n0k92HnJPKtNFx">
            <path d="M76.245,78.8674 L106.623,44.4912"/>
            <path d="M135.27,12.0739 L199.809,-60.9582"/>
            <path d="M199.809,-60.9582 L200.763,-58.0351"/>
            <path d="M75.5174,83.6938 L75.4855,83.5964"/>
            <path d="M200.763,-53.7925 L200.763,-58.0351"/>
            <path d="M200.763,-58.0351 L75.5174,83.6938"/>
            <path d="M75.5174,87.9365 L75.5174,83.6938"/>
            <path d="M200.763,-53.7925 L75.5174,87.9365"/>
        </g>
        <g id="product-7bcc63c5-46b1-459d-87fa-8c5162ac98d8" class="IfcBeam material-woodStructural projection" ifc:name="OverliggerTop" ifc:guid="1xp6F5Hh55dOVwZ55Yh9ZO">
            <path d="M113.403,8.47955 L113.403,5.01473"/>
            <path d="M113.403,8.47955 L75.5174,51.3508"/>
            <path d="M75.5174,51.3508 L75.5174,47.886"/>
            <path d="M75.5174,51.3507 L75.5174,51.3508"/>
            <path d="M113.403,5.01473 L75.9944,47.3463"/>
            <path d="M75.5174,47.886 L75.5174,47.886"/>
            <path d="M112.639,4.67749 L105.048,13.2684"/>
            <path d="M103.807,14.6718 L96.2156,23.2628"/>
            <path d="M94.9755,24.6661 L87.3837,33.2571"/>
            <path d="M86.1436,34.6604 L78.5909,43.207"/>
            <path d="M77.3508,44.6103 L75.9944,46.1453"/>
            <path d="M113.403,5.01473 L113.403,5.01472"/>
            <path d="M113.403,5.01472 L112.639,4.67749"/>
        </g>
        <g id="product-31e43204-a0bb-4716-94f0-1c7c458b2fe8" class="IfcMechanicalFastener material-steel projection" ifc:name="MechanicalFastener" ifc:guid="0nv384eBj75fJm77n5Yo$e">
            <path d="M73.7599,51.2106 L73.7599,51.3618"/>
            <path d="M73.8798,51.2636 L73.8798,51.3579"/>
            <path d="M73.8707,51.3823 L73.8798,51.3579"/>
            <path d="M73.7881,51.3958 L73.8707,51.3823"/>
            <path d="M73.7599,51.3618 L73.7881,51.3958"/>
        </g>
        <g id="product-12ceb985-1738-4945-8da8-3606d8bb8876" class="IfcColumn material-steel projection" ifc:name="Column" ifc:guid="0Iphc55pX9HOseDWROkuXs">
            <path d="M76.245,82.1771 L76.245,51.1638"/>
            <path d="M74.1536,82.4698 L74.1536,51.3846"/>
            <path d="M74.2241,82.5596 L75.3266,83.0468"/>
            <path d="M74.1712,82.5195 L74.2241,82.5596"/>
            <path d="M74.1536,82.4698 L74.1712,82.5195"/>
            <path d="M76.2222,82.2335 L76.245,82.1771"/>
            <path d="M75.5333,83.013 L76.2222,82.2335"/>
            <path d="M75.4765,83.0505 L75.5333,83.013"/>
            <path d="M75.4008,83.0628 L75.4765,83.0505"/>
            <path d="M75.3266,83.0468 L75.4008,83.0628"/>
        </g>
        <g id="product-f49cf01b-9518-4eff-9233-c89492d1cd02" class="IfcMechanicalFastener material-steel projection" ifc:name="MechanicalFastener" ifc:guid="3qdF0RbHXE$v8po9IIqSq2">
            <path d="M74.0025,81.842 L74.0025,81.501"/>
            <path d="M74.0494,81.5577 L74.1536,81.5407"/>
            <path d="M74.0025,81.501 L74.0494,81.5577"/>
            <path d="M74.0176,81.4603 L74.0025,81.501"/>
            <path d="M74.1536,81.4381 L74.0176,81.4603"/>
        </g>
        <g id="product-1ececa10-e8ce-4dd5-b9b3-1ffd3bc88caf" class="IfcMechanicalFastener material-steel projection" ifc:name="PL8" ifc:guid="0UpieGwCvDrRcp7$qxo8ol">
            <path d="M74.1536,81.1048 L73.2488,82.1287"/>
            <path d="M76.8316,81.5438 L76.245,81.2847"/>
            <path d="M75.4538,83.103 L75.5333,83.013"/>
            <path d="M75.5333,83.013 L76.2222,82.2335"/>
            <path d="M76.2222,82.2335 L76.8316,81.5438"/>
            <path d="M75.4538,83.2161 L76.8316,81.657"/>
            <path d="M76.8316,81.657 L76.8316,81.5438"/>
            <path d="M73.2488,82.1287 L74.2241,82.5596"/>
            <path d="M74.2241,82.5596 L75.3266,83.0468"/>
            <path d="M75.3266,83.0468 L75.4538,83.103"/>
            <path d="M73.2488,82.2418 L75.4538,83.2161"/>
            <path d="M75.4538,83.2161 L75.4538,83.103"/>
            <path d="M73.2488,82.2418 L73.2488,82.1287"/>
        </g>
        <g id="product-8b8b18b0-b35f-4735-b14b-58621ac06d95" class="IfcColumn material-woodStructural projection" ifc:name="C18 45x245 normalS&#248;jle" ifc:guid="2BYnYmirz7DR5BM68Qm6sL">
            <path d="M125.822,-12.1927 L125.822,-12.1927"/>
            <path d="M125.345,-11.653 L125.345,-11.653"/>
            <path d="M125.345,26.6722 L125.345,26.6722"/>
            <path d="M125.345,-11.653 L125.822,-12.1927"/>
            <path d="M125.345,26.6722 L125.822,26.1325"/>
            <path d="M125.822,26.1325 L125.822,-12.1927"/>
            <path d="M125.345,26.6722 L125.345,-11.653"/>
        </g>
        <g id="product-1940ce42-f3f4-4fb0-9851-325b5efcf51e" class="IfcColumn material-woodStructural projection" ifc:name="C18 45x245 normalS&#248;jle" ifc:guid="0PGCv2y$HFi9XHCbjU$FKU">
            <path d="M127.094,-13.6318 L127.094,-13.6318"/>
            <path d="M126.617,-13.0921 L126.617,-13.0921"/>
            <path d="M126.617,25.233 L126.617,25.233"/>
            <path d="M126.617,-13.0921 L127.094,-13.6318"/>
            <path d="M126.617,25.233 L127.094,24.6933"/>
            <path d="M127.094,24.6933 L127.094,-13.6318"/>
            <path d="M126.617,25.233 L126.617,-13.0921"/>
        </g>
        <g id="product-57309062-fad2-43f1-96ca-82f5ff73efc4" class="IfcColumn material-woodStructural projection" ifc:name="C18 45x245 normalS&#248;jle ENDER.004" ifc:guid="1NC91Y_j93yPRAWlN$S_$4">
            <path d="M124.226,-16.9251 L124.153,-16.8431"/>
            <path d="M128.381,-15.0891 L124.226,-16.9251"/>
            <path d="M127.904,-14.5494 L127.904,-14.5494"/>
            <path d="M127.904,-14.5494 L128.381,-15.0891"/>
            <path d="M127.904,23.7758 L128.381,23.2361"/>
            <path d="M128.381,23.2361 L128.381,-15.0891"/>
            <path d="M127.904,23.7758 L127.904,-14.5494"/>
        </g>
        <g id="product-7a615061-172e-4e20-9fa8-00ea5fd7a7c8" class="IfcColumn material-woodStructural projection" ifc:name="C18 45x245 normalS&#248;jle ENDER.005" ifc:guid="1wOL1X5ovE89_e0EfVrwV8">
            <path d="M127.904,-14.5493 L127.904,-14.5493"/>
            <path d="M127.427,-14.0096 L127.427,-14.0096"/>
            <path d="M127.094,24.168 L127.427,24.3155"/>
            <path d="M127.427,-14.0096 L127.904,-14.5493"/>
            <path d="M127.427,24.3155 L127.904,23.7759"/>
            <path d="M127.904,23.7759 L127.904,-14.5493"/>
            <path d="M127.427,24.3155 L127.427,-4.14564"/>
            <path d="M127.427,-4.78205 L127.427,-14.0096"/>
        </g>
        <g id="product-3ccdd8f0-360a-40de-81ee-db28e42d04bb" class="IfcBeam material-woodStructural projection" ifc:name="RemBund" ifc:guid="0ypTZmDWf0te7ksoZaBGIx">
            <path d="M127.904,24.4122 L127.904,23.7759"/>
            <path d="M135.27,16.077 L135.27,15.4406"/>
            <path d="M134.316,16.5199 L131.543,19.6578"/>
            <path d="M131.067,20.1976 L128.381,23.2361"/>
            <path d="M135.27,16.077 L127.904,24.4122"/>
        </g>
        <g id="product-ef7ba474-4310-4cfc-a61d-86f5835d1182" class="IfcBeam material-woodStructural projection" ifc:name="RemBund" ifc:guid="3lUwHqGn1C$AOTXlM3NH62">
            <path d="M105.012,43.7793 L109.167,45.6153"/>
            <path d="M105.012,43.1429 L105.012,43.7793"/>
            <path d="M109.167,44.9789 L105.012,43.1429"/>
            <path d="M118.079,28.3558 L113.88,33.108"/>
            <path d="M105.012,43.1428 L105.012,43.1429"/>
            <path d="M109.167,45.6153 L109.167,44.9789"/>
            <path d="M127.904,24.4122 L127.904,23.7759"/>
            <path d="M127.427,24.3155 L127.094,24.6933"/>
            <path d="M126.617,25.233 L125.822,26.1325"/>
            <path d="M125.345,26.6722 L122.712,29.6521"/>
            <path d="M122.235,30.1919 L113.88,39.6464"/>
            <path d="M113.403,40.1862 L110.121,43.8995"/>
            <path d="M127.904,24.4122 L109.167,45.6153"/>
        </g>
        <g id="product-6dc02247-49b4-4dca-a554-2df7649a0494" class="IfcColumn material-woodStructural projection" ifc:name="C18 45x245 SiderD&#248;reVinduer" ifc:guid="1jm297IRHDogLKBVTacWIK">
            <path d="M135.27,-15.6297 L131.543,-17.2764"/>
            <path d="M131.543,-16.5259 L134.793,-15.09"/>
            <path d="M134.793,-15.09 L135.27,-15.6297"/>
            <path d="M134.793,15.9803 L135.27,15.4406"/>
            <path d="M135.27,15.4406 L135.27,-15.6297"/>
            <path d="M134.793,15.9803 L134.793,-15.09"/>
        </g>
        <g id="product-68f156a0-79e4-4384-876a-c16906846b56" class="IfcColumn material-woodStructural projection" ifc:name="C18 45x245 normalS&#248;jle" ifc:guid="1eyLQWUUH3X8TgmMa6X6jM">
            <path d="M1.90002,50.5296 L1.90002,-15.5846"/>
            <path d="M1.90002,50.5296 L2.66326,50.8669"/>
            <path d="M2.66326,47.402 L2.66327,-15.8837"/>
            <path d="M5.25987,44.4637 L5.25987,-17.8015"/>
            <path d="M3.1168,-16.9615 L1.90002,-15.5846"/>
            <path d="M1.90002,-15.5846 L2.66327,-15.8837"/>
            <path d="M2.66327,-15.8837 L3.88004,-17.2606"/>
        </g>
        <g id="product-f45689b1-c292-4348-a0f5-5bc18343889a" class="IfcWall material-masonry projection" ifc:name="Wall" ifc:guid="3qLecnmf93IA3rMy63GuYQ">
            <path d="M45.1286,-54.9175 L53.2577,-51.3257"/>
            <path d="M64.2292,-46.478 L78.7562,-40.0592"/>
            <path d="M89.7277,-35.2114 L104.255,-28.7926"/>
            <path d="M115.226,-23.9449 L123.958,-20.0868"/>
            <path d="M111.455,-19.6079 L96.9277,-26.0267"/>
            <path d="M85.9562,-30.8745 L71.4292,-37.2932"/>
            <path d="M60.4577,-42.141 L45.9306,-48.5598"/>
            <path d="M123.958,-20.0868 L120.934,-16.6643"/>
            <path d="M123.958,-16.9294 L123.958,-20.0868"/>
        </g>
        <g id="product-af73791e-8ef4-4a1b-9572-31463d280ec4" class="IfcBeam material-woodStructural projection" ifc:name="OverliggerTop" ifc:guid="2lStaUZlHA6vLoCKOzA0x4">
            <path d="M22.1751,23.5829 L30.1682,27.1147"/>
            <path d="M31.3977,27.658 L44.3022,33.3598"/>
            <path d="M45.5318,33.9031 L58.4363,39.6049"/>
            <path d="M59.6659,40.1482 L70.6093,44.9836"/>
            <path d="M75.5005,47.8785 L75.5068,47.898"/>
            <path d="M20.1823,23.4362 L20.1717,23.4482"/>
            <path d="M20.1717,26.913 L75.5068,51.3628"/>
            <path d="M20.1717,23.4482 L75.5068,47.898"/>
            <path d="M75.5068,47.898 L75.5068,51.3628"/>
            <path d="M20.1717,23.4482 L20.1717,26.913"/>
        </g>
        <g id="product-b913a710-b0db-4405-b859-c3939e2d07c4" class="IfcBeam material-woodStructural projection" ifc:name="OverliggerFladenTop.022" ifc:guid="2v4wSGiDj41RXPmvEUBGV4">
            <path d="M20.1823,26.9177 L20.1823,27.5374"/>
            <path d="M20.1823,27.5374 L75.5174,51.9872"/>
            <path d="M75.5174,51.3508 L75.5174,51.9872"/>
            <path d="M75.5068,51.3185 L75.5174,51.3508"/>
            <path d="M75.5068,51.3461 L75.5174,51.3508"/>
        </g>
        <g id="product-741a85e0-71a6-4794-bd2a-9a89c04d3f4b" class="IfcBeam material-woodStructural projection" ifc:name="RemBund" ifc:guid="1q6eNWSQP7bBqgced0JJzB">
            <path d="M20.1823,59.244 L20.1823,59.244"/>
            <path d="M20.1823,58.6076 L20.1823,59.244"/>
            <path d="M-31.0823,35.9564 L-31.0823,36.5928"/>
            <path d="M-31.0823,36.5928 L20.1823,59.244"/>
            <path d="M20.1823,58.6076 L20.1823,58.6076"/>
            <path d="M-28.4857,33.0181 L-31.0823,35.9564"/>
            <path d="M-31.0823,35.9564 L2.66326,50.8669"/>
            <path d="M7.37169,52.9473 L20.1823,58.6076"/>
            <path d="M-28.4857,33.0181 L1.90002,46.444"/>
        </g>
        <g id="product-98f7fde9-f708-4908-a6e6-918d476c907d" class="IfcColumn material-woodStructural projection" ifc:name="C18 45x245 SiderD&#248;reVinduer" ifc:guid="2Oz$tfzmX92ARcaOr7R91z">
            <path d="M109.644,13.369 L109.644,13.369"/>
            <path d="M109.167,13.9087 L109.167,13.9087"/>
            <path d="M105.012,43.1429 L109.167,44.9789"/>
            <path d="M105.012,43.1429 L105.012,18.611"/>
            <path d="M109.167,13.9087 L109.644,13.369"/>
            <path d="M109.167,44.9789 L109.644,44.4392"/>
            <path d="M109.644,44.4392 L109.644,13.369"/>
            <path d="M109.167,44.9789 L109.167,13.9087"/>
        </g>
        <g id="product-5afe8abb-238b-4b1e-a97a-8f6c98cd340d" class="IfcColumn material-woodStructural projection" ifc:name="C18 45x245 normalS&#248;jle" ifc:guid="1Q$egx8ujB7gbwZsoOpJGD">
            <path d="M70.6093,45.7006 L70.6093,41.6479"/>
        </g>
        <g id="product-3c4146fc-0638-44f1-ab92-5d2672f4369c" class="IfcColumn material-woodStructural projection" ifc:name="C18 45x245 normalS&#248;jle" ifc:guid="0yGKRy1ZX4yQkINIPoz3QS">
            <path d="M30.1682,27.8484 L30.1682,-9.94101"/>
            <path d="M30.1682,27.8484 L30.9314,28.1857"/>
            <path d="M30.9314,28.1857 L30.9314,-8.96737"/>
            <path d="M33.528,27.8321 L33.528,-5.65501"/>
            <path d="M31.8853,27.1063 L31.8853,27.1063"/>
            <path d="M30.9314,28.1857 L31.4083,27.646"/>
            <path d="M31.4083,27.646 L31.8853,27.1063"/>
            <path d="M30.1682,-9.94102 L30.1682,-9.94101"/>
            <path d="M30.1682,-9.94101 L30.9314,-8.96737"/>
            <path d="M30.9314,-8.96737 L30.9314,-8.96738"/>
        </g>
        <g id="product-8da2a4de-66e9-483e-a57f-20d7158cdd72" class="IfcBeam material-woodStructural projection" ifc:name="OverliggerTop" ifc:guid="2DegJUPkb8FgL$8DSLZDro">
            <path d="M22.6626,23.0313 L30.1682,26.3476"/>
            <path d="M31.8853,27.1063 L44.3022,32.5927"/>
            <path d="M46.0193,33.3514 L58.4363,38.8378"/>
            <path d="M60.1534,39.5965 L70.6093,44.2165"/>
            <path d="M22.1857,23.571 L30.1682,27.098"/>
            <path d="M31.4083,27.646 L44.3022,33.3431"/>
            <path d="M45.5424,33.8911 L58.4363,39.5883"/>
            <path d="M59.6765,40.1362 L70.6093,44.9669"/>
        </g>
        <g id="product-762ed230-ea4d-43c7-a546-17f3fc0af86f" class="IfcBeam material-woodStructural projection" ifc:name="OverliggerFladenTop" ifc:guid="1sBj8mwar3nwL65$Fy2lXl">
            <path d="M75.5174,51.3508 L75.5068,51.3185"/>
            <path d="M105.966,10.3569 L105.048,11.3957"/>
            <path d="M100.415,16.6377 L96.2156,21.39"/>
            <path d="M91.5833,26.632 L87.3837,31.3843"/>
            <path d="M82.7514,36.6263 L78.5909,41.3343"/>
            <path d="M106.393,10.5455 L105.966,10.3569"/>
            <path d="M110.121,12.8293 L110.121,12.193"/>
            <path d="M75.5174,51.3507 L75.5174,51.3508"/>
            <path d="M75.5174,51.9871 L75.5174,51.3508"/>
            <path d="M110.121,12.8293 L109.644,13.369"/>
            <path d="M109.644,13.369 L109.167,13.9087"/>
            <path d="M109.167,13.9087 L75.5174,51.9871"/>
        </g>
        <g id="product-6ddc4057-c1a2-4644-85b0-8032574e12fc" class="IfcBeam material-woodStructural projection" ifc:name="OverliggerTop" ifc:guid="1jt41NmQ96H8MmW39NJXBy">
            <path d="M112.639,4.67749 L105.048,13.2684"/>
            <path d="M103.807,14.6718 L96.2156,23.2628"/>
            <path d="M94.9755,24.6661 L87.3837,33.2571"/>
            <path d="M86.1436,34.6604 L78.5909,43.207"/>
            <path d="M77.3508,44.6103 L75.9944,46.1453"/>
            <path d="M111.876,4.34025 L105.048,12.0675"/>
            <path d="M103.044,14.3345 L96.2156,22.0618"/>
            <path d="M94.2123,24.3288 L87.3837,32.0561"/>
            <path d="M85.3804,34.3231 L78.5909,42.0061"/>
            <path d="M76.5876,44.2731 L75.9944,44.9444"/>
            <path d="M112.639,4.67749 L111.876,4.34025"/>
        </g>
        <g id="product-7bc7d63b-f140-4b74-865b-cb5d67b2dea0" class="IfcColumn material-woodStructural projection" ifc:name="C18 45x245 SiderD&#248;reVinduer" ifc:guid="1xnzOxyK1BT8PRorrdijwW">
            <path d="M110.121,12.8293 L110.121,12.8293"/>
            <path d="M109.644,13.369 L109.644,13.369"/>
            <path d="M109.644,13.369 L110.121,12.8293"/>
            <path d="M109.644,44.4392 L110.121,43.8996"/>
            <path d="M110.121,43.8996 L110.121,12.8293"/>
            <path d="M109.644,44.4392 L109.644,13.369"/>
        </g>
        <g id="product-d0c8bc09-1d54-483d-8d82-b529282f8f95" class="IfcBeam material-woodStructural projection" ifc:name="OverliggerFladenTop" ifc:guid="3GoBm97LH8FOs2jIaeBu_L">
            <path d="M127.427,-4.78204 L127.427,-4.78205"/>
            <path d="M127.427,-4.78205 L127.094,-4.92955"/>
            <path d="M122.712,1.19097 L122.712,0.554574"/>
            <path d="M127.427,-4.14565 L127.427,-4.78204"/>
            <path d="M127.427,-4.78204 L126.617,-3.86456"/>
            <path d="M126.617,-3.86456 L125.345,-2.42538"/>
            <path d="M125.345,-2.42538 L122.712,0.554574"/>
            <path d="M127.427,-4.14565 L126.617,-3.22817"/>
            <path d="M126.617,-3.22817 L125.345,-1.78899"/>
            <path d="M125.345,-1.78898 L122.712,1.19097"/>
        </g>
        <g id="product-e187deb2-b5ea-47cc-b575-1a8e8e508e21" class="IfcColumn material-woodStructural projection" ifc:name="C18 45x245 normalS&#248;jle" ifc:guid="3XXzwojUf7pBLr6ewEK8uX">
            <path d="M44.3022,34.0936 L44.3022,8.0892"/>
            <path d="M44.3022,34.0936 L45.0655,34.4308"/>
            <path d="M45.0655,34.4308 L45.0655,9.06283"/>
            <path d="M47.6621,34.0773 L47.6621,12.3752"/>
            <path d="M46.0193,33.3514 L46.0193,33.3514"/>
            <path d="M45.0655,34.4308 L45.5424,33.8911"/>
            <path d="M45.5424,33.8911 L46.0193,33.3514"/>
            <path d="M44.3023,8.08918 L44.3022,8.0892"/>
            <path d="M44.3022,8.0892 L45.0655,9.06283"/>
            <path d="M45.0655,9.06283 L45.0655,9.06282"/>
        </g>
        <g id="product-b0e9b50a-10d4-49ce-9e7e-760a28c8e800" class="IfcBeam material-woodStructural projection" ifc:name="RemBund" ifc:guid="2mwRKA4DH9pfv_TWeeoEW0">
            <path d="M-35.2377,34.7567 L-31.0823,36.5928"/>
            <path d="M-35.2377,34.1203 L-35.2377,34.7567"/>
            <path d="M-31.0823,35.9564 L-35.2377,34.1203"/>
            <path d="M17.2326,-22.4808 L17.2165,-22.4879"/>
            <path d="M13.4994,-21.031 L5.25987,-11.7071"/>
            <path d="M1.90002,-7.90504 L-35.2377,34.1203"/>
            <path d="M-31.0823,36.5928 L-31.0823,35.9564"/>
            <path d="M16.0341,-17.3608 L5.25987,-5.16867"/>
            <path d="M1.90002,-1.36664 L-31.0823,35.9564"/>
            <path d="M16.0341,-16.7244 L5.25987,-4.53227"/>
            <path d="M1.90002,-0.730243 L-28.0812,33.1968"/>
            <path d="M-31.0823,36.5927 L-31.0823,36.5928"/>
        </g>
        <g id="product-cd874d35-7c5f-4d4a-94a5-60887a6e8668" class="IfcColumn material-woodStructural projection" ifc:name="C18 45x245 normalS&#248;jle" ifc:guid="3DXqqrV5zDIfIbO8XwRePe">
            <path d="M75.9944,44.1925 L75.9943,44.1925"/>
            <path d="M75.5174,44.7322 L75.5174,44.7322"/>
            <path d="M71.362,46.0499 L75.5174,47.886"/>
            <path d="M71.362,46.0499 L71.362,42.8961"/>
            <path d="M75.5174,44.7322 L75.9944,44.1925"/>
            <path d="M75.5174,47.886 L75.9944,47.3463"/>
            <path d="M75.9944,47.3463 L75.9944,44.1925"/>
            <path d="M75.5174,47.886 L75.5174,44.7322"/>
        </g>
        <g id="product-730a1a42-f127-4a01-bf8e-46b960eabb67" class="IfcBeam material-woodStructural projection" ifc:name="RemTop" ifc:guid="1p2Xf2yITA0R_EHhbWwhjd">
            <path d="M71.3619,42.8961 L75.5174,44.7322"/>
            <path d="M71.3619,42.2597 L71.3619,42.8961"/>
            <path d="M75.5174,44.0958 L73.151,43.0502"/>
            <path d="M73.151,43.0502 L71.3619,42.2597"/>
            <path d="M127.904,-15.1857 L123.749,-17.0218"/>
            <path d="M123.749,-17.0218 L122.109,-15.1655"/>
            <path d="M118.308,-10.8652 L113.277,-5.1712"/>
            <path d="M109.476,-0.870858 L104.445,4.82311"/>
            <path d="M100.644,9.12345 L95.6127,14.8174"/>
            <path d="M91.8125,19.1177 L86.7807,24.8117"/>
            <path d="M82.9805,29.112 L77.9488,34.806"/>
            <path d="M71.3619,42.2597 L71.3619,42.2597"/>
            <path d="M75.5174,44.7322 L75.5174,44.0958"/>
            <path d="M127.904,-14.5493 L127.904,-14.5494"/>
            <path d="M127.904,-14.5494 L127.904,-15.1857"/>
            <path d="M127.904,-15.1857 L122.574,-9.15401"/>
            <path d="M122.378,-8.93162 L113.742,0.840286"/>
            <path d="M113.546,1.06268 L104.91,10.8346"/>
            <path d="M104.714,11.057 L96.0783,20.8289"/>
            <path d="M95.8818,21.0513 L87.2464,30.8232"/>
            <path d="M87.0498,31.0456 L78.4144,40.8175"/>
            <path d="M78.2179,41.0399 L75.857,43.7115"/>
            <path d="M75.6604,43.9339 L75.5174,44.0958"/>
            <path d="M127.904,-14.5493 L78.5909,41.2542"/>
            <path d="M78.5909,41.2542 L75.9943,44.1925"/>
            <path d="M75.5174,44.7322 L75.5174,44.7322"/>
        </g>
        <g id="product-c3c8797a-5dfd-4e15-b373-04e529d1c287" class="IfcWall material-concreteInsitu projection" ifc:name="Wall" ifc:guid="33o7bwNVrE5RDp1EKfqSA7">
            <path d="M173.688,-196.328 L173.688,-197.662"/>
            <path d="M-35.2377,34.7567 L-35.2377,34.7567"/>
            <path d="M51.2174,-63.0765 L52.2451,-64.2395"/>
            <path d="M60.0493,-73.0708 L61.0771,-74.2338"/>
            <path d="M68.8813,-83.0651 L69.909,-84.2281"/>
            <path d="M77.7133,-93.0594 L172.734,-200.585"/>
            <path d="M172.734,-200.585 L173.688,-197.662"/>
            <path d="M173.688,-197.662 L79.3762,-90.9381"/>
            <path d="M75.3211,-86.3494 L70.5442,-80.9438"/>
            <path d="M66.4892,-76.3551 L61.7123,-70.9495"/>
            <path d="M57.6572,-66.3608 L52.8803,-60.9552"/>
            <path d="M48.8253,-56.3665 L46.8663,-54.1497"/>
            <path d="M-35.2377,38.9994 L-35.2377,38.9994"/>
            <path d="M-35.2377,34.7567 L-35.2377,34.7567"/>
            <path d="M-35.2377,38.9994 L-35.2377,34.7567"/>
        </g>
        <g id="product-5814e3bf-0eef-4824-84d2-78dc4a3321ba" class="IfcBeam material-woodStructural projection" ifc:name="OverliggerTop" ifc:guid="1O5EE$3kz898JIUDnACo6w">
            <path d="M4.78294,45.0034 L4.78294,47.5882"/>
            <path d="M5.25987,44.4637 L4.78294,45.0034"/>
            <path d="M4.78294,45.0034 L16.0341,49.9747"/>
            <path d="M5.25987,44.4637 L16.0341,49.2243"/>
        </g>
        <g id="product-c2da64bf-8783-4ca5-af85-74e2ccbe15fc" class="IfcWall material-concreteInsitu projection" ifc:name="Wall" ifc:guid="32scI$XuDCfQ_5TEBClXNy">
            <path d="M-35.2377,34.7567 L-35.2377,34.7567"/>
            <path d="M22.5353,57.7823 L74.1536,80.5898"/>
            <path d="M75.4855,83.5964 L75.5174,83.6938"/>
            <path d="M75.5174,87.9365 L-35.2377,38.9994"/>
            <path d="M-35.2377,38.9994 L-35.2377,34.7567"/>
            <path d="M75.5174,83.6938 L-35.2377,34.7567"/>
            <path d="M75.5174,87.9365 L75.5174,83.6938"/>
        </g>
        <g id="product-012de3cd-f0ff-4039-b2ad-40770523d6af" class="IfcBeam material-woodStructural projection" ifc:name="OverliggerTop" ifc:guid="01BUFDyFz0ERAjG7S58zQl">
            <path d="M20.1823,58.6076 L20.1823,58.6076"/>
            <path d="M20.1823,55.1428 L20.1823,58.6076"/>
            <path d="M2.66326,47.402 L2.66326,50.8669"/>
            <path d="M20.1823,55.1428 L20.1823,55.1428"/>
            <path d="M3.14019,46.8623 L2.66326,47.402"/>
            <path d="M2.66326,47.402 L16.7973,53.6472"/>
            <path d="M16.7973,53.6472 L20.1823,55.1428"/>
            <path d="M3.14019,46.8623 L16.0341,52.5595"/>
            <path d="M17.2743,53.1075 L18.6558,53.7179"/>
        </g>
        <g id="product-eabb8e2b-f479-446a-95a7-6eca2c6697c4" class="IfcColumn material-woodStructural projection" ifc:name="C18 45x245 SiderD&#248;reVinduer" ifc:guid="3gkuuhz7b4QfMdRieiPfV4">
            <path d="M20.9455,59.5812 L23.5421,56.6429"/>
            <path d="M23.5421,56.6429 L23.5421,29.0219"/>
            <path d="M20.1823,59.244 L20.9455,59.5812"/>
            <path d="M20.9455,59.5812 L20.9455,27.8746"/>
            <path d="M20.1823,59.244 L20.1823,27.5374"/>
        </g>
        <g id="product-c0c7d1ae-aecb-4c03-9901-2035fec84fcb" class="IfcColumn material-woodStructural projection" ifc:name="C18 45x245 SiderD&#248;reVinduer" ifc:guid="30nz6khijC0va183N_o4$B">
            <path d="M134.793,-15.09 L131.543,-16.5259"/>
            <path d="M131.543,-15.7755 L134.316,-14.5503"/>
            <path d="M131.543,15.2947 L134.316,16.5199"/>
            <path d="M134.316,16.5199 L134.316,16.52"/>
            <path d="M134.316,-14.5503 L134.793,-15.09"/>
            <path d="M134.316,16.52 L134.793,15.9803"/>
            <path d="M134.793,15.9803 L134.793,-15.09"/>
            <path d="M134.316,16.52 L134.316,-14.5503"/>
        </g>
        <g id="product-f520cdd6-5542-47e3-9fdc-4a94a40e03aa" class="IfcColumn material-woodStructural projection" ifc:name="C18 45x245 normalS&#248;jle" ifc:guid="3r8CtMLK97uv$SIfIa3WEg">
            <path d="M127.388,-19.867 L126.911,-19.3273"/>
            <path d="M131.543,-18.0309 L127.388,-19.867"/>
            <path d="M126.911,-19.3273 L131.067,-17.4912"/>
            <path d="M131.067,20.1976 L131.067,20.1976"/>
            <path d="M126.911,-15.7387 L126.911,-19.3273"/>
            <path d="M131.067,-17.4912 L131.543,-18.0309"/>
            <path d="M131.067,20.1976 L131.543,19.6579"/>
            <path d="M131.543,19.6579 L131.543,-18.0309"/>
            <path d="M131.067,20.1976 L131.067,-17.4912"/>
        </g>
        <g id="product-ab190f0d-4a20-4be0-9723-f789015c313a" class="IfcColumn material-woodStructural projection" ifc:name="C18 45x245 normalS&#248;jle" ifc:guid="2h6GyDIY1Bu9SZzua1N34w">
            <path d="M113.88,1.3213 L113.88,1.32129"/>
            <path d="M113.403,1.86099 L113.403,1.861"/>
            <path d="M113.403,40.1862 L113.403,40.1862"/>
            <path d="M109.247,7.3152 L109.247,6.56328"/>
            <path d="M113.403,1.861 L113.88,1.3213"/>
            <path d="M113.403,40.1862 L113.88,39.6465"/>
            <path d="M113.88,39.6465 L113.88,1.3213"/>
            <path d="M113.403,40.1862 L113.403,8.47957"/>
            <path d="M113.403,5.01472 L113.403,1.861"/>
        </g>
        <g id="product-c65b3d5d-1309-4f01-a0f8-e5a3b1ef919b" class="IfcColumn material-woodStructural projection" ifc:name="C18 45x245 normalS&#248;jle" ifc:guid="36MprT4mbF0Q3uvQEnxv6R">
            <path d="M122.712,-8.673 L122.712,-8.67301"/>
            <path d="M122.235,-8.13331 L122.235,-8.13331"/>
            <path d="M122.235,30.1919 L122.235,30.1919"/>
            <path d="M118.079,28.3558 L118.079,-3.43102"/>
            <path d="M122.235,-8.13331 L122.712,-8.673"/>
            <path d="M122.235,30.1919 L122.712,29.6522"/>
            <path d="M122.712,29.6522 L122.712,-8.673"/>
            <path d="M122.235,30.1919 L122.235,-8.13331"/>
        </g>
        <g id="product-256a069c-c609-41b3-b74e-eca59b8c5f29" class="IfcSlab material-concreteInsitu projection" ifc:name="Slab" ifc:guid="0bQWQSnWb1ixTExAMRZ5yf">
            <path d="M233.92,-148.944 L479.512,-40.4297"/>
            <path d="M174.006,-196.688 L247.439,-164.242"/>
            <path d="M47.7144,-53.775 L49.6344,-55.9477"/>
            <path d="M53.4346,-60.2481 L58.4664,-65.942"/>
            <path d="M62.2666,-70.2424 L67.2983,-75.9363"/>
            <path d="M71.0985,-80.2367 L76.1303,-85.9306"/>
            <path d="M79.9305,-90.231 L174.006,-196.688"/>
            <path d="M199.49,-61.9325 L135.27,10.7395"/>
            <path d="M105.775,44.1165 L76.245,77.533"/>
            <path d="M414.544,33.0888 L199.49,-61.9325"/>
            <path d="M414.544,34.503 L200.03,-60.2799"/>
            <path d="M199.49,-60.5982 L199.49,-61.9325"/>
            <path d="M479.512,-40.4297 L414.544,33.0888"/>
            <path d="M479.512,-39.0154 L414.544,34.503"/>
            <path d="M414.544,34.503 L414.544,33.0888"/>
            <path d="M479.512,-39.0154 L479.512,-40.4297"/>
            <path d="M247.439,-164.242 L233.92,-148.944"/>
            <path d="M247.439,-162.827 L234.819,-148.547"/>
            <path d="M247.439,-162.827 L247.439,-164.242"/>
            <path d="M74.1536,79.756 L23.0652,57.1826"/>
        </g>
        <g id="product-54ae3b96-60d5-4ecd-ba09-ad1fa5653bb7" class="IfcMember material-C18 projection" ifc:name="Member" ifc:guid="1KhZkMODLEpRe9hH_bPJkt">
            <path d="M103.044,14.3345 L104.571,15.009"/>
            <path d="M103.044,14.3346 L103.044,14.3345"/>
            <path d="M100.415,16.6377 L100.842,16.8264"/>
            <path d="M100.415,16.6377 L100.415,16.5576"/>
            <path d="M104.571,15.009 L105.048,14.4693"/>
            <path d="M105.048,14.4693 L105.048,11.3156"/>
            <path d="M105.048,11.3156 L104.571,11.8553"/>
            <path d="M104.571,11.8553 L104.571,15.009"/>
        </g>
        <g id="product-0806a035-2096-4d80-8fd5-768949b0fd3d" class="IfcMember material-C18 projection" ifc:name="Member" ifc:guid="081g0r89PDW8$LTeb9iFqz">
            <path d="M94.2123,24.3288 L95.7387,25.0033"/>
            <path d="M94.2123,24.3289 L94.2123,24.3288"/>
            <path d="M91.5833,26.632 L92.0103,26.8207"/>
            <path d="M91.5833,26.632 L91.5833,26.5519"/>
            <path d="M95.7387,25.0033 L96.2156,24.4636"/>
            <path d="M96.2156,24.4636 L96.2156,21.3099"/>
            <path d="M96.2156,21.3099 L95.7387,21.8496"/>
            <path d="M95.7387,21.8496 L95.7387,25.0033"/>
        </g>
        <g id="product-f42fff1d-e215-4e74-af13-0db682fa4119" class="IfcMember material-C18 projection" ifc:name="Member" ifc:guid="3qB$yTuXLETAyJ3RQ2_a4P">
            <path d="M85.3803,34.3231 L86.9068,34.9976"/>
            <path d="M85.3803,34.3232 L85.3803,34.3231"/>
            <path d="M82.7513,36.6263 L83.1783,36.815"/>
            <path d="M82.7513,36.6263 L82.7513,36.5462"/>
            <path d="M86.9068,34.9976 L87.3837,34.4579"/>
            <path d="M87.3837,34.4579 L87.3837,31.3042"/>
            <path d="M87.3837,31.3042 L86.9068,31.8439"/>
            <path d="M86.9068,31.8439 L86.9068,34.9976"/>
        </g>
        <g id="product-a3f146ac-d4e5-45f3-916a-12eaf62f8545" class="IfcMember material-C18 projection" ifc:name="Member" ifc:guid="2ZyKQirEL5yv5g4khsBuL5">
            <path d="M76.5875,44.2731 L78.114,44.9475"/>
            <path d="M76.5875,44.2732 L76.5875,44.2731"/>
            <path d="M78.114,44.9475 L78.5909,44.4079"/>
            <path d="M78.5909,44.4079 L78.5909,41.2542"/>
            <path d="M78.5909,41.2542 L78.114,41.7938"/>
            <path d="M78.114,41.7938 L78.114,44.9475"/>
        </g>
        </g>
</svg>