<svg xmlns="http://www.w3.org/2000/svg" xmlns:xlink="http://www.w3.org/1999/xlink" xmlns:ifc="http://www.ifcopenshell.org/ns" width="67.0449mm" height="78.4203mm" viewBox="0 0 67.0449 78.4203">
    <defs>
        <marker id="arrowend" markerWidth="10" markerHeight="7" refX="10" refY="3.5" orient="auto">
          <polygon points="0 0, 10 3.5, 0 7"/>
        </marker>
        <marker id="arrowstart" markerWidth="10" markerHeight="7" refX="0" refY="3.5" orient="auto">
          <polygon points="10 0, 0 3.5, 10 7"/>
        </marker>
    </defs>
    <g ifc:name="Elevation 3d S&#248;jle ved vindue-overligger" class="section" ifc:plane="[[1.000000,0.000000,0.000000,0.000000],[0.000000,1.000000,0.000000,0.000000],[0.000000,0.000000,1.000000,0.000000],[0.000000,0.000000,0.000000,1.000000]]" ifc:matrix3="[[100.000001,0.000000,291.345186],[0.000000,100.000001,758.616483],[0.000000,0.000000,1.000000]]">
        <g id="product-7bcc63c5-46b1-459d-87fa-8c5162ac98d8" class="IfcBeam material-woodStructural projection" ifc:name="OverliggerTop" ifc:guid="1xp6F5Hh55dOVwZ55Yh9ZO">
            <path d="M60.9725,42.9928 L-216.683,180.466"/>
            <path d="M60.9725,42.9928 L60.9725,25.6686"/>
            <path d="M-189.539,145.818 L-224.529,180.466"/>
            <path d="M-224.529,180.466 L-216.683,180.466"/>
            <path d="M-216.683,180.466 L-181.694,145.818"/>
            <path d="M60.9725,25.6686 L-181.694,145.818"/>
            <path d="M-181.694,145.818 L-189.539,145.818"/>
            <path d="M58.3914,23.0621 L-189.539,145.818"/>
            <path d="M60.9725,25.6686 L60.9725,25.6686"/>
        </g>
    <g id="product-98f7fde9-f708-4908-a6e6-918d476c907d" class="IfcColumn material-woodStructural projection" ifc:name="C18 45x245 SiderD&#248;reVinduer" ifc:guid="2Oz$tfzmX92ARcaOr7R91z">
            <path d="M31.9233,60.5575 L31.9233,60.5575"/>
            <path d="M28.2371,62.3826 L28.2371,62.3826"/>
            <path d="M14.1845,203.543 L28.2371,217.734"/>
            <path d="M14.1845,203.543 L14.1845,69.3403"/>
            <path d="M28.2371,62.3826 L31.9233,60.5575"/>
            <path d="M28.2371,217.734 L31.9233,215.909"/>
            <path d="M31.9233,215.909 L31.9233,60.5575"/>
            <path d="M28.2371,217.734 L28.2371,62.3826"/>
        </g>
        <g id="product-6ddc4057-c1a2-4644-85b0-8032574e12fc" class="IfcBeam material-woodStructural projection" ifc:name="OverliggerTop" ifc:guid="1jt41NmQ96H8MmW39NJXBy">
            <path d="M-197.385,145.818 L-229.633,177.752"/>
            <path d="M-229.972,180.466 L-229.633,177.752"/>
            <path d="M-229.972,180.466 L-224.529,180.466"/>
            <path d="M-224.529,180.466 L-189.539,145.818"/>
            <path d="M58.3914,23.0621 L-189.539,145.818"/>
            <path d="M-189.539,145.818 L-197.385,145.818"/>
            <path d="M55.8103,20.4556 L-197.385,145.818"/>
        </g>
        <g id="product-7bc7d63b-f140-4b74-865b-cb5d67b2dea0" class="IfcColumn material-woodStructural projection" ifc:name="C18 45x245 SiderD&#248;reVinduer" ifc:guid="1xnzOxyK1BT8PRorrdijwW">
            <path d="M35.6095,58.7324 L35.6094,58.7324"/>
            <path d="M31.9233,60.5575 L31.9233,60.5575"/>
            <path d="M31.9233,60.5575 L35.6095,58.7324"/>
            <path d="M31.9233,215.909 L35.6095,214.084"/>
            <path d="M35.6095,214.084 L35.6095,58.7324"/>
            <path d="M31.9233,215.909 L31.9233,60.5575"/>
        </g>
        <g id="product-762ed230-ea4d-43c7-a546-17f3fc0af86f" class="IfcBeam material-woodStructural projection" ifc:name="OverliggerFladenTop" ifc:guid="1sBj8mwar3nwL65$Fy2lXl">
            <path d="M-230.765,186.83 L-229.972,180.466"/>
            <path d="M-230.765,186.83 L-223.11,186.83"/>
            <path d="M-216.684,180.466 L-229.972,180.466"/>
            <path d="M-229.972,180.466 L-229.971,180.464"/>
            <path d="M-229.184,177.307 L-225.827,163.844"/>
            <path d="M-205.35,153.706 L-225.827,163.844"/>
            <path d="M35.6095,58.7324 L35.6094,58.7324"/>
            <path d="M28.2371,62.3826 L-223.11,186.83"/>
            <path d="M-223.11,186.83 L-216.684,180.466"/>
            <path d="M35.6095,58.7324 L35.6095,55.5506"/>
        </g>
        <g id="product-730a1a42-f127-4a01-bf8e-46b960eabb67" class="IfcBeam material-woodStructural projection" ifc:name="RemTop" ifc:guid="1p2Xf2yITA0R_EHhbWwhjd">
            <path d="M-186.134,107.917 L-192.56,114.281"/>
            <path d="M-192.56,114.281 L-149.846,114.281"/>
            <path d="M-143.419,107.917 L-186.134,107.917"/>
            <path d="M159.004,-62.9687 L-186.134,107.917"/>
            <path d="M173.057,-48.7776 L159.004,-62.9687"/>
            <path d="M173.057,-45.5956 L-149.846,114.281"/>
            <path d="M-149.846,114.281 L-143.419,107.917"/>
            <path d="M173.057,-48.7776 L-143.419,107.917"/>
            <path d="M173.057,-45.5956 L173.057,-48.7776"/>
        </g>
        <g id="product-ab190f0d-4a20-4be0-9723-f789015c313a" class="IfcColumn material-woodStructural projection" ifc:name="C18 45x245 normalS&#248;jle" ifc:guid="2h6GyDIY1Bu9SZzua1N34w">
            <path d="M64.6587,8.07487 L64.6586,8.07479"/>
            <path d="M60.9724,9.8999 L60.9725,9.89998"/>
            <path d="M46.9198,187.335 L60.9725,201.526"/>
            <path d="M46.9198,187.335 L46.9198,49.9506"/>
            <path d="M46.9198,24.8575 L46.9198,16.8576"/>
            <path d="M60.9725,9.89998 L64.6587,8.07487"/>
            <path d="M60.9725,201.526 L64.6586,199.701"/>
            <path d="M64.6586,199.701 L64.6587,8.07487"/>
            <path d="M60.9725,201.526 L60.9725,42.9928"/>
            <path d="M60.9725,25.6686 L60.9725,9.89998"/>
        </g>
        <g id="product-730a1a42-f127-4a01-bf8e-46b960eabb67-body" class="IfcBeam material-woodStructural cut" ifc:name="RemTop" ifc:guid="1p2Xf2yITA0R_EHhbWwhjd">
            <path d="M-149.846,114.281 L-143.419,107.917 L-186.134,107.917 L-192.56,114.281 L-149.846,114.281"/>
        </g>
        <g id="product-762ed230-ea4d-43c7-a546-17f3fc0af86f-body" class="IfcBeam material-woodStructural cut" ifc:name="OverliggerFladenTop" ifc:guid="1sBj8mwar3nwL65$Fy2lXl">
            <path d="M-223.11,186.83 L-216.684,180.466 L-229.972,180.466 L-230.765,186.83 L-223.11,186.83"/>
        </g>
        <g id="product-6ddc4057-c1a2-4644-85b0-8032574e12fc-body" class="IfcBeam material-woodStructural cut" ifc:name="OverliggerTop" ifc:guid="1jt41NmQ96H8MmW39NJXBy">
            <path d="M-189.539,145.818 L-197.385,145.818 L-229.633,177.752 L-229.972,180.466 L-224.529,180.466 L-189.539,145.818"/>
        </g>
        <g id="product-7bcc63c5-46b1-459d-87fa-8c5162ac98d8-body" class="IfcBeam material-woodStructural cut" ifc:name="OverliggerTop" ifc:guid="1xp6F5Hh55dOVwZ55Yh9ZO">
            <path d="M-181.694,145.818 L-189.539,145.818 L-224.529,180.466 L-216.683,180.466 L-181.694,145.818"/>
        </g>
        </g>
</svg>