<svg xmlns="http://www.w3.org/2000/svg" xmlns:xlink="http://www.w3.org/1999/xlink" xmlns:ifc="http://www.ifcopenshell.org/ns" width="205.8mm" height="171.557mm" viewBox="0 0 205.8 171.557">
    <defs>
        <marker id="arrowend" markerWidth="10" markerHeight="7" refX="10" refY="3.5" orient="auto">
          <polygon points="0 0, 10 3.5, 0 7"/>
        </marker>
        <marker id="arrowstart" markerWidth="10" markerHeight="7" refX="0" refY="3.5" orient="auto">
          <polygon points="10 0, 0 3.5, 10 7"/>
        </marker>
    </defs>
    <g ifc:name="Elevation F,E,01" class="section" ifc:plane="[[1.000000,0.000000,0.000000,0.000000],[0.000000,1.000000,0.000000,0.000000],[0.000000,0.000000,1.000000,0.000000],[0.000000,0.000000,0.000000,1.000000]]" ifc:matrix3="[[20.000000,0.000000,316.351044],[0.000000,20.000000,144.738262],[0.000000,0.000000,1.000000]]">
        <g id="product-9dcd3a70-02ce-42ff-8b9a-0e3273387833" class="IfcColumn material-wood projection" ifc:name="C18 45x245 normalS&#248;jle ENDER.004" ifc:guid="2TpJfm0iv2$ukQ3Z9pE7Wp">
            <path d="M101.665,20.5879 L102.565,20.5879"/>
            <path d="M102.565,130.238 L102.565,20.5879"/>
            <path d="M101.665,130.238 L101.665,21.8806"/>
            <path d="M101.665,20.6079 L101.665,20.5879"/>
        </g>
        <g id="product-eabb8e2b-f479-446a-95a7-6eca2c6697c4" class="IfcColumn material-wood projection" ifc:name="C18 45x245 SiderD&#248;reVinduer" ifc:guid="3gkuuhz7b4QfMdRieiPfV4">
            <path d="M103.465,136.038 L104.365,136.038"/>
            <path d="M104.365,136.038 L104.365,91.1983"/>
            <path d="M103.465,135.138 L103.465,91.1983"/>
        </g>
        <g id="product-0b47842d-02ae-4bd2-bb6e-57519ebf3efd" class="IfcColumn material-wood projection" ifc:name="C18 45x245 normalS&#248;jle ENDER.004" ifc:guid="0BHuGj0gvBqhjkLr6Ulpxz">
            <path d="M102.565,20.5879 L103.465,20.5879"/>
            <path d="M103.465,135.138 L103.465,135.138"/>
            <path d="M103.465,135.138 L103.465,85.5272"/>
            <path d="M102.565,130.238 L102.565,20.5879"/>
        </g>
        <g id="product-e187deb2-b5ea-47cc-b575-1a8e8e508e21" class="IfcColumn material-wood projection" ifc:name="C18 45x245 normalS&#248;jle" ifc:guid="3XXzwojUf7pBLr6ewEK8uX">
            <path d="M131.906,90.2983 L131.906,48.6226"/>
            <path d="M131.906,48.6226 L132.806,49.5226"/>
            <path d="M132.806,90.2983 L132.806,49.5226"/>
            <path d="M131.906,90.2983 L132.806,90.2983"/>
        </g>
        <g id="product-1646c202-5840-4fd6-8d91-36173cc9e740" class="IfcColumn material-wood projection" ifc:name="C18 45x245 normalS&#248;jle" ifc:guid="0MHi82M41FresHDXSyoUT0">
            <path d="M104.365,20.5879 L105.265,20.5879"/>
            <path d="M105.265,85.3983 L105.265,20.5879"/>
            <path d="M104.365,85.3983 L104.365,20.5879"/>
        </g>
        <g id="product-3c4146fc-0638-44f1-ab92-5d2672f4369c" class="IfcColumn material-wood projection" ifc:name="C18 45x245 normalS&#248;jle" ifc:guid="0yGKRy1ZX4yQkINIPoz3QS">
            <path d="M115.24,85.3983 L115.24,31.956"/>
            <path d="M115.24,31.956 L116.14,32.856"/>
            <path d="M116.14,90.2983 L116.14,32.856"/>
            <path d="M115.24,90.2983 L116.14,90.2983"/>
        </g>
        <g id="product-2dabe1db-85b4-4468-8bbe-13c457d62c3a" class="IfcColumn material-wood projection" ifc:name="C18 45x245 normalS&#248;jle" ifc:guid="0jg_7RXRH4Q8k_4yHNrYmw">
            <path d="M148.573,90.2983 L148.573,65.2892"/>
            <path d="M148.573,65.2892 L149.473,66.1892"/>
            <path d="M149.473,90.2983 L149.473,66.1892"/>
            <path d="M148.573,90.2983 L149.473,90.2983"/>
        </g>
        <g id="product-503d5431-a96f-4798-935d-b6f7aaa4f19a" class="IfcColumn material-wood projection" ifc:name="C18 45x245 normalS&#248;jle" ifc:guid="1GFLGngMz7c9DTjlUgfF6Q">
            <path d="M48.5735,135.138 L48.5735,74.9719"/>
            <path d="M48.5735,74.9719 L49.4735,74.0719"/>
            <path d="M49.4735,135.138 L49.4735,74.0719"/>
        </g>
        <g id="product-af73791e-8ef4-4a1b-9572-31463d280ec4" class="IfcBeam material-wood projection" ifc:name="OverliggerTop" ifc:guid="2lStaUZlHA6vLoCKOzA0x4">
            <path d="M103.465,90.2983 L108.938,90.2983"/>
            <path d="M103.465,85.3983 L115.44,85.3983"/>
            <path d="M116.14,85.3983 L131.906,85.3983"/>
            <path d="M132.806,85.3983 L148.573,85.3983"/>
            <path d="M149.473,85.3983 L162.915,85.3983"/>
            <path d="M163.815,85.3983 L168.715,85.3983"/>
            <path d="M168.715,85.3983 L168.715,90.2983"/>
            <path d="M103.465,85.3983 L103.465,90.2983"/>
        </g>
        <g id="product-012de3cd-f0ff-4039-b2ad-40770523d6af" class="IfcBeam material-wood projection" ifc:name="OverliggerTop" ifc:guid="01BUFDyFz0ERAjG7S58zQl">
            <path d="M103.465,130.238 L103.465,135.138"/>
            <path d="M82.8067,130.238 L82.8067,135.138"/>
            <path d="M82.8067,135.138 L98.5733,135.138"/>
            <path d="M99.4733,135.138 L103.465,135.138"/>
            <path d="M82.8067,130.238 L98.5733,130.238"/>
            <path d="M99.4733,130.238 L103.465,130.238"/>
        </g>
        <g id="product-5814e3bf-0eef-4824-84d2-78dc4a3321ba" class="IfcBeam material-wood projection" ifc:name="OverliggerTop" ifc:guid="1O5EE$3kz898JIUDnACo6w">
            <path d="M103.465,135.138 L103.465,135.138"/>
        </g>
        <g id="product-c97992b1-f41b-44c2-b07b-af1800adf738" class="IfcColumn material-wood projection" ifc:name="C18 45x245 normalS&#248;jle" ifc:guid="39UPAnz1j4mh1xhnW0hVSu">
            <path d="M98.5733,135.138 L98.5733,24.9721"/>
            <path d="M98.5733,24.9721 L99.4733,24.0721"/>
            <path d="M99.4733,135.138 L99.4733,24.0721"/>
            <path d="M98.5733,135.138 L99.4733,135.138"/>
        </g>
        <g id="product-6964c2bd-7fef-48d4-b978-51d33e8a3695" class="IfcBeam material-wood projection" ifc:name="RemTop" ifc:guid="1fPCAzV_z8rBbuKTC_YZQL">
            <path d="M105.265,20.708 L163.815,79.258"/>
            <path d="M163.815,79.258 L163.815,80.5308"/>
            <path d="M105.265,21.9808 L115.24,31.956"/>
            <path d="M116.14,32.856 L131.906,48.6226"/>
            <path d="M132.806,49.5226 L148.573,65.2892"/>
            <path d="M149.473,66.1892 L163.815,80.5308"/>
        </g>
        <g id="product-5afe8abb-238b-4b1e-a97a-8f6c98cd340d" class="IfcColumn material-wood projection" ifc:name="C18 45x245 normalS&#248;jle" ifc:guid="1Q$egx8ujB7gbwZsoOpJGD">
            <path d="M162.915,90.2983 L162.915,79.6308"/>
            <path d="M162.915,79.6308 L163.815,80.5308"/>
            <path d="M163.815,90.2983 L163.815,80.5308"/>
            <path d="M162.915,90.2983 L163.815,90.2983"/>
        </g>
        <g id="product-8dac7ed2-29cd-4be0-b5ea-467e88c40573" class="IfcColumn material-wood projection" ifc:name="C18 45x245 normalS&#248;jle" ifc:guid="2Dh7xIASrBuBNgHdw8n0Lp">
            <path d="M103.465,20.5879 L104.365,20.5879"/>
            <path d="M104.365,85.3983 L104.365,20.5879"/>
            <path d="M103.465,85.3983 L103.465,20.5879"/>
        </g>
        <g id="product-c95119ff-40c0-4b7c-8005-27028da62ea8" class="IfcColumn material-wood projection" ifc:name="C18 45x245 normalS&#248;jle ENDER" ifc:guid="39KHd$GC1BV8059mADfYwe">
            <path d="M43.0147,135.138 L43.0147,80.5307"/>
            <path d="M43.0147,80.5307 L43.9147,79.6307"/>
            <path d="M43.9147,135.138 L43.9147,79.6307"/>
        </g>
        <g id="product-b913a710-b0db-4405-b859-c3939e2d07c4" class="IfcBeam material-wood projection" ifc:name="OverliggerFladenTop.022" ifc:guid="2v4wSGiDj41RXPmvEUBGV4">
            <path d="M103.465,90.2983 L103.465,91.1983"/>
            <path d="M103.465,91.1983 L168.715,91.1983"/>
            <path d="M168.715,90.2983 L168.715,91.1983"/>
            <path d="M103.465,90.2983 L168.715,90.2983"/>
        </g>
        <g id="product-68f156a0-79e4-4384-876a-c16906846b56" class="IfcColumn material-wood projection" ifc:name="C18 45x245 normalS&#248;jle" ifc:guid="1eyLQWUUH3X8TgmMa6X6jM">
            <path d="M81.9067,135.138 L81.9067,41.6387"/>
            <path d="M81.9067,41.6387 L82.8067,40.7387"/>
            <path d="M82.8067,130.238 L82.8067,40.7387"/>
        </g>
        <g id="product-9f8bfb81-6e93-4c4c-a72e-269cfd6a6c76" class="IfcColumn material-wood projection" ifc:name="C18 45x245 normalS&#248;jle" ifc:guid="2VY$k1RfDCJASk9fpzQcns">
            <path d="M65.2401,135.138 L65.2401,58.3053"/>
            <path d="M65.2401,58.3053 L66.1401,57.4053"/>
            <path d="M66.1401,135.138 L66.1401,57.4053"/>
        </g>
        <g id="product-1b6308c6-acba-4e1d-b224-dd464be2bf9f" class="IfcBeam material-wood projection" ifc:name="RemTop" ifc:guid="0ROmZ6hBfE7R8atKPBuh_V">
            <path d="M43.0147,80.5307 L102.301,21.2443"/>
            <path d="M102.301,21.2443 L101.665,20.6079"/>
            <path d="M43.0147,79.2579 L101.665,20.6079"/>
            <path d="M43.0147,79.2579 L43.0147,80.5307"/>
        </g>
        <g id="product-741a85e0-71a6-4794-bd2a-9a89c04d3f4b" class="IfcBeam material-wood projection" ifc:name="RemBund" ifc:guid="1q6eNWSQP7bBqgced0JJzB">
            <path d="M103.465,135.138 L103.465,136.038"/>
            <path d="M43.0147,135.138 L43.0147,136.038"/>
            <path d="M43.0147,136.038 L103.465,136.038"/>
            <path d="M43.0147,135.138 L103.465,135.138"/>
        </g>
    </g>
</svg>