<svg xmlns="http://www.w3.org/2000/svg" xmlns:xlink="http://www.w3.org/1999/xlink" xmlns:ifc="http://www.ifcopenshell.org/ns" width="129.271mm" height="101.788mm" viewBox="0 0 129.271 101.788">
    <defs>
        <marker id="arrowend" markerWidth="10" markerHeight="7" refX="10" refY="3.5" orient="auto">
          <polygon points="0 0, 10 3.5, 0 7"/>
        </marker>
        <marker id="arrowstart" markerWidth="10" markerHeight="7" refX="0" refY="3.5" orient="auto">
          <polygon points="10 0, 0 3.5, 10 7"/>
        </marker>
    </defs>
    <g ifc:name="Elevation Fundament ortografi" class="section" ifc:plane="[[1.000000,0.000000,0.000000,0.000000],[0.000000,1.000000,0.000000,0.000000],[0.000000,0.000000,1.000000,0.000000],[0.000000,0.000000,0.000000,1.000000]]" ifc:matrix3="[[4.000000,0.000000,52.082842],[0.000000,4.000000,76.639301],[0.000000,0.000000,1.000000]]">
        <g id="product-d2378c24-66d2-408d-a96a-ee73847322e9" class="IfcWall material-concreteInsitu projection" ifc:name="Wall" ifc:guid="3IDumaPj90ZQbgxdE4SoBf">
            <path d="M61.1832,39.4467 L61.1832,38.8467"/>
            <path d="M61.1832,38.8467 L97.0457,64.2054"/>
            <path d="M97.0457,64.2054 L97.0457,64.8054"/>
            <path d="M97.0457,65.6539 L97.0457,64.8054"/>
            <path d="M97.0457,64.8054 L61.1832,39.4467"/>
            <path d="M61.1832,39.4467 L61.1832,39.4467"/>
            <path d="M61.1832,39.4467 L61.1832,40.2953"/>
            <path d="M97.0457,65.6539 L61.1832,40.2953"/>
        </g>
    <g id="product-37a6d2b1-141c-40b8-9091-c53654dd73fb" class="IfcWall material-concreteInsitu projection" ifc:name="Wall" ifc:guid="0tfjAn51n0k92HnJPKtNFx">
            <path d="M27.7585,63.0816 L27.7585,62.4816"/>
            <path d="M27.7585,62.4816 L61.1832,38.8467"/>
            <path d="M61.1832,38.8467 L61.1832,39.4467"/>
            <path d="M61.1832,39.4467 L61.1832,39.4467"/>
            <path d="M61.1832,40.2953 L61.1832,39.4467"/>
            <path d="M61.1832,39.4467 L27.7585,63.0816"/>
            <path d="M27.7585,63.9301 L27.7585,63.0816"/>
            <path d="M61.1832,40.2953 L27.7585,63.9301"/>
        </g>
        <g id="product-256a069c-c609-41b3-b74e-eca59b8c5f29" class="IfcSlab material-concreteInsitu projection" ifc:name="Slab" ifc:guid="0bQWQSnWb1ixTExAMRZ5yf">
            <path d="M73.4289,22.7857 L114.384,51.7454"/>
            <path d="M64.7908,11.5757 L77.0365,20.2347"/>
            <path d="M10.4202,50.0216 L64.7908,11.5757"/>
            <path d="M61.1832,38.6467 L27.7585,62.2816"/>
            <path d="M97.0457,64.0054 L61.1832,38.6467"/>
            <path d="M61.1832,38.9296 L61.1832,38.9296"/>
            <path d="M61.1832,38.8467 L61.1832,38.6467"/>
            <path d="M114.384,51.7454 L97.0457,64.0054"/>
            <path d="M97.0457,64.2882 L97.0457,64.2882"/>
            <path d="M97.0457,64.2054 L97.0457,64.0054"/>
            <path d="M114.384,51.9454 L114.384,51.7454"/>
            <path d="M77.0365,20.2347 L73.4289,22.7857"/>
            <path d="M73.7117,22.8686 L73.6289,22.9272"/>
            <path d="M77.0365,20.4347 L77.0365,20.2347"/>
            <path d="M27.7585,62.2816 L10.4202,50.0216"/>
            <path d="M27.7585,62.5644 L27.7585,62.5644"/>
            <path d="M10.4202,50.2216 L10.4202,50.0216"/>
            <path d="M27.7585,62.4816 L27.7585,62.2816"/>
        </g>
        <g id="product-5ce7a8e9-4d2a-44cf-b3cb-0ca60ebea214" class="IfcWall material-concreteInsitu projection" ifc:name="Wall" ifc:guid="1SvwZfJIf4pxFB3AOElg8K">
            <path d="M73.7117,22.9857 L73.7117,22.7857"/>
            <path d="M114.667,51.7454 L73.7117,22.7857"/>
            <path d="M73.7117,22.7857 L74.5602,22.7857"/>
            <path d="M74.5602,22.7857 L115.515,51.7454"/>
            <path d="M115.515,52.5939 L115.515,51.7454"/>
            <path d="M115.515,52.5939 L115.515,52.5939"/>
        </g>
        <g id="product-19893e01-f95a-4bb7-9064-7977d707d6a4" class="IfcWall material-concreteInsitu projection" ifc:name="Wall" ifc:guid="0PYJu1_LfBjv1aUNVN1zQa">
            <path d="M78.1679,21.0833 L78.1679,20.2347"/>
            <path d="M78.1679,21.0833 L75.1602,23.21"/>
            <path d="M73.7117,22.9857 L73.7117,22.7857"/>
            <path d="M73.7117,22.7857 L77.3194,20.2347"/>
            <path d="M77.3194,20.2347 L78.1679,20.2347"/>
            <path d="M78.1679,20.2347 L74.5602,22.7857"/>
            <path d="M74.5602,22.7857 L73.7117,22.7857"/>
        </g>
        <g id="product-3e690443-792e-41cc-8cc0-f9f3a6fc5f2a" class="IfcWall material-concreteInsitu projection" ifc:name="Wall" ifc:guid="0_QGH3UIv1p8p0_VEc$5yg">
            <path d="M64.7908,11.3757 L64.7908,11.3757"/>
            <path d="M64.7908,11.3757 L64.7908,11.5757"/>
            <path d="M77.3194,20.2347 L64.7908,11.3757"/>
            <path d="M64.7908,11.3757 L64.7908,10.7757"/>
            <path d="M64.7908,10.7757 L78.1679,20.2347"/>
            <path d="M78.1679,21.0833 L78.1679,20.2347"/>
            <path d="M78.1679,20.2347 L77.3194,20.2347"/>
        </g>
        <g id="product-c2da64bf-8783-4ca5-af85-74e2ccbe15fc" class="IfcWall material-concreteInsitu projection" ifc:name="Wall" ifc:guid="32scI$XuDCfQ_5TEBClXNy">
            <path d="M9.28882,50.0216 L10.1374,50.0216"/>
            <path d="M10.1374,50.0216 L27.7585,62.4816"/>
            <path d="M27.7585,62.4816 L27.7585,63.0816"/>
            <path d="M27.7585,63.9301 L9.28882,50.8701"/>
            <path d="M9.28882,50.8701 L9.28882,50.0216"/>
            <path d="M27.7585,63.0816 L9.28882,50.0216"/>
            <path d="M27.7585,63.9301 L27.7585,63.0816"/>
        </g>
        <g id="product-3728f14e-f507-4aa9-8b21-ee74ad4dd28b" class="IfcWall material-concreteInsitu projection" ifc:name="Wall" ifc:guid="0tAF5EzGTAgOiXxdIjJTAB">
            <path d="M97.0457,64.8054 L97.0457,64.2054"/>
            <path d="M97.0457,64.2054 L114.667,51.7454"/>
            <path d="M114.667,51.7454 L115.515,51.7454"/>
            <path d="M115.515,52.5939 L97.0457,65.6539"/>
            <path d="M97.0457,65.6539 L97.0457,64.8054"/>
            <path d="M115.515,51.7454 L97.0457,64.8054"/>
            <path d="M115.515,52.5939 L115.515,51.7454"/>
        </g>
        <g id="product-c3c8797a-5dfd-4e15-b373-04e529d1c287" class="IfcWall material-concreteInsitu projection" ifc:name="Wall" ifc:guid="33o7bwNVrE5RDp1EKfqSA7">
            <path d="M9.28882,50.0216 L64.7908,10.7757"/>
            <path d="M64.7908,10.7757 L64.7908,10.9732"/>
            <path d="M64.7908,11.3757 L10.1374,50.0216"/>
            <path d="M10.1374,50.0216 L9.28882,50.0216"/>
            <path d="M9.28882,50.8701 L9.28882,50.0216"/>
        </g>
        </g>
</svg>