<?xml version="1.0" encoding="utf-8" ?>
<svg xmlns="http://www.w3.org/2000/svg" xmlns:ev="http://www.w3.org/2001/xml-events" xmlns:ifc="http://www.ifcopenshell.org/ns" xmlns:xlink="http://www.w3.org/1999/xlink" baseProfile="full" data-scale="1:10" height="171.95455052635887mm" id="root" version="1.1" viewBox="0 0 194.0000057220459 171.95455052635887" width="194.0000057220459mm">
  <defs/>
  <path class="GlobalId-073MQysBP4vvztxKe6tvaa IfcAnnotation PredefinedType-SAND" d="M -16.262948513031006 136.17854226719248 L 234.184992313385 136.17854226719248 L 234.184992313385 116.15067828785288 L 30.161821842193604 116.15067828785288 L -16.262948513031006 136.17854226719248"/>
  <path class="GlobalId-2HYG3x8x59IeN8MjPj3onQ IfcAnnotation PredefinedType-INSULATIONRIGID" d="M 255.7761788368225 116.14491153847086 L 255.7761788368225 101.1449020017277 L 120.16182839870453 101.1449020017277 L 120.16182839870453 116.14491153847086 L 255.7761788368225 116.14491153847086"/>
  <path class="GlobalId-22$sHobhvDePpThqzxDsu5 IfcAnnotation PredefinedType-TEXTLEADER small" d="M 141.59103333950043 57.68642831932414 L 129.4135183095932 76.18618492375721"/>
  <text dominant-baseline="baseline" style="font-size: 0;" text-anchor="start" transform="translate(141.59103393554688, 57.686431884765625) rotate(-8.537736462515939e-07)">
    <tspan class="GlobalId-22$sHobhvDePpThqzxDsu5 IfcAnnotation PredefinedType-TEXTLEADER small" dy="0em" x="0" y="0">C25 beton, terrændæk</tspan>
  </text>
  <path class="GlobalId-29GUTd4UjD5ulL5bw06pMz IfcAnnotation PredefinedType-TEXTLEADER small" d="M 120.11400163173676 40.89363623749126 L 98.61966148018837 80.4479289461266"/>
  <text dominant-baseline="baseline" style="font-size: 0;" text-anchor="start" transform="translate(120.11400604248047, 40.89363479614258) rotate(-8.537736462515939e-07)">
    <tspan class="GlobalId-29GUTd4UjD5ulL5bw06pMz IfcAnnotation PredefinedType-TEXTLEADER small" dy="0em" x="0" y="0">z-binder rustfri Ø6, pr. 400mm</tspan>
  </text>
  <path class="GlobalId-1z4cdngZH3M9SmfzSmW_Kk IfcAnnotation PredefinedType-EARTH" d="M 216.38771295547485 136.17854822765696 L 216.38771295547485 180.6042741645466 L -3.7902235984802246 180.6042741645466 L -3.7902235984802246 136.17854822765696 L 216.38771295547485 136.17854822765696"/>
  <use transform="rotate(90.00000250447816, -668.0199584960938, 119.65067291259766)" x="-668.0199584960938" xlink:href="#elevation-arrow" y="119.65067291259766"/>
  <use x="-668.0199584960938" xlink:href="#elevation-tag" y="119.65067291259766"/>
  <text class="ELEVATION" dominant-baseline="middle" text-anchor="middle" x="-668.0199584960938" y="117.15067291259766">1</text>
  <text class="ELEVATION" dominant-baseline="middle" text-anchor="middle" x="-668.0199584960938" y="122.15067291259766">V11_K09_H2_EX_S1_3</text>
  <path class="GlobalId-1F2AqLpuv2yvZcgHzJmyKK IfcAnnotation PredefinedType-BREAKLINE" d="M 58.27957093715668 2.301336418498645 L 79.48971688747406 2.3554097522388795 L 100.6998635828495 2.409483085979114"/>
  <path class="GlobalId-0z_1QDGJzBzRRqnTvLN23_ IfcAnnotation PredefinedType-TEXTLEADER small" d="M 122.14504182338715 17.963517795909535 L 94.66186538338661 71.65050316940655"/>
  <text dominant-baseline="baseline" style="font-size: 0;" text-anchor="start" transform="translate(122.1450424194336, 17.963518142700195) rotate(-8.537736462515939e-07)">
    <tspan class="GlobalId-0z_1QDGJzBzRRqnTvLN23_ IfcAnnotation PredefinedType-TEXTLEADER small" dy="0em" x="0" y="0">Træskelet, jf. detalje herom</tspan>
  </text>
  <path class="GlobalId-0ZmM6u0bL3jutUCe7NvexO IfcAnnotation PredefinedType-SECTIONLEVEL" d="M 161.1671142578125 136.15066528320312 L -63.17466354370117 136.15066528320312"/>
  <text dominant-baseline="baseline" style="font-size: 0;" text-anchor="start" transform="translate(161.1671142578125, 132.65066528320312) rotate(0.0)">
    <tspan class="SECTIONLEVEL" dy="-1em" x="0" y="0">UK Fundament</tspan>
    <tspan class="SECTIONLEVEL" dy="0em" x="0" y="0">RL -165</tspan>
  </text>
  <path class="GlobalId-2KFYi2kCP4GvnHlO0h8HF7 IfcAnnotation PredefinedType-TEXTLEADER small" d="M 122.1449464559555 17.963517795909535 L 94.66177001595497 17.963517795909535"/>
  <text dominant-baseline="baseline" style="font-size: 0;" text-anchor="start" transform="translate(122.14495086669922, 17.963518142700195) rotate(-8.537736462515939e-07)">
    <tspan class="GlobalId-2KFYi2kCP4GvnHlO0h8HF7 IfcAnnotation PredefinedType-TEXTLEADER small" dy="0em" x="0" y="0">Træskelet, jf. detalje herom</tspan>
  </text>
  <line class="GlobalId-0VVYPgRY1CsRUXeYRy7bR9 IfcAnnotation PredefinedType-GRID" stroke-dasharray="12.5, 3, 3, 3" x1="70.16183471679688" x2="70.16183471679688" y1="163.8922882080078" y2="9.982300758361816"/>
  <text class="GRID" dominant-baseline="middle" text-anchor="middle" x="70.16183471679688" y="163.8922882080078">E</text>
  <text class="GRID" dominant-baseline="middle" text-anchor="middle" x="70.16183471679688" y="9.982300758361816">E</text>
  <path class="GlobalId-2n$KvG1811V8EHB4sPZunZ IfcAnnotation PredefinedType-TEXTLEADER regular" d="M 78.41859757900238 130.84323514591563 L 78.3301442861557 136.17854226719248"/>
  <text dominant-baseline="baseline" style="font-size: 0;" text-anchor="start" transform="translate(78.4186019897461, 130.84323120117188) rotate(-8.537736462515939e-07)">
    <tspan class="GlobalId-2n$KvG1811V8EHB4sPZunZ IfcAnnotation PredefinedType-TEXTLEADER regular" dy="0em" x="0" y="0">OSBL</tspan>
  </text>
  <path class="GlobalId-0Y2m1M6CrADPrazH$WBsr9 IfcAnnotation PredefinedType-BLACK" d="M 73.54126870632172 103.56665362011302 L 73.5501378774643 103.47657461058009 L 73.54126870632172 103.38649411093104 L 73.51499497890472 103.29987664114344 L 73.47231805324554 103.22004814039576 L 73.41490685939789 103.15007824789393 L 73.34490716457367 103.09265662323344 L 73.26508462429047 103.04998714815486 L 73.17849099636078 103.02371491085398 L 73.08841645717621 103.01484126936305 L 72.99834191799164 103.02371491085398 L 72.91170060634613 103.04998714815486 L 72.83187806606293 103.09265662323344 L 72.76192605495453 103.15007824789393 L 72.70446717739105 103.22004814039576 L 72.66179025173187 103.29987664114344 L 72.63551652431488 103.38649411093104 L 72.6266473531723 103.47657461058009 L 72.63551652431488 103.56665362011302 L 72.66179025173187 103.6532695997845 L 72.70446717739105 103.73309810053217 L 72.76192605495453 103.80306650291789 L 72.83187806606293 103.86048812757838 L 72.91170060634613 103.90315760265696 L 72.99834191799164 103.92943431030619 L 73.08841645717621 103.93830497156489 L 73.17849099636078 103.92943431030619 L 73.26508462429047 103.90315760265696 L 73.34490716457367 103.86048812757838 L 73.41490685939789 103.80306650291789 L 73.47231805324554 103.73309810053217 L 73.51499497890472 103.6532695997845 L 73.54126870632172 103.56665362011302"/>
  <path class="GlobalId-0Y2m1M6CrADPrazH$WBsr9 IfcAnnotation PredefinedType-BLACK" d="M 82.66182839870453 103.38649411093104 L 82.63555467128754 103.29987664114344 L 82.59287774562836 103.22004814039576 L 82.5354665517807 103.15007824789393 L 82.4655145406723 103.09265662323344 L 82.3856920003891 103.04998714815486 L 82.29905068874359 103.02371491085398 L 82.20897614955902 103.01484126936305 L 82.11890161037445 103.02371491085398 L 82.03226029872894 103.04998714815486 L 81.95243775844574 103.09265662323344 L 81.88248574733734 103.15007824789393 L 81.82507455348969 103.22004814039576 L 81.7823976278305 103.29987664114344 L 81.75612390041351 103.38649411093104 L 81.74725472927094 103.47657461058009 L 81.75612390041351 103.56665362011302 L 81.7823976278305 103.6532695997845 L 81.82507455348969 103.73309810053217 L 81.88248574733734 103.80306650291789 L 81.95243775844574 103.86048812757838 L 82.03226029872894 103.90315760265696 L 82.11890161037445 103.92943431030619 L 82.20897614955902 103.93830497156489 L 82.29905068874359 103.92943431030619 L 82.3856920003891 103.90315760265696 L 82.4655145406723 103.86048812757838 L 82.5354665517807 103.80306650291789 L 82.59287774562836 103.73309810053217 L 82.63555467128754 103.6532695997845 L 82.66182839870453 103.56665362011302 L 82.6706975698471 103.47657461058009 L 82.66182839870453 103.38649411093104"/>
  <path class="GlobalId-0Y2m1M6CrADPrazH$WBsr9 IfcAnnotation PredefinedType-BLACK" d="M 73.5426515340805 79.5774865556847 L 73.51637780666351 79.49086610566486 L 73.47370088100433 79.41104058514942 L 73.41628968715668 79.34107069264759 L 73.34633767604828 79.28365055810322 L 73.26646745204926 79.24097959290852 L 73.17987382411957 79.21470586549152 L 73.089799284935 79.20583371411671 L 72.99972474575043 79.21470586549152 L 72.91308343410492 79.24097959290852 L 72.83326089382172 79.28365055810322 L 72.76330888271332 79.34107069264759 L 72.70589768886566 79.41104058514942 L 72.66322076320648 79.49086610566486 L 72.63694703578949 79.5774865556847 L 72.62807786464691 79.66756705533375 L 72.63694703578949 79.75764457475056 L 72.66322076320648 79.84426204453816 L 72.70589768886566 79.9240875650536 L 72.76330888271332 79.99406043778767 L 72.83326089382172 80.05148057233204 L 72.91308343410492 80.09415153752674 L 72.99972474575043 80.12042526494373 L 73.089799284935 80.12929741631855 L 73.17987382411957 80.12042526494373 L 73.26646745204926 80.09415153752674 L 73.34633767604828 80.05148057233204 L 73.41628968715668 79.99406043778767 L 73.47370088100433 79.9240875650536 L 73.51637780666351 79.84426204453816 L 73.5426515340805 79.75764457475056 L 73.55152070522308 79.66756705533375 L 73.5426515340805 79.5774865556847"/>
  <path class="GlobalId-0Y2m1M6CrADPrazH$WBsr9 IfcAnnotation PredefinedType-BLACK" d="M 82.80607163906097 79.66756705533375 L 82.7972024679184 79.5774865556847 L 82.7709287405014 79.49086610566486 L 82.72825181484222 79.41104058514942 L 82.67084062099457 79.34107069264759 L 82.60084092617035 79.28365055810322 L 82.52101838588715 79.24097959290852 L 82.43442475795746 79.21470586549152 L 82.34435021877289 79.20583371411671 L 82.25427567958832 79.21470586549152 L 82.16763436794281 79.24097959290852 L 82.0878118276596 79.28365055810322 L 82.01785981655121 79.34107069264759 L 81.96040093898773 79.41104058514942 L 81.91777169704437 79.49086610566486 L 81.89149796962738 79.5774865556847 L 81.8826287984848 79.66756705533375 L 81.89149796962738 79.75764457475056 L 81.91777169704437 79.84426204453816 L 81.96040093898773 79.9240875650536 L 82.01785981655121 79.99406043778767 L 82.0878118276596 80.05148057233204 L 82.16763436794281 80.09415153752674 L 82.25427567958832 80.12042526494373 L 82.34435021877289 80.12929741631855 L 82.43442475795746 80.12042526494373 L 82.52101838588715 80.09415153752674 L 82.60084092617035 80.05148057233204 L 82.67084062099457 79.99406043778767 L 82.72825181484222 79.9240875650536 L 82.7709287405014 79.84426204453816 L 82.7972024679184 79.75764457475056 L 82.80607163906097 79.66756705533375"/>
  <path class="GlobalId-0Y2m1M6CrADPrazH$WBsr9 IfcAnnotation PredefinedType-BLACK" d="M 102.81630530953407 82.29896013032307 L 102.89612784981728 82.25628916512836 L 102.96607986092567 82.19886903058399 L 103.02349105477333 82.12889913808216 L 103.06616798043251 82.04907063733448 L 103.0924417078495 81.96245316754688 L 103.10131087899208 81.87237564813007 L 103.0924417078495 81.78229514848103 L 103.06616798043251 81.69567767869343 L 103.02349105477333 81.61584917794575 L 102.96607986092567 81.54587928544392 L 102.89612784981728 81.48845915089954 L 102.81630530953407 81.44578818570484 L 102.72966399788857 81.41951445828785 L 102.639589458704 81.41064230691303 L 102.54951491951942 81.41951445828785 L 102.46287360787392 81.44578818570484 L 102.38305106759071 81.48845915089954 L 102.31309905648232 81.54587928544392 L 102.25568786263466 81.61584917794575 L 102.21301093697548 81.69567767869343 L 102.18673720955849 81.78229514848103 L 102.17786803841591 81.87237564813007 L 102.18673720955849 81.96245316754688 L 102.21301093697548 82.04907063733448 L 102.25568786263466 82.12889913808216 L 102.31309905648232 82.19886903058399 L 102.38305106759071 82.25628916512836 L 102.46287360787392 82.29896013032307 L 102.54951491951942 82.32523385774006 L 102.639589458704 82.33410600911488 L 102.72966399788857 82.32523385774006 L 102.81630530953407 82.29896013032307"/>
  <path class="GlobalId-0Y2m1M6CrADPrazH$WBsr9 IfcAnnotation PredefinedType-BLACK" d="M 117.46288239955902 82.29896013032307 L 117.54952371120453 82.32523385774006 L 117.6395982503891 82.33410600911488 L 117.72967278957367 82.32523385774006 L 117.81626641750336 82.29896013032307 L 117.89613664150238 82.25628916512836 L 117.96608865261078 82.19886903058399 L 118.02349984645844 82.12889913808216 L 118.06617677211761 82.04907063733448 L 118.0924504995346 81.96245316754688 L 118.10131967067719 81.87237564813007 L 118.0924504995346 81.78229514848103 L 118.06617677211761 81.69567767869343 L 118.02349984645844 81.61584917794575 L 117.96608865261078 81.54587928544392 L 117.89613664150238 81.48845915089954 L 117.81626641750336 81.44578818570484 L 117.72967278957367 81.41951445828785 L 117.6395982503891 81.41064230691303 L 117.54952371120453 81.41951445828785 L 117.46288239955902 81.44578818570484 L 117.38305985927582 81.48845915089954 L 117.31310784816742 81.54587928544392 L 117.25564897060394 81.61584917794575 L 117.21301972866058 81.69567767869343 L 117.18674600124359 81.78229514848103 L 117.17787683010101 81.87237564813007 L 117.18674600124359 81.96245316754688 L 117.21301972866058 82.04907063733448 L 117.25564897060394 82.12889913808216 L 117.31310784816742 82.19886903058399 L 117.38305985927582 82.25628916512836 L 117.46288239955902 82.29896013032307"/>
  <path class="GlobalId-0Y2m1M6CrADPrazH$WBsr9 IfcAnnotation PredefinedType-BLACK" d="M 133.09246003627777 81.96245316754688 L 133.10132920742035 81.87237564813007 L 133.09246003627777 81.78229514848103 L 133.06613862514496 81.69567767869343 L 133.0235093832016 81.61584917794575 L 132.96609818935394 81.54587928544392 L 132.89609849452972 81.48845915089954 L 132.81627595424652 81.44578818570484 L 132.72968232631683 81.41951445828785 L 132.63956010341644 81.41064230691303 L 132.5495332479477 81.41951445828785 L 132.46284425258636 81.44578818570484 L 132.38302171230316 81.48845915089954 L 132.31311738491058 81.54587928544392 L 132.25570619106293 81.61584917794575 L 132.21298158168793 81.69567767869343 L 132.18675553798676 81.78229514848103 L 132.17788636684418 81.87237564813007 L 132.18675553798676 81.96245316754688 L 132.21298158168793 82.04907063733448 L 132.25570619106293 82.12889913808216 L 132.31311738491058 82.19886903058399 L 132.38302171230316 82.25628916512836 L 132.46284425258636 82.29896013032307 L 132.5495332479477 82.32523385774006 L 132.63956010341644 82.33410600911488 L 132.72968232631683 82.32523385774006 L 132.81627595424652 82.29896013032307 L 132.89609849452972 82.25628916512836 L 132.96609818935394 82.19886903058399 L 133.0235093832016 82.12889913808216 L 133.06613862514496 82.04907063733448 L 133.09246003627777 81.96245316754688"/>
  <path class="GlobalId-0Y2m1M6CrADPrazH$WBsr9 IfcAnnotation PredefinedType-BLACK" d="M 147.38308191299438 82.25628916512836 L 147.4629044532776 82.29896013032307 L 147.54949808120728 82.32523385774006 L 147.63962030410767 82.33410600911488 L 147.72964715957642 82.32523385774006 L 147.8162407875061 82.29896013032307 L 147.89615869522095 82.25628916512836 L 147.96606302261353 82.19886903058399 L 148.02347421646118 82.12889913808216 L 148.06619882583618 82.04907063733448 L 148.09242486953735 81.96245316754688 L 148.10129404067993 81.87237564813007 L 148.09242486953735 81.78229514848103 L 148.06619882583618 81.69567767869343 L 148.02347421646118 81.61584917794575 L 147.96606302261353 81.54587928544392 L 147.89615869522095 81.48845915089954 L 147.8162407875061 81.44578818570484 L 147.72964715957642 81.41951445828785 L 147.63962030410767 81.41064230691303 L 147.54949808120728 81.41951445828785 L 147.4629044532776 81.44578818570484 L 147.38308191299438 81.48845915089954 L 147.31308221817017 81.54587928544392 L 147.2556710243225 81.61584917794575 L 147.21304178237915 81.69567767869343 L 147.18672037124634 81.78229514848103 L 147.17785120010376 81.87237564813007 L 147.18672037124634 81.96245316754688 L 147.21304178237915 82.04907063733448 L 147.2556710243225 82.12889913808216 L 147.31308221817017 82.19886903058399 L 147.38308191299438 82.25628916512836"/>
  <path class="GlobalId-0Y2m1M6CrADPrazH$WBsr9 IfcAnnotation PredefinedType-BLACK" d="M 163.09248208999634 81.96245316754688 L 163.10135126113892 81.87237564813007 L 163.09248208999634 81.78229514848103 L 163.06616067886353 81.69567767869343 L 163.02353143692017 81.61584917794575 L 162.9661202430725 81.54587928544392 L 162.8961205482483 81.48845915089954 L 162.8162980079651 81.44578818570484 L 162.7297043800354 81.41951445828785 L 162.639582157135 81.41064230691303 L 162.54945993423462 81.41951445828785 L 162.46286630630493 81.44578818570484 L 162.38304376602173 81.48845915089954 L 162.3130440711975 81.54587928544392 L 162.25563287734985 81.61584917794575 L 162.2130036354065 81.69567767869343 L 162.18668222427368 81.78229514848103 L 162.1778130531311 81.87237564813007 L 162.18668222427368 81.96245316754688 L 162.2130036354065 82.04907063733448 L 162.25563287734985 82.12889913808216 L 162.3130440711975 82.19886903058399 L 162.38304376602173 82.25628916512836 L 162.46286630630493 82.29896013032307 L 162.54945993423462 82.32523385774006 L 162.639582157135 82.33410600911488 L 162.7297043800354 82.32523385774006 L 162.8162980079651 82.29896013032307 L 162.8961205482483 82.25628916512836 L 162.9661202430725 82.19886903058399 L 163.02353143692017 82.12889913808216 L 163.06616067886353 82.04907063733448 L 163.09248208999634 81.96245316754688"/>
  <path class="GlobalId-0Y2m1M6CrADPrazH$WBsr9 IfcAnnotation PredefinedType-BLACK" d="M 177.96608209609985 81.54587928544392 L 177.89608240127563 81.48845915089954 L 177.81625986099243 81.44578818570484 L 177.72966623306274 81.41951445828785 L 177.63954401016235 81.41064230691303 L 177.5495171546936 81.41951445828785 L 177.46292352676392 81.44578818570484 L 177.3831009864807 81.48845915089954 L 177.3131012916565 81.54587928544392 L 177.25569009780884 81.61584917794575 L 177.21296548843384 81.69567767869343 L 177.18673944473267 81.78229514848103 L 177.1778702735901 81.87237564813007 L 177.18673944473267 81.96245316754688 L 177.21296548843384 82.04907063733448 L 177.25569009780884 82.12889913808216 L 177.3131012916565 82.19886903058399 L 177.3831009864807 82.25628916512836 L 177.46292352676392 82.29896013032307 L 177.5495171546936 82.32523385774006 L 177.63954401016235 82.33410600911488 L 177.72966623306274 82.32523385774006 L 177.81625986099243 82.29896013032307 L 177.89608240127563 82.25628916512836 L 177.96608209609985 82.19886903058399 L 178.0234932899475 82.12889913808216 L 178.0662178993225 82.04907063733448 L 178.09244394302368 81.96245316754688 L 178.10131311416626 81.87237564813007 L 178.09244394302368 81.78229514848103 L 178.0662178993225 81.69567767869343 L 178.0234932899475 81.61584917794575 L 177.96608209609985 81.54587928544392"/>
  <path class="GlobalId-34SKrHg911UQM$JJvfjpWF IfcAnnotation PredefinedType-EXPANDEDCLAY" d="M 85.16183868050575 106.15067739378321 L 30.161821842193604 106.15067739378321 L 30.161821842193604 116.15067828785288 L 120.16182839870453 116.15067828785288 L 120.16182839870453 101.1449020017277 L 100.16184821724892 101.1449020017277 L 100.16184821724892 86.14490801807155 L 90.16185775399208 76.15051452409138 L 85.16183868050575 76.15051452409138 L 85.16183868050575 106.15067739378321"/>
  <line class="GlobalId-3gc7UW$1H5shAre5qNZY5v IfcAnnotation PredefinedType-DIMENSION" x1="70.16178131103516" x2="94.66181945800781" y1="46.22068786621094" y2="46.22068786621094"/>
  <text dominant-baseline="baseline" style="font-size: 0;" text-anchor="middle" transform="translate(82.41180419921875, 45.22068786621094) rotate(0.0)">
    <tspan class="DIMENSION" dy="0em" x="0" y="0">245</tspan>
  </text>
  <line class="GlobalId-3gc7UW$1H5shAre5qNZY5v IfcAnnotation PredefinedType-DIMENSION" x1="167.968994140625" x2="167.968994140625" y1="116.15068054199219" y2="101.14491271972656"/>
  <text dominant-baseline="baseline" style="font-size: 0;" text-anchor="middle" transform="translate(166.968994140625, 108.64779663085938) rotate(-90.00000250447816)">
    <tspan class="DIMENSION" dy="0em" x="0" y="0">150</tspan>
  </text>
  <line class="GlobalId-3gc7UW$1H5shAre5qNZY5v IfcAnnotation PredefinedType-DIMENSION" x1="167.968994140625" x2="167.968994140625" y1="101.14491271972656" y2="86.14491271972656"/>
  <text dominant-baseline="baseline" style="font-size: 0;" text-anchor="middle" transform="translate(166.968994140625, 93.64491271972656) rotate(-90.00000250447816)">
    <tspan class="DIMENSION" dy="0em" x="0" y="0">150</tspan>
  </text>
  <line class="GlobalId-3gc7UW$1H5shAre5qNZY5v IfcAnnotation PredefinedType-DIMENSION" x1="167.968994140625" x2="167.968994140625" y1="86.14491271972656" y2="76.16453552246094"/>
  <text dominant-baseline="baseline" style="font-size: 0;" text-anchor="middle" transform="translate(166.968994140625, 81.15472412109375) rotate(-90.00000250447816)">
    <tspan class="DIMENSION" dy="0em" x="0" y="0">100</tspan>
  </text>
  <line class="GlobalId-3gc7UW$1H5shAre5qNZY5v IfcAnnotation PredefinedType-DIMENSION" x1="30.161821365356445" x2="70.16188049316406" y1="122.06285095214844" y2="122.06285095214844"/>
  <text dominant-baseline="baseline" style="font-size: 0;" text-anchor="middle" transform="translate(50.16184997558594, 121.06285095214844) rotate(0.0)">
    <tspan class="DIMENSION" dy="0em" x="0" y="0">400</tspan>
  </text>
  <line class="GlobalId-3gc7UW$1H5shAre5qNZY5v IfcAnnotation PredefinedType-DIMENSION" x1="70.16188049316406" x2="85.1618423461914" y1="122.06285095214844" y2="122.03904724121094"/>
  <text dominant-baseline="baseline" style="font-size: 0;" text-anchor="middle" transform="translate(77.6602783203125, 121.05094909667969) rotate(-0.0909236316436618)">
    <tspan class="DIMENSION" dy="0em" x="0" y="0">150</tspan>
  </text>
  <line class="GlobalId-3gc7UW$1H5shAre5qNZY5v IfcAnnotation PredefinedType-DIMENSION" x1="85.1618423461914" x2="100.16184997558594" y1="122.03904724121094" y2="122.06285095214844"/>
  <text dominant-baseline="baseline" style="font-size: 0;" text-anchor="middle" transform="translate(92.66343688964844, 121.05094909667969) rotate(0.09092335816929073)">
    <tspan class="DIMENSION" dy="0em" x="0" y="0">150</tspan>
  </text>
  <line class="GlobalId-3gc7UW$1H5shAre5qNZY5v IfcAnnotation PredefinedType-DIMENSION" x1="100.16184997558594" x2="120.16183471679688" y1="122.06285095214844" y2="122.06285095214844"/>
  <text dominant-baseline="baseline" style="font-size: 0;" text-anchor="middle" transform="translate(110.1618423461914, 121.06285095214844) rotate(0.0)">
    <tspan class="DIMENSION" dy="0em" x="0" y="0">200</tspan>
  </text>
  <line class="GlobalId-3gc7UW$1H5shAre5qNZY5v IfcAnnotation PredefinedType-DIMENSION" x1="19.94692039489746" x2="19.94692039489746" y1="136.1785430908203" y2="116.15068054199219"/>
  <text dominant-baseline="baseline" style="font-size: 0;" text-anchor="middle" transform="translate(18.94692039489746, 126.16461181640625) rotate(-90.00000250447816)">
    <tspan class="DIMENSION" dy="0em" x="0" y="0">200</tspan>
  </text>
  <line class="GlobalId-3gc7UW$1H5shAre5qNZY5v IfcAnnotation PredefinedType-DIMENSION" x1="19.94692039489746" x2="19.94692039489746" y1="116.15068054199219" y2="106.15067291259766"/>
  <text dominant-baseline="baseline" style="font-size: 0;" text-anchor="middle" transform="translate(18.94692039489746, 111.15068054199219) rotate(-90.00000250447816)">
    <tspan class="DIMENSION" dy="0em" x="0" y="0">100</tspan>
  </text>
  <line class="GlobalId-3gc7UW$1H5shAre5qNZY5v IfcAnnotation PredefinedType-DIMENSION" x1="19.94692039489746" x2="19.94692039489746" y1="106.15067291259766" y2="76.1505126953125"/>
  <text dominant-baseline="baseline" style="font-size: 0;" text-anchor="middle" transform="translate(18.94692039489746, 91.15058898925781) rotate(-90.00000250447816)">
    <tspan class="DIMENSION" dy="0em" x="0" y="0">300</tspan>
  </text>
  <line class="GlobalId-3gc7UW$1H5shAre5qNZY5v IfcAnnotation PredefinedType-DIMENSION" x1="10.373746871948242" x2="10.373746871948242" y1="136.1785430908203" y2="76.1505126953125"/>
  <text dominant-baseline="baseline" style="font-size: 0;" text-anchor="middle" transform="translate(9.373746871948242, 106.1645278930664) rotate(-90.00000250447816)">
    <tspan class="DIMENSION" dy="0em" x="0" y="0">600</tspan>
  </text>
  <line class="GlobalId-3gc7UW$1H5shAre5qNZY5v IfcAnnotation PredefinedType-DIMENSION" x1="85.1618423461914" x2="90.1464614868164" y1="95.8288345336914" y2="95.8288345336914"/>
  <text dominant-baseline="baseline" style="font-size: 0;" text-anchor="middle" transform="translate(93.1464614868164, 94.8288345336914) rotate(0.0)">
    <tspan class="DIMENSION" dy="0em" x="0" y="0">50</tspan>
  </text>
  <path class="GlobalId-18KmnUioz0YQjWFWf2H8Vw IfcAnnotation PredefinedType-SECTIONLEVEL" d="M 230.5186767578125 -193.84934997558594 L -18.481338500976562 -193.84934997558594"/>
  <text dominant-baseline="baseline" style="font-size: 0;" text-anchor="start" transform="translate(230.5186767578125, -197.34934997558594) rotate(0.0)">
    <tspan class="SECTIONLEVEL" dy="-1em" x="0" y="0">OK stern</tspan>
    <tspan class="SECTIONLEVEL" dy="0em" x="0" y="0">RL +3135</tspan>
  </text>
  <path class="GlobalId-1J09UaEtf9UOnMX$N76$ub IfcAnnotation PredefinedType-TEXTLEADER small" d="M 138.4049028158188 49.467627297748216 L 116.91056191921234 82.5364458967339"/>
  <text dominant-baseline="baseline" style="font-size: 0;" text-anchor="start" transform="translate(138.4049072265625, 49.46762466430664) rotate(-8.537736462515939e-07)">
    <tspan class="GlobalId-1J09UaEtf9UOnMX$N76$ub IfcAnnotation PredefinedType-TEXTLEADER small" dy="0em" x="0" y="0">Y8/150 BR, stødzone net. minimum dæklag 25mm</tspan>
  </text>
  <path class="GlobalId-2ZWIQ0RNb9o9WYxcTaveeK IfcAnnotation PredefinedType-SECTIONLEVEL" d="M 159.3014373779297 76.15066528320312 L -63.17466354370117 76.15066528320312"/>
  <text dominant-baseline="baseline" style="font-size: 0;" text-anchor="start" transform="translate(159.3014373779297, 72.65066528320312) rotate(0.0)">
    <tspan class="SECTIONLEVEL" dy="-1em" x="0" y="0">Stueplan</tspan>
    <tspan class="SECTIONLEVEL" dy="0em" x="0" y="0">RL +435</tspan>
  </text>
  <path class="GlobalId-2ZhesYYd9DvvYhPLkP56Ku IfcAnnotation PredefinedType-TEXTLEADER small" d="M 56.216248869895935 63.35466314445842 L 72.83326089382172 79.28365353833546"/>
  <text dominant-baseline="baseline" style="font-size: 0;" text-anchor="end" transform="translate(56.216251373291016, 63.35466384887695) rotate(-8.537736462515939e-07)">
    <tspan class="GlobalId-2ZhesYYd9DvvYhPLkP56Ku IfcAnnotation PredefinedType-TEXTLEADER small" dy="0em" x="0" y="0">2 stk Y12 i toppen</tspan>
  </text>
  <line class="GlobalId-1hF0pRKQHDJRnxcDEDPD34 IfcAnnotation PredefinedType-ContT4" x1="70.16178131103516" x2="94.66181945800781" y1="71.65062713623047" y2="76.15050506591797"/>
  <line class="GlobalId-1hF0pRKQHDJRnxcDEDPD34 IfcAnnotation PredefinedType-ContT4" x1="94.66181945800781" x2="94.66181945800781" y1="76.15050506591797" y2="71.6504898071289"/>
  <line class="GlobalId-1hF0pRKQHDJRnxcDEDPD34 IfcAnnotation PredefinedType-ContT4" x1="94.66181945800781" x2="70.16188049316406" y1="71.6504898071289" y2="76.15050506591797"/>
  <path class="GlobalId-1akOU9czb2kAJB9lJTaf1z IfcAnnotation PredefinedType-TEXTLEADER small" d="M 56.216248869895935 87.0902883481573 L 72.83326089382172 103.01927883516657"/>
  <text dominant-baseline="baseline" style="font-size: 0;" text-anchor="end" transform="translate(56.216251373291016, 87.09028625488281) rotate(-8.537736462515939e-07)">
    <tspan class="GlobalId-1akOU9czb2kAJB9lJTaf1z IfcAnnotation PredefinedType-TEXTLEADER small" dy="0em" x="0" y="0">2 stk Y12 bunden</tspan>
  </text>
  <path class="GlobalId-3GRa4hLZv8Wx7IxosqYWvV IfcAnnotation PredefinedType-INSULATIONRIGID" d="M 235.77619791030884 101.1449169028889 L 235.77619791030884 86.14490801807155 L 100.16184821724892 86.14490801807155 L 100.16184821724892 101.1449169028889 L 235.77619791030884 101.1449169028889"/>
  <path class="GlobalId-3QjaPvx2X9TuSZ_VmYkGRS IfcAnnotation PredefinedType-TEXTLEADER small" d="M 55.80836236476898 70.63799310814251 L 69.98001039028168 84.42326063628902"/>
  <text dominant-baseline="baseline" style="font-size: 0;" text-anchor="end" transform="translate(55.80836486816406, 70.63799285888672) rotate(-8.537736462515939e-07)">
    <tspan class="GlobalId-3QjaPvx2X9TuSZ_VmYkGRS IfcAnnotation PredefinedType-TEXTLEADER small" dy="0em" x="0" y="0">C25 svindfri beton, 150x300 bjælke</tspan>
  </text>
  <use transform="rotate(-90.00000250447816, 859.16455078125, -179.11318969726562)" x="859.16455078125" xlink:href="#elevation-arrow" y="-179.11318969726562"/>
  <use x="859.16455078125" xlink:href="#elevation-tag" y="-179.11318969726562"/>
  <text class="ELEVATION" dominant-baseline="middle" text-anchor="middle" x="859.16455078125" y="-181.61318969726562">1</text>
  <text class="ELEVATION" dominant-baseline="middle" text-anchor="middle" x="859.16455078125" y="-176.61318969726562">V11_K09_H2_EX_S1_4</text>
  <line class="GlobalId-1wF9jp5HDA48snb$D3h2sk IfcAnnotation PredefinedType-ContT8" x1="101.61744689941406" x2="197.5376739501953" y1="82.53643798828125" y2="82.53643798828125"/>
  <line class="GlobalId-1wF9jp5HDA48snb$D3h2sk IfcAnnotation PredefinedType-ContT8" x1="76.99171447753906" x2="110.29025268554688" y1="80.44792175292969" y2="80.44792175292969"/>
  <text dominant-baseline="baseline" style="font-size: 0;" text-anchor="start" transform="translate(128.75930786132812, 109.17760467529297) rotate(-8.537736462515939e-07)">
    <tspan class="GlobalId-3dZnivCi1BRxyTu32Kxi$D IfcAnnotation PredefinedType-TEXT regular" dy="0em" x="0" y="0">Polystyren</tspan>
  </text>
  <text dominant-baseline="baseline" style="font-size: 0;" text-anchor="start" transform="translate(126.94755554199219, 123.1405029296875) rotate(-8.537736462515939e-07)">
    <tspan class="GlobalId-29RYryy4T4beIWYv7WQyBb IfcAnnotation PredefinedType-TEXT regular" dy="0em" x="0" y="0">Sandpude, middelkomprimering 98%</tspan>
  </text>
  <text dominant-baseline="baseline" style="font-size: 0;" text-anchor="start" transform="translate(75.13252258300781, 112.08843994140625) rotate(-8.537736462515939e-07)">
    <tspan class="GlobalId-1ep_ch4XHF08C8P7noNCJo IfcAnnotation PredefinedType-TEXT regular" dy="0em" x="0" y="0">Sundolit F-Sokkel</tspan>
  </text>
</svg>
