<svg xmlns="http://www.w3.org/2000/svg" xmlns:xlink="http://www.w3.org/1999/xlink" xmlns:ifc="http://www.ifcopenshell.org/ns" width="247.3mm" height="242.537mm" viewBox="0 0 247.3 242.537">
    <defs>
        <marker id="arrowend" markerWidth="10" markerHeight="7" refX="10" refY="3.5" orient="auto">
          <polygon points="0 0, 10 3.5, 0 7"/>
        </marker>
        <marker id="arrowstart" markerWidth="10" markerHeight="7" refX="0" refY="3.5" orient="auto">
          <polygon points="10 0, 0 3.5, 10 7"/>
        </marker>
    </defs>
    <g ifc:name="Elevation Fundamentsplan" class="section" ifc:plane="[[1.000000,0.000000,0.000000,0.000000],[0.000000,1.000000,0.000000,0.000000],[0.000000,0.000000,1.000000,0.000000],[0.000000,0.000000,0.000000,1.000000]]" ifc:matrix3="[[10.000000,0.000000,34.697685],[0.000000,10.000000,165.774572],[0.000000,0.000000,1.000000]]">
        <g id="product-256a069c-c609-41b3-b74e-eca59b8c5f29" class="IfcSlab material-concreteInsitu projection" ifc:name="Slab" ifc:guid="0bQWQSnWb1ixTExAMRZ5yf">
            <path d="M142.69,89.9564 L24.5162,89.9564"/>
            <path d="M142.69,216.75 L142.69,89.9564"/>
            <path d="M203.99,216.75 L142.69,216.75"/>
            <path d="M203.99,71.9514 L203.99,216.75"/>
            <path d="M216.745,71.9514 L203.99,71.9514"/>
            <path d="M216.745,28.6564 L216.745,71.9514"/>
            <path d="M24.5162,28.6564 L216.745,28.6564"/>
            <path d="M24.5162,89.9564 L24.5162,28.6564"/>
        </g>
        <g id="product-5ce7a8e9-4d2a-44cf-b3cb-0ca60ebea214" class="IfcWall material-concreteInsitu projection" ifc:name="Wall" ifc:guid="1SvwZfJIf4pxFB3AOElg8K">
            <path d="M204.49,72.4514 L205.99,73.9514"/>
            <path d="M204.49,217.25 L204.49,72.4514"/>
            <path d="M205.99,218.75 L204.49,217.25"/>
            <path d="M205.99,73.9514 L205.99,218.75"/>
        </g>
        <g id="product-19893e01-f95a-4bb7-9064-7977d707d6a4" class="IfcWall material-concreteInsitu projection" ifc:name="Wall" ifc:guid="0PYJu1_LfBjv1aUNVN1zQa">
            <path d="M205.99,73.9514 L204.49,72.4514"/>
            <path d="M218.745,73.9514 L205.99,73.9514"/>
            <path d="M217.245,72.4514 L218.745,73.9514"/>
            <path d="M204.49,72.4514 L217.245,72.4514"/>
        </g>
        <g id="product-3728f14e-f507-4aa9-8b21-ee74ad4dd28b" class="IfcWall material-concreteInsitu projection" ifc:name="Wall" ifc:guid="0tAF5EzGTAgOiXxdIjJTAB">
            <path d="M204.49,217.25 L205.99,218.75"/>
            <path d="M142.19,217.25 L204.49,217.25"/>
            <path d="M140.69,218.75 L142.19,217.25"/>
            <path d="M205.99,218.75 L140.69,218.75"/>
        </g>
        <g id="product-3e690443-792e-41cc-8cc0-f9f3a6fc5f2a" class="IfcWall material-concreteInsitu projection" ifc:name="Wall" ifc:guid="0_QGH3UIv1p8p0_VEc$5yg">
            <path d="M218.745,26.6564 L218.745,73.9514"/>
            <path d="M217.245,28.1564 L218.745,26.6564"/>
            <path d="M217.245,72.4514 L217.245,28.1564"/>
            <path d="M218.745,73.9514 L217.245,72.4514"/>
            <path d="M218.745,73.9514 L218.745,73.9514"/>
        </g>
        <g id="product-c2da64bf-8783-4ca5-af85-74e2ccbe15fc" class="IfcWall material-concreteInsitu projection" ifc:name="Wall" ifc:guid="32scI$XuDCfQ_5TEBClXNy">
            <path d="M24.0162,90.4564 L22.5162,91.9564"/>
            <path d="M24.0162,28.1564 L24.0162,90.4564"/>
            <path d="M22.5162,26.6564 L24.0162,28.1564"/>
            <path d="M22.5162,91.9564 L22.5162,26.6564"/>
        </g>
        <g id="product-c3c8797a-5dfd-4e15-b373-04e529d1c287" class="IfcWall material-concreteInsitu projection" ifc:name="Wall" ifc:guid="33o7bwNVrE5RDp1EKfqSA7">
            <path d="M24.0162,28.1564 L22.5162,26.6564"/>
            <path d="M217.245,28.1564 L24.0162,28.1564"/>
            <path d="M218.745,26.6564 L217.245,28.1564"/>
            <path d="M218.745,26.6564 L218.745,26.6564"/>
            <path d="M22.5162,26.6564 L218.745,26.6564"/>
        </g>
        <g id="product-d2378c24-66d2-408d-a96a-ee73847322e9" class="IfcWall material-concreteInsitu projection" ifc:name="Wall" ifc:guid="3IDumaPj90ZQbgxdE4SoBf">
            <path d="M142.19,217.25 L140.69,218.75"/>
            <path d="M142.19,90.4564 L142.19,217.25"/>
            <path d="M140.69,91.9564 L142.19,90.4564"/>
            <path d="M140.69,218.75 L140.69,91.9564"/>
        </g>
        <g id="product-e8a314fd-8eb5-46c6-b873-5c5577d36d28" class="IfcReinforcingBar material-null projection" ifc:name="ReinforcingBar" ifc:guid="3eenJzZhL6nhXpN5Ltqsqe">
            <path d="M40.9386,90.4564 L40.8252,89.9564"/>
            <path d="M40.8253,89.9564 L40.9387,90.4564"/>
            <path d="M40.9388,90.4564 L40.8254,89.9564"/>
            <path d="M40.8259,89.9564 L40.9394,90.4564"/>
            <path d="M40.9396,90.4564 L40.8263,89.9564"/>
            <path d="M40.8274,89.9564 L40.941,90.4564"/>
            <path d="M40.828,89.9564 L40.9413,90.4564"/>
            <path d="M40.8307,89.9564 L40.9442,90.4564"/>
            <path d="M40.9448,90.4564 L40.8317,89.9564"/>
            <path d="M40.8346,89.9564 L40.9484,90.4564"/>
            <path d="M40.9493,90.4564 L40.8361,89.9564"/>
            <path d="M40.8396,89.9564 L40.9537,90.4564"/>
            <path d="M40.9549,90.4564 L40.8416,89.9564"/>
            <path d="M40.8456,89.9564 L40.9599,90.4564"/>
            <path d="M40.9611,90.4564 L40.8478,89.9564"/>
            <path d="M40.8521,89.9564 L40.9665,90.4564"/>
            <path d="M40.9682,90.4564 L40.8552,89.9564"/>
            <path d="M40.8595,89.9564 L40.9737,90.4564"/>
            <path d="M40.8671,89.9564 L40.9808,90.4564"/>
            <path d="M40.863,89.9564 L40.9756,90.4564"/>
            <path d="M40.9826,90.4564 L40.8703,89.9564"/>
            <path d="M40.8768,89.9564 L40.9909,90.4564"/>
            <path d="M40.874,89.9564 L40.9873,90.4564"/>
            <path d="M40.8809,89.9564 L40.9945,90.4564"/>
            <path d="M40.8791,89.9564 L40.9923,90.4564"/>
            <path d="M40.9952,90.4564 L40.8822,89.9564"/>
            <path d="M40.8846,89.9564 L40.9983,90.4564"/>
            <path d="M40.8836,89.9564 L40.997,90.4564"/>
            <path d="M40.886,89.9564 L40.9996,90.4564"/>
            <path d="M40.8854,89.9564 L40.9988,90.4564"/>
            <path d="M40.9998,90.4564 L40.8864,89.9564"/>
            <path d="M40.8867,89.9564 L41.0001,90.4564"/>
            <path d="M40.8866,89.9564 L41,90.4564"/>
        </g>
        <g id="product-37a6d2b1-141c-40b8-9091-c53654dd73fb" class="IfcWall material-concreteInsitu projection" ifc:name="Wall" ifc:guid="0tfjAn51n0k92HnJPKtNFx">
            <path d="M142.19,90.4564 L140.69,91.9564"/>
            <path d="M24.0162,90.4564 L142.19,90.4564"/>
            <path d="M22.5162,91.9564 L24.0162,90.4564"/>
            <path d="M140.69,91.9564 L22.5162,91.9564"/>
        </g>
    <g class="0bQWQSnWb1ixTExAMRZ5yf material-concreteInsitu IfcSlab cut"><path d="M95.44942855834961,89.95638886291552 L142.69042015075684,89.95638886291552 L142.69042015075684,166.06313744384812 L142.69042015075684,216.74963513214158 L179.4853401184082,216.74963513214158 L203.99045944213867,216.74963513214158 L203.99045944213867,129.835510643311 L203.99045944213867,71.95137062866259 L211.64653778076172,71.95137062866259 L216.74543380737305,71.95137062866259 L216.74543380737305,45.963859947510244 L216.74543380737305,28.65639248687792 L101.3611888885498,28.65639248687792 L24.51618194580078,28.65639248687792 L24.51618194580078,65.45127907592821 L24.51618194580078,89.95638886291552 Z"/></g><g class="0PYJu1_LfBjv1aUNVN1zQa 33o7bwNVrE5RDp1EKfqSA7 cut 0_QGH3UIv1p8p0_VEc$5yg 1SvwZfJIf4pxFB3AOElg8K 0tfjAn51n0k92HnJPKtNFx 32scI$XuDCfQ_5TEBClXNy 3IDumaPj90ZQbgxdE4SoBf material-concreteInsitu 0tAF5EzGTAgOiXxdIjJTAB IfcWall"><path d="M205.79059600830078,73.75148812133837 L205.9904670715332,73.95136872131395 L217.04578399658203,73.95136872131395 L218.74542236328125,73.95136872131395 L218.74544143676758,32.95855084259081 L218.74544143676758,26.65638485748339 L218.09537887573242,27.30643788177538 L218.74542236328125,26.65638485748339 L48.66393566131592,26.65638485748339 L22.516183853149414,26.65638485748339 L22.516164779663086,83.25510063964892 L22.516164779663086,91.95639172393847 L38.26301574707031,91.95639172393847 L140.6904697418213,91.95639172393847 L140.80856627878507,91.83829432070068 L140.6904697418213,91.95639649231005 L140.69043159484863,201.85356655914353 L140.69043159484863,218.74966183502244 L197.2887420654297,218.74966183502244 L205.99042892456055,218.74966183502244 L205.9904670715332,93.24609795410204 L205.9904670715332,73.95137825805712 L205.05710243116042,73.01799992455699 Z M217.89548873901367,73.10143509704638 L218.54555130004883,73.75148812133837 L218.74542236328125,73.95136872131395 Z M23.366103172302246,91.1064533312993 L22.716045379638672,91.75651589233446 L22.516164779663086,91.95639172393847 Z M205.05706428418776,217.8162835015223 L205.79055786132812,218.5497716983037 L205.99042892456055,218.74966183502244 Z M217.24542617797852,72.45137253601122 L206.1901092529297,72.45137253601122 L204.49047088623047,72.45137253601122 L204.4904327392578,197.95493164856003 L204.4904327392578,217.24965611297654 L150.49233436584473,217.24965611297654 L142.19042778015137,217.24965611297654 L141.99054718017578,217.44953671295212 L142.19042778015137,217.24964657623337 L142.19046592712402,107.35248604614306 L142.19046592712402,90.45639077026415 L141.34052753448486,91.30632916290331 L141.99058532714844,90.65626660186815 L142.19045639038086,90.45639077026415 L39.76301193237305,90.45639077026415 L24.01616096496582,90.45639077026415 L24.01618003845215,36.45792523223925 L24.01618003845215,28.156381042786123 L49.76418495178223,28.156381042786123 L217.24544525146484,28.156381042786123 L217.24542617797852,66.5489582141118 Z"/></g></g>
</svg>