<svg xmlns="http://www.w3.org/2000/svg" xmlns:xlink="http://www.w3.org/1999/xlink" xmlns:ifc="http://www.ifcopenshell.org/ns" width="137.688mm" height="72.7817mm" viewBox="0 0 137.688 72.7817">
    <defs>
        <marker id="arrowend" markerWidth="10" markerHeight="7" refX="10" refY="3.5" orient="auto">
          <polygon points="0 0, 10 3.5, 0 7"/>
        </marker>
        <marker id="arrowstart" markerWidth="10" markerHeight="7" refX="0" refY="3.5" orient="auto">
          <polygon points="10 0, 0 3.5, 10 7"/>
        </marker>
    </defs>
    <g ifc:name="Elevation Fundament ortografi" class="section" ifc:plane="[[1.000000,0.000000,0.000000,0.000000],[0.000000,1.000000,0.000000,0.000000],[0.000000,0.000000,1.000000,0.000000],[0.000000,0.000000,0.000000,1.000000]]" ifc:matrix3="[[5.000000,0.000000,57.069965],[0.000000,5.000000,84.784096],[0.000000,0.000000,1.000000]]">
        <g id="product-d2378c24-66d2-408d-a96a-ee73847322e9" class="IfcWall material-concreteInsitu projection" ifc:name="Wall" ifc:guid="3IDumaPj90ZQbgxdE4SoBf">
            <path d="M68.4454,38.2934 L68.4454,37.5434"/>
            <path d="M68.4454,37.5434 L113.274,69.2417"/>
            <path d="M113.274,69.2417 L113.274,69.9917"/>
            <path d="M113.274,71.0524 L113.274,69.9917"/>
            <path d="M113.274,69.9917 L68.4454,38.2934"/>
            <path d="M68.4454,38.2934 L68.4454,38.2934"/>
            <path d="M68.4454,38.2934 L68.4454,39.3541"/>
            <path d="M113.274,71.0524 L68.4454,39.3541"/>
        </g>
    <g id="product-37a6d2b1-141c-40b8-9091-c53654dd73fb" class="IfcWall material-concreteInsitu projection" ifc:name="Wall" ifc:guid="0tfjAn51n0k92HnJPKtNFx">
            <path d="M26.6645,67.837 L26.6645,67.087"/>
            <path d="M26.6645,67.087 L68.4454,37.5434"/>
            <path d="M68.4454,37.5434 L68.4454,38.2934"/>
            <path d="M68.4454,38.2934 L68.4454,38.2934"/>
            <path d="M68.4454,39.3541 L68.4454,38.2934"/>
            <path d="M68.4454,38.2934 L26.6645,67.837"/>
            <path d="M26.6645,68.8976 L26.6645,67.837"/>
            <path d="M68.4454,39.3541 L26.6645,68.8976"/>
        </g>
        <g id="product-256a069c-c609-41b3-b74e-eca59b8c5f29" class="IfcSlab material-concreteInsitu projection" ifc:name="Slab" ifc:guid="0bQWQSnWb1ixTExAMRZ5yf">
            <path d="M83.7525,17.4671 L134.946,53.6667"/>
            <path d="M72.955,3.45465 L88.2621,14.2784"/>
            <path d="M4.99166,51.512 L72.955,3.45465"/>
            <path d="M68.4454,37.2934 L26.6645,66.837"/>
            <path d="M113.274,68.9917 L68.4454,37.2934"/>
            <path d="M68.4454,37.647 L68.4454,37.647"/>
            <path d="M68.4454,37.5434 L68.4454,37.2934"/>
            <path d="M134.946,53.6667 L113.274,68.9917"/>
            <path d="M113.274,69.3453 L113.274,69.3453"/>
            <path d="M113.274,69.2417 L113.274,68.9917"/>
            <path d="M134.946,53.9167 L134.946,53.6667"/>
            <path d="M88.2621,14.2784 L83.7525,17.4671"/>
            <path d="M84.106,17.5707 L84.0025,17.6439"/>
            <path d="M88.2621,14.5284 L88.2621,14.2784"/>
            <path d="M26.6645,66.837 L4.99166,51.512"/>
            <path d="M26.6645,67.1905 L26.6645,67.1905"/>
            <path d="M4.99166,51.762 L4.99166,51.512"/>
            <path d="M26.6645,67.087 L26.6645,66.837"/>
        </g>
        <g id="product-5ce7a8e9-4d2a-44cf-b3cb-0ca60ebea214" class="IfcWall material-concreteInsitu projection" ifc:name="Wall" ifc:guid="1SvwZfJIf4pxFB3AOElg8K">
            <path d="M84.106,17.7171 L84.106,17.4671"/>
            <path d="M135.3,53.6667 L84.106,17.4671"/>
            <path d="M84.106,17.4671 L85.1667,17.4671"/>
            <path d="M85.1667,17.4671 L136.361,53.6667"/>
            <path d="M136.361,54.7274 L136.361,53.6667"/>
            <path d="M136.361,54.7274 L136.361,54.7274"/>
        </g>
        <g id="product-19893e01-f95a-4bb7-9064-7977d707d6a4" class="IfcWall material-concreteInsitu projection" ifc:name="Wall" ifc:guid="0PYJu1_LfBjv1aUNVN1zQa">
            <path d="M89.6763,15.3391 L89.6763,14.2784"/>
            <path d="M89.6763,15.3391 L85.9167,17.9975"/>
            <path d="M84.106,17.7171 L84.106,17.4671"/>
            <path d="M84.106,17.4671 L88.6156,14.2784"/>
            <path d="M88.6156,14.2784 L89.6763,14.2784"/>
            <path d="M89.6763,14.2784 L85.1667,17.4671"/>
            <path d="M85.1667,17.4671 L84.106,17.4671"/>
        </g>
        <g id="product-3e690443-792e-41cc-8cc0-f9f3a6fc5f2a" class="IfcWall material-concreteInsitu projection" ifc:name="Wall" ifc:guid="0_QGH3UIv1p8p0_VEc$5yg">
            <path d="M72.955,3.20465 L72.955,3.20465"/>
            <path d="M72.955,3.20465 L72.955,3.45466"/>
            <path d="M88.6156,14.2784 L72.955,3.20465"/>
            <path d="M72.955,3.20465 L72.955,2.45465"/>
            <path d="M72.955,2.45465 L89.6763,14.2784"/>
            <path d="M89.6763,15.3391 L89.6763,14.2784"/>
            <path d="M89.6763,14.2784 L88.6156,14.2784"/>
        </g>
        <g id="product-c2da64bf-8783-4ca5-af85-74e2ccbe15fc" class="IfcWall material-concreteInsitu projection" ifc:name="Wall" ifc:guid="32scI$XuDCfQ_5TEBClXNy">
            <path d="M3.57745,51.512 L4.6381,51.512"/>
            <path d="M4.6381,51.512 L26.6645,67.087"/>
            <path d="M26.6645,67.087 L26.6645,67.837"/>
            <path d="M26.6645,68.8976 L3.57745,52.5726"/>
            <path d="M3.57745,52.5726 L3.57745,51.512"/>
            <path d="M26.6645,67.837 L3.57745,51.512"/>
            <path d="M26.6645,68.8976 L26.6645,67.837"/>
        </g>
        <g id="product-3728f14e-f507-4aa9-8b21-ee74ad4dd28b" class="IfcWall material-concreteInsitu projection" ifc:name="Wall" ifc:guid="0tAF5EzGTAgOiXxdIjJTAB">
            <path d="M113.274,69.9917 L113.274,69.2417"/>
            <path d="M113.274,69.2417 L135.3,53.6667"/>
            <path d="M135.3,53.6667 L136.361,53.6667"/>
            <path d="M136.361,54.7274 L113.274,71.0524"/>
            <path d="M113.274,71.0524 L113.274,69.9917"/>
            <path d="M136.361,53.6667 L113.274,69.9917"/>
            <path d="M136.361,54.7274 L136.361,53.6667"/>
        </g>
        <g id="product-c3c8797a-5dfd-4e15-b373-04e529d1c287" class="IfcWall material-concreteInsitu projection" ifc:name="Wall" ifc:guid="33o7bwNVrE5RDp1EKfqSA7">
            <path d="M3.57744,51.512 L72.955,2.45466"/>
            <path d="M72.955,2.45466 L72.955,2.7015"/>
            <path d="M72.955,3.20465 L4.6381,51.512"/>
            <path d="M4.6381,51.512 L3.57744,51.512"/>
            <path d="M3.57744,52.5726 L3.57744,51.512"/>
        </g>
        </g>
</svg>