<svg xmlns="http://www.w3.org/2000/svg" xmlns:xlink="http://www.w3.org/1999/xlink" xmlns:ifc="http://www.ifcopenshell.org/ns" width="161.588mm" height="127.035mm" viewBox="0 0 161.588 127.035">
    <defs>
        <marker id="arrowend" markerWidth="10" markerHeight="7" refX="10" refY="3.5" orient="auto">
          <polygon points="0 0, 10 3.5, 0 7"/>
        </marker>
        <marker id="arrowstart" markerWidth="10" markerHeight="7" refX="0" refY="3.5" orient="auto">
          <polygon points="10 0, 0 3.5, 10 7"/>
        </marker>
    </defs>
    <g ifc:name="Elevation Fundament ortografi" class="section" ifc:plane="[[1.000000,0.000000,0.000000,0.000000],[0.000000,1.000000,0.000000,0.000000],[0.000000,0.000000,1.000000,0.000000],[0.000000,0.000000,0.000000,1.000000]]" ifc:matrix3="[[5.000000,0.000000,65.103548],[0.000000,5.000000,95.699092],[0.000000,0.000000,1.000000]]">
        <g id="product-d2378c24-66d2-408d-a96a-ee73847322e9" class="IfcWall material-concreteInsitu projection" ifc:name="Wall" ifc:guid="3IDumaPj90ZQbgxdE4SoBf">
            <path d="M76.479,49.2084 L76.479,48.4584"/>
            <path d="M76.479,48.4584 L121.307,80.1567"/>
            <path d="M121.307,80.1567 L121.307,80.9067"/>
            <path d="M121.307,81.9674 L121.307,80.9067"/>
            <path d="M121.307,80.9067 L76.479,49.2084"/>
            <path d="M76.479,49.2084 L76.479,49.2084"/>
            <path d="M76.479,49.2084 L76.479,50.269"/>
            <path d="M121.307,81.9674 L76.479,50.269"/>
        </g>
    <g id="product-37a6d2b1-141c-40b8-9091-c53654dd73fb" class="IfcWall material-concreteInsitu projection" ifc:name="Wall" ifc:guid="0tfjAn51n0k92HnJPKtNFx">
            <path d="M34.6981,78.752 L34.6981,78.002"/>
            <path d="M34.6981,78.002 L76.479,48.4584"/>
            <path d="M76.479,48.4584 L76.479,49.2084"/>
            <path d="M76.479,49.2084 L76.479,49.2084"/>
            <path d="M76.479,50.2691 L76.479,49.2084"/>
            <path d="M76.479,49.2084 L34.6981,78.752"/>
            <path d="M34.6981,79.8126 L34.6981,78.752"/>
            <path d="M76.479,50.2691 L34.6981,79.8126"/>
        </g>
        <g id="product-256a069c-c609-41b3-b74e-eca59b8c5f29" class="IfcSlab material-concreteInsitu projection" ifc:name="Slab" ifc:guid="0bQWQSnWb1ixTExAMRZ5yf">
            <path d="M91.7861,28.3821 L142.98,64.5817"/>
            <path d="M80.9885,14.3697 L96.2956,25.1934"/>
            <path d="M13.0252,62.427 L80.9885,14.3697"/>
            <path d="M76.479,48.2084 L34.6981,77.752"/>
            <path d="M121.307,79.9067 L76.479,48.2084"/>
            <path d="M76.479,48.562 L76.479,48.562"/>
            <path d="M76.479,48.4584 L76.479,48.2084"/>
            <path d="M142.98,64.5817 L121.307,79.9067"/>
            <path d="M121.307,80.2603 L121.307,80.2603"/>
            <path d="M121.307,80.1567 L121.307,79.9067"/>
            <path d="M142.98,64.8317 L142.98,64.5817"/>
            <path d="M96.2956,25.1934 L91.7861,28.3821"/>
            <path d="M92.1396,28.4857 L92.0361,28.5589"/>
            <path d="M96.2956,25.4434 L96.2956,25.1934"/>
            <path d="M34.6981,77.752 L13.0252,62.427"/>
            <path d="M34.6981,78.1055 L34.6981,78.1055"/>
            <path d="M13.0252,62.677 L13.0252,62.427"/>
            <path d="M34.6981,78.002 L34.6981,77.752"/>
        </g>
        <g id="product-5ce7a8e9-4d2a-44cf-b3cb-0ca60ebea214" class="IfcWall material-concreteInsitu projection" ifc:name="Wall" ifc:guid="1SvwZfJIf4pxFB3AOElg8K">
            <path d="M92.1396,28.6321 L92.1396,28.3821"/>
            <path d="M143.334,64.5817 L92.1396,28.3821"/>
            <path d="M92.1396,28.3821 L93.2003,28.3821"/>
            <path d="M93.2003,28.3821 L144.394,64.5817"/>
            <path d="M144.394,65.6424 L144.394,64.5817"/>
            <path d="M144.394,65.6424 L144.394,65.6424"/>
        </g>
        <g id="product-19893e01-f95a-4bb7-9064-7977d707d6a4" class="IfcWall material-concreteInsitu projection" ifc:name="Wall" ifc:guid="0PYJu1_LfBjv1aUNVN1zQa">
            <path d="M97.7098,26.2541 L97.7098,25.1934"/>
            <path d="M97.7098,26.2541 L93.9503,28.9125"/>
            <path d="M92.1396,28.6321 L92.1396,28.3821"/>
            <path d="M92.1396,28.3821 L96.6492,25.1934"/>
            <path d="M96.6492,25.1934 L97.7098,25.1934"/>
            <path d="M97.7098,25.1934 L93.2003,28.3821"/>
            <path d="M93.2003,28.3821 L92.1396,28.3821"/>
        </g>
        <g id="product-3e690443-792e-41cc-8cc0-f9f3a6fc5f2a" class="IfcWall material-concreteInsitu projection" ifc:name="Wall" ifc:guid="0_QGH3UIv1p8p0_VEc$5yg">
            <path d="M80.9885,14.1196 L80.9885,14.1196"/>
            <path d="M80.9885,14.1196 L80.9885,14.3697"/>
            <path d="M96.6492,25.1934 L80.9885,14.1196"/>
            <path d="M80.9885,14.1196 L80.9885,13.3696"/>
            <path d="M80.9885,13.3696 L97.7098,25.1934"/>
            <path d="M97.7098,26.2541 L97.7098,25.1934"/>
            <path d="M97.7098,25.1934 L96.6492,25.1934"/>
        </g>
        <g id="product-c2da64bf-8783-4ca5-af85-74e2ccbe15fc" class="IfcWall material-concreteInsitu projection" ifc:name="Wall" ifc:guid="32scI$XuDCfQ_5TEBClXNy">
            <path d="M11.611,62.427 L12.6717,62.427"/>
            <path d="M12.6717,62.427 L34.6981,78.002"/>
            <path d="M34.6981,78.002 L34.6981,78.752"/>
            <path d="M34.6981,79.8126 L11.611,63.4876"/>
            <path d="M11.611,63.4876 L11.611,62.427"/>
            <path d="M34.6981,78.752 L11.611,62.427"/>
            <path d="M34.6981,79.8126 L34.6981,78.752"/>
        </g>
        <g id="product-3728f14e-f507-4aa9-8b21-ee74ad4dd28b" class="IfcWall material-concreteInsitu projection" ifc:name="Wall" ifc:guid="0tAF5EzGTAgOiXxdIjJTAB">
            <path d="M121.307,80.9067 L121.307,80.1567"/>
            <path d="M121.307,80.1567 L143.334,64.5817"/>
            <path d="M143.334,64.5817 L144.394,64.5817"/>
            <path d="M144.394,65.6424 L121.307,81.9674"/>
            <path d="M121.307,81.9674 L121.307,80.9067"/>
            <path d="M144.394,64.5817 L121.307,80.9067"/>
            <path d="M144.394,65.6424 L144.394,64.5817"/>
        </g>
        <g id="product-c3c8797a-5dfd-4e15-b373-04e529d1c287" class="IfcWall material-concreteInsitu projection" ifc:name="Wall" ifc:guid="33o7bwNVrE5RDp1EKfqSA7">
            <path d="M11.611,62.427 L80.9885,13.3697"/>
            <path d="M80.9885,13.3697 L80.9885,13.6165"/>
            <path d="M80.9885,14.1196 L12.6717,62.427"/>
            <path d="M12.6717,62.427 L11.611,62.427"/>
            <path d="M11.611,63.4876 L11.611,62.427"/>
        </g>
        </g>
</svg>