<svg xmlns="http://www.w3.org/2000/svg" xmlns:xlink="http://www.w3.org/1999/xlink" xmlns:ifc="http://www.ifcopenshell.org/ns" width="194mm" height="171.955mm" viewBox="0 0 194 171.955">
    <defs>
        <marker id="arrowend" markerWidth="10" markerHeight="7" refX="10" refY="3.5" orient="auto">
          <polygon points="0 0, 10 3.5, 0 7"/>
        </marker>
        <marker id="arrowstart" markerWidth="10" markerHeight="7" refX="0" refY="3.5" orient="auto">
          <polygon points="10 0, 0 3.5, 10 7"/>
        </marker>
    </defs>
    <g ifc:name="Elevation kip detalje" class="section" ifc:plane="[[1.000000,0.000000,0.000000,0.000000],[0.000000,1.000000,0.000000,0.000000],[0.000000,0.000000,1.000000,0.000000],[0.000000,0.000000,0.000000,1.000000]]" ifc:matrix3="[[100.000001,0.000000,-972.732531],[0.000000,100.000001,710.748360],[0.000000,0.000000,1.000000]]">
        <g id="product-faa34cab-d17c-48c6-a599-9b99c34b8ef7" class="IfcMember material-wood projection" ifc:name="I-profil 45x400, normal sp&#230;r byg 1" ifc:guid="3weqohqNn8ngMPcvd3Iuxt">
            <path d="M-38.1618,211.458 L-38.1618,211.458"/>
            <path d="M-234.585,387.248 L-234.585,387.248"/>
            <path d="M-220.599,387.248 L-220.599,387.248"/>
            <path d="M-213.952,387.248 L-213.952,387.248"/>
            <path d="M-38.1618,211.458 L-38.1618,211.458"/>
            <path d="M-213.952,387.248 L-213.952,387.248"/>
            <path d="M418.415,357.891 L418.415,357.891"/>
            <path d="M418.415,357.891 L418.415,357.891"/>
            <path d="M418.415,351.244 L418.415,351.244"/>
            <path d="M418.415,387.248 L418.415,387.248"/>
            <path d="M418.415,387.248 L418.415,387.248"/>
            <path d="M404.498,387.248 L404.498,387.248"/>
            <path d="M404.498,387.248 L404.498,387.248"/>
            <path d="M399.007,387.248 L399.007,387.248"/>
            <path d="M397.851,387.248 L397.851,387.248"/>
        </g>
        <g id="product-1b42096a-2984-49fd-9b0e-a1655e98b6ae" class="IfcMember material-wood projection" ifc:name="I-profil 45x400, normal sp&#230;r byg 1.012" ifc:guid="0RGWbgAOH9$PiEeMLUcBQk">
            <path d="M-63.1228,186.497 L-63.1228,186.497"/>
            <path d="M-66.4461,183.174 L-66.4461,183.174"/>
            <path d="M91.9493,31.0392 L91.9493,31.0392"/>
            <path d="M-41.4853,208.134 L-41.4853,208.134"/>
            <path d="M-38.1619,211.458 L-38.1619,211.458"/>
            <path d="M-234.585,351.312 L-234.585,351.312"/>
            <path d="M-234.585,357.959 L-234.585,357.959"/>
            <path d="M-234.585,357.959 L-234.585,357.959"/>
            <path d="M-63.1228,186.497 L-63.1228,186.497"/>
            <path d="M-41.4853,208.134 L-41.4853,208.134"/>
            <path d="M-234.585,387.248 L-234.585,387.248"/>
            <path d="M-220.599,387.248 L-220.599,387.248"/>
            <path d="M-213.952,387.248 L-213.952,387.248"/>
            <path d="M-220.599,387.248 L-220.599,387.248"/>
            <path d="M-38.1619,211.458 L-38.1619,211.458"/>
            <path d="M-213.952,387.248 L-213.952,387.248"/>
            <path d="M418.415,357.891 L418.415,357.891"/>
            <path d="M418.415,357.891 L418.415,357.891"/>
            <path d="M418.415,351.244 L418.415,351.244"/>
            <path d="M418.415,387.248 L418.415,387.248"/>
            <path d="M418.415,387.248 L418.415,387.248"/>
            <path d="M404.498,387.248 L404.498,387.248"/>
            <path d="M404.498,387.248 L399.007,387.248"/>
            <path d="M399.007,387.248 L397.851,387.248"/>
            <path d="M397.851,387.248 L397.851,387.248"/>
            <path d="M91.9493,31.4249 L91.9493,31.4249"/>
            <path d="M291.581,231.057 L291.581,231.057"/>
            <path d="M266.62,256.017 L266.62,256.017"/>
            <path d="M266.62,256.017 L266.62,256.017"/>
            <path d="M98.9493,88.3466 L98.9493,88.3466"/>
            <path d="M269.944,252.694 L269.944,252.694"/>
            <path d="M269.944,252.694 L269.944,252.694"/>
            <path d="M98.9493,56.3467 L98.9493,56.3467"/>
            <path d="M98.9493,81.6998 L98.9493,81.6998"/>
        </g>
        <g id="product-fa83a69c-0ba2-4d20-970f-336393f33e39" class="IfcMember material-wood projection" ifc:name="I-profil 45x400, normal sp&#230;r byg 1.002" ifc:guid="3wWwQS2w9D89SFCsEJypuv">
            <path d="M-38.1618,211.458 L-38.1618,211.458"/>
            <path d="M-234.585,387.248 L-234.585,387.248"/>
            <path d="M-220.599,387.248 L-220.599,387.248"/>
            <path d="M-213.952,387.248 L-213.952,387.248"/>
            <path d="M-220.599,387.248 L-220.599,387.248"/>
            <path d="M-38.1618,211.458 L-38.1618,211.458"/>
            <path d="M-213.952,387.248 L-213.952,387.248"/>
            <path d="M418.415,357.891 L418.415,357.891"/>
            <path d="M418.415,357.891 L418.415,357.891"/>
            <path d="M418.415,351.244 L418.415,351.244"/>
            <path d="M418.415,387.248 L418.415,387.248"/>
            <path d="M418.415,387.248 L418.415,387.248"/>
            <path d="M404.498,387.248 L404.498,387.248"/>
            <path d="M397.851,387.248 L397.851,387.248"/>
        </g>
        <g id="product-0446e43f-922c-4a0d-8683-24096ddd986f" class="IfcMember material-wood projection" ifc:name="I-profil 45x400, normal sp&#230;r byg 1.001" ifc:guid="04HkG$aYnA3OQ390bjtPXl">
            <path d="M-38.1618,211.458 L-38.1618,211.458"/>
            <path d="M-234.585,387.248 L-234.585,387.248"/>
            <path d="M-220.599,387.248 L-220.599,387.248"/>
            <path d="M-213.952,387.248 L-213.952,387.248"/>
            <path d="M-220.599,387.248 L-220.599,387.248"/>
            <path d="M-38.1618,211.458 L-38.1618,211.458"/>
            <path d="M-213.952,387.248 L-213.952,387.248"/>
            <path d="M418.415,357.891 L418.415,357.891"/>
            <path d="M418.415,357.891 L418.415,357.891"/>
            <path d="M418.415,351.244 L418.415,351.244"/>
            <path d="M418.415,387.248 L418.415,387.248"/>
            <path d="M418.415,387.248 L418.415,387.248"/>
            <path d="M404.498,387.248 L404.498,387.248"/>
            <path d="M404.498,387.248 L404.498,387.248"/>
            <path d="M399.007,387.248 L399.007,387.248"/>
            <path d="M397.851,387.248 L397.851,387.248"/>
        </g>
        <g id="product-24322de5-0d5d-4e66-8358-7a7a88e96fcd" class="IfcMember material-wood projection" ifc:name="I-profil 45x400, normal sp&#230;r byg 1.010" ifc:guid="0aCYtb3LrEPeDOUdg8wM$D">
            <path d="M-38.1618,211.458 L-38.1619,211.458"/>
            <path d="M-234.585,387.248 L-234.585,387.248"/>
            <path d="M-220.599,387.248 L-220.599,387.248"/>
            <path d="M-213.952,387.248 L-213.952,387.248"/>
            <path d="M-220.599,387.248 L-220.599,387.248"/>
            <path d="M-38.1619,211.458 L-38.1619,211.458"/>
            <path d="M-213.952,387.248 L-213.952,387.248"/>
            <path d="M418.415,357.891 L418.415,357.891"/>
            <path d="M418.415,357.891 L418.415,357.891"/>
            <path d="M418.415,351.244 L418.415,351.244"/>
            <path d="M418.415,387.248 L418.415,387.248"/>
            <path d="M418.415,387.248 L418.415,387.248"/>
            <path d="M404.498,387.248 L404.498,387.248"/>
            <path d="M397.851,387.248 L397.851,387.248"/>
        </g>
        <g id="product-b260cbe5-6dfb-43bb-b322-1e4be865af0b" class="IfcMember material-wood projection" ifc:name="I-profil 45x400, normal sp&#230;r byg 1.006" ifc:guid="2oOClbRVj3kxCY7alePQyB">
            <path d="M-38.1618,211.458 L-38.1618,211.458"/>
            <path d="M-234.585,387.248 L-234.585,387.248"/>
            <path d="M-220.599,387.248 L-220.599,387.248"/>
            <path d="M-213.952,387.248 L-213.952,387.248"/>
            <path d="M-220.599,387.248 L-220.599,387.248"/>
            <path d="M-38.1618,211.458 L-38.1618,211.458"/>
            <path d="M-213.952,387.248 L-213.952,387.248"/>
            <path d="M418.415,357.891 L418.415,357.891"/>
            <path d="M418.415,357.891 L418.415,357.891"/>
            <path d="M418.415,351.244 L418.415,351.244"/>
            <path d="M418.415,387.248 L418.415,387.248"/>
            <path d="M418.415,387.248 L418.415,387.248"/>
            <path d="M404.498,387.248 L404.498,387.248"/>
            <path d="M404.498,387.248 L404.498,387.248"/>
            <path d="M399.007,387.248 L399.007,387.248"/>
            <path d="M397.851,387.248 L397.851,387.248"/>
        </g>
        <g id="product-467152f2-e003-4d1e-bcec-12220c6087d0" class="IfcMember material-wood projection" ifc:name="I-profil 45x400, normal sp&#230;r byg 1.013" ifc:guid="16SLBou0DD7hpi4Y8CO8VG">
            <path d="M91.9493,31.4249 L-63.1228,186.497"/>
            <path d="M91.9493,24.7781 L-66.4461,183.174"/>
            <path d="M91.9493,24.7781 L91.9493,31.0392"/>
            <path d="M91.9493,31.4249 L91.9493,31.0392"/>
            <path d="M84.9493,56.3467 L84.9493,56.6966"/>
            <path d="M91.9493,56.3467 L84.9493,56.3467"/>
            <path d="M91.9493,31.4249 L91.9493,56.3467"/>
            <path d="M84.9493,81.6998 L-41.4853,208.134"/>
            <path d="M84.9493,88.3467 L-38.1619,211.458"/>
            <path d="M-234.585,351.312 L-66.4461,183.174"/>
            <path d="M-234.585,357.959 L-234.585,351.312"/>
            <path d="M-234.585,357.959 L-63.1228,186.497"/>
            <path d="M-66.4461,183.174 L-63.1228,186.497"/>
            <path d="M-63.1228,186.497 L-41.4853,208.134"/>
            <path d="M-234.585,387.248 L-234.585,357.959"/>
            <path d="M-234.585,387.248 L-220.599,387.248"/>
            <path d="M-220.599,387.248 L-213.952,387.248"/>
            <path d="M-220.599,387.248 L-41.4853,208.134"/>
            <path d="M-41.4853,208.134 L-38.1619,211.458"/>
            <path d="M-38.1619,211.458 L-213.952,387.248"/>
            <path d="M418.415,357.891 L291.581,231.057"/>
            <path d="M418.415,351.244 L418.415,357.891"/>
            <path d="M418.415,351.244 L294.904,227.733"/>
            <path d="M418.415,357.891 L418.415,387.248"/>
            <path d="M418.415,387.248 L404.498,387.248"/>
            <path d="M404.498,387.248 L269.944,252.694"/>
            <path d="M404.498,387.248 L397.851,387.248"/>
            <path d="M397.851,387.248 L266.62,256.017"/>
            <path d="M91.9493,31.4249 L291.581,231.057"/>
            <path d="M91.9494,24.7782 L91.9493,31.4249"/>
            <path d="M91.9494,24.7782 L294.904,227.733"/>
            <path d="M294.904,227.733 L291.581,231.057"/>
            <path d="M269.944,252.694 L266.62,256.017"/>
            <path d="M98.9493,88.3466 L266.62,256.017"/>
            <path d="M98.9493,81.6998 L98.9493,88.3466"/>
            <path d="M269.944,252.694 L98.9493,81.6998"/>
            <path d="M291.581,231.057 L269.944,252.694"/>
            <path d="M91.9493,31.4249 L91.9493,56.3467"/>
            <path d="M98.9493,56.3467 L91.9493,56.3467"/>
            <path d="M98.9493,56.6966 L98.9493,56.3467"/>
        </g>
        <g id="product-acd3a20e-2cb5-44bd-9e20-4e00074a60ec" class="IfcMember material-wood projection" ifc:name="I-profil 45x400, normal sp&#230;r byg 1.003" ifc:guid="2iqw8EBBL4lPuWJW07Ic3i">
            <path d="M-38.1618,211.458 L-38.1618,211.458"/>
            <path d="M-234.585,387.248 L-234.585,387.248"/>
            <path d="M-220.599,387.248 L-220.599,387.248"/>
            <path d="M-213.952,387.248 L-213.952,387.248"/>
            <path d="M-220.599,387.248 L-220.599,387.248"/>
            <path d="M-38.1618,211.458 L-38.1618,211.458"/>
            <path d="M-213.952,387.248 L-213.952,387.248"/>
            <path d="M418.415,357.891 L418.415,357.891"/>
            <path d="M418.415,357.891 L418.415,357.891"/>
            <path d="M418.415,351.244 L418.415,351.244"/>
            <path d="M418.415,387.248 L418.415,387.248"/>
            <path d="M418.415,387.248 L418.415,387.248"/>
            <path d="M404.498,387.248 L404.498,387.248"/>
            <path d="M404.498,387.248 L404.498,387.248"/>
            <path d="M399.007,387.248 L399.007,387.248"/>
            <path d="M397.851,387.248 L397.851,387.248"/>
        </g>
        <g id="product-c37b0981-0655-486b-a18a-94eaade273bd" class="IfcMember material-wood projection" ifc:name="I-profil 45x400, normal sp&#230;r byg 1.005" ifc:guid="33Umc11bL8Qw6AbEgjudEz">
            <path d="M-38.1618,211.458 L-38.1618,211.458"/>
            <path d="M-234.585,387.248 L-234.585,387.248"/>
            <path d="M-220.599,387.248 L-220.599,387.248"/>
            <path d="M-213.952,387.248 L-213.952,387.248"/>
            <path d="M-220.599,387.248 L-220.599,387.248"/>
            <path d="M-38.1618,211.458 L-38.1618,211.458"/>
            <path d="M-213.952,387.248 L-213.952,387.248"/>
            <path d="M418.415,357.891 L418.415,357.891"/>
            <path d="M418.415,357.891 L418.415,357.891"/>
            <path d="M418.415,351.244 L418.415,351.244"/>
            <path d="M418.415,387.248 L418.415,387.248"/>
            <path d="M418.415,387.248 L418.415,387.248"/>
            <path d="M404.498,387.248 L404.498,387.248"/>
            <path d="M404.498,387.248 L404.498,387.248"/>
            <path d="M399.007,387.248 L399.007,387.248"/>
            <path d="M397.851,387.248 L397.851,387.248"/>
        </g>
        <g id="product-fafad91e-6107-40d0-ba5c-6efd3d54343f" class="IfcMember material-wood projection" ifc:name="I-profil 45x400, normal sp&#230;r byg 1.004" ifc:guid="3w_jaUOGT0qBfSRlqzL3G$">
            <path d="M-38.1618,211.458 L-38.1618,211.458"/>
            <path d="M-234.585,387.248 L-234.585,387.248"/>
            <path d="M-220.599,387.248 L-220.599,387.248"/>
            <path d="M-213.952,387.248 L-213.952,387.248"/>
            <path d="M-220.599,387.248 L-220.599,387.248"/>
            <path d="M-38.1618,211.458 L-38.1618,211.458"/>
            <path d="M-213.952,387.248 L-213.952,387.248"/>
            <path d="M418.415,357.891 L418.415,357.891"/>
            <path d="M418.415,357.891 L418.415,357.891"/>
            <path d="M418.415,351.244 L418.415,351.244"/>
            <path d="M418.415,387.248 L418.415,387.248"/>
            <path d="M418.415,387.248 L418.415,387.248"/>
            <path d="M404.498,387.248 L404.498,387.248"/>
            <path d="M404.498,387.248 L404.498,387.248"/>
            <path d="M399.007,387.248 L399.007,387.248"/>
            <path d="M397.851,387.248 L397.851,387.248"/>
        </g>
        <g id="product-b22fa1ed-787b-49c4-8ce7-898bf9a6a256" class="IfcMember material-wood projection" ifc:name="I-profil 45x400, normal sp&#230;r byg 1.011" ifc:guid="2oBw7jU7j9n8pdYOlvfg9M">
            <path d="M-63.1228,186.497 L-63.1228,186.497"/>
            <path d="M-66.4461,183.174 L-66.4461,183.174"/>
            <path d="M-41.4853,208.134 L-41.4853,208.134"/>
            <path d="M-38.1619,211.458 L-38.1619,211.458"/>
            <path d="M-234.585,351.312 L-234.585,351.312"/>
            <path d="M-234.585,357.959 L-234.585,357.959"/>
            <path d="M-234.585,357.959 L-234.585,357.959"/>
            <path d="M-63.1228,186.497 L-63.1228,186.497"/>
            <path d="M-41.4853,208.134 L-41.4853,208.134"/>
            <path d="M-234.585,387.248 L-234.585,387.248"/>
            <path d="M-220.599,387.248 L-220.599,387.248"/>
            <path d="M-213.952,387.248 L-213.952,387.248"/>
            <path d="M-220.599,387.248 L-220.599,387.248"/>
            <path d="M-38.1619,211.458 L-38.1619,211.458"/>
            <path d="M-213.952,387.248 L-213.952,387.248"/>
            <path d="M418.415,357.891 L418.415,357.891"/>
            <path d="M418.415,357.891 L418.415,357.891"/>
            <path d="M418.415,351.244 L418.415,351.244"/>
            <path d="M418.415,387.248 L418.415,387.248"/>
            <path d="M418.415,387.248 L418.415,387.248"/>
            <path d="M404.498,387.248 L404.498,387.248"/>
            <path d="M397.851,387.248 L397.851,387.248"/>
            <path d="M291.581,231.057 L291.581,231.057"/>
            <path d="M266.62,256.017 L266.62,256.017"/>
            <path d="M266.62,256.017 L266.62,256.017"/>
            <path d="M98.9493,88.3466 L98.9493,88.3466"/>
            <path d="M269.944,252.694 L269.944,252.694"/>
            <path d="M269.944,252.694 L269.944,252.694"/>
            <path d="M98.9493,56.3467 L98.9493,56.3467"/>
            <path d="M98.9493,81.6998 L98.9493,81.6998"/>
        </g>
        <g id="product-fd18cd1f-2a2a-419d-a731-269cfb15e322" class="IfcMember material-wood projection" ifc:name="I-profil 45x400, normal sp&#230;r byg 1.007" ifc:guid="3z6CqVAYf1dQSn9fpx5UCY">
            <path d="M-38.1618,211.458 L-38.1618,211.458"/>
            <path d="M-234.585,387.248 L-234.585,387.248"/>
            <path d="M-220.599,387.248 L-220.599,387.248"/>
            <path d="M-213.952,387.248 L-213.952,387.248"/>
            <path d="M-220.599,387.248 L-220.599,387.248"/>
            <path d="M-38.1618,211.458 L-38.1618,211.458"/>
            <path d="M-213.952,387.248 L-213.952,387.248"/>
            <path d="M418.415,357.891 L418.415,357.891"/>
            <path d="M418.415,357.891 L418.415,357.891"/>
            <path d="M418.415,351.244 L418.415,351.244"/>
            <path d="M418.415,387.248 L418.415,387.248"/>
            <path d="M418.415,387.248 L418.415,387.248"/>
            <path d="M404.498,387.248 L404.498,387.248"/>
            <path d="M397.851,387.248 L397.851,387.248"/>
        </g>
        <g id="product-756db0e5-a96a-4bb3-b3dd-936a483e0665" class="IfcMember material-wood projection" ifc:name="I-profil 45x400, normal sp&#230;r byg 1.008" ifc:guid="1rRR3bgMfBixFTasf8FWPb">
            <path d="M-38.1618,211.458 L-38.1618,211.458"/>
            <path d="M-234.585,387.248 L-234.585,387.248"/>
            <path d="M-220.599,387.248 L-220.599,387.248"/>
            <path d="M-213.952,387.248 L-213.952,387.248"/>
            <path d="M-220.599,387.248 L-220.599,387.248"/>
            <path d="M-38.1619,211.458 L-38.1618,211.458"/>
            <path d="M-213.952,387.248 L-213.952,387.248"/>
            <path d="M418.415,357.891 L418.415,357.891"/>
            <path d="M418.415,357.891 L418.415,357.891"/>
            <path d="M418.415,351.244 L418.415,351.244"/>
            <path d="M418.415,387.248 L418.415,387.248"/>
            <path d="M418.415,387.248 L418.415,387.248"/>
            <path d="M404.498,387.248 L404.498,387.248"/>
            <path d="M404.498,387.248 L399.007,387.248"/>
            <path d="M399.007,387.248 L397.851,387.248"/>
            <path d="M397.851,387.248 L397.851,387.248"/>
        </g>
        <g id="product-6c166d7d-d91b-4d01-829f-f9be908c7e64" class="IfcBeam material-woodStructural projection" ifc:name="Beam" ifc:guid="1i5crzsHjD0OAV_RwGZ7va">
            <path d="M84.9493,89.9966 L98.9493,89.9966"/>
            <path d="M98.9493,89.9966 L98.9493,56.6966"/>
            <path d="M98.9493,56.6966 L84.9493,56.6966"/>
            <path d="M84.9493,56.6966 L84.9493,89.9966"/>
        </g>
        <g id="product-1b6308c6-acba-4e1d-b224-dd464be2bf9f" class="IfcBeam material-woodStructural projection" ifc:name="RemTop" ifc:guid="0ROmZ6hBfE7R8atKPBuh_V">
            <path d="M393.949,389.71 L100.699,96.4603"/>
            <path d="M393.949,383.347 L393.949,389.71"/>
        </g>
        <g id="product-6964c2bd-7fef-48d4-b978-51d33e8a3695" class="IfcBeam material-woodStructural projection" ifc:name="RemTop" ifc:guid="1fPCAzV_z8rBbuKTC_YZQL">
            <path d="M82.6992,96.9612 L-210.051,389.711"/>
            <path d="M-210.051,389.711 L-210.051,383.347"/>
            <path d="M82.6992,90.5972 L-210.051,383.347"/>
            <path d="M82.6992,90.5972 L82.6992,96.9612"/>
        </g>
        <g id="product-9dcd3a70-02ce-42ff-8b9a-0e3273387833" class="IfcColumn material-woodStructural projection" ifc:name="C18 45x245 normalS&#248;jle ENDER.004" ifc:guid="2TpJfm0iv2$ukQ3Z9pE7Wp">
            <path d="M100.699,662.748 L96.1992,662.748"/>
            <path d="M96.1992,662.748 L96.1992,638.248"/>
            <path d="M100.699,638.248 L100.699,638.248"/>
            <path d="M100.699,638.248 L100.699,662.748"/>
            <path d="M96.1992,638.248 L96.1992,89.9967"/>
            <path d="M96.1992,89.9967 L100.599,89.9967"/>
            <path d="M100.699,638.248 L100.699,90.0965"/>
            <path d="M96.1992,638.248 L100.699,638.248"/>
        </g>
        <g id="product-1646c202-5840-4fd6-8d91-36173cc9e740" class="IfcColumn material-woodStructural projection" ifc:name="C18 45x245 normalS&#248;jle" ifc:guid="0MHi82M41FresHDXSyoUT0">
            <path d="M82.6991,438.549 L87.1991,438.549"/>
            <path d="M87.1991,438.549 L87.1991,89.9967"/>
            <path d="M83.2994,89.9967 L87.1991,89.9967"/>
            <path d="M82.6991,438.549 L82.6991,96.9612"/>
            <path d="M82.6991,90.5973 L82.6991,90.597"/>
        </g>
        <g id="product-776793bd-7400-48e1-8784-b867f76e2211" class="IfcColumn material-woodStructural projection" ifc:name="C18 45x245 normalS&#248;jle" ifc:guid="1tPvEzT018uOU4k6VtRY8H">
            <path d="M87.1991,438.549 L91.6991,438.549"/>
            <path d="M91.6991,438.549 L91.6991,89.9967"/>
            <path d="M87.1991,89.9967 L91.6991,89.9967"/>
            <path d="M87.1991,438.549 L87.1991,89.9967"/>
        </g>
        <g id="product-3c4146fc-0638-44f1-ab92-5d2672f4369c" class="IfcColumn material-woodStructural projection" ifc:name="C18 45x245 normalS&#248;jle" ifc:guid="0yGKRy1ZX4yQkINIPoz3QS">
            <path d="M28.3234,438.549 L28.3234,151.337"/>
            <path d="M32.8234,438.549 L32.8234,146.837"/>
            <path d="M28.3234,438.549 L32.8234,438.549"/>
        </g>
        <g id="product-c97992b1-f41b-44c2-b07b-af1800adf738" class="IfcColumn material-woodStructural projection" ifc:name="C18 45x245 normalS&#248;jle" ifc:guid="39UPAnz1j4mh1xhnW0hVSu">
            <path d="M116.156,662.748 L111.656,662.748"/>
            <path d="M111.656,662.748 L111.656,638.248"/>
            <path d="M116.156,638.248 L116.156,638.248"/>
            <path d="M116.156,638.248 L116.156,662.748"/>
            <path d="M111.656,638.248 L111.656,107.418"/>
            <path d="M111.656,107.418 L116.156,111.918"/>
            <path d="M116.156,638.248 L116.156,111.918"/>
            <path d="M111.656,638.248 L116.156,638.248"/>
        </g>
        <g id="product-0b47842d-02ae-4bd2-bb6e-57519ebf3efd" class="IfcColumn material-woodStructural projection" ifc:name="C18 45x245 normalS&#248;jle ENDER.004" ifc:guid="0BHuGj0gvBqhjkLr6Ulpxz">
            <path d="M96.1992,662.748 L91.6992,662.748"/>
            <path d="M91.6992,662.748 L91.6992,638.248"/>
            <path d="M96.1992,638.248 L96.1992,638.248"/>
            <path d="M96.1992,638.248 L96.1992,662.748"/>
            <path d="M91.6992,638.248 L91.6992,89.9966"/>
            <path d="M96.1992,638.248 L96.1992,89.9966"/>
            <path d="M91.6992,638.248 L96.1992,638.248"/>
        </g>
    <g ifc:guid="1i5crzsHjD0OAV_RwGZ7va" ifc:name="Beam" class="IfcBeam material-woodStructural cut"><path d="M84.94923785328865,56.69657100330699 L84.94923785328865,71.95636142383923 L84.94923785328865,89.99654237519611 L92.53371432423592,89.99654237519611 L98.94917663186789,89.99654237519611 L98.94917663186789,74.73675195466389 L98.94917663186789,56.69657100330699 L91.36479571461678,56.69657100330699 Z"/></g></g>
</svg>