<svg xmlns="http://www.w3.org/2000/svg" xmlns:xlink="http://www.w3.org/1999/xlink" xmlns:ifc="http://www.ifcopenshell.org/ns" width="400mm" height="320.406mm" viewBox="0 0 400 320.406">
    <defs>
        <marker id="arrowend" markerWidth="10" markerHeight="7" refX="10" refY="3.5" orient="auto">
          <polygon points="0 0, 10 3.5, 0 7"/>
        </marker>
        <marker id="arrowstart" markerWidth="10" markerHeight="7" refX="0" refY="3.5" orient="auto">
          <polygon points="10 0, 0 3.5, 10 7"/>
        </marker>
    </defs>
    <g ifc:name="Elevation MY STOREY PLAN" class="section" ifc:plane="[[1.000000,0.000000,0.000000,0.000000],[0.000000,1.000000,0.000000,0.000000],[0.000000,0.000000,1.000000,0.000000],[0.000000,0.000000,0.000000,1.000000]]" ifc:matrix3="[[6.666667,0.000000,166.666671],[0.000000,6.666667,0.203218],[0.000000,0.000000,1.000000]]">
        <g id="product-f65716d2-c763-41ad-95ec-52addf2a9f55" class="IfcWall material-blank projection" ifc:name="Wall" ifc:guid="3sLnRInsD1hPNiKgtVAfzL">
            <path d="M311.514,33.4593 L278.18,33.4593"/>
            <path d="M311.514,26.7926 L311.514,33.4593"/>
            <path d="M278.18,26.7926 L311.514,26.7926"/>
            <path d="M278.18,33.4593 L278.18,26.7926"/>
        </g>
        <g id="product-927afc7a-0727-4774-82bd-655bd9ec9fb9" class="IfcWall material-diagonal1 projection" ifc:name="Wall" ifc:guid="2IUlnw1oT7T8AzPLlPx9_v">
            <path d="M311.514,46.7926 L278.18,46.7926"/>
            <path d="M311.514,40.1259 L311.514,46.7926"/>
            <path d="M278.18,40.1259 L311.514,40.1259"/>
            <path d="M278.18,46.7926 L278.18,40.1259"/>
        </g>
        <g id="product-b57e9319-c1c5-485e-97ff-271ca82bf0ac" class="IfcWall material-diagonal2 projection" ifc:name="Wall" ifc:guid="2rVfCPmSL8NfV$9noeA$2i">
            <path d="M311.514,60.126 L278.18,60.126"/>
            <path d="M311.514,53.4593 L311.514,60.126"/>
            <path d="M278.18,53.4593 L311.514,53.4593"/>
            <path d="M278.18,60.126 L278.18,53.4593"/>
        </g>
        <g id="product-7c673ecd-6879-407d-bcad-dc82c8625355" class="IfcWall material-diagonal3 projection" ifc:name="Wall" ifc:guid="1yPpxDQ7b0VRojt8B8ObDL">
            <path d="M311.514,73.4593 L278.18,73.4593"/>
            <path d="M311.514,66.7926 L311.514,73.4593"/>
            <path d="M278.18,66.7926 L311.514,66.7926"/>
            <path d="M278.18,73.4593 L278.18,66.7926"/>
        </g>
        <g id="product-bc42fed0-54ca-4e01-9ae8-9bdadc0fa007" class="IfcWall material-crosshatch1 projection" ifc:name="Wall" ifc:guid="2yGlxGLCfE0PheczhS3w07">
            <path d="M311.514,86.7926 L278.18,86.7926"/>
            <path d="M311.514,80.126 L311.514,86.7926"/>
            <path d="M278.18,80.126 L311.514,80.126"/>
            <path d="M278.18,86.7926 L278.18,80.126"/>
        </g>
        <g id="product-6dd4d0e6-a12c-4f8f-ac5d-2da1c0f7eb95" class="IfcWall material-crosshatch2 projection" ifc:name="Wall" ifc:guid="1jrD3ceInFZwnTBQ70z_kL">
            <path d="M311.514,100.126 L278.18,100.126"/>
            <path d="M311.514,93.4593 L311.514,100.126"/>
            <path d="M278.18,93.4593 L311.514,93.4593"/>
            <path d="M278.18,100.126 L278.18,93.4593"/>
        </g>
        <g id="product-4a1b3e9d-59ca-44a1-b0ac-52493bcbe783" class="IfcWall material-crosshatch3 projection" ifc:name="Wall" ifc:guid="1A6pwTMSf4eR2iKaaxo_U3">
            <path d="M311.514,113.459 L278.18,113.459"/>
            <path d="M311.514,106.793 L311.514,113.459"/>
            <path d="M278.18,106.793 L311.514,106.793"/>
            <path d="M278.18,113.459 L278.18,106.793"/>
        </g>
        <g id="product-b0175aaf-5456-45c8-a465-714735d2d2cc" class="IfcWall material-brick projection" ifc:name="Wall" ifc:guid="2m5rglL5P5oAHbSKSrqjBC">
            <path d="M311.514,126.793 L278.18,126.793"/>
            <path d="M311.514,120.126 L311.514,126.793"/>
            <path d="M278.18,120.126 L311.514,120.126"/>
            <path d="M278.18,126.793 L278.18,120.126"/>
        </g>
        <g id="product-711487e6-3080-4553-ad9d-438391009606" class="IfcWall material-earth projection" ifc:name="Wall" ifc:guid="1n58VcC815KwsTGuEH09O6">
            <path d="M311.514,140.126 L278.18,140.126"/>
            <path d="M311.514,133.459 L311.514,140.126"/>
            <path d="M278.18,133.459 L311.514,133.459"/>
            <path d="M278.18,140.126 L278.18,133.459"/>
        </g>
        <g id="product-e7949a82-aa2d-4919-be96-2fc77b8b26f7" class="IfcWall material-glass projection" ifc:name="Wall" ifc:guid="3db9g2gYr96RwMByTxYoRt">
            <path d="M311.514,153.459 L278.18,153.459"/>
            <path d="M311.514,146.793 L311.514,153.459"/>
            <path d="M278.18,146.793 L311.514,146.793"/>
            <path d="M278.18,153.459 L278.18,146.793"/>
        </g>
        <g id="product-748cefd5-263d-4642-8538-75e3eaf17feb" class="IfcWall material-liquid projection" ifc:name="Wall" ifc:guid="1qZE$L9Zr6GeKuTUFgyN$h">
            <path d="M311.514,166.793 L278.18,166.793"/>
            <path d="M311.514,160.126 L311.514,166.793"/>
            <path d="M278.18,160.126 L311.514,160.126"/>
            <path d="M278.18,166.793 L278.18,160.126"/>
        </g>
        <g id="product-66897674-c1f7-4b64-a824-a5be54db817a" class="IfcWall material-grass projection" ifc:name="Wall" ifc:guid="1cYNPqmVTBPAWafRvKsu5w">
            <path d="M311.514,180.126 L278.18,180.126"/>
            <path d="M311.514,173.459 L311.514,180.126"/>
            <path d="M278.18,173.459 L311.514,173.459"/>
            <path d="M278.18,180.126 L278.18,173.459"/>
        </g>
        <g id="product-3104c06b-b474-4aba-bc08-1010137bdebe" class="IfcWall material-honeycomb projection" ifc:name="Wall" ifc:guid="0n1C1hj7HAkhm8410JUzw_">
            <path d="M311.514,193.459 L278.18,193.459"/>
            <path d="M311.514,186.793 L311.514,193.459"/>
            <path d="M278.18,186.793 L311.514,186.793"/>
            <path d="M278.18,193.459 L278.18,186.793"/>
        </g>
        <g id="product-bb302066-fafc-478e-8049-25c7a55f5826" class="IfcWall material-sand projection" ifc:name="Wall" ifc:guid="2xC21c_ln7Ze199SUbNrWc">
            <path d="M311.514,206.793 L278.18,206.793"/>
            <path d="M311.514,200.126 L311.514,206.793"/>
            <path d="M278.18,200.126 L311.514,200.126"/>
            <path d="M278.18,206.793 L278.18,200.126"/>
        </g>
        <g id="product-f2b5b98a-e115-4e41-8b52-e4ab080f8bfe" class="IfcWall material-concrete projection" ifc:name="Wall" ifc:guid="3ojRcAuHLEGOjIvAi83ul_">
            <path d="M311.514,220.126 L278.18,220.126"/>
            <path d="M311.514,213.459 L311.514,220.126"/>
            <path d="M278.18,213.459 L311.514,213.459"/>
            <path d="M278.18,220.126 L278.18,213.459"/>
        </g>
    <g class="cut material-blank 3sLnRInsD1hPNiKgtVAfzL IfcWall"><path d="M289.2915980021159,33.45927789458237 L311.5138244628906,33.45927789458237 L311.5138244628906,31.237051433807633 L311.5138244628906,26.792611227915707 L300.40271759033203,26.792611227915707 L278.1804911295573,26.792611227915707 L278.1804911295573,29.014837688690445 L278.1804911295573,33.45927789458237 Z"/></g><g class="2IUlnw1oT7T8AzPLlPx9_v cut material-diagonal1 IfcWall"><path d="M289.2915980021159,46.79261122791571 L311.5138244628906,46.79261122791571 L311.5138244628906,44.570384767140965 L311.5138244628906,40.12594456124904 L300.40271759033203,40.12594456124904 L278.1804911295573,40.12594456124904 L278.1804911295573,42.34817102202378 L278.1804911295573,46.79261122791571 Z"/></g><g class="cut 2rVfCPmSL8NfV$9noeA$2i IfcWall material-diagonal2"><path d="M289.2915980021159,60.12595727690659 L311.5138244628906,60.12595727690659 L311.5138244628906,57.90373717396063 L311.5138244628906,53.459290610239925 L300.40271759033203,53.459290610239925 L278.1804911295573,53.459290610239925 L278.1804911295573,55.68151071318589 L278.1804911295573,60.12595727690659 Z"/></g><g class="1yPpxDQ7b0VRojt8B8ObDL material-diagonal3 cut IfcWall"><path d="M289.2915980021159,73.45929061023993 L311.5138244628906,73.45929061023993 L311.5138244628906,71.23707050729396 L311.5138244628906,66.79262394357326 L300.40271759033203,66.79262394357326 L278.1804911295573,66.79262394357326 L278.1804911295573,69.01484404651923 L278.1804911295573,73.45929061023993 Z"/></g><g class="cut material-crosshatch1 IfcWall 2yGlxGLCfE0PheczhS3w07"><path d="M289.2915980021159,86.79262394357326 L311.5138244628906,86.79262394357326 L311.5138244628906,84.57040384062729 L311.5138244628906,80.12595727690659 L300.40271759033203,80.12595727690659 L278.1804911295573,80.12595727690659 L278.1804911295573,82.34817737985256 L278.1804911295573,86.79262394357326 Z"/></g><g class="1jrD3ceInFZwnTBQ70z_kL material-crosshatch2 cut IfcWall"><path d="M289.2915980021159,100.12595727690659 L311.5138244628906,100.12595727690659 L311.5138244628906,97.90373717396064 L311.5138244628906,93.45929061023993 L300.40271759033203,93.45929061023993 L278.1804911295573,93.45929061023993 L278.1804911295573,95.68151071318589 L278.1804911295573,100.12595727690659 Z"/></g><g class="material-crosshatch3 1A6pwTMSf4eR2iKaaxo_U3 cut IfcWall"><path d="M289.2915980021159,113.45929061023993 L311.5138244628906,113.45929061023993 L311.5138244628906,111.23706414946518 L311.5138244628906,106.79262394357326 L300.40271759033203,106.79262394357326 L278.1804911295573,106.79262394357326 L278.1804911295573,109.014850404348 L278.1804911295573,113.45929061023993 Z"/></g><g class="2m5rglL5P5oAHbSKSrqjBC cut material-brick IfcWall"><path d="M289.2915980021159,126.79263665923081 L311.5138244628906,126.79263665923081 L311.5138244628906,124.57041019845607 L311.5138244628906,120.12596999256415 L300.40271759033203,120.12596999256415 L278.1804911295573,120.12596999256415 L278.1804911295573,122.34819645333889 L278.1804911295573,126.79263665923081 Z"/></g><g class="material-earth cut IfcWall 1n58VcC815KwsTGuEH09O6"><path d="M289.2915980021159,140.1259572769066 L311.5138244628906,140.1259572769066 L311.5138244628906,137.90373081613185 L311.5138244628906,133.45929061023992 L300.40271759033203,133.45929061023992 L278.1804911295573,133.45929061023992 L278.1804911295573,135.68151707101467 L278.1804911295573,140.1259572769066 Z"/></g><g class="cut material-glass 3db9g2gYr96RwMByTxYoRt IfcWall"><path d="M289.2915980021159,153.45930332589748 L311.5138244628906,153.45930332589748 L311.5138244628906,151.23707686512273 L311.5138244628906,146.79263665923082 L300.40271759033203,146.79263665923082 L278.1804911295573,146.79263665923082 L278.1804911295573,149.01486312000554 L278.1804911295573,153.45930332589748 Z"/></g><g class="1qZE$L9Zr6GeKuTUFgyN$h material-liquid cut IfcWall"><path d="M289.2915980021159,166.79263665923082 L311.5138244628906,166.79263665923082 L311.5138244628906,164.57041019845607 L311.5138244628906,160.12596999256414 L300.40271759033203,160.12596999256414 L278.1804911295573,160.12596999256414 L278.1804911295573,162.3481964533389 L278.1804911295573,166.79263665923082 Z"/></g><g class="1cYNPqmVTBPAWafRvKsu5w cut material-grass IfcWall"><path d="M289.2915980021159,180.12596999256414 L311.5138244628906,180.12596999256414 L311.5138244628906,177.90374353178942 L311.5138244628906,173.45930332589748 L300.40271759033203,173.45930332589748 L278.1804911295573,173.45930332589748 L278.1804911295573,175.68152978667223 L278.1804911295573,180.12596999256414 Z"/></g><g class="material-honeycomb cut 0n1C1hj7HAkhm8410JUzw_ IfcWall"><path d="M289.2915980021159,193.45930332589748 L311.5138244628906,193.45930332589748 L311.5138244628906,191.23707686512273 L311.5138244628906,186.79263665923082 L300.40271759033203,186.79263665923082 L278.1804911295573,186.79263665923082 L278.1804911295573,189.01486312000554 L278.1804911295573,193.45930332589748 Z"/></g><g class="cut 2xC21c_ln7Ze199SUbNrWc material-sand IfcWall"><path d="M289.2915980021159,206.79263665923082 L311.5138244628906,206.79263665923082 L311.5138244628906,204.57041019845607 L311.5138244628906,200.12596999256414 L300.40271759033203,200.12596999256414 L278.1804911295573,200.12596999256414 L278.1804911295573,202.3481964533389 L278.1804911295573,206.79263665923082 Z"/></g><g class="material-concrete cut 3ojRcAuHLEGOjIvAi83ul_ IfcWall"><path d="M289.2915980021159,220.12595727690658 L311.5138244628906,220.12595727690658 L311.5138244628906,217.9037435317894 L311.5138244628906,213.45929061023992 L300.40271759033203,213.45929061023992 L278.1804911295573,213.45929061023992 L278.1804911295573,215.6815043553571 L278.1804911295573,220.12595727690658 Z"/></g></g>
</svg>