<svg xmlns="http://www.w3.org/2000/svg" xmlns:xlink="http://www.w3.org/1999/xlink" xmlns:ifc="http://www.ifcopenshell.org/ns" width="600mm" height="480.745mm" viewBox="0 0 600 480.745">
    <defs>
        <marker id="arrowend" markerWidth="10" markerHeight="7" refX="10" refY="3.5" orient="auto">
          <polygon points="0 0, 10 3.5, 0 7"/>
        </marker>
        <marker id="arrowstart" markerWidth="10" markerHeight="7" refX="0" refY="3.5" orient="auto">
          <polygon points="10 0, 0 3.5, 10 7"/>
        </marker>
    </defs>
    <g ifc:name="Elevation MY STOREY PLAN moonlit" class="section" ifc:plane="[[1.000000,0.000000,0.000000,0.000000],[0.000000,1.000000,0.000000,0.000000],[0.000000,0.000000,1.000000,0.000000],[0.000000,0.000000,0.000000,1.000000]]" ifc:matrix3="[[10.000000,0.000000,249.999995],[0.000000,10.000000,0.372672],[0.000000,0.000000,1.000000]]">
        <g id="product-f65716d2-c763-41ad-95ec-52addf2a9f55" class="IfcWall material-blank projection" ifc:name="Wall" ifc:guid="3sLnRInsD1hPNiKgtVAfzL">
            <path d="M467.271,50.2568 L417.271,50.2568"/>
            <path d="M467.271,40.2568 L467.271,50.2568"/>
            <path d="M417.271,40.2568 L467.271,40.2568"/>
            <path d="M417.271,50.2568 L417.271,40.2568"/>
        </g>
        <g id="product-927afc7a-0727-4774-82bd-655bd9ec9fb9" class="IfcWall material-diagonal1 projection" ifc:name="Wall" ifc:guid="2IUlnw1oT7T8AzPLlPx9_v">
            <path d="M467.271,70.2568 L417.271,70.2568"/>
            <path d="M467.271,60.2568 L467.271,70.2568"/>
            <path d="M417.271,60.2568 L467.271,60.2568"/>
            <path d="M417.271,70.2568 L417.271,60.2568"/>
        </g>
        <g id="product-b57e9319-c1c5-485e-97ff-271ca82bf0ac" class="IfcWall material-diagonal2 projection" ifc:name="Wall" ifc:guid="2rVfCPmSL8NfV$9noeA$2i">
            <path d="M467.271,90.2568 L417.271,90.2568"/>
            <path d="M467.271,80.2568 L467.271,90.2568"/>
            <path d="M417.271,80.2568 L467.271,80.2568"/>
            <path d="M417.271,90.2568 L417.271,80.2568"/>
        </g>
        <g id="product-7c673ecd-6879-407d-bcad-dc82c8625355" class="IfcWall material-diagonal3 projection" ifc:name="Wall" ifc:guid="1yPpxDQ7b0VRojt8B8ObDL">
            <path d="M467.271,110.257 L417.271,110.257"/>
            <path d="M467.271,100.257 L467.271,110.257"/>
            <path d="M417.271,100.257 L467.271,100.257"/>
            <path d="M417.271,110.257 L417.271,100.257"/>
        </g>
        <g id="product-bc42fed0-54ca-4e01-9ae8-9bdadc0fa007" class="IfcWall material-crosshatch1 projection" ifc:name="Wall" ifc:guid="2yGlxGLCfE0PheczhS3w07">
            <path d="M467.271,130.257 L417.271,130.257"/>
            <path d="M467.271,120.257 L467.271,130.257"/>
            <path d="M417.271,120.257 L467.271,120.257"/>
            <path d="M417.271,130.257 L417.271,120.257"/>
        </g>
        <g id="product-6dd4d0e6-a12c-4f8f-ac5d-2da1c0f7eb95" class="IfcWall material-crosshatch2 projection" ifc:name="Wall" ifc:guid="1jrD3ceInFZwnTBQ70z_kL">
            <path d="M467.271,150.257 L417.271,150.257"/>
            <path d="M467.271,140.257 L467.271,150.257"/>
            <path d="M417.271,140.257 L467.271,140.257"/>
            <path d="M417.271,150.257 L417.271,140.257"/>
        </g>
        <g id="product-4a1b3e9d-59ca-44a1-b0ac-52493bcbe783" class="IfcWall material-crosshatch3 projection" ifc:name="Wall" ifc:guid="1A6pwTMSf4eR2iKaaxo_U3">
            <path d="M467.271,170.257 L417.271,170.257"/>
            <path d="M467.271,160.257 L467.271,170.257"/>
            <path d="M417.271,160.257 L467.271,160.257"/>
            <path d="M417.271,170.257 L417.271,160.257"/>
        </g>
        <g id="product-b0175aaf-5456-45c8-a465-714735d2d2cc" class="IfcWall material-brick projection" ifc:name="Wall" ifc:guid="2m5rglL5P5oAHbSKSrqjBC">
            <path d="M467.271,190.257 L417.271,190.257"/>
            <path d="M467.271,180.257 L467.271,190.257"/>
            <path d="M417.271,180.257 L467.271,180.257"/>
            <path d="M417.271,190.257 L417.271,180.257"/>
        </g>
        <g id="product-711487e6-3080-4553-ad9d-438391009606" class="IfcWall material-earth projection" ifc:name="Wall" ifc:guid="1n58VcC815KwsTGuEH09O6">
            <path d="M467.271,210.257 L417.271,210.257"/>
            <path d="M467.271,200.257 L467.271,210.257"/>
            <path d="M417.271,200.257 L467.271,200.257"/>
            <path d="M417.271,210.257 L417.271,200.257"/>
        </g>
        <g id="product-e7949a82-aa2d-4919-be96-2fc77b8b26f7" class="IfcWall material-glass projection" ifc:name="Wall" ifc:guid="3db9g2gYr96RwMByTxYoRt">
            <path d="M467.271,230.257 L417.271,230.257"/>
            <path d="M467.271,220.257 L467.271,230.257"/>
            <path d="M417.271,220.257 L467.271,220.257"/>
            <path d="M417.271,230.257 L417.271,220.257"/>
        </g>
        <g id="product-748cefd5-263d-4642-8538-75e3eaf17feb" class="IfcWall material-liquid projection" ifc:name="Wall" ifc:guid="1qZE$L9Zr6GeKuTUFgyN$h">
            <path d="M467.271,250.257 L417.271,250.257"/>
            <path d="M467.271,240.257 L467.271,250.257"/>
            <path d="M417.271,240.257 L467.271,240.257"/>
            <path d="M417.271,250.257 L417.271,240.257"/>
        </g>
        <g id="product-66897674-c1f7-4b64-a824-a5be54db817a" class="IfcWall material-grass projection" ifc:name="Wall" ifc:guid="1cYNPqmVTBPAWafRvKsu5w">
            <path d="M467.271,270.257 L417.271,270.257"/>
            <path d="M467.271,260.257 L467.271,270.257"/>
            <path d="M417.271,260.257 L467.271,260.257"/>
            <path d="M417.271,270.257 L417.271,260.257"/>
        </g>
        <g id="product-3104c06b-b474-4aba-bc08-1010137bdebe" class="IfcWall material-honeycomb projection" ifc:name="Wall" ifc:guid="0n1C1hj7HAkhm8410JUzw_">
            <path d="M467.271,290.257 L417.271,290.257"/>
            <path d="M467.271,280.257 L467.271,290.257"/>
            <path d="M417.271,280.257 L467.271,280.257"/>
            <path d="M417.271,290.257 L417.271,280.257"/>
        </g>
        <g id="product-bb302066-fafc-478e-8049-25c7a55f5826" class="IfcWall material-sand projection" ifc:name="Wall" ifc:guid="2xC21c_ln7Ze199SUbNrWc">
            <path d="M467.271,310.257 L417.271,310.257"/>
            <path d="M467.271,300.257 L467.271,310.257"/>
            <path d="M417.271,300.257 L467.271,300.257"/>
            <path d="M417.271,310.257 L417.271,300.257"/>
        </g>
        <g id="product-f2b5b98a-e115-4e41-8b52-e4ab080f8bfe" class="IfcWall material-concrete projection" ifc:name="Wall" ifc:guid="3ojRcAuHLEGOjIvAi83ul_">
            <path d="M467.271,330.257 L417.271,330.257"/>
            <path d="M467.271,320.257 L467.271,330.257"/>
            <path d="M417.271,320.257 L467.271,320.257"/>
            <path d="M417.271,330.257 L417.271,320.257"/>
        </g>
    <g class="cut material-blank 3sLnRInsD1hPNiKgtVAfzL IfcWall"><path d="M433.9373970031738,50.256761231037395 L467.27073669433594,50.256761231037395 L467.27073669433594,46.923421539875285 L467.27073669433594,40.256761231037395 L450.60407638549805,40.256761231037395 L417.27073669433594,40.256761231037395 L417.27073669433594,43.590100922199504 L417.27073669433594,50.256761231037395 Z"/></g><g class="2IUlnw1oT7T8AzPLlPx9_v cut material-diagonal1 IfcWall"><path d="M433.9373970031738,70.25676123103739 L467.27073669433594,70.25676123103739 L467.27073669433594,66.92342153987528 L467.27073669433594,60.256761231037395 L450.60407638549805,60.256761231037395 L417.27073669433594,60.256761231037395 L417.27073669433594,63.590100922199504 L417.27073669433594,70.25676123103739 Z"/></g><g class="cut 2rVfCPmSL8NfV$9noeA$2i IfcWall material-diagonal2"><path d="M433.9373970031738,90.25678030452372 L467.27073669433594,90.25678030452372 L467.27073669433594,86.92345015010477 L467.27073669433594,80.25678030452372 L450.60407638549805,80.25678030452372 L417.27073669433594,80.25678030452372 L417.27073669433594,83.59011045894266 L417.27073669433594,90.25678030452372 Z"/></g><g class="1yPpxDQ7b0VRojt8B8ObDL material-diagonal3 cut IfcWall"><path d="M433.9373970031738,110.25678030452372 L467.27073669433594,110.25678030452372 L467.27073669433594,106.92345015010477 L467.27073669433594,100.25678030452372 L450.60407638549805,100.25678030452372 L417.27073669433594,100.25678030452372 L417.27073669433594,103.59011045894266 L417.27073669433594,110.25678030452372 Z"/></g><g class="cut material-crosshatch1 IfcWall 2yGlxGLCfE0PheczhS3w07"><path d="M433.9373970031738,130.25678030452372 L467.27073669433594,130.25678030452372 L467.27073669433594,126.92345015010477 L467.27073669433594,120.25678030452372 L450.60407638549805,120.25678030452372 L417.27073669433594,120.25678030452372 L417.27073669433594,123.59011045894266 L417.27073669433594,130.25678030452372 Z"/></g><g class="1jrD3ceInFZwnTBQ70z_kL material-crosshatch2 cut IfcWall"><path d="M433.9373970031738,150.25678030452372 L467.27073669433594,150.25678030452372 L467.27073669433594,146.92345015010477 L467.27073669433594,140.25678030452372 L450.60407638549805,140.25678030452372 L417.27073669433594,140.25678030452372 L417.27073669433594,143.59011045894266 L417.27073669433594,150.25678030452372 Z"/></g><g class="material-crosshatch3 1A6pwTMSf4eR2iKaaxo_U3 cut IfcWall"><path d="M433.9373970031738,170.25678030452372 L467.27073669433594,170.25678030452372 L467.27073669433594,166.9234406133616 L467.27073669433594,160.25678030452372 L450.60407638549805,160.25678030452372 L417.27073669433594,160.25678030452372 L417.27073669433594,163.59011999568582 L417.27073669433594,170.25678030452372 Z"/></g><g class="2m5rglL5P5oAHbSKSrqjBC cut material-brick IfcWall"><path d="M433.9373970031738,190.25679937801004 L467.27073669433594,190.25679937801004 L467.27073669433594,186.92345968684793 L467.27073669433594,180.25679937801004 L450.60407638549805,180.25679937801004 L417.27073669433594,180.25679937801004 L417.27073669433594,183.59013906917215 L417.27073669433594,190.25679937801004 Z"/></g><g class="material-earth cut IfcWall 1n58VcC815KwsTGuEH09O6"><path d="M433.9373970031738,210.25678030452372 L467.27073669433594,210.25678030452372 L467.27073669433594,206.9234406133616 L467.27073669433594,200.25678030452372 L450.60407638549805,200.25678030452372 L417.27073669433594,200.25678030452372 L417.27073669433594,203.59011999568582 L417.27073669433594,210.25678030452372 Z"/></g><g class="cut material-glass 3db9g2gYr96RwMByTxYoRt IfcWall"><path d="M433.9373970031738,230.25679937801004 L467.27073669433594,230.25679937801004 L467.27073669433594,226.92345968684793 L467.27073669433594,220.25679937801004 L450.60407638549805,220.25679937801004 L417.27073669433594,220.25679937801004 L417.27073669433594,223.59013906917215 L417.27073669433594,230.25679937801004 Z"/></g><g class="1qZE$L9Zr6GeKuTUFgyN$h material-liquid cut IfcWall"><path d="M433.9373970031738,250.25679937801004 L467.27073669433594,250.25679937801004 L467.27073669433594,246.92345968684793 L467.27073669433594,240.25679937801004 L450.60407638549805,240.25679937801004 L417.27073669433594,240.25679937801004 L417.27073669433594,243.59013906917215 L417.27073669433594,250.25679937801004 Z"/></g><g class="1cYNPqmVTBPAWafRvKsu5w cut material-grass IfcWall"><path d="M433.9373970031738,270.25679937801004 L467.27073669433594,270.25679937801004 L467.27073669433594,266.92345968684793 L467.27073669433594,260.25679937801004 L450.60407638549805,260.25679937801004 L417.27073669433594,260.25679937801004 L417.27073669433594,263.59013906917215 L417.27073669433594,270.25679937801004 Z"/></g><g class="material-honeycomb cut 0n1C1hj7HAkhm8410JUzw_ IfcWall"><path d="M433.9373970031738,290.25679937801004 L467.27073669433594,290.25679937801004 L467.27073669433594,286.92345968684793 L467.27073669433594,280.25679937801004 L450.60407638549805,280.25679937801004 L417.27073669433594,280.25679937801004 L417.27073669433594,283.59013906917215 L417.27073669433594,290.25679937801004 Z"/></g><g class="cut 2xC21c_ln7Ze199SUbNrWc material-sand IfcWall"><path d="M433.9373970031738,310.25679937801004 L467.27073669433594,310.25679937801004 L467.27073669433594,306.92345968684793 L467.27073669433594,300.25679937801004 L450.60407638549805,300.25679937801004 L417.27073669433594,300.25679937801004 L417.27073669433594,303.59013906917215 L417.27073669433594,310.25679937801004 Z"/></g><g class="material-concrete cut 3ojRcAuHLEGOjIvAi83ul_ IfcWall"><path d="M433.9373970031738,330.25678030452366 L467.27073669433594,330.25678030452366 L467.27073669433594,326.9234596868479 L467.27073669433594,320.25678030452366 L450.60407638549805,320.25678030452366 L417.27073669433594,320.25678030452366 L417.27073669433594,323.59010092219944 L417.27073669433594,330.25678030452366 Z"/></g></g>
</svg>