<svg xmlns="http://www.w3.org/2000/svg" xmlns:xlink="http://www.w3.org/1999/xlink" xmlns:ifc="http://www.ifcopenshell.org/ns" width="120.951mm" height="114.767mm" viewBox="0 0 120.951 114.767">
    <defs>
        <marker id="arrowend" markerWidth="10" markerHeight="7" refX="10" refY="3.5" orient="auto">
          <polygon points="0 0, 10 3.5, 0 7"/>
        </marker>
        <marker id="arrowstart" markerWidth="10" markerHeight="7" refX="0" refY="3.5" orient="auto">
          <polygon points="10 0, 0 3.5, 10 7"/>
        </marker>
    </defs>
    <g ifc:name="Elevation ORTHOGRAPHIC" class="section" ifc:plane="[[1.000000,0.000000,0.000000,0.000000],[0.000000,1.000000,0.000000,0.000000],[0.000000,0.000000,1.000000,0.000000],[0.000000,0.000000,0.000000,1.000000]]" ifc:matrix3="[[4.000000,0.000000,51.682795],[0.000000,4.000000,90.447910],[0.000000,0.000000,1.000000]]">
        <g id="product-d2378c24-66d2-408d-a96a-ee73847322e9" class="IfcWall material-concreteInsitu projection" ifc:name="Wall" ifc:guid="3IDumaPj90ZQbgxdE4SoBf">
            <path d="M56.242,44.2821 L95.0937,72.5149"/>
            <path d="M95.0937,72.5149 L95.1676,73.2469"/>
            <path d="M56.3159,45.0141 L56.242,44.2821"/>
            <path d="M56.242,44.2821 L56.242,44.2821"/>
            <path d="M95.1676,73.8469 L95.1676,73.2469"/>
            <path d="M95.1676,73.2469 L56.3159,45.0141"/>
            <path d="M56.3159,45.0141 L56.3159,45.0141"/>
            <path d="M56.3159,45.0141 L56.3159,45.6141"/>
            <path d="M95.1676,73.8469 L56.3159,45.6141"/>
        </g>
    <g id="product-37a6d2b1-141c-40b8-9091-c53654dd73fb" class="IfcWall material-concreteInsitu projection" ifc:name="Wall" ifc:guid="0tfjAn51n0k92HnJPKtNFx">
            <path d="M25.8576,75.6415 L56.242,44.2821"/>
            <path d="M56.242,44.2821 L56.3159,45.0141"/>
            <path d="M25.9315,76.3735 L25.8576,75.6415"/>
            <path d="M56.3159,45.6141 L56.3159,45.0141"/>
            <path d="M56.3159,45.0141 L25.9315,76.3735"/>
            <path d="M25.9315,76.9735 L25.9315,76.3735"/>
            <path d="M56.3159,45.6141 L25.9315,76.9735"/>
        </g>
        <g id="product-e8a314fd-8eb5-46c6-b873-5c5577d36d28" class="IfcReinforcingBar material-null projection" ifc:name="ReinforcingBar" ifc:guid="3eenJzZhL6nhXpN5Ltqsqe">
            <path d="M30.102,71.2608 L30.027,71.2274"/>
            <path d="M30.0267,71.2272 L30.1021,71.2607"/>
            <path d="M30.1022,71.2607 L30.0266,71.227"/>
            <path d="M30.0264,71.2266 L30.1024,71.2605"/>
            <path d="M30.1025,71.2603 L30.0263,71.2264"/>
            <path d="M30.0262,71.2259 L30.1028,71.26"/>
            <path d="M30.1029,71.2599 L30.0262,71.2257"/>
            <path d="M30.0262,71.2251 L30.1034,71.2594"/>
            <path d="M30.1036,71.2592 L30.0263,71.2248"/>
            <path d="M30.0264,71.2241 L30.1041,71.2587"/>
            <path d="M30.1043,71.2584 L30.0265,71.2237"/>
            <path d="M30.0268,71.2228 L30.1052,71.2576"/>
            <path d="M30.027,71.2223 L30.1054,71.2573"/>
            <path d="M30.0277,71.2207 L30.1068,71.2559"/>
            <path d="M30.1071,71.2556 L30.0279,71.2202"/>
            <path d="M30.0286,71.2188 L30.1084,71.2542"/>
            <path d="M30.1089,71.2537 L30.029,71.2181"/>
            <path d="M30.0299,71.2167 L30.1103,71.2523"/>
            <path d="M30.1108,71.2517 L30.0305,71.2159"/>
            <path d="M30.0315,71.2145 L30.1122,71.2503"/>
            <path d="M30.1127,71.2498 L30.032,71.2138"/>
            <path d="M30.0331,71.2125 L30.1141,71.2484"/>
            <path d="M30.1147,71.2477 L30.0339,71.2116"/>
            <path d="M30.035,71.2105 L30.1159,71.2465"/>
            <path d="M30.037,71.2089 L30.1176,71.2447"/>
            <path d="M30.0359,71.2097 L30.1166,71.2458"/>
            <path d="M30.1181,71.2442 L30.0378,71.2084"/>
            <path d="M30.0395,71.2075 L30.1193,71.243"/>
            <path d="M30.0388,71.2078 L30.1188,71.2435"/>
            <path d="M30.0406,71.2073 L30.1197,71.2426"/>
            <path d="M30.0401,71.2073 L30.1195,71.2427"/>
            <path d="M30.1198,71.2425 L30.0409,71.2074"/>
            <path d="M30.0412,71.2075 L30.1198,71.2425"/>
        </g>
        <g id="product-256a069c-c609-41b3-b74e-eca59b8c5f29" class="IfcSlab material-concreteInsitu projection" ifc:name="Slab" ifc:guid="0bQWQSnWb1ixTExAMRZ5yf">
            <path d="M66.4614,23.762 L110.83,56.004"/>
            <path d="M56.4746,10.7368 L69.7409,20.3773"/>
            <path d="M7.04952,61.7479 L56.4746,10.7368"/>
            <path d="M56.2173,44.0381 L25.8329,75.3974"/>
            <path d="M56.2173,44.2381 L30.0728,71.2215"/>
            <path d="M30.055,71.2399 L25.8329,75.5974"/>
            <path d="M95.069,72.2709 L56.2173,44.0381"/>
            <path d="M95.069,72.4709 L56.2173,44.2381"/>
            <path d="M56.2173,44.2381 L56.2173,44.0381"/>
            <path d="M110.83,56.004 L95.069,72.2709"/>
            <path d="M110.83,56.204 L95.069,72.4709"/>
            <path d="M95.069,72.4709 L95.069,72.2709"/>
            <path d="M110.83,56.204 L110.83,56.004"/>
            <path d="M69.7409,20.3773 L66.4614,23.762"/>
            <path d="M69.7409,20.5773 L66.5751,23.8446"/>
            <path d="M69.7409,20.5773 L69.7409,20.3773"/>
            <path d="M25.8329,75.3974 L7.04952,61.7479"/>
            <path d="M25.8329,75.5974 L7.04952,61.9479"/>
            <path d="M7.04952,61.9479 L7.04952,61.7479"/>
            <path d="M25.8329,75.5974 L25.8329,75.3974"/>
        </g>
        <g id="product-5ce7a8e9-4d2a-44cf-b3cb-0ca60ebea214" class="IfcWall material-concreteInsitu projection" ifc:name="Wall" ifc:guid="1SvwZfJIf4pxFB3AOElg8K">
            <path d="M66.7432,23.9667 L66.7432,23.7406"/>
            <path d="M110.771,56.3347 L110.731,56.306"/>
            <path d="M111.112,55.9826 L66.7432,23.7406"/>
            <path d="M66.7432,23.7406 L67.5885,23.6766"/>
            <path d="M67.5885,23.6766 L111.957,55.9186"/>
            <path d="M111.957,56.5186 L111.957,55.9186"/>
            <path d="M111.957,56.5186 L111.957,56.5186"/>
        </g>
        <g id="product-19893e01-f95a-4bb7-9064-7977d707d6a4" class="IfcWall material-concreteInsitu projection" ifc:name="Wall" ifc:guid="0PYJu1_LfBjv1aUNVN1zQa">
            <path d="M70.868,20.8919 L70.868,20.2919"/>
            <path d="M70.868,20.8919 L67.9296,23.9245"/>
            <path d="M66.7432,23.9667 L66.7432,23.7406"/>
            <path d="M66.7432,23.7406 L70.0227,20.3559"/>
            <path d="M70.0227,20.3559 L70.868,20.2919"/>
            <path d="M70.868,20.2919 L67.5885,23.6766"/>
            <path d="M67.5885,23.6766 L66.7432,23.7406"/>
        </g>
        <g id="product-3e690443-792e-41cc-8cc0-f9f3a6fc5f2a" class="IfcWall material-concreteInsitu projection" ifc:name="Wall" ifc:guid="0_QGH3UIv1p8p0_VEc$5yg">
            <path d="M69.6815,20.708 L69.642,20.6793"/>
            <path d="M70.0227,20.3559 L56.4499,10.4928"/>
            <path d="M56.376,9.76077 L70.868,20.2919"/>
            <path d="M70.868,20.8919 L70.868,20.2919"/>
            <path d="M70.868,20.2919 L70.0227,20.3559"/>
            <path d="M56.4499,10.4928 L56.4499,10.7623"/>
            <path d="M56.4499,10.4928 L56.376,9.76077"/>
            <path d="M56.376,9.7608 L56.376,9.76077"/>
        </g>
        <g id="product-c2da64bf-8783-4ca5-af85-74e2ccbe15fc" class="IfcWall material-concreteInsitu projection" ifc:name="Wall" ifc:guid="32scI$XuDCfQ_5TEBClXNy">
            <path d="M5.92246,61.8333 L6.76776,61.7692"/>
            <path d="M6.76776,61.7692 L25.8576,75.6415"/>
            <path d="M25.8576,75.6415 L25.9315,76.3735"/>
            <path d="M25.9315,76.9735 L5.92246,62.4333"/>
            <path d="M5.92246,62.4333 L5.92246,61.8333"/>
            <path d="M25.9315,76.3735 L5.92246,61.8333"/>
            <path d="M25.9315,76.9735 L25.9315,76.3735"/>
        </g>
        <g id="product-3728f14e-f507-4aa9-8b21-ee74ad4dd28b" class="IfcWall material-concreteInsitu projection" ifc:name="Wall" ifc:guid="0tAF5EzGTAgOiXxdIjJTAB">
            <path d="M95.0937,72.5149 L111.112,55.9826"/>
            <path d="M111.112,55.9826 L111.957,55.9186"/>
            <path d="M95.1676,73.2469 L95.0937,72.5149"/>
            <path d="M95.1676,73.8469 L95.1676,73.8469"/>
            <path d="M111.957,56.5186 L95.1676,73.8469"/>
            <path d="M95.1676,73.8469 L95.1676,73.2469"/>
            <path d="M111.957,55.9186 L95.1676,73.2469"/>
            <path d="M111.957,56.5186 L111.957,55.9186"/>
        </g>
        <g id="product-c3c8797a-5dfd-4e15-b373-04e529d1c287" class="IfcWall material-concreteInsitu projection" ifc:name="Wall" ifc:guid="33o7bwNVrE5RDp1EKfqSA7">
            <path d="M7.12375,62.0018 L7.1089,62.0171"/>
            <path d="M5.92246,61.8333 L56.376,9.76078"/>
            <path d="M56.376,9.76078 L56.4003,10.0017"/>
            <path d="M56.4499,10.4928 L6.76776,61.7692"/>
            <path d="M5.92246,62.4333 L5.92246,62.4333"/>
            <path d="M6.76776,61.7692 L5.92246,61.8333"/>
            <path d="M5.92246,62.4333 L5.92246,61.8333"/>
        </g>
        </g>
</svg>