<svg xmlns="http://www.w3.org/2000/svg" xmlns:xlink="http://www.w3.org/1999/xlink" xmlns:ifc="http://www.ifcopenshell.org/ns" width="77.3mm" height="54.2456mm" viewBox="0 0 77.3 54.2456">
    <defs>
        <marker id="arrowend" markerWidth="10" markerHeight="7" refX="10" refY="3.5" orient="auto">
          <polygon points="0 0, 10 3.5, 0 7"/>
        </marker>
        <marker id="arrowstart" markerWidth="10" markerHeight="7" refX="0" refY="3.5" orient="auto">
          <polygon points="10 0, 0 3.5, 10 7"/>
        </marker>
    </defs>
    <g ifc:name="Elevation ORTHOGRAPHIC" class="section" ifc:plane="[[1.000000,0.000000,0.000000,0.000000],[0.000000,1.000000,0.000000,0.000000],[0.000000,0.000000,1.000000,0.000000],[0.000000,0.000000,0.000000,1.000000]]" ifc:matrix3="[[10.000000,0.000000,97.784005],[0.000000,10.000000,82.123423],[0.000000,0.000000,1.000000]]">
        <g id="product-d3226c8d-0f6e-4138-a6bb-490b4b68b0d4" class="IfcBeam material-null projection" ifc:name="Tegloverligger" ifc:guid="3J8coD3sv1EAQxIGjBQB3K">
            <path d="M69.0882,10.9164 L69.0882,10.5215"/>
            <path d="M68.338,11.4462 L69.0882,10.9164"/>
            <path d="M68.338,11.0513 L68.338,11.4462"/>
            <path d="M67.1545,10.6668 L68.338,11.4462"/>
            <path d="M69.0882,10.5215 L68.338,11.0513"/>
            <path d="M67.1545,10.2719 L68.338,11.0513"/>
            <path d="M67.6495,9.57395 L69.0882,10.5215"/>
        </g>
        <g id="product-e2ced01c-f7d8-48d7-b9f9-3fcd44ffc339" class="IfcBeam material-null projection" ifc:name="Tegloverligger" ifc:guid="3Ypj0SzzX8rxdvFyr4$yCv">
            <path d="M69.9218,10.3277 L69.9218,9.93276"/>
            <path d="M69.1716,10.8575 L69.9218,10.3277"/>
            <path d="M69.1716,10.4626 L69.1716,10.8575"/>
            <path d="M69.0882,10.8026 L69.1716,10.8575"/>
            <path d="M69.9218,9.93276 L69.1716,10.4626"/>
            <path d="M67.7329,9.51508 L69.1716,10.4626"/>
            <path d="M68.4831,8.98525 L69.9218,9.93276"/>
        </g>
        <g id="product-3210d5a7-82bd-45a4-8164-5c8d5d38b448" class="IfcWindow material-null projection" ifc:name="Window" ifc:guid="0o4DMdWhr5f85aN8rTEBH8">
            <path d="M51.0607,23.4824 L51.0607,38.5718"/>
            <path d="M51.0607,38.5718 L37.5701,48.0993"/>
            <path d="M37.5701,48.222 L37.5701,33.0099"/>
            <path d="M37.5701,33.0099 L51.1507,23.4189"/>
            <path d="M51.3938,23.2366 L51.3938,38.7153"/>
            <path d="M51.3938,38.7153 L37.5068,48.5227"/>
            <path d="M51.1507,38.631 L37.5701,48.222"/>
            <path d="M51.1507,23.4189 L51.1507,38.631"/>
            <path d="M51.0607,38.5718 L51.1507,38.631"/>
            <path d="M36.9015,48.7894 L36.9015,33.0693"/>
            <path d="M36.7439,48.6856 L36.9015,48.7894"/>
            <path d="M37.5068,48.7682 L37.5068,33.044"/>
            <path d="M37.5068,33.044 L51.5736,23.1096"/>
            <path d="M51.7473,22.8041 L51.7473,38.8939"/>
            <path d="M51.7473,38.8939 L37.3331,49.0736"/>
            <path d="M51.5736,38.8337 L37.5068,48.7682"/>
            <path d="M51.5736,23.1096 L51.5736,38.8337"/>
            <path d="M51.3938,38.7153 L51.5736,38.8337"/>
            <path d="M37.3331,32.9839 L51.7473,22.8041"/>
            <path d="M51.5865,22.6983 L51.7473,22.8041"/>
            <path d="M37.3331,49.0736 L37.3331,32.9839"/>
            <path d="M36.9015,48.7894 L36.9015,33.0693"/>
            <path d="M37.1724,32.878 L37.3331,32.9839"/>
            <path d="M36.9015,48.7894 L37.3331,49.0736"/>
        </g>
        <g id="product-c6bb559d-efba-4136-9ff6-33738da4d49b" class="IfcWindow material-null projection" ifc:name="Window" ifc:guid="36krMTxxf1Df$sCtEDfDIR">
            <path d="M13.8598,34.5074 L13.8598,19.4137"/>
            <path d="M34.6697,48.2128 L13.8598,34.5074"/>
            <path d="M13.7729,19.3566 L34.6697,33.1192"/>
            <path d="M34.6697,33.1192 L34.6697,48.3313"/>
            <path d="M13.5212,34.6589 L13.5212,19.1718"/>
            <path d="M34.7478,48.6387 L13.5212,34.6589"/>
            <path d="M34.6697,48.3313 L13.7729,34.5687"/>
            <path d="M13.7729,34.5687 L13.7729,19.3566"/>
            <path d="M13.8598,34.5074 L13.7729,34.5687"/>
            <path d="M35.3445,32.9717 L35.3445,48.8827"/>
            <path d="M35.6748,48.6494 L35.3445,48.8827"/>
            <path d="M13.3475,19.0574 L34.7478,33.1517"/>
            <path d="M34.7478,33.1517 L34.7478,48.8758"/>
            <path d="M13.1677,34.8459 L13.1677,18.7561"/>
            <path d="M34.9277,49.177 L13.1677,34.8459"/>
            <path d="M34.7478,48.8758 L13.3475,34.7815"/>
            <path d="M13.3475,34.7815 L13.3475,19.0574"/>
            <path d="M13.5212,34.6589 L13.3475,34.7815"/>
            <path d="M34.9277,33.0873 L34.9277,49.177"/>
            <path d="M35.3445,32.9717 L35.3445,48.8827"/>
            <path d="M35.3445,48.8827 L34.9277,49.177"/>
            <path d="M13.1677,18.7561 L34.9277,33.0873"/>
            <path d="M35.2135,32.8854 L34.9277,33.0873"/>
            <path d="M13.4535,18.5543 L13.1677,18.7561"/>
        </g>
        <g id="product-52dbb44e-1b26-4949-b77e-062f3f384692" class="IfcDoor material-null projection" ifc:name="Doer b3600 h2200" ifc:guid="1IsxHE6oP9IRT_1Yy$E4QI">
            <path d="M99.0238,3.58929 L97.9448,2.87865"/>
            <path d="M97.9448,2.87865 L75.7996,18.5182"/>
            <path d="M75.7996,19.9909 L99.0238,3.58929"/>
            <path d="M75.7996,20.0421 L99.0238,3.64048"/>
            <path d="M99.0238,3.64048 L99.0238,3.58929"/>
            <path d="M97.4585,-4.16461 L97.5974,-4.26272"/>
            <path d="M96.9077,-3.57927 L97.6024,-4.06986"/>
            <path d="M97.5974,-4.26272 L97.8852,-4.07322"/>
            <path d="M97.6024,-4.06986 L97.4585,-4.16461"/>
            <path d="M97.4952,-3.99417 L97.4585,-4.01834"/>
            <path d="M97.4585,-4.01834 L97.4585,-4.16461"/>
            <path d="M97.0516,-3.48452 L96.9077,-3.57927"/>
            <path d="M97.0516,-3.33825 L96.9077,-3.433"/>
            <path d="M96.9077,-3.433 L96.9077,-3.57927"/>
            <path d="M97.8852,-4.07322 L97.0516,-3.48452"/>
            <path d="M97.8852,-3.92695 L97.0516,-3.33825"/>
            <path d="M97.0516,-3.33825 L97.0516,-3.48452"/>
            <path d="M97.8852,-3.92695 L97.8852,-4.07322"/>
            <path d="M75.7996,18.5182 L97.9448,2.87865"/>
            <path d="M97.9448,2.87865 L97.9448,-9.60249"/>
            <path d="M100.391,4.54062 L100.599,4.39344"/>
            <path d="M75.7996,6.03708 L100.391,-11.3298"/>
            <path d="M75.7996,21.9075 L75.7996,6.03708"/>
            <path d="M75.5912,22.0546 L75.7996,21.9075"/>
            <path d="M100.599,4.39344 L100.599,-11.6963"/>
            <path d="M100.391,-11.3298 L100.391,4.54062"/>
            <path d="M97.9448,-9.60249 L97.9448,2.87865"/>
            <path d="M99.0238,3.64048 L100.391,4.54062"/>
            <path d="M75.5912,5.96485 L75.5912,22.0546"/>
            <path d="M75.386,21.9195 L75.5912,22.0546"/>
            <path d="M100.599,-11.6963 L75.5912,5.96485"/>
            <path d="M75.4305,5.85897 L75.5912,5.96485"/>
            <path d="M100.438,-11.8022 L100.599,-11.6963"/>
        </g>
        <g id="product-12ceb985-1738-4945-8da8-3606d8bb8876" class="IfcColumn material-null projection" ifc:name="Column" ifc:guid="0Iphc55pX9HOseDWROkuXs">
            <path d="M36.7439,40.7261 L36.7439,33.1806"/>
            <path d="M36.7439,40.7261 L36.7439,49.4587"/>
            <path d="M35.6748,40.7371 L35.6748,33.1892"/>
            <path d="M35.6748,40.7371 L35.6748,49.4697"/>
            <path d="M35.6977,49.5064 L36.1653,49.8144"/>
            <path d="M35.6777,49.4837 L35.6977,49.5064"/>
            <path d="M35.6748,49.4697 L35.6777,49.4837"/>
            <path d="M36.7417,49.4711 L36.7439,49.4587"/>
            <path d="M36.7228,49.4942 L36.7417,49.4711"/>
            <path d="M36.2713,49.8131 L36.7228,49.4942"/>
            <path d="M36.238,49.8268 L36.2713,49.8131"/>
            <path d="M36.1992,49.8272 L36.238,49.8268"/>
            <path d="M36.1653,49.8144 L36.1992,49.8272"/>
        </g>
        <g id="product-a3f146ac-d4e5-45f3-916a-12eaf62f8545" class="IfcMember material-null projection" ifc:name="Member" ifc:guid="2ZyKQirEL5yv5g4khsBuL5">
            <path d="M37.2762,29.8001 L37.9236,30.2265"/>
            <path d="M37.2762,29.8002 L37.2762,29.8001"/>
            <path d="M37.9236,30.2265 L38.2362,30.0057"/>
            <path d="M38.2362,30.0057 L38.2362,28.3748"/>
            <path d="M38.2362,28.3748 L37.9236,28.5956"/>
            <path d="M37.9236,28.5956 L37.9236,30.2265"/>
        </g>
        <g id="product-f42fff1d-e215-4e74-af13-0db682fa4119" class="IfcMember material-null projection" ifc:name="Member" ifc:guid="3qB$yTuXLETAyJ3RQ2_a4P">
            <path d="M43.0393,25.73 L43.6867,26.1564"/>
            <path d="M43.0393,25.7301 L43.0393,25.73"/>
            <path d="M41.9243,26.5175 L41.9243,25.7701"/>
            <path d="M43.6867,26.1564 L43.9993,25.9357"/>
            <path d="M43.9993,25.9357 L43.9993,24.3047"/>
            <path d="M43.9993,24.3047 L43.6867,24.5255"/>
            <path d="M43.6867,24.5255 L43.6867,26.1564"/>
        </g>
        <g id="product-0806a035-2096-4d80-8fd5-768949b0fd3d" class="IfcMember material-null projection" ifc:name="Member" ifc:guid="081g0r89PDW8$LTeb9iFqz">
            <path d="M48.8281,21.6418 L49.4755,22.0682"/>
            <path d="M48.8281,21.6419 L48.8281,21.6418"/>
            <path d="M47.7131,22.4293 L47.7131,21.6819"/>
            <path d="M49.4755,22.0682 L49.7881,21.8474"/>
            <path d="M49.7881,21.8474 L49.7881,20.2165"/>
            <path d="M49.7881,20.2165 L49.4755,20.4373"/>
            <path d="M49.4755,20.4373 L49.4755,22.0682"/>
        </g>
        <g id="product-54ae3b96-60d5-4ecd-ba09-ad1fa5653bb7" class="IfcMember material-null projection" ifc:name="Member" ifc:guid="1KhZkMODLEpRe9hH_bPJkt">
            <path d="M54.6169,17.5536 L55.2643,17.98"/>
            <path d="M54.6169,17.5536 L54.6169,17.5536"/>
            <path d="M53.5019,18.3411 L53.5019,17.5937"/>
            <path d="M55.2643,17.98 L55.5769,17.7592"/>
            <path d="M55.5769,17.7592 L55.5769,16.1283"/>
            <path d="M55.5769,16.1283 L55.2643,16.3491"/>
            <path d="M55.2643,16.3491 L55.2643,17.98"/>
        </g>
        <g id="product-7ede2261-61ee-42e1-87fa-f924a570290c" class="IfcDoor material-null projection" ifc:name="Doer b910 h2200.004" ifc:guid="1_tY9XOUv2uOVw_IIbS2aC">
            <path d="M57.8603,34.5256 L57.3208,34.1702"/>
            <path d="M51.9557,38.6956 L57.8603,34.5256"/>
            <path d="M51.9557,38.7467 L57.8603,34.5767"/>
            <path d="M57.8603,34.5767 L57.8603,34.5256"/>
            <path d="M51.9557,38.7467 L51.9557,38.6956"/>
            <path d="M56.8692,27.1024 L57.0082,27.0043"/>
            <path d="M56.3185,27.6878 L57.0131,27.1972"/>
            <path d="M57.0082,27.0043 L57.2959,27.1938"/>
            <path d="M57.0131,27.1972 L56.8692,27.1024"/>
            <path d="M56.9059,27.2729 L56.8692,27.2487"/>
            <path d="M56.8692,27.2487 L56.8692,27.1024"/>
            <path d="M56.4623,27.7825 L56.3185,27.6878"/>
            <path d="M56.4623,27.9288 L56.3185,27.8341"/>
            <path d="M56.3185,27.8341 L56.3185,27.6878"/>
            <path d="M57.2959,27.1938 L56.4623,27.7825"/>
            <path d="M57.2959,27.3401 L56.4623,27.9288"/>
            <path d="M56.4623,27.9288 L56.4623,27.7825"/>
            <path d="M57.2959,27.3401 L57.2959,27.1938"/>
            <path d="M51.9557,37.9592 L57.3555,34.1457"/>
            <path d="M57.3555,34.1457 L57.3555,19.0629"/>
            <path d="M57.3555,18.7453 L57.3555,18.624"/>
            <path d="M51.9557,38.7467 L51.7473,38.8939"/>
            <path d="M51.9557,22.8764 L51.9557,38.7467"/>
            <path d="M57.8603,18.7064 L51.9557,22.8764"/>
            <path d="M58.0687,34.4296 L57.8603,34.5767"/>
            <path d="M58.0687,18.3398 L58.0687,34.4296"/>
            <path d="M57.7883,34.4782 L57.7883,18.7572"/>
            <path d="M57.8603,34.5767 L57.8603,18.7064"/>
            <path d="M51.6754,22.7568 L57.9967,18.2924"/>
            <path d="M51.7473,22.8041 L58.0687,18.3398"/>
            <path d="M58.0687,18.3398 L57.9967,18.2924"/>
            <path d="M51.7473,38.8939 L51.7473,22.8041"/>
            <path d="M51.7473,22.8041 L51.6754,22.7568"/>
        </g>
        <g id="product-256a069c-c609-41b3-b74e-eca59b8c5f29" class="IfcSlab material-concreteInsitu projection" ifc:name="Slab" ifc:guid="0bQWQSnWb1ixTExAMRZ5yf">
            <path d="M147.894,-48.5604 L252.053,20.0387"/>
            <path d="M125.61,-75.3291 L156.754,-54.8178"/>
            <path d="M41.2367,-15.7418 L42.924,-16.9334"/>
            <path d="M44.9738,-18.3811 L48.7128,-21.0217"/>
            <path d="M50.7626,-22.4693 L54.5016,-25.1099"/>
            <path d="M56.5514,-26.5575 L60.2904,-29.1981"/>
            <path d="M62.3402,-30.6457 L66.0792,-33.2863"/>
            <path d="M68.129,-34.7339 L125.61,-75.3291"/>
            <path d="M118.263,-9.95728 L100.599,2.51764"/>
            <path d="M67.683,25.7639 L67.1545,26.1371"/>
            <path d="M209.47,50.1118 L118.263,-9.95728"/>
            <path d="M209.47,50.8431 L118.282,-9.21337"/>
            <path d="M118.263,-9.46639 L118.263,-9.95728"/>
            <path d="M252.053,20.0387 L209.47,50.1118"/>
            <path d="M252.053,20.77 L209.47,50.8431"/>
            <path d="M209.47,50.8431 L209.47,50.1118"/>
            <path d="M252.053,20.77 L252.053,20.0387"/>
            <path d="M156.754,-54.8178 L147.894,-48.5604"/>
            <path d="M156.754,-54.0864 L148.43,-48.2074"/>
            <path d="M156.754,-54.0864 L156.754,-54.8178"/>
        </g>
        <g id="product-e115fe1d-fde5-46fc-b063-01de3ec84cd3" class="IfcBeam material-woodStructural projection" ifc:name="OverliggerTop" ifc:guid="3X5VuT$UL6$B1Z0Tu_o4pJ">
            <path d="M100.46,-15.4601 L100.38,-15.5128"/>
            <path d="M100.46,-15.4601 L83.1974,-3.26896"/>
        </g>
        <g id="product-c65b3d5d-1309-4f01-a0f8-e5a3b1ef919b" class="IfcColumn material-woodStructural projection" ifc:name="C18 45x245 normalS&#248;jle" ifc:guid="36MprT4mbF0Q3uvQEnxv6R">
            <path d="M67.1545,7.95186 L67.1545,7.95185"/>
            <path d="M66.8419,8.17262 L66.8419,8.17263"/>
            <path d="M66.8419,27.9923 L66.8419,27.9923"/>
            <path d="M65.0795,26.8316 L65.0795,9.41726"/>
            <path d="M66.8419,8.17263 L67.1545,7.95186"/>
            <path d="M66.8419,27.9923 L67.1545,27.7715"/>
            <path d="M67.1545,27.7715 L67.1545,7.95186"/>
            <path d="M66.8419,27.9923 L66.8419,8.17263"/>
        </g>
        <g id="product-1940ce42-f3f4-4fb0-9851-325b5efcf51e" class="IfcColumn material-woodStructural projection" ifc:name="C18 45x245 normalS&#248;jle" ifc:guid="0PGCv2y$HFi9XHCbjU$FKU">
            <path d="M69.1931,25.6207 L69.7141,25.9639"/>
            <path d="M69.7141,11.2453 L70.0267,11.0245"/>
            <path d="M69.7141,25.9639 L70.0267,25.7431"/>
            <path d="M70.0267,25.7431 L70.0267,11.0245"/>
            <path d="M69.7141,25.9639 L69.7141,11.2453"/>
        </g>
        <g id="product-8b8b18b0-b35f-4735-b14b-58621ac06d95" class="IfcColumn material-woodStructural projection" ifc:name="C18 45x245 normalS&#248;jle" ifc:guid="2BYnYmirz7DR5BM68Qm6sL">
            <path d="M67.1545,25.4158 L68.8805,26.5526"/>
            <path d="M68.8805,11.834 L69.1931,11.6132"/>
            <path d="M68.8805,26.5526 L69.1931,26.3318"/>
            <path d="M69.1931,26.3318 L69.1931,11.6132"/>
            <path d="M68.8805,26.5526 L68.8805,11.834"/>
        </g>
        <g id="product-6dc02247-49b4-4dca-a554-2df7649a0494" class="IfcColumn material-woodStructural projection" ifc:name="C18 45x245 SiderD&#248;reVinduer" ifc:guid="1jm297IRHDogLKBVTacWIK">
            <path d="M75.386,5.89038 L75.386,5.89037"/>
            <path d="M75.0734,6.11114 L75.0734,6.11114"/>
            <path d="M75.0734,6.11114 L75.386,5.89038"/>
            <path d="M75.0734,22.179 L75.386,21.9582"/>
            <path d="M75.386,21.9582 L75.386,5.89038"/>
            <path d="M75.0734,22.179 L75.0734,6.11114"/>
        </g>
        <g id="product-0b47842d-02ae-4bd2-bb6e-57519ebf3efd" class="IfcColumn material-woodStructural projection" ifc:name="C18 45x245 normalS&#248;jle ENDER.004" ifc:guid="0BHuGj0gvBqhjkLr6Ulpxz">
            <path d="M12.8256,-8.22043 L12.4295,-7.94067"/>
            <path d="M12.7532,-7.72748 L13.0112,-7.90964"/>
            <path d="M12.4295,-7.94067 L12.7532,-7.72748"/>
            <path d="M12.7532,34.1609 L12.7532,34.1609"/>
            <path d="M12.7532,-7.72745 L12.7532,-7.72748"/>
            <path d="M12.4295,32.1559 L12.4295,-7.94067"/>
        </g>
        <g id="product-f520cdd6-5542-47e3-9fdc-4a94a40e03aa" class="IfcColumn material-woodStructural projection" ifc:name="C18 45x245 normalS&#248;jle" ifc:guid="3r8CtMLK97uv$SIfIa3WEg">
            <path d="M72.9433,4.19274 L72.9433,4.19274"/>
            <path d="M72.6307,4.4135 L72.6307,4.41351"/>
            <path d="M72.6307,23.9041 L72.6307,23.9041"/>
            <path d="M72.6307,4.41351 L72.9433,4.19274"/>
            <path d="M72.6307,23.9041 L72.9433,23.6833"/>
            <path d="M72.9433,23.6833 L72.9433,4.19274"/>
            <path d="M72.6307,23.9041 L72.6307,4.41351"/>
        </g>
        <g id="product-fb6f11bc-fe25-4f43-9602-85bbdf3d1b29" class="IfcBeam material-woodStructural projection" ifc:name="OverliggerTop" ifc:guid="3xRn6y$YLFGvO2XRlVFHif">
            <path d="M100.783,-13.4551 L100.783,-15.2469"/>
            <path d="M100.783,-13.4551 L100.644,-13.3569"/>
            <path d="M73.9695,5.48167 L72.9433,6.20643"/>
            <path d="M100.783,-15.2469 L100.46,-15.4601"/>
            <path d="M100.46,-15.4601 L83.1974,-3.26896"/>
            <path d="M100.783,-15.2469 L78.7321,0.326388"/>
            <path d="M77.6282,1.10598 L72.9433,4.41461"/>
        </g>
        <g id="product-ab190f0d-4a20-4be0-9723-f789015c313a" class="IfcColumn material-woodStructural projection" ifc:name="C18 45x245 normalS&#248;jle" ifc:guid="2h6GyDIY1Bu9SZzua1N34w">
            <path d="M61.3657,12.0401 L61.3657,12.0401"/>
            <path d="M61.0531,12.2608 L61.0531,12.2608"/>
            <path d="M61.0531,32.0805 L61.0531,32.0805"/>
            <path d="M59.2907,30.9198 L59.2907,16.9283"/>
            <path d="M59.2907,14.2528 L59.2907,13.5055"/>
            <path d="M61.0531,12.2608 L61.3657,12.0401"/>
            <path d="M61.0531,32.0805 L61.3657,31.8598"/>
            <path d="M61.3657,31.8598 L61.3657,12.0401"/>
            <path d="M61.0531,32.0805 L61.0531,15.6836"/>
            <path d="M61.0531,13.8918 L61.0531,12.2608"/>
        </g>
        <g id="product-f66bb555-8b32-47cf-a9d0-2cdefd5ed2cb" class="IfcBeam material-woodStructural projection" ifc:name="RemTop" ifc:guid="3sQxLLYp97pwdGBDxzNjBB">
            <path d="M70.5581,5.219 L68.7957,4.0583"/>
            <path d="M105.986,-19.801 L104.223,-20.9617"/>
            <path d="M104.223,-20.9617 L84.5233,-7.049"/>
            <path d="M82.5657,-5.66648 L78.7345,-2.96078"/>
            <path d="M76.7769,-1.57825 L72.9457,1.12744"/>
            <path d="M70.9881,2.50997 L68.9327,3.96153"/>
            <path d="M70.5581,5.21901 L70.5581,5.219"/>
            <path d="M105.986,-19.4719 L105.986,-19.801"/>
            <path d="M105.986,-19.801 L84.4295,-4.57742"/>
            <path d="M84.3021,-4.48739 L78.6407,-0.489199"/>
            <path d="M78.5133,-0.399166 L72.8519,3.59902"/>
            <path d="M72.7245,3.68905 L70.5581,5.219"/>
            <path d="M105.986,-19.4719 L70.8707,5.32734"/>
        </g>
        <g id="product-c0c7d1ae-aecb-4c03-9901-2035fec84fcb" class="IfcColumn material-woodStructural projection" ifc:name="C18 45x245 SiderD&#248;reVinduer" ifc:guid="30nz6khijC0va183N_o4$B">
            <path d="M75.0734,6.11114 L75.0734,6.11114"/>
            <path d="M73.7284,5.65197 L74.7608,6.33191"/>
            <path d="M72.9984,21.239 L74.7608,22.3997"/>
            <path d="M74.7608,22.3997 L74.7608,22.3997"/>
            <path d="M72.9984,21.239 L72.9984,6.1675"/>
            <path d="M74.7608,6.33191 L75.0734,6.11114"/>
            <path d="M74.7608,22.3997 L75.0734,22.179"/>
            <path d="M75.0734,22.179 L75.0734,6.11114"/>
            <path d="M74.7608,22.3997 L74.7608,6.33191"/>
        </g>
        <g id="product-defa9ac7-6311-40aa-acab-2745824a7286" class="IfcColumn material-woodStructural projection" ifc:name="C18 45x245 UnderVindueS&#248;jle" ifc:guid="3U_fh7On50ggoh9qM2IdA6">
            <path d="M15.1025,1.81755 L15.8426,2.30495"/>
            <path d="M15.8426,2.30495 L15.8426,2.30495"/>
            <path d="M15.8426,2.30495 L16.1552,2.08419"/>
            <path d="M16.1552,2.08419 L16.1552,-2.17701"/>
            <path d="M16.1552,-11.5161 L16.1552,-12.1954"/>
            <path d="M15.8426,2.30495 L15.8426,-2.7007"/>
            <path d="M15.8426,-12.0398 L15.8426,-12.0835"/>
        </g>
        <g id="product-eabb8e2b-f479-446a-95a7-6eca2c6697c4" class="IfcColumn material-woodStructural projection" ifc:name="C18 45x245 SiderD&#248;reVinduer" ifc:guid="3gkuuhz7b4QfMdRieiPfV4">
            <path d="M13.0769,34.7032 L13.1677,34.6392"/>
            <path d="M12.7532,34.4901 L13.0769,34.7032"/>
            <path d="M13.0769,34.7032 L13.0769,18.3063"/>
            <path d="M12.7532,34.4901 L12.7532,18.0931"/>
        </g>
        <g id="product-012de3cd-f0ff-4039-b2ad-40770523d6af" class="IfcBeam material-woodStructural projection" ifc:name="OverliggerTop" ifc:guid="01BUFDyFz0ERAjG7S58zQl">
            <path d="M12.7463,34.1659 L12.7532,34.1609"/>
            <path d="M12.7463,32.374 L12.7463,34.1659"/>
            <path d="M5.3162,27.4806 L5.3162,29.2724"/>
            <path d="M5.3162,29.2724 L12.7463,34.1659"/>
            <path d="M12.7532,32.3691 L12.7463,32.374"/>
            <path d="M5.62879,27.2598 L5.32315,27.4757"/>
            <path d="M5.32315,27.4757 L5.3162,27.4806"/>
            <path d="M5.3162,27.4806 L12.7463,32.374"/>
            <path d="M5.62879,27.2598 L10.9939,30.7933"/>
            <path d="M11.6233,31.2078 L12.1058,31.5256"/>
        </g>
        <g id="product-5814e3bf-0eef-4824-84d2-78dc4a3321ba" class="IfcBeam material-woodStructural projection" ifc:name="OverliggerTop" ifc:guid="1O5EE$3kz898JIUDnACo6w">
            <path d="M6.71246,26.4945 L6.71246,27.9735"/>
            <path d="M7.02506,26.2738 L6.71246,26.4945"/>
            <path d="M6.71246,26.4945 L10.9939,29.3143"/>
            <path d="M7.02506,26.2738 L10.9939,28.8876"/>
        </g>
        <g id="product-c3c8797a-5dfd-4e15-b373-04e529d1c287" class="IfcWall material-concreteInsitu projection" ifc:name="Wall" ifc:guid="33o7bwNVrE5RDp1EKfqSA7">
            <path d="M125.598,-75.3204 L125.598,-75.8112"/>
            <path d="M22.7251,-4.63192 L22.9839,-4.81466"/>
            <path d="M39.798,-16.6893 L42.0995,-18.3147"/>
            <path d="M44.1493,-19.7623 L47.8883,-22.4029"/>
            <path d="M49.9381,-23.8505 L53.6771,-26.4912"/>
            <path d="M55.7269,-27.9388 L59.4659,-30.5794"/>
            <path d="M61.5157,-32.027 L65.2547,-34.6676"/>
            <path d="M67.3045,-36.1152 L125.561,-77.2577"/>
            <path d="M125.561,-77.2577 L125.598,-75.8112"/>
            <path d="M125.598,-75.8112 L67.9229,-35.0793"/>
            <path d="M65.8731,-33.6316 L62.1341,-30.991"/>
            <path d="M60.0843,-29.5434 L56.3453,-26.9028"/>
            <path d="M54.2955,-25.4552 L50.5565,-22.8146"/>
            <path d="M48.5067,-21.367 L44.7677,-18.7264"/>
            <path d="M42.7179,-17.2788 L40.877,-15.9787"/>
            <path d="M-10.7512,21.2041 L-10.7512,19.0101"/>
        </g>
        <g id="product-e187deb2-b5ea-47cc-b575-1a8e8e508e21" class="IfcColumn material-woodStructural projection" ifc:name="C18 45x245 normalS&#248;jle" ifc:guid="3XXzwojUf7pBLr6ewEK8uX">
            <path d="M22.9898,22.7045 L22.9898,9.27302"/>
            <path d="M23.3135,22.9177 L23.3135,9.81532"/>
            <path d="M25.0154,23.1948 L25.0154,12.6665"/>
        </g>
        <g id="product-c2da64bf-8783-4ca5-af85-74e2ccbe15fc" class="IfcWall material-concreteInsitu projection" ifc:name="Wall" ifc:guid="32scI$XuDCfQ_5TEBClXNy">
            <path d="M36.2186,49.827 L36.2217,49.9464"/>
            <path d="M36.2217,52.1404 L-10.7512,21.2041"/>
            <path d="M-10.7512,21.2041 L-10.7512,19.0101"/>
            <path d="M36.2217,49.9464 L34.9884,49.1341"/>
            <path d="M13.1677,34.763 L-10.7512,19.0101"/>
            <path d="M36.2217,52.1404 L36.2217,49.9464"/>
        </g>
        <g id="product-3c4146fc-0638-44f1-ab92-5d2672f4369c" class="IfcColumn material-woodStructural projection" ifc:name="C18 45x245 normalS&#248;jle" ifc:guid="0yGKRy1ZX4yQkINIPoz3QS">
            <path d="M16.9953,18.7566 L16.9953,-0.769518"/>
            <path d="M17.319,18.9698 L17.319,-0.227219"/>
            <path d="M19.0209,19.2468 L19.0209,2.62399"/>
        </g>
        <g id="product-8dac7ed2-29cd-4be0-b5ea-467e88c40573" class="IfcColumn material-woodStructural projection" ifc:name="C18 45x245 normalS&#248;jle" ifc:guid="2Dh7xIASrBuBNgHdw8n0Lp">
            <path d="M13.0112,-7.90962 L12.7532,-7.72745"/>
            <path d="M13.0769,-7.51426 L13.1967,-7.59884"/>
            <path d="M12.7532,-7.72745 L13.0769,-7.51426"/>
            <path d="M13.0769,16.1854 L13.0769,-7.51426"/>
            <path d="M12.7532,15.9722 L12.7532,-7.72745"/>
        </g>
        <g id="product-4d7c203d-ad29-44dd-a6cd-f7f8b889853d" class="IfcColumn material-woodStructural projection" ifc:name="C18 45x245 normalS&#248;jle" ifc:guid="1DV20zhIb4tQRDz$YuYOKz">
            <path d="M4.27019,10.4777 L4.27019,10.4777"/>
            <path d="M2.50781,9.31703 L2.50781,-4.70946"/>
            <path d="M4.27019,10.4777 L4.58279,10.257"/>
            <path d="M4.58279,10.257 L4.58279,-5.45251"/>
            <path d="M4.27019,10.4777 L4.27019,-5.34057"/>
        </g>
        <g id="product-730a1a42-f127-4a01-bf8e-46b960eabb67" class="IfcBeam material-woodStructural projection" ifc:name="RemTop" ifc:guid="1p2Xf2yITA0R_EHhbWwhjd">
            <path d="M34.4593,28.6368 L36.2217,29.7975"/>
            <path d="M34.4593,28.3077 L34.4593,28.6368"/>
            <path d="M36.2217,29.4684 L35.2181,28.8075"/>
            <path d="M35.2181,28.8074 L34.4593,28.3077"/>
            <path d="M70.5581,5.21901 L68.7957,4.05831"/>
            <path d="M68.7957,4.05831 L67.1569,5.21567"/>
            <path d="M65.1993,6.59819 L61.3681,9.30389"/>
            <path d="M59.4105,10.6864 L55.5793,13.3921"/>
            <path d="M53.6217,14.7746 L49.7905,17.4803"/>
            <path d="M47.8329,18.8629 L44.0017,21.5686"/>
            <path d="M42.0441,22.9511 L38.2129,25.6568"/>
            <path d="M34.4593,28.3077 L34.4593,28.3077"/>
            <path d="M36.2217,29.7975 L36.2217,29.4684"/>
            <path d="M70.5581,5.54812 L70.5581,5.5481"/>
            <path d="M70.5581,5.5481 L70.5581,5.21901"/>
            <path d="M70.5581,5.21901 L67.0632,7.68725"/>
            <path d="M66.9357,7.77728 L61.2744,11.7755"/>
            <path d="M61.1469,11.8655 L55.4856,15.8637"/>
            <path d="M55.3581,15.9537 L49.6968,19.9519"/>
            <path d="M49.5693,20.0419 L43.908,24.0401"/>
            <path d="M43.7805,24.1302 L38.1192,28.1283"/>
            <path d="M37.9917,28.2184 L36.4429,29.3122"/>
            <path d="M36.3154,29.4022 L36.2217,29.4684"/>
            <path d="M70.5581,5.54812 L38.2362,28.3748"/>
            <path d="M38.2362,28.3748 L36.5343,29.5768"/>
            <path d="M36.2217,29.7975 L36.2217,29.7975"/>
        </g>
        <g id="product-3fb08f78-6d80-4fa3-9634-95bb299273c9" class="IfcColumn material-woodStructural projection" ifc:name="C18 45x245 normalS&#248;jle" ifc:guid="0$i8zuRO1FevOqbRifadF9">
            <path d="M10.059,6.38951 L10.059,6.38952"/>
            <path d="M8.29661,5.22881 L8.29661,-6.78244"/>
            <path d="M10.059,6.38952 L10.3716,6.16876"/>
            <path d="M10.3716,6.16876 L10.3716,-7.5255"/>
            <path d="M10.059,6.38952 L10.059,-7.41356"/>
        </g>
        <g id="product-cd874d35-7c5f-4d4a-94a5-60887a6e8668" class="IfcColumn material-woodStructural projection" ifc:name="C18 45x245 normalS&#248;jle" ifc:guid="3DXqqrV5zDIfIbO8XwRePe">
            <path d="M36.5343,29.5768 L36.5343,29.5768"/>
            <path d="M36.2217,29.7975 L36.2217,29.7975"/>
            <path d="M34.4593,30.2678 L36.2217,31.4285"/>
            <path d="M34.4593,30.2678 L34.4593,28.6368"/>
            <path d="M36.2217,29.7975 L36.5343,29.5768"/>
            <path d="M36.2217,31.4285 L36.5343,31.2077"/>
            <path d="M36.5343,31.2077 L36.5343,29.5768"/>
            <path d="M36.2217,31.4285 L36.2217,29.7975"/>
        </g>
        <g id="product-b0e9b50a-10d4-49ce-9e7e-760a28c8e800" class="IfcBeam material-woodStructural projection" ifc:name="RemBund" ifc:guid="2mwRKA4DH9pfv_TWeeoEW0">
            <path d="M-10.7512,19.0101 L-8.98886,20.1708"/>
            <path d="M-10.7512,18.681 L-10.7512,19.0101"/>
            <path d="M-8.98886,19.8417 L-10.7512,18.681"/>
            <path d="M22.9839,-4.4615 L22.484,-4.79074"/>
            <path d="M22.484,-4.79074 L20.8559,-3.64096"/>
            <path d="M16.9345,-0.871507 L16.1552,-0.321168"/>
            <path d="M10.9939,3.32388 L10.3716,3.76338"/>
            <path d="M8.29661,5.2288 L7.02506,6.1268"/>
            <path d="M4.99944,7.55735 L4.58279,7.85161"/>
            <path d="M2.50781,9.31702 L1.03059,10.3603"/>
            <path d="M-0.995031,11.7908 L-10.7512,18.681"/>
            <path d="M-8.98886,20.1708 L-8.98886,19.8417"/>
            <path d="M22.9839,-2.73844 L21.8659,-1.94891"/>
            <path d="M16.9953,1.49085 L16.1552,2.08418"/>
            <path d="M15.8426,2.30495 L15.1025,2.8276"/>
            <path d="M10.9939,5.72923 L10.3716,6.16873"/>
            <path d="M10.059,6.38951 L7.02506,8.53215"/>
            <path d="M4.99944,9.9627 L4.58279,10.257"/>
            <path d="M4.27019,10.4777 L1.03059,12.7656"/>
            <path d="M-0.995031,14.1962 L-8.98886,19.8417"/>
            <path d="M22.9839,-2.40933 L22.0041,-1.71739"/>
            <path d="M16.9953,1.81996 L15.1025,3.15671"/>
            <path d="M10.9939,6.05834 L7.02506,8.86126"/>
            <path d="M4.99944,10.2918 L1.03059,13.0947"/>
            <path d="M-0.995031,14.5253 L-7.04581,18.7985"/>
            <path d="M-8.98884,20.1708 L-8.98886,20.1708"/>
        </g>
        <g id="product-d0c8bc09-1d54-483d-8d82-b529282f8f95" class="IfcBeam material-woodStructural projection" ifc:name="OverliggerFladenTop" ifc:guid="3GoBm97LH8FOs2jIaeBu_L">
            <path d="M70.2455,10.5409 L70.2455,10.5409"/>
            <path d="M70.2455,10.5409 L69.9218,10.3277"/>
            <path d="M67.1545,13.053 L67.1545,12.7239"/>
            <path d="M70.2455,10.87 L70.2455,10.5409"/>
            <path d="M70.2455,10.5409 L67.1545,12.7239"/>
            <path d="M70.2455,10.87 L67.1545,13.053"/>
        </g>
        <g id="product-7bc7d63b-f140-4b74-865b-cb5d67b2dea0" class="IfcColumn material-woodStructural projection" ifc:name="C18 45x245 SiderD&#248;reVinduer" ifc:guid="1xnzOxyK1BT8PRorrdijwW">
            <path d="M58.9023,17.5317 L58.9023,17.5317"/>
            <path d="M58.5897,17.7524 L58.5897,17.7525"/>
            <path d="M58.5897,17.7525 L58.9023,17.5317"/>
            <path d="M58.5897,33.8203 L58.9023,33.5995"/>
            <path d="M58.9023,33.5995 L58.9023,17.5317"/>
            <path d="M58.5897,33.8203 L58.5897,17.7525"/>
        </g>
        <g id="product-c97992b1-f41b-44c2-b07b-af1800adf738" class="IfcColumn material-woodStructural projection" ifc:name="C18 45x245 normalS&#248;jle" ifc:guid="39UPAnz1j4mh1xhnW0hVSu">
            <path d="M10.9939,31.2105 L10.9939,-7.28293"/>
            <path d="M11.3176,31.4236 L11.3176,-7.39885"/>
            <path d="M12.1058,-8.0682 L10.9939,-7.28293"/>
            <path d="M10.9939,-7.28293 L11.3176,-7.39885"/>
            <path d="M11.3176,-7.39885 L12.1058,-7.95551"/>
        </g>
        <g id="product-762ed230-ea4d-43c7-a546-17f3fc0af86f" class="IfcBeam material-woodStructural projection" ifc:name="OverliggerFladenTop" ifc:guid="1sBj8mwar3nwL65$Fy2lXl">
            <path d="M36.2217,33.2203 L36.2147,32.9499"/>
            <path d="M58.9023,17.5317 L58.9023,17.2026"/>
            <path d="M36.2217,33.2203 L36.2217,33.2203"/>
            <path d="M36.2217,33.5494 L36.2217,33.2203"/>
            <path d="M58.9023,17.5317 L58.5897,17.7524"/>
            <path d="M58.5897,17.7524 L36.2217,33.5494"/>
        </g>
        <g id="product-7a615061-172e-4e20-9fa8-00ea5fd7a7c8" class="IfcColumn material-woodStructural projection" ifc:name="C18 45x245 normalS&#248;jle ENDER.005" ifc:guid="1wOL1X5ovE89_e0EfVrwV8">
            <path d="M70.5581,5.54812 L70.5581,5.54812"/>
            <path d="M70.2455,5.76888 L70.2455,5.76889"/>
            <path d="M70.0267,25.4445 L70.2455,25.5886"/>
            <path d="M68.4831,8.98525 L68.4831,7.01353"/>
            <path d="M70.2455,5.76889 L70.5581,5.54812"/>
            <path d="M70.2455,25.5886 L70.5581,25.3678"/>
            <path d="M70.5581,25.3678 L70.5581,5.54812"/>
            <path d="M70.2455,25.5886 L70.2455,10.87"/>
            <path d="M70.2455,10.5409 L70.2455,5.76889"/>
        </g>
        <g id="product-8da2a4de-66e9-483e-a57f-20d7158cdd72" class="IfcBeam material-woodStructural projection" ifc:name="OverliggerTop" ifc:guid="2DegJUPkb8FgL$8DSLZDro">
            <path d="M14.0258,15.9571 L16.9953,17.9128"/>
            <path d="M17.9373,18.5331 L22.9898,21.8607"/>
            <path d="M23.9318,22.4811 L28.9843,25.8087"/>
            <path d="M29.9262,26.429 L34.1425,29.2059"/>
            <path d="M13.7132,16.1778 L16.9953,18.3394"/>
            <path d="M17.6247,18.7539 L22.9898,22.2874"/>
            <path d="M23.6192,22.7019 L28.9843,26.2353"/>
            <path d="M29.6136,26.6498 L34.1425,29.6325"/>
        </g>
        <g id="product-57309062-fad2-43f1-96ca-82f5ff73efc4" class="IfcColumn material-woodStructural projection" ifc:name="C18 45x245 normalS&#248;jle ENDER.004" ifc:guid="1NC91Y_j93yPRAWlN$S_$4">
            <path d="M70.8707,5.32734 L70.8707,5.32733"/>
            <path d="M70.5581,5.5481 L70.5581,5.5481"/>
            <path d="M70.5581,5.5481 L70.8707,5.32734"/>
            <path d="M70.5581,25.3678 L70.8707,25.147"/>
            <path d="M70.8707,25.147 L70.8707,5.32734"/>
            <path d="M70.5581,25.3678 L70.5581,5.5481"/>
        </g>
        <g id="product-6c9608e9-0181-458d-8709-cbf3946c2946" class="IfcBeam material-woodStructural projection" ifc:name="RemTop" ifc:guid="1ibWZf0O55ZOS9o$EKR2b6">
            <path d="M83.1974,-3.37814 L83.1974,-3.37815"/>
            <path d="M70.8707,5.65645 L70.8707,5.32734"/>
            <path d="M83.1974,-3.04903 L83.1974,-3.37814"/>
            <path d="M83.1974,-3.37814 L70.8707,5.32734"/>
            <path d="M83.1974,-3.04903 L70.8707,5.65645"/>
        </g>
        <g id="product-6ddc4057-c1a2-4644-85b0-8032574e12fc" class="IfcBeam material-woodStructural projection" ifc:name="OverliggerTop" ifc:guid="1jt41NmQ96H8MmW39NJXBy">
            <path d="M60.7294,13.6786 L55.5769,17.3175"/>
            <path d="M54.9406,17.7668 L49.7881,21.4057"/>
            <path d="M49.1518,21.855 L43.9993,25.4939"/>
            <path d="M43.363,25.9432 L38.2362,29.564"/>
            <path d="M37.5999,30.0133 L36.5343,30.7659"/>
            <path d="M60.4057,13.4654 L55.5769,16.8757"/>
            <path d="M54.6169,17.5536 L49.7881,20.9639"/>
            <path d="M48.8281,21.6418 L43.9993,25.0521"/>
            <path d="M43.0393,25.7301 L38.2362,29.1222"/>
            <path d="M37.2762,29.8001 L36.5343,30.3241"/>
            <path d="M60.7294,13.6786 L60.4057,13.4654"/>
        </g>
        <g id="product-98f7fde9-f708-4908-a6e6-918d476c907d" class="IfcColumn material-woodStructural projection" ifc:name="C18 45x245 SiderD&#248;reVinduer" ifc:guid="2Oz$tfzmX92ARcaOr7R91z">
            <path d="M58.5897,17.7524 L58.5897,17.7524"/>
            <path d="M58.2771,17.9732 L58.2771,17.9732"/>
            <path d="M57.3555,33.4341 L57.7883,33.7192"/>
            <path d="M58.0687,33.9038 L58.2771,34.041"/>
            <path d="M58.2771,17.9732 L58.5897,17.7524"/>
            <path d="M58.2771,34.041 L58.5897,33.8203"/>
            <path d="M58.5897,33.8203 L58.5897,17.7524"/>
            <path d="M58.2771,34.041 L58.2771,17.9732"/>
        </g>
        <g id="product-741a85e0-71a6-4794-bd2a-9a89c04d3f4b" class="IfcBeam material-woodStructural projection" ifc:name="RemBund" ifc:guid="1q6eNWSQP7bBqgced0JJzB">
            <path d="M12.7532,34.4901 L12.7532,34.4901"/>
            <path d="M12.7532,34.161 L12.7532,34.4901"/>
            <path d="M-8.98884,19.8417 L-8.98884,20.1708"/>
            <path d="M-8.98884,20.1708 L12.7532,34.4901"/>
            <path d="M12.7532,34.1609 L12.7532,34.161"/>
            <path d="M-7.28693,18.6397 L-8.98884,19.8417"/>
            <path d="M-8.98884,19.8417 L5.3162,29.2629"/>
            <path d="M12.7532,34.1609 L12.7532,34.161"/>
            <path d="M-7.28693,18.6397 L-0.995031,22.7836"/>
            <path d="M1.03058,24.1176 L4.99944,26.7315"/>
        </g>
        <g id="product-b913a710-b0db-4405-b859-c3939e2d07c4" class="IfcBeam material-woodStructural projection" ifc:name="OverliggerFladenTop.022" ifc:guid="2v4wSGiDj41RXPmvEUBGV4">
            <path d="M12.7532,17.7735 L12.7532,18.0931"/>
            <path d="M12.7532,18.0931 L36.2217,33.5494"/>
            <path d="M36.2217,33.2203 L36.2217,33.5494"/>
            <path d="M36.2217,33.2203 L36.2217,33.2203"/>
            <path d="M36.2147,33.2157 L36.2217,33.2203"/>
        </g>
        <g id="product-9c5b4dfc-47d1-45af-95c8-0b2e21e843fa" class="IfcBeam material-woodStructural projection" ifc:name="OverliggerFladenTop" ifc:guid="2SMqtyHz55hvN82ouXw4Fw">
            <path d="M73.7284,5.65197 L74.7608,6.33191"/>
            <path d="M74.7608,6.0028 L73.9695,5.48166"/>
            <path d="M101.436,-12.8358 L100.644,-13.3569"/>
            <path d="M74.7608,6.33191 L74.7608,6.0028"/>
            <path d="M101.436,-12.5067 L101.436,-12.8358"/>
            <path d="M101.436,-12.8358 L78.7321,3.19815"/>
            <path d="M78.4195,3.41891 L74.7608,6.0028"/>
            <path d="M101.436,-12.5067 L75.386,5.89037"/>
        </g>
        <g id="product-ef7ba474-4310-4cfc-a61d-86f5835d1182" class="IfcBeam material-woodStructural projection" ifc:name="RemBund" ifc:guid="3lUwHqGn1C$AOTXlM3NH62">
            <path d="M57.3555,33.7632 L57.7883,34.0483"/>
            <path d="M58.0687,34.2329 L58.2771,34.3701"/>
            <path d="M58.2771,34.041 L58.0687,33.9038"/>
            <path d="M57.7883,33.7192 L57.3555,33.4341"/>
            <path d="M68.3031,26.9603 L67.1545,26.2038"/>
            <path d="M65.0795,26.8316 L61.3657,29.4544"/>
            <path d="M59.2907,30.9198 L58.9023,31.1942"/>
            <path d="M58.2771,34.3701 L58.2771,34.041"/>
            <path d="M68.3031,27.2894 L68.3031,26.9603"/>
            <path d="M68.3031,26.9603 L67.1545,27.7715"/>
            <path d="M66.8419,27.9923 L61.3657,31.8597"/>
            <path d="M61.0531,32.0805 L58.9023,33.5995"/>
            <path d="M68.3031,27.2894 L58.2771,34.3701"/>
        </g>
        <g id="product-3ccdd8f0-360a-40de-81ee-db28e42d04bb" class="IfcBeam material-woodStructural projection" ifc:name="RemBund" ifc:guid="0ypTZmDWf0te7ksoZaBGIx">
            <path d="M70.454,25.4413 L70.6951,25.6001"/>
            <path d="M72.9984,21.239 L72.9433,21.278"/>
            <path d="M70.6951,25.6001 L70.6951,25.271"/>
            <path d="M75.386,22.2873 L75.386,21.9582"/>
            <path d="M74.7608,22.3997 L72.9433,23.6833"/>
            <path d="M72.6307,23.9041 L70.8707,25.147"/>
            <path d="M75.386,22.2873 L70.6951,25.6001"/>
        </g>
        <g id="product-f45689b1-c292-4348-a0f5-5bc18343889a" class="IfcWall material-masonry projection" ifc:name="Wall" ifc:guid="3qLecnmf93IA3rMy63GuYQ">
            <path d="M36.4308,-18.9069 L45.1891,-13.1387"/>
            <path d="M49.9906,-9.97645 L58.7489,-4.20824"/>
            <path d="M63.5503,-1.04602 L68.9327,2.49884"/>
            <path d="M62.1059,1.41584 L53.3476,-4.35237"/>
            <path d="M48.5462,-7.51459 L39.7879,-13.2828"/>
            <path d="M34.9865,-16.445 L28.5692,-20.6714"/>
            <path d="M22.9839,-2.4093 L22.9839,-8.98058"/>
            <path d="M22.9839,-13.8622 L22.9839,-16.656"/>
            <path d="M68.9327,2.49884 L66.6349,4.12163"/>
            <path d="M68.9327,3.96154 L68.9327,2.49884"/>
        </g>
        <g id="product-1646c202-5840-4fd6-8d91-36173cc9e740" class="IfcColumn material-woodStructural projection" ifc:name="C18 45x245 normalS&#248;jle" ifc:guid="0MHi82M41FresHDXSyoUT0">
            <path d="M13.1967,-7.59884 L13.0769,-7.51426"/>
            <path d="M13.4006,-7.30107 L13.4006,-7.30107"/>
            <path d="M15.1025,16.6662 L15.1025,-3.94051"/>
            <path d="M13.0769,-7.51426 L13.4006,-7.30107"/>
            <path d="M13.4006,16.3986 L13.4006,-7.30107"/>
            <path d="M13.0769,16.1854 L13.0769,-7.51426"/>
        </g>
        <g id="product-af73791e-8ef4-4a1b-9572-31463d280ec4" class="IfcBeam material-woodStructural projection" ifc:name="OverliggerTop" ifc:guid="2lStaUZlHA6vLoCKOzA0x4">
            <path d="M13.7063,16.1827 L16.9953,18.3489"/>
            <path d="M17.6177,18.7588 L22.9898,22.2968"/>
            <path d="M23.6122,22.7068 L28.9843,26.2448"/>
            <path d="M29.6067,26.6547 L34.1425,29.642"/>
            <path d="M36.2145,31.4237 L36.2147,31.4334"/>
            <path d="M12.7532,15.9722 L12.7463,15.9771"/>
            <path d="M12.7463,17.7689 L36.2147,33.2252"/>
            <path d="M12.7463,15.9771 L36.2147,31.4334"/>
            <path d="M36.2147,31.4334 L36.2147,33.2252"/>
            <path d="M12.7463,15.9771 L12.7463,17.7689"/>
        </g>
        <g id="product-7bcc63c5-46b1-459d-87fa-8c5162ac98d8" class="IfcBeam material-woodStructural projection" ifc:name="OverliggerTop" ifc:guid="1xp6F5Hh55dOVwZ55Yh9ZO">
            <path d="M61.0531,15.6836 L61.0531,13.8918"/>
            <path d="M61.0531,15.6836 L36.2217,33.2203"/>
            <path d="M36.2217,33.2203 L36.2217,31.4285"/>
            <path d="M36.2217,33.2203 L36.2217,33.2203"/>
            <path d="M61.0531,13.8918 L36.5343,31.2077"/>
            <path d="M36.2217,31.4285 L36.2217,31.4285"/>
            <path d="M36.2217,31.4285 L36.2217,31.4285"/>
            <path d="M60.7294,13.6786 L55.5769,17.3175"/>
            <path d="M54.9406,17.7668 L49.7881,21.4057"/>
            <path d="M49.1518,21.855 L43.9993,25.4939"/>
            <path d="M43.363,25.9433 L38.2362,29.564"/>
            <path d="M37.5999,30.0133 L36.5343,30.7659"/>
            <path d="M61.0531,13.8918 L61.0531,13.8918"/>
            <path d="M61.0531,13.8918 L60.7294,13.6786"/>
        </g>
        <g id="product-37a6d2b1-141c-40b8-9091-c53654dd73fb" class="IfcWall material-concreteInsitu projection" ifc:name="Wall" ifc:guid="0tfjAn51n0k92HnJPKtNFx">
            <path d="M67.4653,26.4085 L68.0426,26.0008"/>
            <path d="M75.7996,20.5225 L99.3758,3.87233"/>
            <path d="M100.599,3.00853 L118.275,-9.47512"/>
            <path d="M118.275,-9.47512 L118.312,-8.02861"/>
            <path d="M36.2217,49.9464 L36.2186,49.827"/>
            <path d="M118.312,-5.83455 L118.312,-8.02861"/>
            <path d="M118.312,-8.02861 L36.2217,49.9464"/>
            <path d="M36.2217,52.1404 L36.2217,49.9464"/>
            <path d="M118.312,-5.83455 L36.2217,52.1404"/>
        </g>
        <g id="product-6964c2bd-7fef-48d4-b978-51d33e8a3695" class="IfcBeam material-woodStructural projection" ifc:name="RemTop" ifc:guid="1fPCAzV_z8rBbuKTC_YZQL">
            <path d="M13.4006,-6.79172 L34.4593,28.4878"/>
            <path d="M34.4593,28.0224 L34.4593,28.3077"/>
            <path d="M13.4006,-7.25715 L25.4504,12.9298"/>
        </g>
        <g id="product-9f8bfb81-6e93-4c4c-a72e-269cfd6a6c76" class="IfcColumn material-woodStructural projection" ifc:name="C18 45x245 normalS&#248;jle" ifc:guid="2VY$k1RfDCJASk9fpzQcns">
            <path d="M-0.995031,25.1064 L-0.995031,-2.98965"/>
            <path d="M-0.995031,25.1064 L-0.671328,25.3196"/>
            <path d="M-0.671328,25.3196 L-0.671328,-3.10557"/>
            <path d="M1.03059,24.1176 L1.03059,-4.18046"/>
            <path d="M-0.671328,25.3196 L1.03059,24.1176"/>
            <path d="M0.341914,-3.93384 L-0.995031,-2.98965"/>
            <path d="M-0.995031,-2.98965 L-0.671328,-3.10557"/>
            <path d="M-0.671328,-3.10557 L0.665617,-4.04976"/>
        </g>
        <g id="product-2dabe1db-85b4-4468-8bbe-13c457d62c3a" class="IfcColumn material-woodStructural projection" ifc:name="C18 45x245 normalS&#248;jle" ifc:guid="0jg_7RXRH4Q8k_4yHNrYmw">
            <path d="M28.9843,26.6525 L28.9843,19.3156"/>
            <path d="M29.308,26.8657 L29.308,19.8579"/>
            <path d="M31.0099,27.1427 L31.0099,22.7091"/>
        </g>
        <g id="product-9dcd3a70-02ce-42ff-8b9a-0e3273387833" class="IfcColumn material-woodStructural projection" ifc:name="C18 45x245 normalS&#248;jle ENDER.004" ifc:guid="2TpJfm0iv2$ukQ3Z9pE7Wp">
            <path d="M12.113,-8.14911 L12.4295,-7.94064"/>
            <path d="M12.4295,32.1559 L12.4295,-7.94064"/>
            <path d="M12.1058,31.9427 L12.1058,-8.14653"/>
        </g>
        <g id="product-68f156a0-79e4-4384-876a-c16906846b56" class="IfcColumn material-woodStructural projection" ifc:name="C18 45x245 normalS&#248;jle" ifc:guid="1eyLQWUUH3X8TgmMa6X6jM">
            <path d="M4.99944,29.0543 L4.99944,-5.13629"/>
            <path d="M4.99944,29.0543 L5.3162,29.2629"/>
            <path d="M5.32315,27.4757 L5.32315,-5.25221"/>
            <path d="M7.02506,26.2738 L7.02506,-6.3271"/>
            <path d="M6.33638,-6.08048 L4.99944,-5.13629"/>
            <path d="M4.99944,-5.13629 L5.32315,-5.25221"/>
            <path d="M5.32315,-5.25221 L6.66009,-6.1964"/>
        </g>
        <g id="product-5afe8abb-238b-4b1e-a97a-8f6c98cd340d" class="IfcColumn material-woodStructural projection" ifc:name="C18 45x245 normalS&#248;jle" ifc:guid="1Q$egx8ujB7gbwZsoOpJGD">
            <path d="M34.1425,30.0497 L34.1425,27.9572"/>
        </g>
        <g id="product-0cc1f449-00cf-4630-8b5e-7e102b8fb2ea" class="IfcMember material-null projection" ifc:name="OverVinduerS&#248;jle.003" ifc:guid="0CmVH90Cz6C8jUVX0hZxBg">
            <path d="M78.7321,-0.224586 L78.4195,-0.00382144"/>
            <path d="M78.7321,3.19815 L78.7321,-0.224586"/>
            <path d="M78.7321,3.19815 L78.4195,3.41891"/>
            <path d="M78.4195,-0.00382144 L78.4195,3.41891"/>
            <path d="M77.6282,2.89778 L78.4195,3.41891"/>
        </g>
        <g id="product-faa34cab-d17c-48c6-a599-9b99c34b8ef7" class="IfcMember material-null projection" ifc:name="I-profil 45x400, normal sp&#230;r byg 1" ifc:guid="3weqohqNn8ngMPcvd3Iuxt">
            <path d="M14.5052,-13.0497 L14.5052,-10.2882"/>
            <path d="M14.4115,-13.2068 L25.5664,5.4811"/>
            <path d="M14.4115,-13.2068 L14.4115,-13.6715"/>
            <path d="M14.4115,-13.6715 L14.4115,-13.6929"/>
            <path d="M14.4115,-13.6929 L25.8055,5.39549"/>
            <path d="M14.7241,-13.9137 L14.4115,-13.6929"/>
            <path d="M14.7241,-13.9137 L26.1181,5.17473"/>
            <path d="M37.9941,28.22 L38.1192,28.1317"/>
            <path d="M37.9003,26.1441 L37.9941,26.0779"/>
            <path d="M38.2129,25.9234 L38.2129,25.4373"/>
            <path d="M38.1192,25.9896 L38.2129,25.9234"/>
            <path d="M38.1192,28.1317 L38.1192,25.9896"/>
            <path d="M37.9917,28.2184 L37.9941,28.22"/>
            <path d="M37.9941,26.0779 L37.9941,28.22"/>
            <path d="M37.9003,26.1441 L25.5664,5.4811"/>
            <path d="M37.9003,25.658 L37.9003,26.1441"/>
            <path d="M37.9003,25.658 L25.8055,5.39549"/>
            <path d="M38.2129,25.4373 L37.9003,25.658"/>
            <path d="M38.2129,25.4373 L26.1181,5.17473"/>
            <path d="M36.9881,27.5574 L36.5367,26.8012"/>
            <path d="M36.8943,27.6236 L36.5367,27.0245"/>
            <path d="M-9.07253,-4.80848 L-9.07253,-5.28321"/>
            <path d="M-8.75994,-5.50397 L0.124695,-8.68558"/>
            <path d="M-9.07253,-5.28321 L-8.75994,-5.50397"/>
            <path d="M-9.07253,-5.28321 L-0.187901,-8.46482"/>
            <path d="M14.5052,-10.2882 L14.5052,-13.0497"/>
            <path d="M14.4115,-13.2068 L14.4115,-13.6929"/>
            <path d="M14.4115,-13.2068 L13.0534,-12.7205"/>
            <path d="M14.4115,-13.6929 L14.4115,-13.6929"/>
            <path d="M14.4115,-13.6929 L-0.187901,-8.46482"/>
            <path d="M14.7241,-13.9137 L0.124695,-8.68558"/>
        </g>
        <g id="product-0446e43f-922c-4a0d-8683-24096ddd986f" class="IfcMember material-null projection" ifc:name="I-profil 45x400, normal sp&#230;r byg 1.001" ifc:guid="04HkG$aYnA3OQ390bjtPXl">
            <path d="M20.2003,-13.644 L29.5597,2.03587"/>
            <path d="M20.2003,-14.0506 L20.2003,-13.644"/>
            <path d="M20.2003,-14.0506 L20.2003,-14.1301"/>
            <path d="M20.2003,-14.1301 L29.7987,1.95026"/>
            <path d="M20.294,-14.1963 L20.2003,-14.1301"/>
            <path d="M20.294,-14.1963 L29.8925,1.88403"/>
            <path d="M20.294,-17.1379 L20.294,-14.1963"/>
            <path d="M20.2003,-17.295 L31.3552,1.39288"/>
            <path d="M20.2003,-17.295 L20.2003,-17.7598"/>
            <path d="M20.2003,-17.7598 L20.2003,-17.7811"/>
            <path d="M20.2003,-17.7811 L31.5943,1.30727"/>
            <path d="M20.5129,-18.0019 L20.2003,-17.7811"/>
            <path d="M20.5129,-18.0019 L31.9069,1.08651"/>
            <path d="M43.7829,24.1318 L43.908,24.0435"/>
            <path d="M43.6891,22.0559 L43.7829,21.9897"/>
            <path d="M44.0017,21.8352 L44.0017,21.349"/>
            <path d="M43.908,21.9014 L44.0017,21.8352"/>
            <path d="M43.908,24.0435 L43.908,21.9014"/>
            <path d="M43.7805,24.1302 L43.7829,24.1318"/>
            <path d="M43.7829,21.9897 L43.7829,24.1318"/>
            <path d="M43.6891,22.0559 L31.3552,1.39288"/>
            <path d="M43.6891,21.5698 L43.6891,22.0559"/>
            <path d="M43.6891,21.5698 L31.5943,1.30727"/>
            <path d="M44.0017,21.349 L43.6891,21.5698"/>
            <path d="M44.0017,21.349 L31.9069,1.08651"/>
            <path d="M42.7769,23.4692 L29.8925,1.88403"/>
            <path d="M42.205,23.2205 L29.5597,2.03587"/>
            <path d="M42.6831,23.5354 L29.7987,1.95026"/>
            <path d="M-3.18996,-7.4986 L-3.18996,-8.91889"/>
            <path d="M-3.28374,-8.88531 L-3.28374,-9.37143"/>
            <path d="M-3.28374,-8.88531 L5.83996,-12.1525"/>
            <path d="M-2.97114,-9.59219 L5.91349,-12.7738"/>
            <path d="M-3.28374,-9.37143 L-2.97114,-9.59219"/>
            <path d="M-3.28374,-9.37143 L5.6009,-12.553"/>
            <path d="M20.2003,-13.644 L20.2003,-14.1301"/>
            <path d="M20.2003,-13.644 L15.8211,-12.0758"/>
            <path d="M20.2003,-14.1301 L20.294,-14.1963"/>
            <path d="M20.2003,-14.1301 L15.582,-12.4763"/>
            <path d="M20.294,-14.1963 L20.294,-17.1379"/>
            <path d="M20.294,-14.1963 L15.566,-12.5032"/>
            <path d="M20.2003,-17.295 L20.2003,-17.7811"/>
            <path d="M20.2003,-17.295 L5.83996,-12.1525"/>
            <path d="M20.2003,-17.7811 L20.2003,-17.7811"/>
            <path d="M20.2003,-17.7811 L5.6009,-12.553"/>
            <path d="M20.5129,-18.0019 L5.91349,-12.7738"/>
        </g>
        <g id="product-fa83a69c-0ba2-4d20-970f-336393f33e39" class="IfcMember material-null projection" ifc:name="I-profil 45x400, normal sp&#230;r byg 1.002" ifc:guid="3wWwQS2w9D89SFCsEJypuv">
            <path d="M25.9891,-17.7322 L35.3485,-2.05235"/>
            <path d="M25.9891,-18.1388 L25.9891,-17.7322"/>
            <path d="M25.9891,-18.1388 L25.9891,-18.2183"/>
            <path d="M25.9891,-18.2183 L35.5875,-2.13796"/>
            <path d="M26.0828,-18.2845 L25.9891,-18.2183"/>
            <path d="M26.0828,-18.2845 L35.6813,-2.20419"/>
            <path d="M26.0828,-21.2261 L26.0828,-18.2845"/>
            <path d="M25.9891,-21.3832 L37.144,-2.69534"/>
            <path d="M25.9891,-21.3832 L25.9891,-21.848"/>
            <path d="M25.9891,-21.848 L25.9891,-21.8693"/>
            <path d="M25.9891,-21.8693 L37.3831,-2.78095"/>
            <path d="M26.3017,-22.0901 L25.9891,-21.8693"/>
            <path d="M26.3017,-22.0901 L37.6957,-3.00171"/>
            <path d="M49.5717,20.0436 L49.6968,19.9553"/>
            <path d="M49.4779,17.9677 L49.5717,17.9015"/>
            <path d="M49.7905,17.7469 L49.7905,17.2608"/>
            <path d="M49.6968,17.8132 L49.7905,17.7469"/>
            <path d="M49.6968,19.9553 L49.6968,17.8132"/>
            <path d="M49.5693,20.0419 L49.5717,20.0436"/>
            <path d="M49.5717,17.9015 L49.5717,20.0436"/>
            <path d="M49.4779,17.9677 L37.144,-2.69534"/>
            <path d="M49.4779,17.4816 L49.4779,17.9677"/>
            <path d="M49.4779,17.4816 L37.3831,-2.78095"/>
            <path d="M49.7905,17.2608 L49.4779,17.4816"/>
            <path d="M49.7905,17.2608 L37.6957,-3.00171"/>
            <path d="M48.5657,19.381 L35.6813,-2.20419"/>
            <path d="M47.9938,19.1323 L35.3485,-2.05235"/>
            <path d="M48.4719,19.4472 L35.5875,-2.13796"/>
            <path d="M2.59884,-11.5868 L2.59884,-13.0071"/>
            <path d="M2.50506,-12.9735 L2.50506,-13.4596"/>
            <path d="M2.50506,-12.9735 L11.6288,-16.2408"/>
            <path d="M2.81766,-13.6804 L11.7023,-16.862"/>
            <path d="M2.50506,-13.4596 L2.81766,-13.6804"/>
            <path d="M2.50506,-13.4596 L11.3897,-16.6413"/>
            <path d="M25.9891,-17.7322 L25.9891,-18.2183"/>
            <path d="M25.9891,-17.7322 L21.6099,-16.164"/>
            <path d="M25.9891,-18.2183 L26.0828,-18.2845"/>
            <path d="M25.9891,-18.2183 L21.3708,-16.5645"/>
            <path d="M26.0828,-18.2845 L26.0828,-21.2261"/>
            <path d="M26.0828,-18.2845 L21.3548,-16.5914"/>
            <path d="M25.9891,-21.3832 L25.9891,-21.8693"/>
            <path d="M25.9891,-21.3832 L11.6288,-16.2408"/>
            <path d="M25.9891,-21.8693 L25.9891,-21.8693"/>
            <path d="M25.9891,-21.8693 L11.3897,-16.6413"/>
            <path d="M26.3017,-22.0901 L11.7023,-16.862"/>
        </g>
        <g id="product-acd3a20e-2cb5-44bd-9e20-4e00074a60ec" class="IfcMember material-null projection" ifc:name="I-profil 45x400, normal sp&#230;r byg 1.003" ifc:guid="2iqw8EBBL4lPuWJW07Ic3i">
            <path d="M31.7779,-21.8204 L41.1373,-6.14057"/>
            <path d="M31.7779,-22.227 L31.7779,-21.8204"/>
            <path d="M31.7779,-22.227 L31.7779,-22.3065"/>
            <path d="M31.7779,-22.3065 L41.3763,-6.22619"/>
            <path d="M31.8716,-22.3728 L31.7779,-22.3065"/>
            <path d="M31.8716,-22.3728 L41.4701,-6.29241"/>
            <path d="M31.8716,-25.3143 L31.8716,-22.3728"/>
            <path d="M31.7779,-25.4714 L42.9328,-6.78356"/>
            <path d="M31.7779,-25.4714 L31.7779,-25.9362"/>
            <path d="M31.7779,-25.9362 L31.7779,-25.9576"/>
            <path d="M31.7779,-25.9576 L43.1719,-6.86917"/>
            <path d="M32.0905,-26.1783 L31.7779,-25.9576"/>
            <path d="M32.0905,-26.1783 L43.4845,-7.08994"/>
            <path d="M55.3605,15.9553 L55.4856,15.867"/>
            <path d="M55.2667,13.8795 L55.3605,13.8132"/>
            <path d="M55.5793,13.6587 L55.5793,13.1726"/>
            <path d="M55.4856,13.7249 L55.5793,13.6587"/>
            <path d="M55.4856,15.867 L55.4856,13.7249"/>
            <path d="M55.3581,15.9537 L55.3605,15.9553"/>
            <path d="M55.3605,13.8132 L55.3605,15.9553"/>
            <path d="M55.2667,13.8795 L42.9328,-6.78356"/>
            <path d="M55.2667,13.3934 L55.2667,13.8795"/>
            <path d="M55.2667,13.3934 L43.1719,-6.86917"/>
            <path d="M55.5793,13.1726 L55.2667,13.3934"/>
            <path d="M55.5793,13.1726 L43.4845,-7.08994"/>
            <path d="M54.3545,15.2928 L41.4701,-6.29241"/>
            <path d="M53.7826,15.0441 L41.1373,-6.14057"/>
            <path d="M54.2607,15.359 L41.3763,-6.22619"/>
            <path d="M8.38764,-15.675 L8.38764,-17.0953"/>
            <path d="M8.29386,-17.0618 L8.29386,-17.5479"/>
            <path d="M8.29386,-17.0618 L17.4176,-20.329"/>
            <path d="M8.60645,-17.7686 L17.4911,-20.9502"/>
            <path d="M8.29386,-17.5479 L8.60645,-17.7686"/>
            <path d="M8.29386,-17.5479 L17.1785,-20.7295"/>
            <path d="M31.7779,-21.8204 L31.7779,-22.3065"/>
            <path d="M31.7779,-21.8204 L27.3987,-20.2522"/>
            <path d="M31.7779,-22.3065 L31.8716,-22.3727"/>
            <path d="M31.7779,-22.3065 L27.1596,-20.6527"/>
            <path d="M31.8716,-22.3727 L31.8716,-25.3143"/>
            <path d="M31.8716,-22.3727 L27.1436,-20.6796"/>
            <path d="M31.7779,-25.4714 L31.7779,-25.9576"/>
            <path d="M31.7779,-25.4714 L17.4176,-20.329"/>
            <path d="M31.7779,-25.9576 L31.7779,-25.9576"/>
            <path d="M31.7779,-25.9576 L17.1785,-20.7295"/>
            <path d="M32.0904,-26.1783 L17.4911,-20.9502"/>
        </g>
        <g id="product-fafad91e-6107-40d0-ba5c-6efd3d54343f" class="IfcMember material-null projection" ifc:name="I-profil 45x400, normal sp&#230;r byg 1.004" ifc:guid="3w_jaUOGT0qBfSRlqzL3G$">
            <path d="M37.5667,-25.9086 L46.9261,-10.2288"/>
            <path d="M37.5667,-26.3153 L37.5667,-25.9086"/>
            <path d="M37.5667,-26.3153 L37.5667,-26.3947"/>
            <path d="M37.5667,-26.3947 L47.1651,-10.3144"/>
            <path d="M37.6604,-26.461 L37.5667,-26.3947"/>
            <path d="M37.6604,-26.461 L47.2589,-10.3806"/>
            <path d="M37.6604,-29.4026 L37.6604,-26.461"/>
            <path d="M37.5667,-29.5597 L48.7216,-10.8718"/>
            <path d="M37.5667,-29.5597 L37.5667,-30.0244"/>
            <path d="M37.5667,-30.0244 L37.5667,-30.0458"/>
            <path d="M37.5667,-30.0458 L48.9607,-10.9574"/>
            <path d="M37.8792,-30.2665 L37.5667,-30.0458"/>
            <path d="M37.8792,-30.2665 L49.2733,-11.1782"/>
            <path d="M61.1493,11.8671 L61.2744,11.7788"/>
            <path d="M61.0555,9.79125 L61.1493,9.72502"/>
            <path d="M61.3681,9.57049 L61.3681,9.08437"/>
            <path d="M61.2744,9.63672 L61.3681,9.57049"/>
            <path d="M61.2744,11.7788 L61.2744,9.63672"/>
            <path d="M61.1469,11.8655 L61.1493,11.8671"/>
            <path d="M61.1493,9.72502 L61.1493,11.8671"/>
            <path d="M61.0555,9.79125 L48.7216,-10.8718"/>
            <path d="M61.0555,9.30514 L61.0555,9.79125"/>
            <path d="M61.0555,9.30514 L48.9607,-10.9574"/>
            <path d="M61.3681,9.08437 L61.0555,9.30514"/>
            <path d="M61.3681,9.08437 L49.2733,-11.1782"/>
            <path d="M60.1433,11.2045 L47.2589,-10.3806"/>
            <path d="M59.5714,10.9559 L46.9261,-10.2288"/>
            <path d="M60.0495,11.2708 L47.1651,-10.3144"/>
            <path d="M14.1764,-19.7633 L14.1764,-21.1836"/>
            <path d="M14.0827,-21.15 L14.0827,-21.6361"/>
            <path d="M14.0827,-21.15 L23.2064,-24.4172"/>
            <path d="M14.3953,-21.8569 L23.2799,-25.0385"/>
            <path d="M14.0827,-21.6361 L14.3953,-21.8569"/>
            <path d="M14.0827,-21.6361 L22.9673,-24.8177"/>
            <path d="M37.5667,-25.9086 L37.5667,-26.3947"/>
            <path d="M37.5667,-25.9086 L33.1875,-24.3404"/>
            <path d="M37.5667,-26.3947 L37.6604,-26.461"/>
            <path d="M37.5667,-26.3947 L32.9484,-24.7409"/>
            <path d="M37.6604,-26.461 L37.6604,-29.4026"/>
            <path d="M37.6604,-26.461 L32.9324,-24.7678"/>
            <path d="M37.5667,-29.5597 L37.5667,-30.0458"/>
            <path d="M37.5667,-29.5597 L23.2064,-24.4172"/>
            <path d="M37.5667,-30.0458 L37.5667,-30.0458"/>
            <path d="M37.5667,-30.0458 L22.9673,-24.8177"/>
            <path d="M37.8792,-30.2665 L23.2799,-25.0385"/>
        </g>
        <g id="product-c37b0981-0655-486b-a18a-94eaade273bd" class="IfcMember material-null projection" ifc:name="I-profil 45x400, normal sp&#230;r byg 1.005" ifc:guid="33Umc11bL8Qw6AbEgjudEz">
            <path d="M43.3554,-29.9968 L52.7149,-14.317"/>
            <path d="M43.3555,-30.4035 L43.3554,-29.9968"/>
            <path d="M43.3555,-30.4035 L43.3555,-30.483"/>
            <path d="M43.3555,-30.483 L52.9539,-14.4026"/>
            <path d="M43.4492,-30.5492 L43.3555,-30.483"/>
            <path d="M43.4492,-30.5492 L53.0477,-14.4689"/>
            <path d="M43.4492,-33.4908 L43.4492,-30.5492"/>
            <path d="M43.3555,-33.6479 L54.5104,-14.96"/>
            <path d="M43.3555,-33.6479 L43.3554,-34.1126"/>
            <path d="M43.3554,-34.1126 L43.3555,-34.134"/>
            <path d="M43.3555,-34.134 L54.7495,-15.0456"/>
            <path d="M43.668,-34.3548 L43.3555,-34.134"/>
            <path d="M43.668,-34.3548 L55.0621,-15.2664"/>
            <path d="M66.9381,7.77889 L67.0632,7.69058"/>
            <path d="M66.8443,5.70303 L66.9381,5.6368"/>
            <path d="M67.1569,5.48226 L67.1569,4.99615"/>
            <path d="M67.0632,5.54849 L67.1569,5.48226"/>
            <path d="M67.0632,7.69058 L67.0632,5.54849"/>
            <path d="M66.9357,7.77728 L66.9381,7.77889"/>
            <path d="M66.9381,5.6368 L66.9381,7.77889"/>
            <path d="M66.8443,5.70303 L54.5104,-14.96"/>
            <path d="M66.8443,5.21692 L66.8443,5.70303"/>
            <path d="M66.8443,5.21692 L54.7495,-15.0456"/>
            <path d="M67.1569,4.99615 L66.8443,5.21692"/>
            <path d="M67.1569,4.99615 L55.0621,-15.2664"/>
            <path d="M65.9321,7.11632 L53.0477,-14.4689"/>
            <path d="M65.8383,7.18255 L65.9321,7.11632"/>
            <path d="M65.3602,6.86764 L52.7149,-14.317"/>
            <path d="M65.8383,7.18255 L52.9539,-14.4026"/>
            <path d="M19.9652,-23.8515 L19.9652,-25.2718"/>
            <path d="M19.8715,-25.2382 L19.8715,-25.7243"/>
            <path d="M19.8715,-25.2382 L28.9952,-28.5054"/>
            <path d="M20.184,-25.9451 L29.0687,-29.1267"/>
            <path d="M19.8715,-25.7243 L20.184,-25.9451"/>
            <path d="M19.8715,-25.7243 L28.7561,-28.9059"/>
            <path d="M43.3554,-29.9968 L43.3555,-30.483"/>
            <path d="M43.3554,-29.9968 L38.9763,-28.4287"/>
            <path d="M43.3555,-30.483 L43.4492,-30.5492"/>
            <path d="M43.3555,-30.483 L38.7372,-28.8292"/>
            <path d="M43.4492,-30.5492 L43.4492,-33.4908"/>
            <path d="M43.4492,-30.5492 L38.7212,-28.8561"/>
            <path d="M43.3555,-33.6479 L43.3554,-34.134"/>
            <path d="M43.3555,-33.6479 L28.9952,-28.5054"/>
            <path d="M43.3554,-34.134 L43.3555,-34.134"/>
            <path d="M43.3554,-34.134 L28.7561,-28.9059"/>
            <path d="M43.668,-34.3548 L29.0687,-29.1267"/>
        </g>
        <g id="product-b260cbe5-6dfb-43bb-b322-1e4be865af0b" class="IfcMember material-null projection" ifc:name="I-profil 45x400, normal sp&#230;r byg 1.006" ifc:guid="2oOClbRVj3kxCY7alePQyB">
            <path d="M49.1442,-34.0851 L58.5037,-18.4052"/>
            <path d="M49.1442,-34.4917 L49.1442,-34.0851"/>
            <path d="M49.1442,-34.4917 L49.1442,-34.5712"/>
            <path d="M49.1442,-34.5712 L58.7427,-18.4909"/>
            <path d="M49.238,-34.6374 L49.1442,-34.5712"/>
            <path d="M49.238,-34.6374 L58.8365,-18.5571"/>
            <path d="M49.238,-37.579 L49.238,-34.6374"/>
            <path d="M49.1442,-37.7361 L60.2992,-19.0482"/>
            <path d="M49.1442,-37.7361 L49.1442,-38.2009"/>
            <path d="M49.1442,-38.2009 L49.1442,-38.2222"/>
            <path d="M49.1442,-38.2222 L60.5383,-19.1338"/>
            <path d="M49.4568,-38.443 L49.1442,-38.2222"/>
            <path d="M49.4568,-38.443 L60.8509,-19.3546"/>
            <path d="M72.7269,3.69067 L72.8519,3.60237"/>
            <path d="M72.6331,1.61481 L72.7269,1.54858"/>
            <path d="M72.9457,1.39404 L72.9457,0.907932"/>
            <path d="M72.8519,1.46027 L72.9457,1.39404"/>
            <path d="M72.8519,3.60237 L72.8519,1.46027"/>
            <path d="M72.7245,3.68906 L72.7269,3.69067"/>
            <path d="M72.7269,1.54858 L72.7269,3.69067"/>
            <path d="M72.6331,1.61481 L60.2992,-19.0482"/>
            <path d="M72.6331,1.1287 L72.6331,1.61481"/>
            <path d="M72.6331,1.1287 L60.5383,-19.1338"/>
            <path d="M72.9457,0.907932 L72.6331,1.1287"/>
            <path d="M72.9457,0.907932 L60.8509,-19.3546"/>
            <path d="M71.7209,3.02809 L58.8365,-18.5571"/>
            <path d="M71.149,2.77942 L58.5037,-18.4052"/>
            <path d="M71.6271,3.09432 L58.7427,-18.4909"/>
            <path d="M25.754,-27.9397 L25.754,-29.36"/>
            <path d="M25.6602,-29.3264 L25.6602,-29.8125"/>
            <path d="M25.6602,-29.3264 L34.7839,-32.5936"/>
            <path d="M25.9728,-30.0333 L34.8575,-33.2149"/>
            <path d="M25.6602,-29.8125 L25.9728,-30.0333"/>
            <path d="M25.6602,-29.8125 L34.5449,-32.9941"/>
            <path d="M49.1442,-34.0851 L49.1442,-34.5712"/>
            <path d="M49.1442,-34.0851 L44.7651,-32.5169"/>
            <path d="M49.1442,-34.5712 L49.238,-34.6374"/>
            <path d="M49.1442,-34.5712 L44.526,-32.9174"/>
            <path d="M49.238,-34.6374 L49.238,-37.579"/>
            <path d="M49.238,-34.6374 L44.51,-32.9443"/>
            <path d="M49.1442,-37.7361 L49.1442,-38.2222"/>
            <path d="M49.1442,-37.7361 L34.7839,-32.5936"/>
            <path d="M49.1442,-38.2222 L49.1442,-38.2222"/>
            <path d="M49.1442,-38.2222 L34.5449,-32.9941"/>
            <path d="M49.4568,-38.443 L34.8575,-33.2149"/>
        </g>
        <g id="product-fd18cd1f-2a2a-419d-a731-269cfb15e322" class="IfcMember material-null projection" ifc:name="I-profil 45x400, normal sp&#230;r byg 1.007" ifc:guid="3z6CqVAYf1dQSn9fpx5UCY">
            <path d="M54.933,-38.1733 L64.2925,-22.4935"/>
            <path d="M54.933,-38.5799 L54.933,-38.1733"/>
            <path d="M54.933,-38.5799 L54.933,-38.6594"/>
            <path d="M54.933,-38.6594 L64.5315,-22.5791"/>
            <path d="M55.0268,-38.7256 L54.933,-38.6594"/>
            <path d="M55.0268,-38.7256 L64.6253,-22.6453"/>
            <path d="M55.0268,-41.6672 L55.0268,-38.7256"/>
            <path d="M54.933,-41.8243 L66.088,-23.1364"/>
            <path d="M54.933,-41.8243 L54.933,-42.2891"/>
            <path d="M54.933,-42.2891 L54.933,-42.3104"/>
            <path d="M54.933,-42.3104 L66.3271,-23.2221"/>
            <path d="M55.2456,-42.5312 L54.933,-42.3104"/>
            <path d="M55.2456,-42.5312 L66.6397,-23.4428"/>
            <path d="M78.5157,-0.397551 L78.6407,-0.485857"/>
            <path d="M78.4219,-2.47341 L78.5157,-2.53964"/>
            <path d="M78.7345,-2.69418 L78.7345,-3.18029"/>
            <path d="M78.6407,-2.62795 L78.7345,-2.69418"/>
            <path d="M78.6407,-0.485857 L78.6407,-2.62795"/>
            <path d="M78.5133,-0.399162 L78.5157,-0.397551"/>
            <path d="M78.5157,-2.53964 L78.5157,-0.397551"/>
            <path d="M78.4219,-2.47341 L66.088,-23.1364"/>
            <path d="M78.4219,-2.95953 L78.4219,-2.47341"/>
            <path d="M78.4219,-2.95953 L66.3271,-23.2221"/>
            <path d="M78.7345,-3.18029 L78.4219,-2.95953"/>
            <path d="M78.7345,-3.18029 L66.6397,-23.4428"/>
            <path d="M77.5097,-1.06013 L64.6253,-22.6453"/>
            <path d="M76.9378,-1.3088 L64.2925,-22.4935"/>
            <path d="M77.4159,-0.9939 L64.5315,-22.5791"/>
            <path d="M31.5428,-32.0279 L31.5428,-33.4482"/>
            <path d="M31.449,-33.4146 L31.449,-33.9008"/>
            <path d="M31.449,-33.4146 L40.5727,-36.6819"/>
            <path d="M31.7616,-34.1215 L40.6463,-37.3031"/>
            <path d="M31.449,-33.9008 L31.7616,-34.1215"/>
            <path d="M31.449,-33.9008 L40.3337,-37.0824"/>
            <path d="M54.933,-38.1733 L54.933,-38.6594"/>
            <path d="M54.933,-38.1733 L50.5539,-36.6051"/>
            <path d="M54.933,-38.6594 L55.0268,-38.7256"/>
            <path d="M54.933,-38.6594 L50.3148,-37.0056"/>
            <path d="M55.0268,-38.7256 L55.0268,-41.6672"/>
            <path d="M55.0268,-38.7256 L50.2988,-37.0325"/>
            <path d="M54.933,-41.8243 L54.933,-42.3104"/>
            <path d="M54.933,-41.8243 L40.5727,-36.6819"/>
            <path d="M54.933,-42.3104 L54.933,-42.3105"/>
            <path d="M54.933,-42.3104 L40.3337,-37.0824"/>
            <path d="M55.2456,-42.5312 L40.6463,-37.3031"/>
        </g>
        <g id="product-756db0e5-a96a-4bb3-b3dd-936a483e0665" class="IfcMember material-null projection" ifc:name="I-profil 45x400, normal sp&#230;r byg 1.008" ifc:guid="1rRR3bgMfBixFTasf8FWPb">
            <path d="M60.7218,-42.2615 L70.0813,-26.5817"/>
            <path d="M60.7218,-42.6682 L60.7218,-42.2615"/>
            <path d="M60.7218,-42.6682 L60.7218,-42.7476"/>
            <path d="M60.7218,-42.7476 L70.3203,-26.6673"/>
            <path d="M60.8156,-42.8139 L60.7218,-42.7476"/>
            <path d="M60.8156,-42.8139 L70.4141,-26.7335"/>
            <path d="M60.8156,-45.7555 L60.8156,-42.8139"/>
            <path d="M60.7218,-45.9126 L71.8768,-27.2247"/>
            <path d="M60.7218,-45.9126 L60.7218,-46.3773"/>
            <path d="M60.7218,-46.3773 L60.7218,-46.3987"/>
            <path d="M60.7218,-46.3987 L72.1159,-27.3103"/>
            <path d="M61.0344,-46.6194 L60.7218,-46.3987"/>
            <path d="M61.0344,-46.6194 L72.4285,-27.531"/>
            <path d="M84.3045,-4.48577 L84.4295,-4.57408"/>
            <path d="M84.2107,-6.56164 L84.3045,-6.62787"/>
            <path d="M84.5233,-6.7824 L84.5233,-7.26851"/>
            <path d="M84.4295,-6.71617 L84.5233,-6.7824"/>
            <path d="M84.4295,-4.57408 L84.4295,-6.71617"/>
            <path d="M84.3021,-4.48738 L84.3045,-4.48577"/>
            <path d="M84.3045,-6.62787 L84.3045,-4.48577"/>
            <path d="M84.2107,-6.56164 L71.8768,-27.2247"/>
            <path d="M84.2107,-7.04775 L84.2107,-6.56164"/>
            <path d="M84.2107,-7.04775 L72.1159,-27.3103"/>
            <path d="M84.5233,-7.26851 L84.2107,-7.04775"/>
            <path d="M84.5233,-7.26851 L72.4285,-27.531"/>
            <path d="M83.2985,-5.14835 L70.4141,-26.7335"/>
            <path d="M83.2047,-5.08212 L83.2985,-5.14835"/>
            <path d="M82.7266,-5.39702 L70.0813,-26.5817"/>
            <path d="M83.2047,-5.08212 L70.3203,-26.6673"/>
            <path d="M37.3316,-36.1161 L37.3316,-37.5364"/>
            <path d="M37.2378,-37.5029 L37.2378,-37.989"/>
            <path d="M37.2378,-37.5029 L46.3615,-40.7701"/>
            <path d="M37.5504,-38.2097 L46.4351,-41.3914"/>
            <path d="M37.2378,-37.989 L37.5504,-38.2097"/>
            <path d="M37.2378,-37.989 L46.1225,-41.1706"/>
            <path d="M60.7218,-42.2615 L60.7218,-42.7476"/>
            <path d="M60.7218,-42.2615 L56.3427,-40.6933"/>
            <path d="M60.7218,-42.7476 L60.8156,-42.8139"/>
            <path d="M60.7218,-42.7476 L56.1036,-41.0938"/>
            <path d="M60.8156,-42.8139 L60.8156,-45.7554"/>
            <path d="M60.8156,-42.8139 L56.0876,-41.1207"/>
            <path d="M60.7218,-45.9126 L60.7218,-46.3987"/>
            <path d="M60.7218,-45.9126 L46.3615,-40.7701"/>
            <path d="M60.7218,-46.3987 L60.7218,-46.3987"/>
            <path d="M60.7218,-46.3987 L46.1225,-41.1706"/>
            <path d="M61.0344,-46.6194 L46.4351,-41.3914"/>
        </g>
        <g id="product-5b20a9cc-c8b3-4a4a-8373-a19798136a11" class="IfcMember material-null projection" ifc:name="I-profil 45x400, normal sp&#230;r byg 1" ifc:guid="1R8AdCoBDAIeDpePUO4seH">
            <path d="M12.7352,-8.37192 L13.3574,-7.32951"/>
            <path d="M13.4006,-7.25717 L22.0946,7.3079"/>
            <path d="M12.7352,-8.77857 L12.7352,-8.37192"/>
            <path d="M12.7352,-8.77857 L12.7352,-8.85804"/>
            <path d="M12.7352,-8.85804 L22.3337,7.22229"/>
            <path d="M12.829,-8.92427 L12.7352,-8.85804"/>
            <path d="M12.829,-8.92427 L22.4275,7.15606"/>
            <path d="M12.829,-11.8659 L12.829,-8.92427"/>
            <path d="M12.7352,-12.023 L23.8902,6.66492"/>
            <path d="M12.7352,-12.023 L12.7352,-12.4877"/>
            <path d="M12.7352,-12.4877 L12.7352,-12.5091"/>
            <path d="M12.7352,-12.5091 L24.1292,6.57931"/>
            <path d="M13.0478,-12.7298 L12.7352,-12.5091"/>
            <path d="M13.0478,-12.7298 L24.4418,6.35854"/>
            <path d="M36.3179,29.4038 L36.4429,29.3155"/>
            <path d="M36.2241,27.328 L36.3179,27.2617"/>
            <path d="M36.5367,27.1072 L36.5367,26.6211"/>
            <path d="M36.4429,27.1734 L36.5367,27.1072"/>
            <path d="M36.4429,29.3155 L36.4429,27.1734"/>
            <path d="M36.3154,29.4022 L36.3179,29.4038"/>
            <path d="M36.3179,27.2617 L36.3179,29.4038"/>
            <path d="M36.2241,27.328 L23.8902,6.66492"/>
            <path d="M36.2241,26.8418 L36.2241,27.328"/>
            <path d="M36.2241,26.8418 L24.1292,6.57931"/>
            <path d="M36.5367,26.6211 L36.2241,26.8418"/>
            <path d="M36.5367,26.6211 L24.4418,6.35854"/>
            <path d="M35.3118,28.7412 L22.4275,7.15606"/>
            <path d="M34.7399,28.4926 L35.2181,28.8075"/>
            <path d="M34.7399,28.4926 L22.0946,7.3079"/>
            <path d="M35.2181,28.8075 L22.3337,7.22229"/>
            <path d="M-9.65385,-0.87309 L-9.74763,-0.806861"/>
            <path d="M-10.655,-1.53244 L-10.655,-3.64686"/>
            <path d="M-10.655,-1.53244 L-9.65385,-0.87309"/>
            <path d="M-9.65385,-0.87309 L0.0251673,-4.33918"/>
            <path d="M-10.7488,-3.61328 L-10.7488,-4.09939"/>
            <path d="M-10.7488,-3.61328 L-1.62508,-6.8805"/>
            <path d="M-10.4362,-4.32016 L-1.55155,-7.50177"/>
            <path d="M-10.7488,-4.09939 L-10.4362,-4.32016"/>
            <path d="M-10.7488,-4.09939 L-1.86415,-7.28101"/>
            <path d="M-9.2695,-0.491965 L0.170454,-3.87244"/>
            <path d="M-9.66946,-0.75538 L-9.2695,-0.491965"/>
            <path d="M-9.66946,-0.75538 L-9.74763,-0.806861"/>
            <path d="M-9.74763,-0.806861 L-0.0686116,-4.27295"/>
            <path d="M12.7352,-8.37192 L12.7352,-8.85804"/>
            <path d="M12.7352,-8.37192 L0.170454,-3.87244"/>
            <path d="M12.7352,-8.85804 L12.829,-8.92427"/>
            <path d="M12.7352,-8.85804 L-0.0686116,-4.27295"/>
            <path d="M12.829,-8.92427 L12.829,-11.8659"/>
            <path d="M12.829,-8.92427 L0.0251673,-4.33918"/>
            <path d="M12.7352,-12.023 L12.7352,-12.5091"/>
            <path d="M12.7352,-12.023 L-1.62508,-6.8805"/>
            <path d="M12.7352,-12.5091 L12.7352,-12.5091"/>
            <path d="M12.7352,-12.5091 L-1.86415,-7.28101"/>
            <path d="M13.0478,-12.7298 L-1.55155,-7.50177"/>
        </g>
    <g ifc:guid="0pvPAhveL9YwsbjhysZ3pH" ifc:name="A" class="IfcAnnotation material-null cut"/><g ifc:guid="3n6buwIKL0K8grVmAPYS2a" ifc:name="01" class="IfcAnnotation material-null cut"/></g>
</svg>