<svg xmlns="http://www.w3.org/2000/svg" xmlns:xlink="http://www.w3.org/1999/xlink" xmlns:ifc="http://www.ifcopenshell.org/ns" width="194mm" height="171.955mm" viewBox="0 0 194 171.955">
    <defs>
        <marker id="arrowend" markerWidth="10" markerHeight="7" refX="10" refY="3.5" orient="auto">
          <polygon points="0 0, 10 3.5, 0 7"/>
        </marker>
        <marker id="arrowstart" markerWidth="10" markerHeight="7" refX="0" refY="3.5" orient="auto">
          <polygon points="10 0, 0 3.5, 10 7"/>
        </marker>
    </defs>
    <g ifc:name="Elevation Tagfods detalje" class="section" ifc:plane="[[1.000000,0.000000,0.000000,0.000000],[0.000000,1.000000,0.000000,0.000000],[0.000000,0.000000,1.000000,0.000000],[0.000000,0.000000,0.000000,1.000000]]" ifc:matrix3="[[100.000001,0.000000,-682.970459],[0.000000,100.000001,438.406818],[0.000000,0.000000,1.000000]]">
        <g id="product-9c5b4dfc-47d1-45af-95c8-0b2e21e843fa" class="IfcBeam material-woodStructural projection" ifc:name="OverliggerFladenTop" ifc:guid="2SMqtyHz55hvN82ouXw4Fw">
            <path d="M79.7114,170.707 L79.7111,170.707"/>
            <path d="M79.7114,166.207 L79.7114,170.707"/>
        </g>
    <g id="product-6c9608e9-0181-458d-8709-cbf3946c2946" class="IfcBeam material-woodStructural projection" ifc:name="RemTop" ifc:guid="1ibWZf0O55ZOS9o$EKR2b6">
            <path d="M55.2114,119.407 L55.2114,119.407"/>
            <path d="M55.2114,119.407 L55.2114,119.407"/>
        </g>
        <g id="product-19a58286-b224-4312-8e85-4f966fb86ac2" class="IfcColumn material-woodStructural projection" ifc:name="C18 45x245 normalS&#248;jle" ifc:guid="0PfOA6iYH34ew5JvPlk6h2">
            <path d="M55.2111,123.907 L55.2114,123.907"/>
            <path d="M55.2111,390.407 L79.7111,390.407"/>
            <path d="M79.7111,390.407 L79.7111,123.907"/>
            <path d="M55.2111,390.407 L55.2111,123.907"/>
        </g>
        <g id="product-f66bb555-8b32-47cf-a9d0-2cdefd5ed2cb" class="IfcBeam material-woodStructural projection" ifc:name="RemTop" ifc:guid="3sQxLLYp97pwdGBDxzNjBB">
            <path d="M79.7114,119.407 L79.7114,119.407"/>
            <path d="M55.2114,119.407 L55.2114,119.407"/>
        </g>
        <g id="product-dac5e9c9-de7e-4edf-8e95-402ec4aef773" class="IfcColumn material-woodStructural projection" ifc:name="C18 45x245 normalS&#248;jle" ifc:guid="3QnUd9tdvEtuwLG2x4hlTp">
            <path d="M55.2111,123.907 L55.2114,123.907"/>
            <path d="M79.7111,390.407 L79.7111,390.407"/>
            <path d="M55.2111,123.907 L55.2111,123.907"/>
        </g>
        <g id="product-16af2402-aba3-465c-9a52-bde6c8bd0907" class="IfcBeam material-woodStructural projection" ifc:name="OverliggerTop" ifc:guid="0MhoG2gwD6N9fIlUR8lGa7">
            <path d="M79.7115,166.207 L79.7111,166.207"/>
            <path d="M79.7115,141.707 L79.7115,166.207"/>
            <path d="M79.7111,141.707 L79.7115,141.707"/>
        </g>
        <g id="product-ed8a44dd-5aa1-484e-b1c2-f5a810da0997" class="IfcBeam material-woodStructural projection" ifc:name="RemTop" ifc:guid="3jYaJTMg58Jh72zQWGsWcN">
            <path d="M55.2114,114.907 L55.2114,119.407"/>
            <path d="M55.2114,119.407 L79.7114,119.407"/>
            <path d="M79.7114,119.407 L79.7114,114.907"/>
            <path d="M79.7114,114.907 L55.2114,114.907"/>
        </g>
        <g id="product-d7398472-1b09-409a-b74e-9841ded6bd08" class="IfcColumn material-woodStructural projection" ifc:name="C18 45x245 SiderD&#248;reVinduer" ifc:guid="3NEOHo6mb0chTEc47Urhq8">
            <path d="M79.7111,390.407 L79.7114,390.407"/>
            <path d="M79.7114,390.407 L79.7114,170.707"/>
        </g>
        <g id="product-a234ee97-9540-4342-bbc4-7f689d32a937" class="IfcBeam material-woodStructural projection" ifc:name="RemTop" ifc:guid="2YDEwNbK13Ghl4VsYTCgat">
            <path d="M55.2114,119.407 L55.2114,123.907"/>
            <path d="M55.2114,123.907 L79.7114,123.907"/>
            <path d="M79.7114,123.907 L79.7114,119.407"/>
            <path d="M79.7114,119.407 L55.2114,119.407"/>
        </g>
        <g id="product-24322de5-0d5d-4e66-8358-7a7a88e96fcd" class="IfcMember material-wood projection" ifc:name="I-profil 45x400, normal sp&#230;r byg 1.010" ifc:guid="0aCYtb3LrEPeDOUdg8wM$D">
            <path d="M251.6,-60.8836 L251.6,-60.8836"/>
            <path d="M55.1775,114.907 L55.1775,114.907"/>
            <path d="M69.163,114.907 L69.163,114.907"/>
            <path d="M69.163,114.907 L69.163,114.907"/>
            <path d="M251.6,-60.8836 L251.6,-60.8836"/>
            <path d="M708.177,85.5494 L708.177,85.5494"/>
            <path d="M708.177,85.5494 L708.177,85.5494"/>
            <path d="M708.177,78.9026 L708.177,78.9026"/>
            <path d="M708.177,114.907 L708.177,114.907"/>
            <path d="M708.177,114.907 L708.177,114.907"/>
            <path d="M694.26,114.907 L694.26,114.907"/>
            <path d="M694.26,114.907 L694.26,114.907"/>
            <path d="M687.613,114.907 L687.613,114.907"/>
        </g>
        <g id="product-756db0e5-a96a-4bb3-b3dd-936a483e0665" class="IfcMember material-wood projection" ifc:name="I-profil 45x400, normal sp&#230;r byg 1.008" ifc:guid="1rRR3bgMfBixFTasf8FWPb">
            <path d="M251.6,-60.8836 L251.6,-60.8836"/>
            <path d="M55.1775,114.907 L55.1775,114.907"/>
            <path d="M69.163,114.907 L69.163,114.907"/>
            <path d="M69.163,114.907 L69.163,114.907"/>
            <path d="M251.6,-60.8836 L251.6,-60.8836"/>
            <path d="M708.177,85.5494 L708.177,85.5494"/>
            <path d="M708.177,85.5494 L708.177,85.5494"/>
            <path d="M708.177,78.9026 L708.177,78.9026"/>
            <path d="M708.177,114.907 L708.177,114.907"/>
            <path d="M708.177,114.907 L708.177,114.907"/>
            <path d="M694.26,114.907 L694.26,114.907"/>
            <path d="M694.26,114.907 L694.26,114.907"/>
            <path d="M687.613,114.907 L687.613,114.907"/>
        </g>
        <g id="product-467152f2-e003-4d1e-bcec-12220c6087d0" class="IfcMember material-wood projection" ifc:name="I-profil 45x400, normal sp&#230;r byg 1.013" ifc:guid="16SLBou0DD7hpi4Y8CO8VG">
            <path d="M381.711,-240.917 L226.639,-85.8446"/>
            <path d="M381.711,-247.563 L223.316,-89.1679"/>
            <path d="M381.711,-247.563 L381.711,-241.302"/>
            <path d="M381.711,-240.917 L381.711,-203.961"/>
            <path d="M381.711,-197.642 L381.711,-203.961"/>
            <path d="M381.711,-190.995 L251.6,-60.8836"/>
            <path d="M381.711,-197.642 L248.277,-64.2071"/>
            <path d="M381.711,-190.995 L381.711,-191.248"/>
            <path d="M381.711,-197.642 L381.711,-197.642"/>
            <path d="M55.1774,78.9706 L223.316,-89.1679"/>
            <path d="M55.1774,85.6173 L55.1774,78.9706"/>
            <path d="M55.1774,85.6173 L226.639,-85.8446"/>
            <path d="M223.316,-89.1679 L226.639,-85.8446"/>
            <path d="M226.639,-85.8446 L248.277,-64.2071"/>
            <path d="M55.1774,114.907 L55.1774,85.6173"/>
            <path d="M55.1774,114.907 L69.163,114.907"/>
            <path d="M69.163,114.907 L75.8098,114.907"/>
            <path d="M69.163,114.907 L248.277,-64.2071"/>
            <path d="M248.277,-64.2071 L251.6,-60.8836"/>
            <path d="M251.6,-60.8836 L75.8098,114.907"/>
            <path d="M708.177,85.5494 L581.343,-41.2849"/>
            <path d="M708.177,78.9026 L708.177,85.5494"/>
            <path d="M708.177,78.9026 L584.666,-44.6083"/>
            <path d="M708.177,85.5494 L708.177,114.907"/>
            <path d="M694.26,114.907 L708.177,114.907"/>
            <path d="M694.26,114.907 L559.706,-19.6475"/>
            <path d="M694.26,114.907 L688.769,114.907"/>
            <path d="M688.769,114.907 L687.613,114.907"/>
            <path d="M687.613,114.907 L556.382,-16.3241"/>
            <path d="M381.711,-192.151 L381.711,-197.642"/>
            <path d="M381.711,-192.151 L381.711,-190.995"/>
            <path d="M381.711,-190.995 L556.382,-16.3241"/>
            <path d="M559.706,-19.6475 L556.382,-16.3241"/>
            <path d="M559.706,-19.6475 L381.711,-197.642"/>
            <path d="M381.711,-240.917 L581.343,-41.2849"/>
            <path d="M381.711,-247.563 L381.711,-240.917"/>
            <path d="M381.711,-247.563 L584.666,-44.6083"/>
            <path d="M584.666,-44.6083 L581.343,-41.2849"/>
            <path d="M381.711,-240.917 L381.711,-197.642"/>
            <path d="M581.343,-41.2849 L559.706,-19.6475"/>
        </g>
        <g id="product-fd18cd1f-2a2a-419d-a731-269cfb15e322" class="IfcMember material-wood projection" ifc:name="I-profil 45x400, normal sp&#230;r byg 1.007" ifc:guid="3z6CqVAYf1dQSn9fpx5UCY">
            <path d="M251.6,-60.8836 L251.6,-60.8836"/>
            <path d="M55.1775,114.907 L55.1775,114.907"/>
            <path d="M69.163,114.907 L69.163,114.907"/>
            <path d="M69.163,114.907 L69.163,114.907"/>
            <path d="M251.6,-60.8836 L251.6,-60.8836"/>
            <path d="M708.177,85.5494 L708.177,85.5494"/>
            <path d="M708.177,85.5494 L708.177,85.5494"/>
            <path d="M708.177,78.9026 L708.177,78.9026"/>
            <path d="M708.177,114.907 L708.177,114.907"/>
            <path d="M708.177,114.907 L708.177,114.907"/>
            <path d="M694.26,114.907 L694.26,114.907"/>
            <path d="M694.26,114.907 L688.769,114.907"/>
            <path d="M688.769,114.907 L687.613,114.907"/>
            <path d="M687.613,114.907 L687.613,114.907"/>
        </g>
        <g id="product-1b42096a-2984-49fd-9b0e-a1655e98b6ae" class="IfcMember material-wood projection" ifc:name="I-profil 45x400, normal sp&#230;r byg 1.012" ifc:guid="0RGWbgAOH9$PiEeMLUcBQk">
            <path d="M226.639,-85.8446 L226.639,-85.8445"/>
            <path d="M223.316,-89.1679 L223.316,-89.1679"/>
            <path d="M251.6,-60.8836 L251.6,-60.8836"/>
            <path d="M248.277,-64.2071 L248.277,-64.2071"/>
            <path d="M381.711,-190.995 L381.711,-190.995"/>
            <path d="M55.1775,78.9706 L55.1775,78.9706"/>
            <path d="M55.1775,85.6173 L55.1775,85.6173"/>
            <path d="M55.1775,85.6173 L55.1775,85.6173"/>
            <path d="M226.639,-85.8446 L226.639,-85.8445"/>
            <path d="M248.277,-64.2071 L248.277,-64.2071"/>
            <path d="M55.1774,114.907 L55.1774,114.907"/>
            <path d="M69.163,114.907 L69.163,114.907"/>
            <path d="M75.8098,114.907 L75.8098,114.907"/>
            <path d="M69.163,114.907 L69.163,114.907"/>
            <path d="M251.6,-60.8836 L251.6,-60.8836"/>
            <path d="M75.8098,114.907 L75.8098,114.907"/>
            <path d="M708.177,85.5494 L708.177,85.5494"/>
            <path d="M708.177,85.5494 L708.177,85.5494"/>
            <path d="M708.177,78.9026 L708.177,78.9026"/>
            <path d="M708.177,114.907 L708.177,114.907"/>
            <path d="M708.177,114.907 L708.177,114.907"/>
            <path d="M694.26,114.907 L694.26,114.907"/>
            <path d="M687.613,114.907 L687.613,114.907"/>
            <path d="M381.711,-190.995 L381.711,-190.995"/>
            <path d="M556.382,-16.3241 L556.382,-16.3241"/>
            <path d="M556.382,-16.3241 L556.382,-16.3241"/>
            <path d="M559.706,-19.6475 L559.706,-19.6475"/>
            <path d="M381.711,-240.917 L381.711,-240.917"/>
            <path d="M581.343,-41.2849 L581.343,-41.2849"/>
            <path d="M559.706,-19.6475 L559.706,-19.6475"/>
        </g>
        <g id="product-b22fa1ed-787b-49c4-8ce7-898bf9a6a256" class="IfcMember material-wood projection" ifc:name="I-profil 45x400, normal sp&#230;r byg 1.011" ifc:guid="2oBw7jU7j9n8pdYOlvfg9M">
            <path d="M251.6,-60.8836 L251.6,-60.8836"/>
            <path d="M55.1774,114.907 L55.1774,114.907"/>
            <path d="M69.163,114.907 L69.163,114.907"/>
            <path d="M75.8098,114.907 L75.8098,114.907"/>
            <path d="M69.163,114.907 L69.163,114.907"/>
            <path d="M251.6,-60.8836 L251.6,-60.8836"/>
            <path d="M75.8098,114.907 L75.8098,114.907"/>
            <path d="M708.177,85.5494 L708.177,85.5494"/>
            <path d="M708.177,85.5494 L708.177,85.5494"/>
            <path d="M708.177,78.9026 L708.177,78.9026"/>
            <path d="M708.177,114.907 L708.177,114.907"/>
            <path d="M708.177,114.907 L708.177,114.907"/>
            <path d="M694.26,114.907 L694.26,114.907"/>
            <path d="M694.26,114.907 L694.26,114.907"/>
            <path d="M687.613,114.907 L687.613,114.907"/>
        </g>
        <g id="product-0cc1f449-00cf-4630-8b5e-7e102b8fb2ea" class="IfcMember material-woodStructural projection" ifc:name="OverVinduerS&#248;jle.003" ifc:guid="0CmVH90Cz6C8jUVX0hZxBg">
            <path d="M79.7114,141.707 L79.7114,141.707"/>
            <path d="M79.7114,141.707 L79.7114,141.707"/>
            <path d="M79.7114,141.707 L79.7114,141.707"/>
            <path d="M79.7114,141.707 L79.7114,141.707"/>
        </g>
        <g id="product-e99fa894-adc6-46d9-a7ad-2f32e70c635f" class="IfcMember material-woodStructural projection" ifc:name="OverVinduerS&#248;jle.003" ifc:guid="3fdwYKhSP6sQUjBpBd36DV">
            <path d="M79.7114,141.707 L79.7114,141.707"/>
            <path d="M79.7114,141.707 L79.7114,141.707"/>
            <path d="M79.7114,141.707 L79.7114,141.707"/>
            <path d="M79.7114,141.707 L79.7114,141.707"/>
        </g>
        <g id="product-08326425-b5b7-4fdf-bac7-e37e3d63de0f" class="IfcMember material-woodStructural projection" ifc:name="OverVinduerS&#248;jle.003" ifc:guid="08CcGbjRTFtxh7utuzOzuF">
            <path d="M79.7113,141.707 L79.7114,141.707"/>
            <path d="M79.7113,141.707 L79.7113,141.707"/>
            <path d="M79.7114,141.707 L79.7114,141.707"/>
            <path d="M79.7114,141.707 L79.7113,141.707"/>
        </g>
        <g id="product-c567ee87-1259-4ba3-b127-d44e8e6d9513" class="IfcMember material-woodStructural projection" ifc:name="OverVinduerS&#248;jle.003" ifc:guid="35P_w74bbBex4dr4wERPKJ">
            <path d="M79.7111,141.707 L79.7113,141.707"/>
            <path d="M55.2114,119.407 L55.2113,119.407"/>
            <path d="M55.2113,123.907 L55.2113,119.407"/>
            <path d="M55.2113,119.407 L55.2113,119.407"/>
            <path d="M79.7113,141.707 L79.7113,141.707"/>
            <path d="M79.7113,141.707 L79.7113,123.907"/>
            <path d="M79.7113,141.707 L79.7113,141.707"/>
        </g>
        <g id="product-a234ee97-9540-4342-bbc4-7f689d32a937-body" class="IfcBeam material-woodStructural cut" ifc:name="RemTop" ifc:guid="2YDEwNbK13Ghl4VsYTCgat">
            <path d="M55.2114,119.407 L55.2114,123.907 L79.7114,123.907 L79.7114,119.407 L55.2114,119.407"/>
        </g>
        <g id="product-ed8a44dd-5aa1-484e-b1c2-f5a810da0997-body" class="IfcBeam material-woodStructural cut" ifc:name="RemTop" ifc:guid="3jYaJTMg58Jh72zQWGsWcN">
            <path d="M55.2114,114.907 L55.2114,119.407 L79.7114,119.407 L79.7114,114.907 L55.2114,114.907"/>
        </g>
        </g>
</svg>