<svg xmlns="http://www.w3.org/2000/svg" xmlns:xlink="http://www.w3.org/1999/xlink" xmlns:ifc="http://www.ifcopenshell.org/ns" width="494.6mm" height="485.115mm" viewBox="0 0 494.6 485.115">
    <defs>
        <marker id="arrowend" markerWidth="10" markerHeight="7" refX="10" refY="3.5" orient="auto">
          <polygon points="0 0, 10 3.5, 0 7"/>
        </marker>
        <marker id="arrowstart" markerWidth="10" markerHeight="7" refX="0" refY="3.5" orient="auto">
          <polygon points="10 0, 0 3.5, 10 7"/>
        </marker>
    </defs>
    <g ifc:name="Elevation UK FUNDAMENT PLAN" class="section" ifc:plane="[[1.000000,0.000000,0.000000,0.000000],[0.000000,1.000000,0.000000,0.000000],[0.000000,0.000000,1.000000,0.000000],[0.000000,0.000000,0.000000,1.000000]]" ifc:matrix3="[[20.000000,0.000000,69.395371],[0.000000,20.000000,331.569501],[0.000000,0.000000,1.000000]]">
        <g id="product-256a069c-c609-41b3-b74e-eca59b8c5f29" class="IfcSlab material-concreteInsitu projection" ifc:name="Slab" ifc:guid="0bQWQSnWb1ixTExAMRZ5yf">
            <path d="M285.381,179.933 L49.0324,179.933"/>
            <path d="M285.381,433.52 L285.381,179.933"/>
            <path d="M407.981,433.52 L285.381,433.52"/>
            <path d="M407.981,143.923 L407.981,433.52"/>
            <path d="M433.491,143.923 L407.981,143.923"/>
            <path d="M433.491,57.3331 L433.491,143.923"/>
            <path d="M49.0324,57.3331 L433.491,57.3331"/>
            <path d="M49.0324,179.933 L49.0324,57.3331"/>
        </g>
        <g id="product-3728f14e-f507-4aa9-8b21-ee74ad4dd28b" class="IfcWall material-concreteInsitu projection" ifc:name="Wall" ifc:guid="0tAF5EzGTAgOiXxdIjJTAB">
            <path d="M408.981,434.52 L411.981,437.52"/>
            <path d="M284.381,434.52 L408.981,434.52"/>
            <path d="M281.381,437.52 L284.381,434.52"/>
            <path d="M411.981,437.52 L281.381,437.52"/>
        </g>
        <g id="product-c2da64bf-8783-4ca5-af85-74e2ccbe15fc" class="IfcWall material-concreteInsitu projection" ifc:name="Wall" ifc:guid="32scI$XuDCfQ_5TEBClXNy">
            <path d="M48.0323,180.933 L45.0323,183.933"/>
            <path d="M48.0324,56.3331 L48.0323,180.933"/>
            <path d="M45.0324,53.3331 L48.0324,56.3331"/>
            <path d="M45.0323,183.933 L45.0324,53.3331"/>
        </g>
        <g id="product-c3c8797a-5dfd-4e15-b373-04e529d1c287" class="IfcWall material-concreteInsitu projection" ifc:name="Wall" ifc:guid="33o7bwNVrE5RDp1EKfqSA7">
            <path d="M48.0324,56.3331 L45.0324,53.3331"/>
            <path d="M434.491,56.3331 L48.0324,56.3331"/>
            <path d="M437.491,53.3332 L434.491,56.3331"/>
            <path d="M437.491,53.3331 L437.491,53.3332"/>
            <path d="M45.0324,53.3331 L437.491,53.3331"/>
        </g>
        <g id="product-19893e01-f95a-4bb7-9064-7977d707d6a4" class="IfcWall material-concreteInsitu projection" ifc:name="Wall" ifc:guid="0PYJu1_LfBjv1aUNVN1zQa">
            <path d="M411.981,147.923 L408.981,144.923"/>
            <path d="M437.491,147.923 L411.981,147.923"/>
            <path d="M434.491,144.923 L437.491,147.923"/>
            <path d="M408.981,144.923 L434.491,144.923"/>
        </g>
        <g id="product-5ce7a8e9-4d2a-44cf-b3cb-0ca60ebea214" class="IfcWall material-concreteInsitu projection" ifc:name="Wall" ifc:guid="1SvwZfJIf4pxFB3AOElg8K">
            <path d="M408.981,144.923 L411.981,147.923"/>
            <path d="M408.981,434.52 L408.981,144.923"/>
            <path d="M411.981,437.52 L408.981,434.52"/>
            <path d="M411.981,147.923 L411.981,437.52"/>
        </g>
        <g id="product-3e690443-792e-41cc-8cc0-f9f3a6fc5f2a" class="IfcWall material-concreteInsitu projection" ifc:name="Wall" ifc:guid="0_QGH3UIv1p8p0_VEc$5yg">
            <path d="M437.491,53.3331 L437.491,147.923"/>
            <path d="M434.491,56.3331 L437.491,53.3331"/>
            <path d="M434.491,144.923 L434.491,56.3331"/>
            <path d="M437.491,147.923 L434.491,144.923"/>
            <path d="M437.491,147.923 L437.491,147.923"/>
        </g>
        <g id="product-d2378c24-66d2-408d-a96a-ee73847322e9" class="IfcWall material-concreteInsitu projection" ifc:name="Wall" ifc:guid="3IDumaPj90ZQbgxdE4SoBf">
            <path d="M284.381,434.52 L281.381,437.52"/>
            <path d="M284.381,180.933 L284.381,434.52"/>
            <path d="M281.381,183.933 L284.381,180.933"/>
            <path d="M281.381,437.52 L281.381,183.933"/>
        </g>
        <g id="product-37a6d2b1-141c-40b8-9091-c53654dd73fb" class="IfcWall material-concreteInsitu projection" ifc:name="Wall" ifc:guid="0tfjAn51n0k92HnJPKtNFx">
            <path d="M284.381,180.933 L281.381,183.933"/>
            <path d="M48.0323,180.933 L284.381,180.933"/>
            <path d="M45.0323,183.933 L48.0323,180.933"/>
            <path d="M281.381,183.933 L45.0323,183.933"/>
        </g>
        <g id="product-e8a314fd-8eb5-46c6-b873-5c5577d36d28" class="IfcReinforcingBar material-null projection" ifc:name="ReinforcingBar" ifc:guid="3eenJzZhL6nhXpN5Ltqsqe">
            <path d="M81.8772,180.933 L81.6504,179.933"/>
            <path d="M81.6505,179.933 L81.8774,180.933"/>
            <path d="M81.8776,180.933 L81.6509,179.933"/>
            <path d="M81.6518,179.933 L81.8788,180.933"/>
            <path d="M81.8792,180.933 L81.6526,179.933"/>
            <path d="M81.6548,179.933 L81.8821,180.933"/>
            <path d="M81.656,179.933 L81.8827,180.933"/>
            <path d="M81.6615,179.933 L81.8885,180.933"/>
            <path d="M81.8895,180.933 L81.6634,179.933"/>
            <path d="M81.6692,179.933 L81.8969,180.933"/>
            <path d="M81.8985,180.933 L81.6722,179.933"/>
            <path d="M81.6793,179.933 L81.9075,180.933"/>
            <path d="M81.9097,180.933 L81.6832,179.933"/>
            <path d="M81.6912,179.933 L81.9198,180.933"/>
            <path d="M81.9223,180.933 L81.6956,179.933"/>
            <path d="M81.7041,179.933 L81.933,180.933"/>
            <path d="M81.9365,180.933 L81.7104,179.933"/>
            <path d="M81.7189,179.933 L81.9473,180.933"/>
            <path d="M81.7341,179.933 L81.9617,180.933"/>
            <path d="M81.726,179.933 L81.9513,180.933"/>
            <path d="M81.9653,180.933 L81.7405,179.933"/>
            <path d="M81.7536,179.933 L81.9819,180.933"/>
            <path d="M81.7479,179.933 L81.9747,180.933"/>
            <path d="M81.7618,179.933 L81.989,180.933"/>
            <path d="M81.7583,179.933 L81.9845,180.933"/>
            <path d="M81.9905,180.933 L81.7643,179.933"/>
            <path d="M81.7692,179.933 L81.9967,180.933"/>
            <path d="M81.7672,179.933 L81.994,180.933"/>
            <path d="M81.7721,179.933 L81.9992,180.933"/>
            <path d="M81.7708,179.933 L81.9976,180.933"/>
            <path d="M81.9995,180.933 L81.7727,179.933"/>
            <path d="M81.7734,179.933 L82.0002,180.933"/>
            <path d="M81.7732,179.933 L82.0001,180.933"/>
        </g>
    <g class="cut 0bQWQSnWb1ixTExAMRZ5yf material-concreteInsitu IfcSlab"><path d="M190.89885711669922,179.93313507184592 L285.3808403015137,179.93313507184592 L285.3808403015137,332.1466322337112 L285.3808403015137,433.51962761029813 L358.9706802368164,433.51962761029813 L407.98091888427734,433.51962761029813 L407.98091888427734,259.69137863263694 L407.98091888427734,143.92309860334007 L423.29307556152344,143.92309860334007 L433.4908676147461,143.92309860334007 L433.4908676147461,91.94807724103538 L433.4908676147461,57.33314231977072 L202.7223777770996,57.33314231977072 L49.03236389160156,57.33314231977072 L49.03236389160156,130.92291549787132 L49.03236389160156,179.93313507184592 Z"/></g><g class="0PYJu1_LfBjv1aUNVN1zQa IfcWall 1SvwZfJIf4pxFB3AOElg8K material-concreteInsitu 0tAF5EzGTAgOiXxdIjJTAB 33o7bwNVrE5RDp1EKfqSA7 cut 0tfjAn51n0k92HnJPKtNFx 0_QGH3UIv1p8p0_VEc$5yg 3IDumaPj90ZQbgxdE4SoBf 32scI$XuDCfQ_5TEBClXNy"><path d="M411.58119201660156,147.52333358869163 L411.9809341430664,147.9230947886428 L434.09156799316406,147.9230947886428 L437.4908447265625,147.9230947886428 L437.49088287353516,65.93745903119651 L437.49088287353516,53.33312706098166 L436.19075775146484,54.633233109565644 L437.4908447265625,53.33312706098166 L97.32787132263184,53.33312706098166 L45.03236770629883,53.33312706098166 L45.03232955932617,166.53055862531272 L45.03232955932617,183.93314079389182 L76.52603149414062,183.93314079389182 L281.3809394836426,183.93314079389182 L281.61713255757013,183.69694598741626 L281.3809394836426,183.933150330635 L281.38086318969727,403.72749046430204 L281.38086318969727,437.51968101605985 L394.5774841308594,437.51968101605985 L411.9808578491211,437.51968101605985 L411.9809341430664,186.51255325421897 L411.9809341430664,147.92311386212913 L410.11420486232083,146.05635719512887 Z M435.79097747802734,146.22322754010764 L437.09110260009766,147.52333358869163 L437.4908447265625,147.9230947886428 Z M46.73220634460449,182.2332640086135 L45.432090759277344,183.53338913068382 L45.03232955932617,183.93314079389182 Z M410.1141285683755,435.65292434905956 L411.58111572265625,437.11990074262235 L411.9808578491211,437.51968101605985 Z M434.49085235595703,144.92310241803733 L412.3802185058594,144.92310241803733 L408.98094177246094,144.92310241803733 L408.9808654785156,395.93022064313504 L408.9808654785156,434.51966957196805 L300.98466873168945,434.51966957196805 L284.38085556030273,434.51966957196805 L283.98109436035156,434.9194307719192 L284.38085556030273,434.5196504984817 L284.38093185424805,214.725329438301 L284.38093185424805,180.9331388865432 L282.6810550689697,182.6330156718215 L283.9811706542969,181.3328905497512 L284.3809127807617,180.9331388865432 L79.5260238647461,180.9331388865432 L48.03232192993164,180.9331388865432 L48.0323600769043,72.93620781049339 L48.0323600769043,56.33311943158713 L99.52836990356445,56.33311943158713 L434.4908905029297,56.33311943158713 L434.49085235595703,133.1182737742385 Z"/></g></g>
</svg>